<?xml version="1.0" encoding="UTF-8"?>
<svg width="102px" height="97px" viewBox="0 0 102 97" version="1.1" xmlns="http://www.w3.org/2000/svg" xmlns:xlink="http://www.w3.org/1999/xlink">
    <!-- Generator: sketchtool 41 (35326) - http://www.bohemiancoding.com/sketch -->
    <title>E0A5D993-C293-419F-901B-C263456C0AD0</title>
    <desc>Created with sketchtool.</desc>
    <defs></defs>
    <g id="Verona-Dashboard" stroke="none" stroke-width="1" fill="none" fill-rule="evenodd">
        <g id="primereact-showcase" transform="translate(-1102.000000, -177.000000)">
            <g id="icon-widgets" transform="translate(1102.000000, 177.000000)">
                <path d="M101.624337,70.9316 C101.511937,70.5192 101.246337,70.1728 100.877537,69.96 L94.2331367,66.1204 C94.8951367,63.6024 95.2295367,61.0064 95.2295367,58.3884 C95.2295367,55.7704 94.8951367,53.1744 94.2331367,50.6532 L100.874737,46.8168 C101.640337,46.376 101.902737,45.3984 101.459137,44.6332 L95.0611367,33.5488 C94.8519367,33.1804 94.5023367,32.9148 94.0927367,32.8024 C93.6803367,32.696 93.2427367,32.7492 92.8775367,32.9648 L86.2043367,36.8168 C82.4647367,33.1084 77.8847367,30.4592 72.8363367,29.0848 L72.8363367,21.5996 C72.8363367,20.7152 72.1211367,20 71.2371367,20 L58.4411367,20 C57.5567367,20 56.8415367,20.7152 56.8415367,21.5996 L56.8415367,29.0848 C51.7931367,30.4596 47.2131367,33.1088 43.4735367,36.8168 L36.8003367,32.9648 C36.4319367,32.7492 36.0007367,32.696 35.5855367,32.8024 C35.1763367,32.9148 34.8263367,33.1804 34.6167367,33.5488 L28.2155367,44.6396 C27.7723367,45.4048 28.0347367,46.3824 28.7999367,46.8232 L35.4415367,50.6596 C34.7823367,53.1808 34.4479367,55.7736 34.4479367,58.3884 C34.4479367,61.0064 34.7823367,63.6024 35.4447367,66.1236 L28.8031367,69.96 C28.0379367,70.4004 27.7755367,71.3784 28.2187367,72.1436 L34.6167367,83.2276 C35.0543367,83.9932 36.0319367,84.2528 36.8003367,83.812 L43.4763367,79.96 C47.2127367,83.6684 51.7927367,86.3176 56.8411367,87.692 L56.8411367,95.1772 C56.8411367,96.0612 57.5563367,96.7768 58.4407367,96.7768 L71.2367367,96.7768 C72.1207367,96.7768 72.8359367,96.0612 72.8359367,95.1772 L72.8359367,87.692 C77.8843367,86.3172 82.4643367,83.668 86.2007367,79.96 L92.8767367,83.812 C93.6451367,84.2588 94.6231367,83.9932 95.0603367,83.2276 L101.461537,72.1436 C101.674337,71.7752 101.733537,71.3408 101.624337,70.9316 Z" id="Path" fill="#105A6E"></path>
                <path d="M93.0923367,80.2444 L86.7195367,76.5676 C86.0727367,76.1864 85.2543367,76.3144 84.7479367,76.8644 C81.0023367,80.8972 76.2067367,83.6716 70.8803367,84.8836 C70.1523367,85.0492 69.6371367,85.6956 69.6371367,86.4424 L69.6371367,93.5776 L60.0399367,93.5776 L60.0399367,86.4424 C60.0399367,85.6956 59.5247367,85.0492 58.7971367,84.8836 C53.4707367,83.6716 48.6747367,80.8972 44.9291367,76.8644 C44.4231367,76.3144 43.6015367,76.1864 42.9579367,76.5676 L36.5847367,80.2444 L31.7859367,71.928 L38.1251367,68.2696 C38.7715367,67.8976 39.0747367,67.1264 38.8527367,66.414 C38.0531367,63.8148 37.6467367,61.1156 37.6467367,58.3884 C37.6467367,55.664 38.0531367,52.968 38.8495367,50.3656 C39.0715367,49.6536 38.7683367,48.8848 38.1219367,48.5132 L31.7827367,44.8548 L36.5847367,36.5324 L42.9547367,40.2092 C43.6011367,40.5872 44.4199367,40.4624 44.9259367,39.9124 C48.6747367,35.8796 53.4703367,33.1052 58.7971367,31.8932 C59.5247367,31.7276 60.0399367,31.0808 60.0399367,30.3344 L60.0399367,23.1992 L69.6371367,23.1992 L69.6371367,30.3344 C69.6371367,31.0808 70.1523367,31.7276 70.8803367,31.8932 C76.2067367,33.1056 81.0023367,35.8796 84.7511367,39.9124 C85.2543367,40.4624 86.0787367,40.5876 86.7227367,40.2092 L93.0923367,36.5324 L97.8911367,44.8484 L91.5523367,48.5068 C90.9055367,48.8784 90.6023367,49.65 90.8243367,50.3624 C91.6243367,52.9616 92.0307367,55.6608 92.0307367,58.388 C92.0307367,61.1152 91.6243367,63.8144 90.8243367,66.4108 C90.6023367,67.1228 90.9055367,67.8944 91.5523367,68.2664 L97.8939367,71.9276 L93.0923367,80.2444 Z" id="Shape" fill="#EFFAFD"></path>
                <path d="M64.796,45.6 C57.7384,45.6 52,51.3392 52,58.396 C52,65.4528 57.7388,71.192 64.796,71.192 C71.8532,71.192 77.592,65.4528 77.592,58.396 C77.592,51.3392 71.8528,45.6 64.796,45.6 Z" id="Shape" fill="#2B9BB9"></path>
                <path d="M64.796,67.9932 C59.504,67.9932 55.1988,63.6884 55.1988,58.3964 C55.1988,53.1044 59.504,48.7996 64.796,48.7996 C70.0876,48.7996 74.3928,53.1044 74.3928,58.3964 C74.3928,63.6884 70.0876,67.9932 64.796,67.9932 Z" id="Path" fill="#EFFAFD"></path>
                <path d="M64.7996,36 C63.9152,36 63.2,36.7152 63.2,37.5992 C63.2,38.4836 63.9152,39.1988 64.7996,39.1988 C75.3836,39.1988 83.9936,47.8084 83.9936,58.39 C83.9936,59.274 84.7088,59.9896 85.5928,59.9896 C86.4772,59.9896 87.1924,59.274 87.1924,58.39 C87.1924,46.0436 77.1456,36 64.7996,36 Z" id="Shape" fill="#2B9BB9"></path>
                <path d="M64.7932,77.5936 C54.2088,77.5936 45.5992,68.984 45.5992,58.3996 C45.5992,57.5152 44.8836,56.8 43.9996,56.8 C43.1156,56.8 42.4,57.5152 42.4,58.3996 C42.4,70.7456 52.4468,80.7924 64.7932,80.7924 C65.6772,80.7924 66.3928,80.0772 66.3928,79.1932 C66.3928,78.3088 65.6772,77.5936 64.7932,77.5936 Z" id="Shape" fill="#2B9BB9"></path>
                <path d="M64.8148,56.8 L64.7808,56.8 C63.8996,56.8 63.2,57.5152 63.2,58.3996 C63.2,59.2836 63.9308,59.9992 64.8148,59.9992 C65.696,59.9992 66.4144,59.2836 66.4144,58.3996 C66.4144,57.5156 65.696,56.8 64.8148,56.8 Z" id="Shape" fill="#2B9BB9"></path>
                <path d="M20.0152,18.4 L19.9808,18.4 C19.0996,18.4 18.4,19.1156 18.4,19.9996 C18.4,20.8836 19.1308,21.5992 20.0152,21.5992 C20.896,21.5992 21.6144,20.8836 21.6144,19.9996 C21.6144,19.1152 20.896,18.4 20.0152,18.4 Z" id="Shape" fill="#2B9BB9"></path>
                <path d="M32.327465,29.8016745 L35.170265,30.5672745 C35.582265,30.6736745 36.016665,30.6204745 36.385465,30.4048745 C36.753865,30.1956745 37.019465,29.8456745 37.131865,29.4364745 L39.615465,20.1704745 C39.843465,19.3140745 39.337465,18.4396745 38.484665,18.2084745 L35.585465,17.4336745 C35.407865,16.2684745 35.107865,15.1312745 34.682665,14.0408745 L36.800665,11.9196745 C37.100665,11.6196745 37.269465,11.2136745 37.269465,10.7888745 C37.269465,10.3636745 37.100665,9.95767454 36.800665,9.65807454 L30.015465,2.87247454 C29.415465,2.27247454 28.353465,2.27247454 27.753865,2.87247454 L25.635465,4.99047454 C24.545065,4.56567454 23.408265,4.26567454 22.239865,4.08767454 L21.461865,1.18567454 C21.349465,0.773274535 21.084265,0.423274535 20.715465,0.214074535 C20.346665,-0.00152546452 19.919065,-0.0515254645 19.500265,0.0516745355 L10.231065,2.53847454 C9.82226504,2.65087454 9.47226504,2.91967454 9.26266504,3.28527454 C9.05026504,3.65367454 8.99066504,4.09127454 9.10346504,4.50047454 L9.86586504,7.34967454 C9.37826504,7.73047454 8.93466504,8.12127454 8.52226504,8.53047454 C8.12266504,8.93327454 7.73506504,9.37367454 7.35106504,9.86767454 L4.49546504,9.10207454 C3.63626504,8.88967454 2.76786504,9.38647454 2.53666504,10.2332745 L0.0546650372,19.5020745 C-0.173334963,20.3580745 0.332665037,21.2328745 1.18546504,21.4640745 L4.08626504,22.2388745 C4.26426504,23.4072745 4.56426504,24.5444745 4.99226504,25.6344745 L2.87106504,27.7560745 C2.57106504,28.0560745 2.40226504,28.4620745 2.40226504,28.8868745 C2.40226504,29.3116745 2.57106504,29.7176745 2.87106504,30.0176745 L9.65986504,36.8032745 C10.284665,37.4280745 11.296665,37.4280745 11.921465,36.8032745 L14.039465,34.6848745 C15.132665,35.1128745 16.266665,35.4128745 17.435465,35.5880745 L18.210265,38.4900745 C18.322665,38.8992745 18.588265,39.2492745 18.956665,39.4584745 C19.203465,39.6020745 19.478665,39.6740745 19.756665,39.6740745 C19.894265,39.6740745 20.034665,39.6552745 20.172265,39.6208745 L29.441065,37.1340745 C30.294265,36.9028745 30.799865,36.0280745 30.571865,35.1724745 L29.806665,32.3264745 C30.306665,31.9360745 30.743865,31.5516745 31.147065,31.1488745 C31.552665,30.7416745 31.940265,30.3016745 32.327465,29.8016745 Z" id="Path" fill="#105A6E"></path>
                <path d="M28.884665,28.8864745 C28.391465,29.3800745 27.813465,29.8516745 27.066665,30.3672745 C26.513465,30.7512745 26.257865,31.4448745 26.432265,32.0976745 L27.066665,34.4560745 L20.887465,36.1148745 L20.243865,33.7064745 C20.066265,33.0536745 19.497465,32.5788745 18.822265,32.5288745 C17.260665,32.4068745 15.761065,32.0072745 14.361465,31.3416745 C14.139465,31.2384745 13.905065,31.1884745 13.673865,31.1884745 C13.258665,31.1884745 12.849065,31.3508745 12.543065,31.6572745 L10.790665,33.4096745 L6.26386504,28.8860745 L8.01986504,27.1300745 C8.49746504,26.6520745 8.62266504,25.9240745 8.33546504,25.3120745 C7.66986504,23.9156745 7.27026504,22.4128745 7.14506504,20.8476745 C7.09186504,20.1728745 6.61986504,19.6072745 5.96706504,19.4292745 L3.55866504,18.7860745 L5.21466504,12.6064745 L7.58266504,13.2404745 C8.23906504,13.4060745 8.92906504,13.1560745 9.31346504,12.6000745 C9.81666504,11.8688745 10.285065,11.2940745 10.785065,10.7912745 C11.297065,10.2820745 11.891065,9.79807454 12.596665,9.31647454 C13.159065,8.93527454 13.418665,8.23887454 13.240265,7.57967454 L12.605865,5.21447454 L18.785065,3.55567454 L19.428665,5.96447454 C19.603865,6.62047454 20.172265,7.09207454 20.847065,7.14527454 C22.418665,7.27047454 23.921065,7.67007454 25.311465,8.33247454 C25.920265,8.62927454 26.651465,8.49807454 27.129465,8.02007454 L28.885065,6.26447454 L33.409065,10.7880745 L31.653065,12.5436745 C31.175465,13.0216745 31.050265,13.7496745 31.337865,14.3616745 C32.003065,15.7580745 32.403065,17.2608745 32.528265,18.8228745 C32.581465,19.4976745 33.053065,20.0632745 33.705865,20.2408745 L36.111465,20.8844745 L34.455465,27.0604745 L32.099865,26.4264745 C31.440665,26.2608745 30.753465,26.5044745 30.369465,27.0636745 C29.853465,27.8084745 29.384665,28.3864745 28.884665,28.8864745 Z" id="Shape" fill="#EFFAFD"></path>
                <path d="M19.9976,12 C15.5864,12 12,15.5864 12,19.9976 C12,24.4088 15.5864,27.9952 19.9976,27.9952 C24.4084,27.9952 27.9952,24.4088 27.9952,19.9976 C27.9952,15.586 24.4084,12 19.9976,12 Z M19.9976,24.796 C17.3516,24.796 15.1992,22.6436 15.1992,19.9976 C15.1992,17.3516 17.3516,15.1992 19.9976,15.1992 C22.6436,15.1992 24.796,17.3516 24.796,19.9976 C24.796,22.6436 22.6436,24.796 19.9976,24.796 Z" id="Shape" fill="#2B9BB9"></path>
            </g>
        </g>
    </g>
</svg>