<?xml version="1.0" encoding="UTF-8"?>
<svg width="150px" height="95px" viewBox="0 0 150 95" version="1.1" xmlns="http://www.w3.org/2000/svg" xmlns:xlink="http://www.w3.org/1999/xlink">
    <!-- Generator: sketchtool 41 (35326) - http://www.bohemiancoding.com/sketch -->
    <title>12B1FF9E-9CA0-4B5C-9D31-A9400A116349</title>
    <desc>Created with sketchtool.</desc>
    <defs></defs>
    <g id="Verona-Dashboard" stroke="none" stroke-width="1" fill="none" fill-rule="evenodd">
        <g id="primereact-showcase" transform="translate(-905.000000, -179.000000)">
            <g id="icon-ui" transform="translate(905.000000, 179.985915)">
                <rect id="Rectangle" fill="#F0FAFD" x="7.3943662" y="7.3943662" width="114.084507" height="84.5070423"></rect>
                <path d="M114.06469,91.6636075 L7.05526892,91.6636075 L7.05526892,7.05113716 L122.295935,7.05113716 L122.295935,27.0290162 C122.295935,27.6784979 122.819375,28.2042547 123.471911,28.2042547 C124.119448,28.2042547 124.647887,27.6784979 124.647887,27.0290162 L124.647887,5.87589865 L124.647887,3.52542164 C124.647887,1.58138495 123.062863,-2.84217094e-14 121.119959,-2.84217094e-14 L3.52763446,-2.84217094e-14 C1.58237754,-2.84217094e-14 0,1.58138495 0,3.52542164 L0,5.87589865 L0,92.838846 C0,93.4883276 0.525792799,94.0140845 1.17597618,94.0140845 L114.06469,94.0140845 C114.712227,94.0140845 115.240666,93.4883276 115.240666,92.838846 C115.240666,92.1893644 114.712227,91.6636075 114.06469,91.6636075 Z M4.70361063,36.4303365 L4.70361063,43.4814737 L4.70361063,50.5323169 L4.70361063,57.5834541 L4.70361063,64.6342974 L4.70361063,71.6854345 L4.70361063,78.7362778 L4.70361063,85.787415 L4.70361063,91.6630197 L2.35165828,91.6630197 L2.35165828,86.9626535 L3.52763446,86.9626535 C4.17752377,86.9626535 4.70361063,86.4368966 4.70361063,85.787415 C4.70361063,85.1376394 4.17752377,84.6121765 3.52763446,84.6121765 L2.35165828,84.6121765 L2.35165828,79.9115163 L3.52763446,79.9115163 C4.17752377,79.9115163 4.70361063,79.3860533 4.70361063,78.7362778 C4.70361063,78.0867962 4.17752377,77.5613332 3.52763446,77.5613332 L2.35165828,77.5613332 L2.35165828,72.8603792 L3.52763446,72.8603792 C4.17752377,72.8603792 4.70361063,72.3349162 4.70361063,71.6854345 C4.70361063,71.035659 4.17752377,70.510196 3.52763446,70.510196 L2.35165828,70.510196 L2.35165828,65.8098298 L3.52763446,65.8098298 C4.17752377,65.8098298 4.70361063,65.2840729 4.70361063,64.6345913 C4.70361063,63.9851096 4.17752377,63.4593528 3.52763446,63.4593528 L2.35165828,63.4593528 L2.35165828,58.7589865 L3.52763446,58.7589865 C4.17752377,58.7589865 4.70361063,58.2332296 4.70361063,57.583748 C4.70361063,56.9339725 4.17752377,56.4085095 3.52763446,56.4085095 L2.35165828,56.4085095 L2.35165828,51.7078493 L3.52763446,51.7078493 C4.17752377,51.7078493 4.70361063,51.1823864 4.70361063,50.5326108 C4.70361063,49.8831292 4.17752377,49.3576662 3.52763446,49.3576662 L2.35165828,49.3576662 L2.35165828,44.6567122 L3.52763446,44.6567122 C4.17752377,44.6567122 4.70361063,44.1309553 4.70361063,43.4814737 C4.70361063,42.8316981 4.17752377,42.3062352 3.52763446,42.3062352 L2.35165828,42.3062352 L2.35165828,37.6058689 L3.52763446,37.6058689 C4.17752377,37.6058689 4.70361063,37.080112 4.70361063,36.4306304 C4.70361063,35.7811488 4.17752377,35.2553919 3.52763446,35.2553919 L2.35165828,35.2553919 L2.35165828,30.5547318 L3.52763446,30.5547318 C4.17752377,30.5547318 4.70361063,30.0289749 4.70361063,29.3794932 C4.70361063,28.7297177 4.17752377,28.2042547 3.52763446,28.2042547 L2.35165828,28.2042547 L2.35165828,23.5035946 L3.52763446,23.5035946 C4.17752377,23.5035946 4.70361063,22.9778377 4.70361063,22.3283561 C4.70361063,21.6788744 4.17752377,21.1531176 3.52763446,21.1531176 L2.35165828,21.1531176 L2.35165828,16.4524574 L3.52763446,16.4524574 C4.17781784,16.4527513 4.70361063,15.9269945 4.70361063,15.2775128 C4.70361063,14.6277373 4.17752377,14.1022743 3.52763446,14.1022743 L2.35165828,14.1022743 L2.35165828,7.05113716 L4.70361063,7.05113716 L4.70361063,36.4303365 Z M2.35165828,3.52571552 C2.35165828,2.87858494 2.87892142,2.35047701 3.52763446,2.35047701 L5.92663762,2.35047701 C5.27674831,2.35047701 4.76242415,2.87623387 4.76242415,3.52571552 C4.76242415,4.17519716 5.30086185,4.70095403 5.94986896,4.70095403 C6.59975827,4.70095403 7.12584513,4.17519716 7.12584513,3.52571552 C7.12584513,2.87623387 6.60005233,2.35047701 5.94986896,2.35047701 L10.6305423,2.35047701 C9.98065301,2.35047701 9.46632885,2.87623387 9.46632885,3.52571552 C9.46632885,4.17519716 10.0047666,4.70095403 10.6537737,4.70095403 C11.303663,4.70095403 11.8297498,4.17519716 11.8297498,3.52571552 C11.8297498,2.87623387 11.303957,2.35047701 10.6537737,2.35047701 L15.3338589,2.35047701 C14.6839696,2.35047701 14.1696454,2.87623387 14.1696454,3.52571552 C14.1696454,4.17519716 14.7080831,4.70095403 15.3570902,4.70095403 C16.0069795,4.70095403 16.5330664,4.17519716 16.5330664,3.52571552 C16.5330664,2.87623387 16.0072736,2.35047701 15.3570902,2.35047701 L121.120253,2.35047701 C121.756321,2.35047701 122.296229,2.88769532 122.296229,3.52571552 L122.296229,4.70095403 L15.3567962,4.70095403 L10.6531855,4.70095403 L5.94957489,4.70095403 L2.35165828,4.70095403 L2.35165828,3.52571552 Z" id="Shape" fill="#105A6E"></path>
                <path d="M122.535211,32.7464789 C121.949061,32.7464789 121.478873,33.2862806 121.478873,33.953787 L121.478873,48.4405792 C121.478873,49.1077837 121.949061,49.6478873 122.535211,49.6478873 C123.116871,49.6478873 123.591549,49.1077837 123.591549,48.4405792 L123.591549,33.953787 C123.591549,33.2862806 123.116871,32.7464789 122.535211,32.7464789 Z" id="Shape" fill="#2B9BB9"></path>
                <path d="M96.4671773,40.481264 C96.0132883,40.9351558 96.0132883,41.6706233 96.4671773,42.1242246 L105.762894,51.4199992 C105.989838,51.6469451 106.284779,51.7605634 106.584369,51.7605634 C106.8796,51.7605634 107.17919,51.6469451 107.405844,51.4199992 C107.860024,50.9661074 107.860024,50.2306399 107.405844,49.7770386 L98.1101277,40.481264 C97.6565292,40.0273721 96.9210663,40.0273721 96.4671773,40.481264 Z" id="Shape" fill="#2B9BB9"></path>
                <path d="M149.659583,40.481264 C149.205694,40.0273721 148.470522,40.0273721 148.016633,40.481264 L138.720916,49.7770386 C138.266737,50.2309304 138.266737,50.966398 138.720916,51.4199992 C138.947861,51.6469451 139.243092,51.7605634 139.542392,51.7605634 C139.837623,51.7605634 140.136922,51.6469451 140.363867,51.4199992 L149.659583,42.1242246 C150.113472,41.6703327 150.113472,40.9351558 149.659583,40.481264 Z" id="Shape" fill="#2B9BB9"></path>
                <path d="M22.0774067,13.7323944 L12.7817483,13.7323944 C12.1395662,13.7323944 11.6197183,14.2046955 11.6197183,14.7887324 C11.6197183,15.3725051 12.1395662,15.8450704 12.7817483,15.8450704 L22.0774067,15.8450704 C22.7195888,15.8450704 23.2394366,15.3725051 23.2394366,14.7887324 C23.2394366,14.2046955 22.7195888,13.7323944 22.0774067,13.7323944 Z" id="Shape" fill="#2B9BB9"></path>
                <path d="M62.2107124,23.2394366 C62.857061,23.2394366 63.3802817,22.7668713 63.3802817,22.1830986 C63.3802817,21.5993259 62.857061,21.1267606 62.2107124,21.1267606 L31.8033721,21.1267606 C31.1570235,21.1267606 30.6338028,21.5993259 30.6338028,22.1830986 C30.6338028,22.7668713 31.1570235,23.2394366 31.8033721,23.2394366" id="Shape" fill="#2B9BB9"></path>
                <path d="M26.3203748,21.1267606 L14.8768083,21.1267606 C14.2443615,21.1267606 13.7323944,21.5993259 13.7323944,22.1830986 C13.7323944,22.7668713 14.2440753,23.2394366 14.8768083,23.2394366 L26.3203748,23.2394366 C26.9528216,23.2394366 27.4647887,22.7668713 27.4647887,22.1830986 C27.4647887,21.5990617 26.9528216,21.1267606 26.3203748,21.1267606 Z" id="Shape" fill="#2B9BB9"></path>
                <path d="M90.8450704,29.5774648 C90.8450704,28.9934279 90.3198119,28.5211268 89.6758144,28.5211268 L59.26814,28.5211268 C58.6218029,28.5211268 58.0985915,28.9934279 58.0985915,29.5774648 C58.0985915,30.1612375 58.6218029,30.6338028 59.26814,30.6338028 L89.6761069,30.6338028 C90.3198119,30.6335387 90.8450704,30.1612375 90.8450704,29.5774648 Z" id="Shape" fill="#2B9BB9"></path>
                <path d="M16.9014085,29.5774648 C16.9014085,30.1612375 17.4295969,30.6338028 18.0820823,30.6338028 L55.8615796,30.6338028 C56.5140651,30.6338028 57.0422535,30.1612375 57.0422535,29.5774648 C57.0422535,28.9934279 56.5140651,28.5211268 55.8615796,28.5211268 L18.0820823,28.5211268 C17.4295969,28.5211268 16.9014085,28.9934279 16.9014085,29.5774648 Z" id="Shape" fill="#2B9BB9"></path>
                <path d="M18.089863,44.3661972 L25.2199961,44.3661972 C25.8767815,44.3661972 26.4084507,43.8936319 26.4084507,43.3098592 C26.4084507,42.7258223 25.8770787,42.2535211 25.2199961,42.2535211 L18.089863,42.2535211 C17.4330777,42.2535211 16.9014085,42.7258223 16.9014085,43.3098592 C16.9014085,43.893896 17.4330777,44.3661972 18.089863,44.3661972 Z" id="Shape" fill="#2B9BB9"></path>
                <path d="M62.206026,44.3661972 C62.8549645,44.3661972 63.3802817,43.8936319 63.3802817,43.3098592 C63.3802817,42.7258223 62.8549645,42.2535211 62.206026,42.2535211 L29.6953824,42.2535211 C29.0464439,42.2535211 28.5211268,42.7258223 28.5211268,43.3098592 C28.5211268,43.8936319 29.0461503,44.3661972 29.6953824,44.3661972 L62.206026,44.3661972 Z" id="Shape" fill="#2B9BB9"></path>
                <path d="M18.089863,70.7746479 C17.4330777,70.7746479 16.9014085,71.2470081 16.9014085,71.831118 C16.9014085,72.4149637 17.4330777,72.8873239 18.089863,72.8873239 L25.2199961,72.8873239 C25.8767815,72.8873239 26.4084507,72.4149637 26.4084507,71.831118 C26.4084507,71.2470081 25.8770787,70.7746479 25.2199961,70.7746479 L18.089863,70.7746479 Z" id="Shape" fill="#2B9BB9"></path>
                <path d="M63.3802817,71.831118 C63.3802817,71.2470081 62.8549645,70.7746479 62.206026,70.7746479 L29.6953824,70.7746479 C29.0464439,70.7746479 28.5211268,71.2470081 28.5211268,71.831118 C28.5211268,72.4149637 29.0461503,72.8873239 29.6953824,72.8873239 L62.2057324,72.8873239 C62.8549645,72.8873239 63.3802817,72.4149637 63.3802817,71.831118 Z" id="Shape" fill="#2B9BB9"></path>
                <path d="M71.7161093,34.8591549 L20.1852992,34.8591549 C19.5380413,34.8591549 19.0140845,35.3317203 19.0140845,35.915493 C19.0140845,36.4992657 19.5377484,36.971831 20.1852992,36.971831 L71.7161093,36.971831 C72.3633672,36.971831 72.8873239,36.4992657 72.8873239,35.915493 C72.8870311,35.3317203 72.3633672,34.8591549 71.7161093,34.8591549 Z" id="Shape" fill="#2B9BB9"></path>
                <path d="M69.7183099,50.7040933 C69.7183099,50.1202476 69.198462,49.6478873 68.5562799,49.6478873 L47.6409032,49.6478873 C46.9984305,49.6478873 46.4788732,50.1202476 46.4788732,50.7040933 C46.4788732,51.2882031 46.9984305,51.7605634 47.6409032,51.7605634 L68.5562799,51.7605634 C69.198462,51.7605634 69.7183099,51.2882031 69.7183099,50.7040933 Z" id="Shape" fill="#2B9BB9"></path>
                <path d="M53.8732394,57.0422535 C53.8732394,56.4582167 53.345051,55.9859155 52.6925656,55.9859155 L14.9130682,55.9859155 C14.2605828,55.9859155 13.7323944,56.4582167 13.7323944,57.0422535 C13.7323944,57.6260262 14.2602876,58.0985915 14.9130682,58.0985915 L52.6925656,58.0985915 C53.345051,58.0985915 53.8732394,57.6260262 53.8732394,57.0422535 Z" id="Shape" fill="#2B9BB9"></path>
                <path d="M42.2535211,78.168882 C42.2535211,77.5850363 41.7218574,77.1126761 41.0650789,77.1126761 L14.9208366,77.1126761 C14.2640581,77.1126761 13.7323944,77.5850363 13.7323944,78.168882 C13.7323944,78.7529919 14.2637609,79.2253521 14.9208366,79.2253521 L41.0650789,79.2253521 C41.7221546,79.2253521 42.2535211,78.7529919 42.2535211,78.168882 Z" id="Shape" fill="#2B9BB9"></path>
                <path d="M79.2253521,64.4366197 C79.2253521,63.852847 78.7034876,63.3802817 78.0633609,63.3802817 L45.5281884,63.3802817 C44.8860277,63.3802817 44.3661972,63.852847 44.3661972,64.4366197 C44.3661972,65.0203924 44.8860277,65.4929577 45.5281884,65.4929577 L78.0633609,65.4929577 C78.7034876,65.4929577 79.2253521,65.0203924 79.2253521,64.4366197 Z" id="Shape" fill="#2B9BB9"></path>
                <path d="M42.2535211,64.4366197 C42.2535211,63.852847 41.737966,63.3802817 41.1010869,63.3802817 L18.0538427,63.3802817 C17.4169636,63.3802817 16.9014085,63.852847 16.9014085,64.4366197 C16.9014085,65.0203924 17.4169636,65.4929577 18.0538427,65.4929577 L41.1013751,65.4929577 C41.7382542,65.4929577 42.2535211,65.0203924 42.2535211,64.4366197 Z" id="Shape" fill="#2B9BB9"></path>
                <path d="M12.7817484,86.6197183 L22.0774067,86.6197183 C22.7195888,86.6197183 23.2394366,86.147153 23.2394366,85.5633803 C23.2394366,84.9793434 22.7195888,84.5070423 22.0774067,84.5070423 L12.7817484,84.5070423 C12.1395663,84.5070423 11.6197184,84.9793434 11.6197184,85.5633803 C11.6194279,86.147153 12.1395663,86.6197183 12.7817484,86.6197183 Z" id="Shape" fill="#2B9BB9"></path>
                <path d="M57.1932236,58.0985915 L71.6800158,58.0985915 C72.3472203,58.0985915 72.8873239,57.6260262 72.8873239,57.0422535 C72.8873239,56.4582167 72.3472203,55.9859155 71.6800158,55.9859155 L57.1932236,55.9859155 C56.5257172,55.9859155 55.9859155,56.4582167 55.9859155,57.0422535 C55.9859155,57.6260262 56.5257172,58.0985915 57.1932236,58.0985915 Z" id="Shape" fill="#2B9BB9"></path>
                <path d="M18.0898383,51.7605634 L44.2341054,51.7605634 C44.8908771,51.7605634 45.4225352,51.2882031 45.4225352,50.7040933 C45.4225352,50.1202476 44.8908771,49.6478873 44.2341054,49.6478873 L18.0898383,49.6478873 C17.4330666,49.6478873 16.9014085,50.1202476 16.9014085,50.7040933 C16.9014085,51.2882031 17.4330666,51.7605634 18.0898383,51.7605634 Z" id="Shape" fill="#2B9BB9"></path>
                <polygon id="Shape" fill="#105A6E" points="120.422535 71.8309859 108.495705 67.5472514 106.690141 60.2112676 116.152167 62.0351451"></polygon>
                <polygon id="Shape" fill="#105A6E" points="125.704225 71.8309859 137.629463 67.5472514 139.43662 60.2112676 129.971735 62.0351451"></polygon>
                <polygon id="Shape" fill="#105A6E" points="116.062539 61.2676056 109.859155 60.1264899 114.069166 54.9295775 119.366197 54.9295775"></polygon>
                <polygon id="Shape" fill="#105A6E" points="130.064549 61.2676056 136.267606 60.1264899 132.056489 54.9295775 126.760563 54.9295775"></polygon>
                <polygon id="Shape" fill="#105A6E" points="128.873239 62.9048119 124.8006 73.9847948 126.019165 82.3943662 119.966182 82.3943662 121.338506 73.9727949 117.253521 62.9048119 119.902771 54.9295775 126.165348 54.9295775"></polygon>
                <polygon id="Shape" fill="#105A6E" points="111.282667 73.3619456 115.140845 75.6142925 115.140845 84.5070423 108.802817 78.6156544 108.802817 68.6619718 111.282667 69.7664966"></polygon>
                <polygon id="Shape" fill="#105A6E" points="133.78812 73.3619456 129.929577 75.6142925 129.929577 84.5070423 136.267606 78.6156544 136.267606 68.6619718 133.78812 69.7664966"></polygon>
                <polygon id="Shape" fill="#105A6E" points="127.707916 72.8873239 126.097007 73.7064338 126.097007 75.244294 127.105339 83.4188623 124.944843 85.5594692 123.065954 85.5765893 121.185551 85.5594692 119.023238 83.4188623 120.033387 75.244294 120.033387 73.7064338 118.426112 72.8873239 116.197183 76.5371592 116.197183 89.7887324 118.498179 87.731955 123.065954 87.682956 127.634032 87.731955 129.929577 89.7887324 129.929577 76.5371592"></polygon>
                <polygon id="Shape" fill="#105A6E" points="125.808679 94.0140845 120.254888 94.0140845 118.309859 91.9017038 120.254888 89.7887324 125.808679 89.7887324 127.816901 91.9017038"></polygon>
                <polygon id="Shape" fill="#105A6E" points="115.140845 89.7887324 110.915493 85.3937169 110.915493 82.3943662 115.140845 84.9825624"></polygon>
                <polygon id="Shape" fill="#105A6E" points="129.929577 89.7887324 134.15493 85.3937169 134.15493 82.3943662 129.929577 84.9825624"></polygon>
                <polygon id="Shape" fill="#105A6E" points="127.138647 88.7675456 118.98993 88.7675456 117.373873 90.8450704 116.197183 90.2694804 118.951474 87.6760563 127.207081 87.6760563 129.929577 90.2694804 128.774083 90.8450704"></polygon>
            </g>
        </g>
    </g>
</svg>