<?xml version="1.0" encoding="UTF-8"?>
<svg width="59px" height="100px" viewBox="0 0 59 100" version="1.1" xmlns="http://www.w3.org/2000/svg" xmlns:xlink="http://www.w3.org/1999/xlink">
    <!-- Generator: sketchtool 41 (35326) - http://www.bohemiancoding.com/sketch -->
    <title>7700F804-2A9D-4E89-924D-75F9E15C85B9</title>
    <desc>Created with sketchtool.</desc>
    <defs></defs>
    <g id="Verona-Dashboard" stroke="none" stroke-width="1" fill="none" fill-rule="evenodd">
        <g id="primereact-showcase" transform="translate(-946.000000, -453.000000)">
            <g id="icon-mobile" transform="translate(946.000000, 453.000000)">
                <path d="M46.960241,0.353413655 L11.6293173,0.353413655 C5.4313253,0.353413655 0.387951807,5.39718876 0.387951807,11.5947791 L0.387951807,82.2558233 C0.387951807,82.2682731 0.391164659,82.2779116 0.391164659,82.2871486 C0.391164659,82.2935743 0.387951807,82.2995984 0.387951807,82.3060241 L0.387951807,88.7297189 C0.387951807,95.0341365 5.3248996,99.9714859 11.6293173,99.9714859 L46.960241,99.9714859 C53.2646586,99.9714859 58.2016064,95.0341365 58.2016064,88.7297189 L58.2016064,82.3562249 C58.2016064,82.3437751 58.1951807,82.3341365 58.1951807,82.3248996 C58.1951807,82.2995984 58.2016064,82.2811245 58.2016064,82.2558233 L58.2016064,11.5947791 C58.2016064,5.39678715 53.1578313,0.353413655 46.960241,0.353413655 Z" id="Shape" fill="#105A6E"></path>
                <path d="M46.960241,96.7598394 L11.6293173,96.7598394 C7.65220884,96.7598394 4.44337349,94.0028112 3.7502008,90.2546185 C5.77991968,92.2558233 8.56144578,93.4975904 11.6293173,93.4975904 L46.960241,93.4975904 C50.0277108,93.4975904 52.8096386,92.2558233 54.8389558,90.2546185 C54.1457831,94.0024096 50.9373494,96.7598394 46.960241,96.7598394 Z" id="Path" fill="#C8EDF7"></path>
                <path d="M46.960241,90.2855422 L29.8907631,90.2855422 C32.3120482,90.0345382 34.2128514,88.0052209 34.2128514,85.5180723 C34.2128514,82.8614458 32.0518072,80.7 29.3951807,80.7 C26.7385542,80.7 24.57751,82.8614458 24.57751,85.5180723 C24.57751,88.0052209 26.4779116,90.0345382 28.9,90.2855422 L11.6297189,90.2855422 C7.20120482,90.2855422 3.6,86.684739 3.6,82.2558233 L3.6,11.5947791 C3.6,7.16787149 7.20120482,3.56506024 11.6297189,3.56506024 L46.9606426,3.56506024 C51.3891566,3.56506024 54.9899598,7.16746988 54.9899598,11.5947791 L54.9899598,82.2558233 C54.9895582,86.684739 51.388755,90.2855422 46.960241,90.2855422 Z" id="Path" fill="#EFFAFD"></path>
                <path d="M29.3947791,87.1240964 C28.5104418,87.1240964 27.7891566,86.4024096 27.7891566,85.5180723 C27.7891566,84.6333333 28.5104418,83.9120482 29.3947791,83.9120482 C30.2795181,83.9120482 31.0008032,84.6333333 31.0008032,85.5180723 C31.0008032,86.4028112 30.2795181,87.1240964 29.3947791,87.1240964 Z" id="Path" fill="#EFFAFD"></path>
                <path d="M50.1718876,13.251004 L8.41767068,13.251004 C7.52971888,13.251004 6.81164659,13.9690763 6.81164659,14.8570281 L6.81164659,34.1281124 C6.81164659,35.0156627 7.52971888,35.7341365 8.41767068,35.7341365 L50.1718876,35.7341365 C51.0598394,35.7341365 51.7779116,35.0156627 51.7779116,34.1281124 L51.7779116,14.8570281 C51.7779116,13.9690763 51.0598394,13.251004 50.1718876,13.251004 Z" id="Shape" fill="#2B9BB9"></path>
                <polygon id="Path" fill="#EFFAFD" points="48.5662651 32.5220884 10.0236948 32.5220884 10.0236948 16.4626506 48.5662651 16.4626506"></polygon>
                <path d="M24.4767068,10.0393574 L34.1124498,10.0393574 C35,10.0393574 35.7184739,9.32088353 35.7184739,8.43333333 C35.7184739,7.54538153 35,6.82730924 34.1124498,6.82730924 L24.4767068,6.82730924 C23.5891566,6.82730924 22.8710843,7.54538153 22.8710843,8.43333333 C22.8710843,9.32088353 23.5891566,10.0393574 24.4767068,10.0393574 Z" id="Shape" fill="#105A6E"></path>
                <path d="M14.9417671,22.886747 L43.8485944,22.886747 C44.7361446,22.886747 45.4546185,22.1682731 45.4546185,21.2807229 C45.4546185,20.3927711 44.7361446,19.6746988 43.8485944,19.6746988 L14.9417671,19.6746988 C14.0538153,19.6746988 13.335743,20.3927711 13.335743,21.2807229 C13.335743,22.1682731 14.0538153,22.886747 14.9417671,22.886747 Z" id="Shape" fill="#2B9BB9"></path>
                <path d="M37.324498,26.0983936 L21.4658635,26.0983936 C20.5783133,26.0983936 19.860241,26.8164659 19.860241,27.7044177 C19.860241,28.5919679 20.5783133,29.3100402 21.4658635,29.3100402 L37.324498,29.3100402 C38.2124498,29.3100402 38.9305221,28.5919679 38.9305221,27.7044177 C38.9305221,26.8164659 38.2120482,26.0983936 37.324498,26.0983936 Z" id="Shape" fill="#2B9BB9"></path>
                <path d="M50.1718876,67.8526104 L8.41767068,67.8526104 C7.52971888,67.8526104 6.81164659,68.5710843 6.81164659,69.4586345 C6.81164659,70.3461847 7.52971888,71.0646586 8.41767068,71.0646586 L50.1718876,71.0646586 C51.0598394,71.0646586 51.7779116,70.3461847 51.7779116,69.4586345 C51.7779116,68.5710843 51.0598394,67.8526104 50.1718876,67.8526104 Z" id="Shape" fill="#2B9BB9"></path>
                <path d="M50.1718876,74.2767068 L8.41767068,74.2767068 C7.52971888,74.2767068 6.81164659,74.9947791 6.81164659,75.8823293 C6.81164659,76.7702811 7.52971888,77.4883534 8.41767068,77.4883534 L50.1718876,77.4883534 C51.0598394,77.4883534 51.7779116,76.7702811 51.7779116,75.8823293 C51.7779116,74.9947791 51.0598394,74.2767068 50.1718876,74.2767068 Z" id="Shape" fill="#2B9BB9"></path>
                <path d="M50.1718876,38.9461847 L8.41767068,38.9461847 C7.52971888,38.9461847 6.81164659,39.664257 6.81164659,40.5522088 L6.81164659,63.0349398 C6.81164659,63.9228916 7.52971888,64.6409639 8.41767068,64.6409639 L50.1718876,64.6409639 L50.1718876,64.6409639 L50.1718876,64.6409639 L50.1783133,64.6409639 C50.4481928,64.6409639 50.6927711,64.553012 50.9156627,64.4337349 C50.9409639,64.4212851 50.9690763,64.4273092 50.9939759,64.4148594 C51.0506024,64.3803213 51.0819277,64.3269076 51.1321285,64.2891566 C51.2228916,64.2200803 51.3076305,64.151004 51.3795181,64.0630522 C51.4453815,63.9879518 51.4955823,63.9064257 51.5457831,63.8188755 C51.5959839,63.7277108 51.6429719,63.6401606 51.67751,63.5425703 C51.7120482,63.435743 51.7277108,63.3293173 51.7401606,63.2192771 C51.7465863,63.1534137 51.7779116,63.1 51.7779116,63.0341365 L51.7779116,40.5514056 C51.7779116,39.664257 51.0598394,38.9461847 50.1718876,38.9461847 Z" id="Shape" fill="#2B9BB9"></path>
                <path d="M33.7610442,61.3759036 C33.764257,61.3759036 33.764257,61.3759036 33.764257,61.3726908 L40.5361446,50.0493976 L47.3421687,61.4293173 L33.7293173,61.4293173 L33.7610442,61.3759036 Z" id="Path" fill="#EFFAFD"></path>
                <polygon id="Path" fill="#EFFAFD" points="24.2570281 61.4293173 27.688755 56.2538153 30.5273092 60.5317269 29.9907631 61.4289157 24.2570281 61.4289157"></polygon>
                <path d="M10.0236948,42.1578313 L48.5662651,42.1578313 L48.5662651,57.2200803 L41.9160643,46.0975904 C41.3329317,45.1253012 39.7393574,45.1253012 39.1562249,46.0975904 L32.353012,57.4771084 L29.0248996,52.4618474 C28.4353414,51.5650602 26.9421687,51.5650602 26.353012,52.4618474 L20.4056225,61.4297189 L10.0236948,61.4297189 L10.0236948,42.1578313 L10.0236948,42.1578313 Z" id="Path" fill="#EFFAFD"></path>
            </g>
        </g>
    </g>
</svg>