<?xml version="1.0" encoding="UTF-8"?>
<svg width="100px" height="100px" viewBox="0 0 100 100" version="1.1" xmlns="http://www.w3.org/2000/svg" xmlns:xlink="http://www.w3.org/1999/xlink">
    <!-- Generator: sketchtool 41 (35326) - http://www.bohemiancoding.com/sketch -->
    <title>7C143626-BC7C-4497-9A8F-6496D1F19AA7</title>
    <desc>Created with sketchtool.</desc>
    <defs></defs>
    <g id="Verona-Dashboard" stroke="none" stroke-width="1" fill="none" fill-rule="evenodd">
        <g id="primereact-showcase" transform="translate(-1285.000000, -453.000000)">
            <g id="icon-themes" transform="translate(1285.000000, 453.000000)">
                <path d="M49.0253396,61.6639738 C50.3161926,58.8223484 51.433438,56.3637737 53.2205632,55.4510339 C54.5601276,54.763412 56.5695717,54.4956464 58.697482,54.2095754 C62.5334101,53.6983866 66.8806134,53.1141709 70.466944,49.9966008 C74.5191508,46.4716376 76.5498331,40.4820629 76.6776519,31.6839682 C76.8054707,22.6607558 73.8371908,14.6081204 68.3144831,9.01113867 C65.5044179,6.16152892 62.0492184,3.9494933 58.0459179,2.44026924 C53.7532714,0.821602102 48.7907453,0 43.2986284,0 C42.0687621,0 40.7931071,0.0426477507 39.5053716,0.123269526 C33.2459523,0.521899415 27.4463688,1.91252767 22.2708763,4.25990661 C17.3634916,6.48576867 13.1043586,9.52232747 9.61545076,13.2860402 C2.84456134,20.5869845 -0.543806054,30.0742591 0.0711270975,39.9996954 C0.76828515,51.2291013 3.93141087,59.9843535 9.46931646,66.0181339 C12.166566,68.9544023 15.4087991,71.199933 19.1048279,72.6910464 C22.718437,74.14847 26.7706438,74.8878924 31.1544781,74.8878924 C43.0157124,74.8880871 46.4892274,67.2445975 49.0253396,61.6639738 Z" id="Shape" fill="#105A6E"></path>
                <path d="M31.1544781,70.7315867 C15.0251478,70.7315867 5.459586,59.7288565 4.22075679,39.7426405 C3.67577326,30.9628512 6.67444918,22.5694234 12.6628381,16.1099444 C15.7741349,12.7538196 19.5859021,10.0395532 23.9880518,8.04367737 C28.7039032,5.90466872 34.0132548,4.63575208 39.770167,4.27061723 C40.9696373,4.19447444 42.1570273,4.15494251 43.2986284,4.15494251 C52.8489923,4.15494251 60.2681335,6.77028174 65.3551661,11.9275438 C70.089333,16.7274605 72.634408,23.7213021 72.5188645,31.6232098 C72.4122839,39.1738091 70.8474777,44.1577537 67.7359861,46.8628675 C65.0934882,49.1631197 61.5619092,49.6361397 58.1462634,50.0943596 C55.6528225,50.4275573 53.2994757,50.7424496 51.3266626,51.7527534 C48.2457618,53.3274096 46.7875362,56.5405963 45.2408508,59.9450163 C44.0293,62.6105981 42.7748831,65.3673176 40.6925667,67.40292 C38.3637704,69.6757141 35.3345037,70.7315867 31.1544781,70.7315867 Z" id="Path" fill="#EFFAFD"></path>
                <path d="M98.1012148,40.3587444 C92.8263854,40.3587444 76.8713801,41.2237677 76.8713801,52.1276553 C76.8713801,52.8915694 76.9627419,53.6338874 77.1300762,54.3455782 L40.5017835,91.257689 C38.5173427,93.2578836 38.5173427,96.5033897 40.5017835,98.503388 C41.4941013,99.4999514 42.7938155,100 44.0935298,100 C45.396166,100 46.6958803,99.4999514 47.6881981,98.5002467 L84.3710351,61.532575 C85.0314115,61.6766801 85.7192549,61.7565858 86.4254096,61.7565858 C91.7002391,61.7565858 95.9798287,57.4469792 95.9798287,52.1276553 C95.9796339,46.809902 103.378966,40.3587444 98.1012148,40.3587444 Z" id="Shape" fill="#105A6E"></path>
                <path d="M44.7478673,95.5400058 C44.5255991,95.7669616 44.2700198,95.8130988 44.0935298,95.8130988 C43.9199618,95.8130988 43.6643825,95.7671579 43.4391922,95.5400058 C43.0799786,95.1779761 43.0799786,94.5829045 43.4391922,94.2208748 L78.2258335,59.1617122 L79.0872448,58.2935477 C79.4828862,58.7721965 79.927228,59.2107943 80.4050756,59.6030586 L44.7478673,95.5400058 Z" id="Path" fill="#EFFAFD"></path>
                <path d="M91.8219899,52.1276553 C91.8219899,55.1277509 89.4021682,57.5696845 86.4254096,57.5696845 C83.4488458,57.5696845 81.0259073,55.1277509 81.0259073,52.1276553 C81.0259073,50.7027032 81.4642102,49.5905023 82.4078277,48.6275111 C83.3787173,47.6336963 84.8701161,46.7914471 86.8362455,46.1227523 C89.1921724,45.3221248 91.7945229,44.9202404 94.0438934,44.7223413 C92.9206692,46.8882371 91.8219899,49.4128251 91.8219899,52.1276553 Z" id="Path" fill="#EFFAFD"></path>
                <path d="M58.5219295,46.1883408 C63.0945004,46.1883408 66.8161435,42.3660718 66.8161435,37.6673627 C66.8161435,32.9700514 63.094306,29.1479821 58.5219295,29.1479821 C53.9462472,29.1479821 50.2242152,32.9700514 50.2242152,37.6673627 C50.2242152,42.3660718 53.9462472,46.1883408 58.5219295,46.1883408 Z" id="Shape" fill="#2B9BB9"></path>
                <path d="M58.5219295,33.4083713 C60.8065621,33.4083713 62.6690365,35.319406 62.6690365,37.6673627 C62.6690365,40.0167172 60.8065621,41.9277519 58.5219295,41.9277519 C56.2339911,41.9277519 54.3715167,40.0167172 54.3715167,37.6673627 C54.3715167,35.319406 56.2339911,33.4083713 58.5219295,33.4083713 Z" id="Path" fill="#EFFAFD"></path>
                <path d="M47.9820628,14.7982063 C47.9820628,11.3357662 45.1649944,8.52017937 41.7040359,8.52017937 C38.2430774,8.52017937 35.426009,11.3357662 35.426009,14.7982063 C35.426009,18.259273 38.2430774,21.0762332 41.7040359,21.0762332 C45.1649944,21.0762332 47.9820628,18.2590768 47.9820628,14.7982063 Z" id="Shape" fill="#2B9BB9"></path>
                <path d="M41.7040359,16.8904241 C40.5514294,16.8904241 39.6134529,15.9524184 39.6134529,14.7982063 C39.6134529,13.6439942 40.5514294,12.7059884 41.7040359,12.7059884 C42.8597814,12.7059884 43.7977578,13.6439942 43.7977578,14.7982063 C43.7977578,15.9524184 42.8597814,16.8904241 41.7040359,16.8904241 Z" id="Path" fill="#EFFAFD"></path>
                <path d="M25.1120095,14.3497758 C21.6511931,14.3497758 18.8340807,17.1655148 18.8340807,20.6277046 C18.8340807,24.0887172 21.6511931,26.9058296 25.1120095,26.9058296 C28.5730221,26.9058296 31.3901345,24.0887172 31.3901345,20.6277046 C31.3901345,17.1653187 28.5730221,14.3497758 25.1120095,14.3497758 Z" id="Shape" fill="#2B9BB9"></path>
                <path d="M25.1120095,22.7198898 C23.9564421,22.7198898 23.018451,21.7818986 23.018451,20.6277046 C23.018451,19.4737067 23.9564421,18.5341461 25.1120095,18.5341461 C26.264634,18.5341461 27.2057642,19.4737067 27.2057642,20.6277046 C27.2057642,21.7818986 26.264634,22.7198898 25.1120095,22.7198898 Z" id="Path" fill="#EFFAFD"></path>
                <path d="M22.8699552,35.426009 C22.8699552,31.9649423 20.0528868,29.1479821 16.5919283,29.1479821 C13.1309697,29.1479821 10.3139013,31.9649423 10.3139013,35.426009 C10.3139013,38.888449 13.1309697,41.7040359 16.5919283,41.7040359 C20.0528868,41.7040359 22.8699552,38.888449 22.8699552,35.426009 Z" id="Shape" fill="#2B9BB9"></path>
                <path d="M14.5015415,35.426009 C14.5015415,34.2717969 15.4395179,33.3337911 16.5921244,33.3337911 C17.74787,33.3337911 18.6858464,34.2717969 18.6858464,35.426009 C18.6858464,36.580221 17.74787,37.5182268 16.5921244,37.5182268 C15.4393217,37.5182268 14.5015415,36.580221 14.5015415,35.426009 Z" id="Path" fill="#EFFAFD"></path>
                <path d="M18.8341788,45.7399103 C15.3731662,45.7399103 12.5560538,48.5556054 12.5560538,52.0179372 C12.5560538,55.4788957 15.3731662,58.2959641 18.8341788,58.2959641 C22.2949952,58.2959641 25.1121076,55.4788957 25.1121076,52.0179372 C25.1121076,48.5554092 22.2949952,45.7399103 18.8341788,45.7399103 Z" id="Shape" fill="#2B9BB9"></path>
                <path d="M18.8341788,54.1116592 C17.6784152,54.1116592 16.7404241,53.1736827 16.7404241,52.0179372 C16.7404241,50.8637612 17.6784152,49.9240191 18.8341788,49.9240191 C19.9868033,49.9240191 20.9277373,50.8637612 20.9277373,52.0179372 C20.9279335,53.1734865 19.9868033,54.1116592 18.8341788,54.1116592 Z" id="Path" fill="#EFFAFD"></path>
            </g>
        </g>
    </g>
</svg>