<?xml version="1.0" encoding="UTF-8"?>
<svg width="83px" height="100px" viewBox="0 0 83 100" version="1.1" xmlns="http://www.w3.org/2000/svg" xmlns:xlink="http://www.w3.org/1999/xlink">
    <!-- Generator: sketchtool 41 (35326) - http://www.bohemiancoding.com/sketch -->
    <title>EF1D1541-6873-4EAA-B8EE-498FCADAB66D</title>
    <desc>Created with sketchtool.</desc>
    <defs></defs>
    <g id="Verona-Dashboard" stroke="none" stroke-width="1" fill="none" fill-rule="evenodd">
        <g id="primereact-showcase" transform="translate(-1293.000000, -174.000000)">
            <g id="icon-productivity" transform="translate(1293.000000, 174.000000)">
                <path d="M83,58.6951676 C83,51.2522629 80.9822975,44.2801459 77.5051199,38.2430809 C77.3942391,37.9669144 77.3172234,37.9163563 77.2658796,37.848402 C73.6696281,31.7640407 68.5718432,26.6859476 62.4591987,23.1066557 C62.3865527,23.0473995 62.3352089,22.970747 62.25,22.9196453 C57.7874582,20.4319723 53.0692898,18.7543151 48.0523441,17.9606082 L48.0523441,13.043431 L50.2366409,13.043431 C51.4437666,13.043431 52.4209376,12.0708682 52.4209376,10.8694352 L52.4209376,2.17399577 C52.4209376,0.972562749 51.4437666,0 50.2366409,0 L32.7633591,0 C31.5556872,0 30.5790624,0.972562749 30.5790624,2.17399577 L30.5790624,10.8694352 C30.5790624,12.0708682 31.5556872,13.043431 32.7633591,13.043431 L34.9476559,13.043431 L34.9476559,17.9600646 C29.930164,18.7537715 25.2125418,20.4314286 20.9635684,22.8511473 C20.6647911,22.9702034 20.6134473,23.0463123 20.5408013,23.1061121 C14.4358038,26.6810549 9.33364921,31.759148 5.74176735,37.8310057 C5.68223038,37.9076582 5.60521467,37.9582162 5.55387086,38.0435669 C2.01333281,44.2931931 0,51.256612 0,58.6957113 C0,66.1348106 2.01333281,73.0971421 5.48559451,79.1352944 C5.59210561,79.4071118 5.66038195,79.4326627 5.69916292,79.4924625 C9.29978415,85.5974819 14.4101319,90.6929713 20.5408013,94.2847668 C20.6134473,94.344023 20.6647911,94.4206755 20.75,94.4717772 C26.9953737,97.9874638 34.0087196,100 41.5,100 C48.9951038,100 56.0122733,97.9831147 62.0872292,94.5060262 C62.330293,94.4212192 62.3772671,94.3445666 62.4455434,94.293465 C68.5838598,90.7016695 73.7029469,85.5980255 77.2991985,79.484308 C80.9817513,73.1096457 83,66.1375287 83,58.6951676 Z" id="Path" fill="#105A6E"></path>
                <path d="M61.4020936,89.9671272 L60.3572182,88.1552455 C59.7523478,87.1065487 58.4132258,86.7566192 57.3727177,87.3538468 C56.3283882,87.9587173 55.9702699,89.2934719 56.571319,90.3383474 L57.6112812,92.1376731 C53.2243329,94.3464328 48.3466098,95.6975648 43.1828289,96 L43.1828289,93.9282642 C43.1828289,92.7212529 42.2067383,91.7451624 41.000273,91.7451624 C39.7932617,91.7451624 38.8171711,92.7212529 38.8171711,93.9282642 L38.8171711,96 C33.6539361,95.6975648 28.776213,94.3464328 24.3887188,92.1376731 L25.428681,90.3383474 C26.030276,89.2934719 25.6677905,87.9592632 24.6272823,87.3538468 C23.5785855,86.7484305 22.2394635,87.1147374 21.6427818,88.1552455 L20.6022736,89.9714945 C16.4069405,87.1960783 12.8044676,83.5930595 10.0290514,79.3977264 L11.8447545,78.3572182 C12.8852626,77.7523478 13.2477481,76.4175931 12.6466991,75.3727177 C12.0412827,74.3327555 10.7108954,73.9702699 9.66219855,74.571319 L7.86287282,75.6112812 C5.65411315,71.2243329 4.30298112,66.3466098 4,61.1828289 L6.07228169,61.1828289 C7.27874706,61.1828289 8.25483759,60.2067383 8.25483759,59.000273 C8.25483759,57.7932617 7.27874706,56.8171711 6.07228169,56.8171711 L4,56.8171711 C4.30298112,51.6539361 5.65411315,46.776213 7.86287282,42.3887188 L9.66219855,43.428681 C10.0077608,43.6246634 10.3822564,43.7185603 10.7534765,43.7185603 C11.5035595,43.7185603 12.2416324,43.3260496 12.6466991,42.6272823 C13.248294,41.5829528 12.8858085,40.2481981 11.8447545,39.6427818 L10.0290514,38.6022736 C12.8044676,34.4069405 16.4074864,30.8044676 20.6022736,28.0290514 L21.6427818,29.8447545 C22.0473025,30.5440676 22.7853755,30.9365783 23.5360044,30.9365783 C23.9072245,30.9365783 24.2817201,30.8426815 24.6272823,30.6466991 C25.6672445,30.0412827 26.0297301,28.7065281 25.428681,27.6621985 L24.3887188,25.8623269 C28.776213,23.6541132 33.6539361,22.3024352 38.8171711,22 L38.8171711,24.0722817 C38.8171711,25.2787471 39.7932617,26.2548376 41.000273,26.2548376 C42.2067383,26.2548376 43.1828289,25.2787471 43.1828289,24.0722817 L43.1828289,22 C48.3466098,22.3029811 53.2243329,23.6541132 57.6112812,25.8623269 L56.571319,27.6621985 C55.969724,28.7065281 56.3322095,30.0407368 57.3727177,30.6466991 C57.7182799,30.8426815 58.0933214,30.9365783 58.4645415,30.9365783 C59.2146245,30.9365783 59.9526975,30.5440676 60.3572182,29.8447545 L61.3977264,28.0290514 C65.5936055,30.8044676 69.191711,34.4031191 71.9671272,38.5979064 L70.1552455,39.6427818 C69.110916,40.2476522 68.7527978,41.5829528 69.3538468,42.6272823 C69.7627349,43.3260496 70.4964405,43.7185603 71.2465235,43.7185603 C71.6221109,43.7185603 71.9971524,43.6246634 72.3383474,43.428681 L74.1376731,42.3887188 C76.3464328,46.776213 77.6975648,51.6539361 78,56.8171711 L75.9282642,56.8171711 C74.7212529,56.8171711 73.7451624,57.7932617 73.7451624,59.000273 C73.7451624,60.2067383 74.7212529,61.1828289 75.9282642,61.1828289 L78,61.1828289 C77.6975648,66.3466098 76.3464328,71.2243329 74.1376731,75.6112812 L72.3383474,74.571319 C71.2934719,73.969724 69.9592632,74.3283882 69.3538468,75.3727177 C68.7522519,76.4175931 69.110916,77.7518019 70.1552455,78.3572182 L71.9671272,79.4020936 C69.1922569,83.5974268 65.5979727,87.191711 61.4020936,89.9671272 Z" id="Path" fill="#EFFAFD"></path>
                <path d="M39,13 L43,13 L43,17 C42.3362511,16.9658537 41.6760035,16.9014634 41.0002501,16.9014634 C40.3239965,16.9014634 39.6637489,16.9658537 39,17 L39,13 Z" id="Path" fill="#EFFAFD"></path>
                <path d="M57.3017346,39.6343578 L44.2829088,52.6514934 C43.4361515,52.2451143 42.4972965,52.0002032 41.4988488,52.0002032 C37.9151638,52.0002032 35,54.9158378 35,58.5001016 C35,62.0843653 37.9151638,65 41.4988488,65 C45.0825337,65 47.9976976,62.0843653 47.9976976,58.5001016 C47.9976976,57.5009508 47.7522842,56.5619442 47.3459707,55.7150501 L60.3653383,42.6984563 C61.2115539,41.8515622 61.2115539,40.48071 60.3653383,39.6343578 C59.5191228,38.7885474 58.148492,38.7885474 57.3017346,39.6343578 Z" id="Shape" fill="#2B9BB9"></path>
                <path d="M41.5003126,61 C40.1229211,61 39,59.8770789 39,58.5003126 C39,57.1229211 40.1229211,56 41.5003126,56 C42.8770789,56 44,57.1229211 44,58.5003126 C44,59.8770789 42.8770789,61 41.5003126,61 Z" id="Path" fill="#EFFAFD"></path>
                <polygon id="Shape" fill="#EFFAFD" points="35 4 48 4 48 8 35 8"></polygon>
            </g>
        </g>
    </g>
</svg>