<?xml version="1.0" encoding="UTF-8"?>
<svg width="148px" height="100px" viewBox="0 0 148 100" version="1.1" xmlns="http://www.w3.org/2000/svg" xmlns:xlink="http://www.w3.org/1999/xlink">
    <!-- Generator: sketchtool 41 (35326) - http://www.bohemiancoding.com/sketch -->
    <title>1185F372-C020-4743-A0FC-3D475B138271</title>
    <desc>Created with sketchtool.</desc>
    <defs></defs>
    <g id="Verona-Dashboard" stroke="none" stroke-width="1" fill="none" fill-rule="evenodd">
        <g id="primereact-showcase" transform="translate(-1083.000000, -453.000000)">
            <g id="icon-community" transform="translate(1083.000000, 453.000000)">
                <path d="M24.1316964,46.4352679 C36.9276786,46.4352679 47.3388393,36.0241071 47.3388393,23.228125 C47.3388393,10.4321429 36.9276786,0.0209821429 24.1316964,0.0209821429 C11.3357143,0.0209821429 0.924107143,10.4316964 0.924107143,23.2276786 C0.924107143,36.0236607 11.3357143,46.4352679 24.1316964,46.4352679 Z" id="Shape" fill="#2B9BB9"></path>
                <path d="M12.2004464,38.7888393 C18.7589286,35.9803571 18.7763393,34.8558036 18.7763393,33.9392857 L18.7763393,33.6147321 C20.5544643,34.9013393 22.4267857,35.7241071 24.128125,35.7241071 C25.8294643,35.7241071 27.7053571,34.9013393 29.4870536,33.6129464 L29.4870536,33.9388393 C29.4870536,34.8558036 29.5044643,35.9799107 36.0629464,38.7883929 C32.7504464,41.3339286 28.6223214,42.8642857 24.13125,42.8642857 C19.6401786,42.8642857 15.5125,41.3339286 12.2004464,38.7888393 Z" id="Path" fill="#EFFAFD"></path>
                <path d="M24.128125,32.1535714 C21.265625,32.1535714 15.2058036,26.6553571 15.2058036,20.5325893 C15.2058036,14.8526786 18.9575893,10.7316964 24.128125,10.7316964 C29.3022321,10.7316964 33.0575893,14.8526786 33.0575893,20.5325893 C33.0575893,26.7741071 27.0674107,32.1535714 24.128125,32.1535714 Z" id="Path" fill="#EFFAFD"></path>
                <path d="M24.1316964,3.59107143 C34.9575893,3.59107143 43.7683036,12.4 43.7683036,23.2276786 C43.7683036,28.1580357 41.9276786,32.6558036 38.91875,36.1075893 C36.4883929,35.1053571 33.978125,33.925 33.0575893,33.2870536 L33.0575893,30.096875 C35.1424107,27.3772321 36.6276786,23.9919643 36.6276786,20.5330357 C36.6276786,12.909375 31.2549107,7.16160714 24.128125,7.16160714 C17.0049107,7.16160714 11.6357143,12.909375 11.6357143,20.5330357 C11.6357143,23.9919643 13.1245536,27.3790179 15.2058036,30.0986607 L15.2058036,33.2875 C14.2852679,33.9258929 11.775,35.1058036 9.34508929,36.1080357 C6.33616071,32.65625 4.49508929,28.1584821 4.49508929,23.228125 C4.49464286,12.4 13.3058036,3.59107143 24.1316964,3.59107143 Z" id="Path" fill="#EFFAFD"></path>
                <path d="M123.190625,99.990625 C135.986607,99.990625 146.397768,89.5794643 146.397768,76.7834821 C146.397768,63.9870536 135.986607,53.5763393 123.190625,53.5763393 C110.394643,53.5763393 99.9834821,63.9875 99.9834821,76.7834821 C99.9834821,89.5790179 110.394643,99.990625 123.190625,99.990625 Z" id="Shape" fill="#2B9BB9"></path>
                <path d="M111.259375,92.3441964 C117.817857,89.5339286 117.835268,88.4111607 117.835268,87.4941964 L117.835268,87.1696429 C119.613393,88.4566964 121.489286,89.2794643 123.190625,89.2794643 C124.891964,89.2794643 126.768304,88.4566964 128.545982,87.1696429 L128.545982,87.4941964 C128.545982,88.4116071 128.563393,89.5339286 135.121875,92.3441964 C131.809375,94.8892857 127.677679,96.4200893 123.190179,96.4200893 C118.702679,96.4200893 114.571875,94.8892857 111.259375,92.3441964 Z" id="Path" fill="#EFFAFD"></path>
                <path d="M123.190625,85.7089286 C120.251339,85.7089286 114.264732,80.3285714 114.264732,74.0879464 C114.264732,68.4080357 118.020089,64.2866071 123.190625,64.2866071 C128.361161,64.2866071 132.116518,68.4080357 132.116518,74.0879464 C132.116518,80.2102679 126.053125,85.7089286 123.190625,85.7089286 Z" id="Path" fill="#EFFAFD"></path>
                <path d="M123.190625,57.1459821 C134.016518,57.1459821 142.827232,65.9549107 142.827232,76.7830357 C142.827232,81.7129464 140.986607,86.2107143 137.977679,89.6629464 C135.547768,88.6584821 133.037054,87.4799107 132.116518,86.8419643 L132.116518,83.6517857 C134.201339,80.9321429 135.687054,77.5464286 135.687054,74.0879464 C135.687054,66.4642857 130.313839,60.7165179 123.190625,60.7165179 C116.067411,60.7165179 110.694643,66.4642857 110.694643,74.0879464 C110.694643,77.5464286 112.179911,80.9321429 114.264732,83.6517857 L114.264732,86.8419643 C113.344196,87.4803571 110.833929,88.6584821 108.403571,89.6629464 C105.394643,86.2111607 103.554018,81.7129464 103.554018,76.7830357 C103.554018,65.9549107 112.364732,57.1459821 123.190625,57.1459821 Z" id="Path" fill="#EFFAFD"></path>
                <path d="M58.05,27.5357143 L58.05,44.65 C58.05,45.6366071 58.8486607,46.4352679 59.8352679,46.4352679 L145.523214,46.4352679 C146.509821,46.4352679 147.308482,45.6366071 147.308482,44.65 L147.308482,1.80580357 C147.308482,0.819196429 146.509821,0.0205357143 145.523214,0.0205357143 L59.8348214,0.0205357143 C58.8482143,0.0205357143 58.0495536,0.819196429 58.0495536,1.80580357 L58.0495536,18.9183036 L55.0022321,21.965625 C54.6674107,22.3004464 54.4794643,22.7535714 54.4794643,23.2276786 C54.4794643,23.7022321 54.6678571,24.1553571 55.0022321,24.4897321 L58.05,27.5357143 Z" id="Shape" fill="#105A6E"></path>
                <path d="M61.096875,20.9196429 C61.4316964,20.5848214 61.6200893,20.13125 61.6200893,19.6575893 L61.6200893,3.59107143 L143.7375,3.59107143 L143.7375,42.8647321 L61.6200893,42.8647321 L61.6200893,26.7964286 C61.6200893,26.321875 61.4316964,25.86875 61.096875,25.5339286 L58.7888393,23.2272321 L61.096875,20.9196429 Z" id="Path" fill="#EFFAFD"></path>
                <path d="M89.2727679,55.3611607 C89.2727679,54.3741071 88.4741071,53.5758929 87.4875,53.5758929 L1.79910714,53.5758929 C0.8125,53.5758929 0.0138392857,54.3741071 0.0138392857,55.3611607 L0.0138392857,98.2053571 C0.0138392857,99.1919643 0.8125,99.990625 1.79910714,99.990625 L87.4870536,99.990625 C88.4736607,99.990625 89.2723214,99.1919643 89.2723214,98.2053571 L89.2723214,77.5223214 L92.3196429,74.475 C93.0169643,73.7776786 93.0169643,72.6477679 92.3196429,71.9508929 L89.2723214,68.9035714 L89.2723214,55.3611607 L89.2727679,55.3611607 Z" id="Shape" fill="#105A6E"></path>
                <path d="M86.2254464,75.5205357 C85.890625,75.8553571 85.7022321,76.3089286 85.7022321,76.7830357 L85.7022321,96.4196429 L3.584375,96.4196429 L3.584375,57.1459821 L85.7017857,57.1459821 L85.7017857,69.6424107 C85.7017857,70.1165179 85.8901786,70.5696429 86.225,70.9044643 L88.5330357,73.2125 L86.2254464,75.5205357 Z" id="Path" fill="#EFFAFD"></path>
                <path d="M76.7763393,64.2866071 L12.5102679,64.2866071 C11.5232143,64.2866071 10.725,65.0852679 10.725,66.071875 C10.725,67.0584821 11.5232143,67.8571429 12.5102679,67.8571429 L76.7763393,67.8571429 C77.7629464,67.8571429 78.5616071,67.0584821 78.5616071,66.071875 C78.5620536,65.0852679 77.7629464,64.2866071 76.7763393,64.2866071 Z" id="Shape" fill="#2B9BB9"></path>
                <path d="M76.7763393,74.9977679 L12.5102679,74.9977679 C11.5232143,74.9977679 10.725,75.7959821 10.725,76.7830357 C10.725,77.7696429 11.5232143,78.5678571 12.5102679,78.5678571 L76.7763393,78.5678571 C77.7629464,78.5678571 78.5616071,77.7696429 78.5616071,76.7830357 C78.5620536,75.7959821 77.7629464,74.9977679 76.7763393,74.9977679 Z" id="Shape" fill="#2B9BB9"></path>
                <path d="M44.6433036,85.7089286 L12.5102679,85.7089286 C11.5232143,85.7089286 10.725,86.5071429 10.725,87.49375 C10.725,88.4808036 11.5232143,89.2790179 12.5102679,89.2790179 L44.6433036,89.2790179 C45.6299107,89.2790179 46.4285714,88.4808036 46.4285714,87.49375 C46.4285714,86.5071429 45.6299107,85.7089286 44.6433036,85.7089286 Z" id="Shape" fill="#2B9BB9"></path>
                <path d="M70.5459821,14.3022321 L134.812054,14.3022321 C135.798661,14.3022321 136.597321,13.5035714 136.597321,12.5169643 C136.597321,11.5299107 135.798661,10.7316964 134.812054,10.7316964 L70.5459821,10.7316964 C69.5589286,10.7316964 68.7607143,11.5299107 68.7607143,12.5169643 C68.7607143,13.5035714 69.559375,14.3022321 70.5459821,14.3022321 Z" id="Shape" fill="#2B9BB9"></path>
                <path d="M70.5459821,25.0129464 L134.812054,25.0129464 C135.798661,25.0129464 136.597321,24.2142857 136.597321,23.2276786 C136.597321,22.2410714 135.798661,21.4424107 134.812054,21.4424107 L70.5459821,21.4424107 C69.5589286,21.4424107 68.7607143,22.2410714 68.7607143,23.2276786 C68.7607143,24.2147321 69.559375,25.0129464 70.5459821,25.0129464 Z" id="Shape" fill="#2B9BB9"></path>
                <path d="M70.5459821,35.7241071 L102.679018,35.7241071 C103.665625,35.7241071 104.464286,34.9254464 104.464286,33.9388393 C104.464286,32.9517857 103.665625,32.1535714 102.679018,32.1535714 L70.5459821,32.1535714 C69.5589286,32.1535714 68.7607143,32.9517857 68.7607143,33.9388393 C68.7607143,34.9254464 69.559375,35.7241071 70.5459821,35.7241071 Z" id="Shape" fill="#2B9BB9"></path>
            </g>
        </g>
    </g>
</svg>