<?xml version="1.0" encoding="UTF-8"?>
<svg width="216px" height="48px" viewBox="0 0 216 48" version="1.1" xmlns="http://www.w3.org/2000/svg" xmlns:xlink="http://www.w3.org/1999/xlink">
    <!-- Generator: Sketch 46.1 (44463) - http://www.bohemiancoding.com/sketch -->
    <title>primereact-logo-v2.2@3x</title>
    <desc>Created with Sketch.</desc>
    <defs></defs>
    <g id="Page-1" stroke="none" stroke-width="1" fill="none" fill-rule="evenodd">
        <g id="PrimeReact-Showcase---Homepage" transform="translate(-24.000000, -11.000000)">
            <g id="topbar">
                <g id="primereact-logo-v2.2" transform="translate(24.000000, 11.000000)">
                    <path d="M38.8857247,23.9424767 L42.0965593,18.2988016 C43.254978,16.2599201 43.254978,13.824767 42.0965593,11.7858855 C40.9381406,9.74700399 38.8605417,8.52623169 36.5374085,8.52623169 L30.1157394,8.52623169 L27.156735,3.3171771 C25.9731332,1.23994674 23.8640556,0 21.4968521,0 C19.1359444,0 17.020571,1.23994674 15.8369693,3.3171771 L12.8779649,8.52623169 L6.47518302,8.52623169 C4.13945827,8.52623169 2.04297218,9.75339547 0.878257687,11.8050599 C-0.292752562,13.8567244 -0.292752562,16.3110519 0.878257687,18.3691079 L4.08279649,24 L0.871961933,29.6436751 C-0.286456808,31.6825566 -0.286456808,34.1177097 0.871961933,36.1565912 C2.03038067,38.1954727 4.1079795,39.416245 6.43111274,39.416245 L12.8464861,39.416245 L15.8117862,44.6252996 C16.995388,46.70253 19.1044656,47.9424767 21.4716691,47.9424767 C23.8388726,47.9424767 25.9479502,46.70253 27.131552,44.6252996 L30.0905564,39.416245 L36.4933382,39.416245 C38.829063,39.416245 40.925549,38.1890812 42.0902635,36.1374168 C43.2612738,34.0857523 43.2612738,31.6314248 42.0902635,29.5733688 L38.8857247,23.9424767 Z M36.5374085,9.96431425 C38.3442899,9.96431425 39.9685944,10.9166445 40.8688873,12.501731 C41.7754758,14.0932091 41.7754758,15.991478 40.8688873,17.5829561 L38.0672767,22.5107856 L30.9341874,9.96431425 L36.5374085,9.96431425 Z M17.0646413,4.03941411 C17.9901171,2.40958722 19.6459004,1.44447403 21.4968521,1.44447403 C23.3478038,1.44447403 25.0035871,2.4159787 25.929063,4.03941411 L28.4851391,8.53262317 L14.5148609,8.53262317 L17.0646413,4.03941411 Z M2.09963397,17.6532623 C1.18674963,16.0490013 1.18674963,14.1315579 2.09963397,12.5272969 C3.0125183,10.923036 4.64941435,9.96431425 6.47518302,9.96431425 L12.0658126,9.96431425 L4.89494876,22.5683089 L2.09963397,17.6532623 Z M6.42481698,37.9845539 C4.61793558,37.9845539 2.99363104,37.0322237 2.09333821,35.4471372 C1.18674963,33.8556591 1.18674963,31.9573901 2.09333821,30.3659121 L4.89494876,25.4380826 L12.0280381,37.9845539 L6.42481698,37.9845539 L6.42481698,37.9845539 Z M17.7823572,44.9256991 C17.813836,44.9640479 17.8516105,44.9960053 17.8830893,45.0343542 C17.8516105,45.0023968 17.8201318,44.9640479 17.7823572,44.9256991 Z M17.0331625,43.9094541 C17.0646413,43.9669774 17.0961201,44.0245007 17.1338946,44.0756325 C17.0961201,44.0245007 17.0646413,43.9669774 17.0331625,43.9094541 Z M17.1653734,44.1267643 C17.201737,44.1651132 17.2381006,44.2034621 17.2653734,44.2354194 C17.2290097,44.2034621 17.201737,44.1651132 17.1653734,44.1267643 Z M17.2786969,44.2993342 C17.3120303,44.3312916 17.3453636,44.3696405 17.3786969,44.4015979 C17.3370303,44.3696405 17.3036969,44.3312916 17.2786969,44.2993342 Z M17.3857247,44.4591212 C17.416494,44.49747 17.4549555,44.5294274 17.4857247,44.5677763 C17.4549555,44.5294274 17.4241863,44.4910786 17.3857247,44.4591212 Z M17.5053441,44.6061252 C17.5871889,44.7083888 17.6690337,44.804261 17.7571742,44.8937417 C17.6690337,44.804261 17.5871889,44.7083888 17.5053441,44.6061252 Z M19.3688873,46.0633822 C19.2492679,46.0122503 19.1296486,45.9483356 19.016325,45.8844208 C19.1359444,45.9483356 19.2492679,46.0058589 19.3688873,46.0633822 L19.3688873,46.0633822 Z M17.9271596,45.0727031 C17.9586384,45.106246 17.9964129,45.139789 18.0278917,45.173332 C17.9901171,45.139789 17.9586384,45.106246 17.9271596,45.0727031 Z M18.0656662,45.2005326 C18.1034407,45.2388815 18.147511,45.2708389 18.1852855,45.3091877 C18.1412152,45.2708389 18.1034407,45.2388815 18.0656662,45.2005326 Z M18.2041728,45.3283622 C18.3049048,45.4114514 18.4056369,45.4945406 18.5126647,45.5648469 C18.4056369,45.4881491 18.3049048,45.4114514 18.2041728,45.3283622 Z M18.5189605,45.5712383 C18.5693265,45.6031957 18.6133968,45.6351531 18.6637628,45.673502 C18.6196925,45.6415446 18.5693265,45.6095872 18.5189605,45.5712383 Z M18.6889458,45.686285 C18.7330161,45.7222239 18.7833821,45.750975 18.8274524,45.7869139 C18.7833821,45.7581628 18.7393119,45.7222239 18.6889458,45.686285 Z M18.8526354,45.7885486 C18.9030015,45.8244875 18.9596633,45.8604264 19.0100293,45.8891775 C18.9596633,45.8604264 18.9092972,45.8244875 18.8526354,45.7885486 Z M23.5618594,46.0633822 C23.6814788,46.0122503 23.8010981,45.9483356 23.9144217,45.8844208 C23.7948023,45.9483356 23.6814788,46.0058589 23.5618594,46.0633822 Z M23.9144217,45.895569 C23.9647877,45.8596301 24.0214495,45.830879 24.0718155,45.7949401 C24.0214495,45.8236912 23.9710835,45.8596301 23.9144217,45.895569 Z M24.0969985,45.7869139 C24.1410688,45.7581628 24.1914348,45.7222239 24.2355051,45.686285 C24.1914348,45.7222239 24.1473646,45.7581628 24.0969985,45.7869139 Z M24.2669839,45.673502 C24.3173499,45.6415446 24.3614202,45.6095872 24.4117862,45.5712383 C24.3614202,45.6095872 24.3110542,45.6415446 24.2669839,45.673502 Z M24.418082,45.5648469 C24.5251098,45.4881491 24.6258419,45.4114514 24.7265739,45.3283622 C24.6258419,45.4114514 24.5251098,45.4881491 24.418082,45.5648469 Z M24.7454612,45.3091877 C24.7832357,45.2772304 24.827306,45.2388815 24.8650805,45.2005326 C24.827306,45.2388815 24.7895315,45.2708389 24.7454612,45.3091877 Z M24.9028551,45.173332 C24.9406296,45.139789 24.9721083,45.106246 25.0035871,45.0727031 C24.9721083,45.106246 24.9343338,45.139789 24.9028551,45.173332 Z M25.0413616,45.0343542 C25.0791362,45.0023968 25.1106149,44.9640479 25.1420937,44.9256991 C25.1106149,44.9640479 25.0791362,45.0023968 25.0413616,45.0343542 Z M25.7968521,44.0756325 C25.8283309,44.0181092 25.8661054,43.9669774 25.8975842,43.9094541 C25.8661054,43.9669774 25.8346266,44.0245007 25.7968521,44.0756325 Z M25.1735725,44.9001332 C25.261713,44.804261 25.3435578,44.7083888 25.4254026,44.6125166 C25.3435578,44.7083888 25.261713,44.804261 25.1735725,44.9001332 Z M25.4568814,44.5677763 C25.4876506,44.5294274 25.5261122,44.49747 25.5568814,44.4591212 C25.5261122,44.4910786 25.4953429,44.5294274 25.4568814,44.5677763 Z M25.5827965,44.4015979 C25.6161298,44.3696405 25.6494632,44.3312916 25.6827965,44.2993342 C25.6411298,44.3312916 25.6161298,44.3696405 25.5827965,44.4015979 Z M25.6898243,44.2418109 C25.7231576,44.2034621 25.756491,44.1651132 25.7898243,44.1267643 C25.756491,44.1651132 25.7231576,44.2034621 25.6898243,44.2418109 Z M25.929063,43.8583222 L24.1725476,42.0878828 L18.7330161,42.0878828 L17.0142753,43.8838881 L16.6302343,43.2063915 L17.788653,41.595739 L25.160981,41.595739 L26.3193997,43.187217 L25.929063,43.8583222 Z M28.4851391,37.7097204 L28.4851391,39.3651132 L28.8439971,38.7387483 L28.6866032,39.0199734 L26.8671303,42.2157124 L25.2239385,40.5219707 L17.7508785,40.5219707 L16.0762079,42.2284953 L15.5536603,41.314514 L17.3353587,39.6527297 L21.4653734,39.6079893 L25.595388,39.6527297 L27.3707906,41.3081225 L27.6729868,40.7776298 L27.6729868,29.1067909 L25.6646413,25.6681758 L24.2103221,26.4415446 L24.2103221,27.8924101 L25.1232064,35.5941411 L23.1715227,37.6074567 L21.4716691,37.6266312 L19.7718155,37.6074567 L17.813836,35.5877497 L18.7267204,27.8860186 L18.7267204,26.4351531 L17.2724012,25.6617843 L15.2577599,29.1003995 L15.2577599,40.7904128 L14.4770864,39.4226365 L14.3008053,39.1094541 L14.3008053,37.7161119 L13.029063,36.8724368 L12.0532211,35.1595206 L14.3008053,37.1153129 L14.3008053,28.7105193 L10.4037335,26.5821571 L10.4037335,23.1882823 L7.89802343,22.1464714 L7.89802343,27.8476698 L5.71339678,24.0063915 L7.55175695,20.7786951 L7.67767204,21.3155792 L18.7959736,25.5211718 L14.8170571,15.8956059 L10.7940703,15.0774967 L11.159224,14.4319574 L15.1444363,15.2308921 L17.6690337,9.96431425 L18.0530747,9.96431425 L15.7991947,16.5603196 L19.784407,27.0743009 L18.4434114,35.0764314 L24.3551245,35.0764314 L23.1652269,27.0870839 L27.1378477,16.5603196 L24.8398975,9.96431425 L25.2554173,9.96431425 L27.7800146,15.2308921 L31.8344802,14.4191744 L29.3035871,9.96431425 L37.2551245,23.9424767 L31.9603953,33.2484687 L34.988653,27.9243675 L34.988653,22.1400799 L32.4829429,23.1882823 L32.4829429,26.5821571 L28.5795754,28.7105193 L28.5795754,37.10253 L30.9215959,35.0700399 L29.460981,37.6330226 L29.9898243,36.7062583 L28.4851391,37.7097204 Z M40.8625915,35.4215712 C39.9497072,37.0258322 38.3128111,37.9845539 36.4870425,37.9845539 L30.8964129,37.9845539 L38.0672767,25.3805593 L40.8625915,30.2956059 C41.7754758,31.8998668 41.7754758,33.8173103 40.8625915,35.4215712 Z M35.4545388,20.7850866 L35.3349195,21.3155792 L24.2103221,25.5211718 L28.1892387,15.8956059 L32.2122255,15.0838881 L35.4545388,20.7850866 Z" id="primereact-logo" fill="#03C4E8" fill-rule="nonzero"></path>
                    <text id="PRIMEREACT" font-family="Norwester-Regular, Norwester" font-size="34" font-style="condensed" font-weight="normal">
                        <tspan x="51" y="38" fill="#FFFFFF">PRIME</tspan>
                        <tspan x="132.464" y="38" fill="#03C4E8">REACT</tspan>
                    </text>
                </g>
            </g>
        </g>
    </g>
</svg>