<svg height="19" viewBox="0 0 109 19" width="109" xmlns="http://www.w3.org/2000/svg" xmlns:xlink="http://www.w3.org/1999/xlink"><mask id="a" fill="#fff"><path d="m0 .33200968v9.47425806h17.832284v-9.47425806z" fill="none"/></mask><mask id="b" fill="#fff"><path d="m0 .33225484v7.81390322h14.5982309v-7.81390322z" fill="none"/></mask><g fill="#fff" fill-rule="evenodd" transform=""><path d="m17.646984 9.37619355c-.0921861-4.68809678-3.6955638-8.49729032-8.13035634-8.49729032-4.43537234 0-7.94598404 3.90664516-7.94598404 8.59535483h-1.57064362c0-5.17719354 3.88051596-9.37680645 8.77739894-9.47425806 4.89688296 0 8.96235106 4.1996129 8.96235106 9.37619355z"/><path d="m17.892234 9.03970968c0-3.80919355-2.8641489-6.83693549-6.4675266-6.83693549-3.60337761 0-6.19038825 3.02774194-6.19038825 6.83693549h-1.75559575c0-4.29767742 3.32623937-7.71645162 7.3917075-7.81390323 3.9727021 0 7.2067553 3.90664516 7.2989414 7.71583871z"/><path d="m17.557117 9.02254839c0-2.7347742-2.2176861-4.98106452-4.896883-4.98106452-2.67919677 0-4.61974464 2.24629032-4.61974464 5.07912903h-1.66282979c0-3.32132258 2.40205852-6.05609677 5.54334573-6.05609677 3.141867 0 5.6361117 2.73477419 5.7288777 5.95803226z"/><path d="m.18472021.43007419c0 4.68809678 3.60337766 8.49729033 8.03817022 8.49729033 4.52755847 0 8.03874997-3.90664517 8.03874997-8.59535484h1.5706436c0 5.17658064-3.9732819 9.47425806-8.87016485 9.47425806-4.89688298 0-8.86958511-4.1996129-8.96235106-9.37619355z" mask="url(#a)" transform="translate(0 9.193548)"/><path d="m.18472021.33225484c0 3.80919355 2.86414894 6.83693548 6.4675266 6.83693548 3.60337769 0 6.28257449-3.02774193 6.19038829-6.83693548h1.7555958c0 4.29767742-3.3262394 7.81390322-7.29894154 7.81390322-4.06546808 0-7.29952127-3.90664516-7.29952127-7.7158387z" mask="url(#b)" transform="translate(0 9.193548)"/><path d="m0 9.2916129c.09218617 2.7347742 2.30987234 4.9810645 4.89688298 4.9810645 2.67919681 0 4.61974468-2.2462903 4.61974468-5.07912901h1.66282974c0 3.32132261-2.40205846 6.05609681-5.5433457 6.05609681-3.14128723 0-5.6361117-2.6373226-5.6361117-5.9580323"/><path d="m26.6516596 16.365129.8314149-1.9533225h4.6197446l.2771383 1.9533225h4.6197447l-2.5870106-15.13932255h-4.7119309l-7.6688457 15.13932255zm5.1740213-5.079129h-2.9569149l2.4026383-5.46954839z"/><path d="m38.8457447 16.365129 2.4948244-15.13932255h4.7119309l-2.4948245 15.13932255z"/><path d="m50.9105372 16.365129.8314149-5.2740322h1.8477819c.5542766 0 1.0163671.0974516 1.2935054.1949032.2771383.1955161.4620904.3910323.5548563.684.0921862.2929677.0921862.6833871 0 1.171871l-.0927659 1.1718709c-.1849521.9769678-.1849521 1.6609678-.1849521 2.0513871h4.8046968v-.4884838c-.0921862 0-.2771383 0-.2771383-.0974517-.0921862-.0974516-.0921862-.2929677 0-.684l.3699042-2.3437419c.0921862-1.0744193.0921862-1.855871-.1849521-2.2469032-.2771383-.487871-.8314149-.87890324-1.6634096-1.26932259.4620904-.09745162.8319947-.29296775 1.2013192-.48848387.4620904-.39041936.8314149-.78145162 1.1085532-1.26932259.3699042-.58654838.5542766-1.17248387.7392287-1.95393548.0921862-.58593548.0921862-1.07441935 0-1.46483871-.0921862-.48848387-.2771383-.87890322-.4620904-1.17187097-.2771383-.39103225-.5542766-.684-.9236011-.97696774-.4620904-.19551613-.9241809-.39103226-1.5706436-.48848387-.6470426-.09745161-1.4784575-.19551613-2.4948245-.19551613h-6.929617l-2.4948245 15.13932255zm1.8477819-11.42758061h2.3098724c.7392287 0 1.2013191.09745161 1.4784574.39103226.1843724.19490322.2771383.58593548.1843724.97635483-.0921862.48848387-.2765585.87890323-.6464628 1.07441936-.2771383.29296774-.8314149.39041935-1.5706436.39041935h-2.2176862z"/><path d="m70.1009149 10.0160645c.9241808 0 1.4784574.1955161 1.7555957.3910323.2771383.2923548.3693245.5859355.2771383 1.0738064-.0921861.3910323-.2771383.7814516-.6464627 1.0744194-.3699043.1955161-.9241809.3910322-1.8483617.3910322h-1.9399681l.4620904-2.9302903zm-.2771383 6.3484516c1.1085532 0 1.8477819-.0974516 2.3098723-.1949032.4620905-.0980645 1.0163671-.2929677 1.4784575-.4884839.5542766-.2929677.923601-.4884838 1.2013191-.7814516.4615107-.2929677.738649-.7814516 1.0157873-1.2699355.3699042-.5859354.5548563-1.1718709.6470425-1.7578064.0921862-.8789032 0-1.6603549-.2771383-2.24690324-.3699042-.6833871-.8314149-1.07380645-1.5706436-1.26932258 1.3856915-.87890323 2.2171064-1.95332258 2.4020585-3.22325807.2771383-1.36738709-.0921862-2.34374193-1.1085532-3.02774193-.7392287-.58593549-1.9405478-.87890323-3.7883298-.87890323h-7.0218032l-2.4948244 15.13870965zm.7392287-11.72054836c.6464628 0 1.1085532.09806452 1.2935053.09806452.2771383.09745161.4620905.29296774.5542766.48787097.1849522.19551612.1849522.48848387.1849522.78145161-.092766.39103226-.2771383.684-.6470426.97696774-.2771383.19551613-.8314149.39041936-1.5706436.39041936h-1.7555958l.4620905-2.7347742z"/><path d="m80.5502973 1.22580645h4.6197447l-1.5706436 9.37619355c-.092766.5859355-.092766 1.0744194 0 1.3673871.0921861.2929677.2771383.5865484.6470425.7814516.3693245.1955161.738649.2929678 1.2007394.2929678.6464628 0 1.2935053-.1955162 1.6628298-.5859355.4620904-.3904194.7398085-1.0744194.9241808-1.855871l1.5706436-9.37619355h4.6197447l-1.4784574 8.88770965c-.1843724 1.0744194-.3693245 1.9539355-.6464628 2.6373226-.2771383.5859355-.6470425 1.171871-1.1085532 1.6603548-.4620904.4884839-1.016367.9769678-1.5706436 1.2699355-.6470425.3904194-1.2940851.684-2.032734.8789033-.8319947.0980645-1.6634096.1955161-2.4948245.1955161-1.016367 0-1.8477819-.0974516-2.5870106-.1955161-.7392288-.1949033-1.2935054-.4884839-1.7555958-.8789033-.5542766-.3904193-.9236011-.7814516-1.2013191-1.2699355-.2765585-.4884838-.4615107-1.1718709-.4615107-1.9533225-.0927659-.4884839 0-1.3673871.1849522-2.4418065z"/><path d="m108.759388 6.01196774h-4.527558c0-.39103226-.184373-.78145161-.369325-.97696774-.277138-.19490323-.647042-.29296774-1.201319-.29296774-.554276 0-1.016367.09806451-1.293505.29296774-.277138.19551613-.369325.39103226-.461511.684 0 .29296774 0 .39041935.184373.58593548.184952.19551613.647042.39041936 1.478457.58593549l1.755596.48848387c1.570643.48848387 2.679197 1.07441935 3.233473 1.85587097.554857.78145159.739229 1.66035479.554857 2.73477419-.184953.8789032-.462091 1.5629032-.924181 2.2462903-.462091.684-1.016367 1.2699355-1.570644 1.6603549-.554277.3910322-1.293505.684-2.12492.9769677-.831995.1955161-1.755596.2929677-2.679777.2929677-.9236008 0-1.8477817-.0974516-2.6791966-.3910322-.8314148-.2929678-1.4784574-.6833871-1.9405478-1.171871-.4615107-.4884839-.8314149-1.0744193-1.016367-1.7578064-.0921862-.4884839-.0921862-1.0744194-.0921862-1.7584194h4.5275585c0 .4884839.1843723.8789032.4615111 1.0744194.277718.2929677.831994.3910322 1.570643.3910322.647043 0 1.109133-.0980645 1.386271-.2935806.277139-.1949032.369325-.3904194.462091-.6833871 0-.2929678 0-.5859355-.184952-.7814516-.184952-.1955162-.647043-.3904194-1.478458-.5859355l-1.570643-.3904194c-.7392291-.1955161-1.570644-.4884838-2.2176865-.8795161-.6464628-.39041935-1.2007394-.87890322-1.4778777-1.56290322-.2771383-.58593549-.2771383-1.26932258-.1849521-2.14822581.1849521-.87890322.4620904-1.56290322.9241809-2.24690322.4615106-.6833871 1.016367-1.17187097 1.6628297-1.56229033.5542766-.48848387 1.2935057-.684 2.0327337-.87890322.739229-.19551613 1.478458-.29358065 2.217107-.29358065.924181 0 1.663409.09806452 2.402638.29358065.739229.19490322 1.200739.48787096 1.66283.78083871.369904.29358064.647042.684.831995 1.07441935.276558.39103226.369324.78145161.46151 1.17248387.092766.39041936.184952.87890323.184952 1.46483871"/></g></svg>