<svg height="42" viewBox="0 0 112 42" width="112" xmlns="http://www.w3.org/2000/svg"><g fill="#fff" transform=""><path d="m10.2105482 10.4404721-2.17910732-5.42804343-2.16665303 5.42804343zm48.005446-2.16144305c-.4375088.27146377-.9549665.28049888-1.5748711.28049888h-3.8676745v-3.02429535h3.9203041c.5548207 0 1.1337465.02546256 1.5097872.24559052.4130019.19836158.6685167.6205473.6685167 1.20372212 0 .59508473-.2430605 1.07394518-.6560624 1.29448383zm27.5915811 2.16144305-2.2032126-5.42804343-2.1911599 5.42804343zm-51.4323977 5.875281h-3.26384l-.0120526-10.66388556-4.6165418 10.66388556h-2.7953962l-4.6285944-10.67333135v10.67333135h-6.4754521l-1.2233374-3.0370267h-6.62892174l-1.23579172 3.0370267h-3.45788663l5.70127445-13.61590008h4.73023784l5.4148247 12.89144908v-12.89144908h5.1962711l4.1665787 9.23674998 3.8274992-9.23674998h5.3007269v13.61590008zm13.008355 0h-10.6356027v-13.61590008h10.6356027v2.83537956h-7.4517115v2.45426249h7.2729315v2.79102543h-7.2729315v2.7191553h7.4517115zm14.9958262-9.94888037c0 2.17088881-1.417384 3.29247363-2.2433878 3.62923656.6966394.27105311 1.2916354.74991351 1.5748711 1.14663671.4495614.677222.5270997 1.2821632.5270997 2.4982059v2.6748012h-3.2112104l-.0120525-1.7170803c0-.8193195.0767347-1.9975791-.5025928-2.652624-.4652298-.4788605-1.1743236-.5827642-2.3205244-.5827642h-3.4177113v4.9524685h-3.1834895v-13.61590008h7.3227489c1.627099 0 2.8259294.04394345 3.8552202.65217015 1.0071943.6082267 1.6110288 1.4961309 1.6110288 3.01484956zm5.0950295 9.94888037h-3.2485734v-13.61590008h3.2485734zm37.6876297 0h-4.511684l-6.0347296-10.21952277v10.21952277h-6.483889l-1.2390057-3.0370267h-6.6136552l-1.2020444 3.0370267h-3.7254541c-1.5475519 0-3.5069004-.3499049-4.6165418-1.5059874-1.1188816-1.1560825-1.7010214-2.7220301-1.7010214-5.19805897 0-2.0193455.3479179-3.86538129 1.7162881-5.32413972 1.0292907-1.08667647 2.6411231-1.58771399 4.8350953-1.58771399h3.0822477v2.91751686h-3.0175655c-1.1618692 0-1.8179316.17659519-2.4498888.80658827-.542768.57331835-.9151929 1.65712001-.9151929 3.08425558 0 1.45875847.2836375 2.51052657.8754194 3.19760507.4901385.5388207 1.3808245.7022739 2.2188809.7022739h1.4298383l4.4871774-10.707829h4.7704131l5.3903178 12.8787178v-12.8787178h4.8475497l5.5964167 9.4827512v-9.4827512h3.261028zm-105.16161625 2.6743904h5.43973336l1.2265514-3.0242953h2.74598061l1.22333738 3.0242953h10.7030972v-2.3121649l.9553682 2.3220214h5.5562417l.9553683-2.3565191v2.3466626h26.5992515l-.0124543-4.9643783h.5146453c.3603723.0127313.4656316.0468182.4656316.6550449v4.3093334h13.7572222v-1.1556718c1.1096414.607816 2.8355715 1.1556718 5.1066803 1.1556718h5.7876513l1.238604-3.0242953h2.7459806l1.2112848 3.0242953h11.1530604v-2.872752l1.6889689 2.872752h8.9373935v-18.9901435h-8.8449904v2.24275895l-1.2386039-2.24275895h-9.0759983v2.24275895l-1.1373623-2.24275895h-12.2594877c-2.0521534 0-3.8560236.29281947-5.3131812 1.10885354v-1.10885354h-8.4601111v1.10885354c-.9272456-.84108594-2.1907582-1.10885354-3.5956879-1.10885354h-30.9080507l-2.0738481 4.90482881-2.1296917-4.90482881h-9.7352747v2.24275895l-1.069466-2.24275895h-8.30262406l-3.85562194 9.02894259v9.96120091z"/><path d="m112 28.6037585h-5.754744c-.574558 0-.956268.0221622-1.277813.2458365-.333101.220391-.4614.5474889-.4614.9792418 0 .5134248.281302.862685.690506 1.0137164.3331.1194297.690904.1543147 1.216851.1543147l1.711322.0471973c1.726862.0439141 2.879563.3496706 3.582421 1.0953883.127901.1038341.204801.220391.292857.3369478zm0 8.9728264c-.767007 1.1553084-2.261575 1.7409656-4.284879 1.7409656h-6.097805v-2.9184361h6.073101c.602449 0 1.024004-.0816719 1.277814-.3369479.219941-.2105411.373343-.5162976.373343-.88772 0-.3964575-.153402-.7112431-.385695-.9000324-.229106-.2076682-.562605-.3020629-1.112459-.3020629-2.964831-.1038341-6.663597.0943947-6.663597-4.2124635 0-1.9740793 1.216851-4.0519927 4.530321-4.0519927h6.289458v-2.707895h-5.843597c-1.763519 0-3.04452.4350362-3.95178 1.1113943v-1.1113943h-8.643471c-1.3822063 0-3.0046751.3529539-3.7720805 1.1113943v-1.1113943h-15.4349693v1.1113943c-1.2284065-.9127551-3.3011183-1.1113943-4.2577852-1.1113943h-10.1810712v1.1113943c-.9718078-.9693919-3.1329744-1.1113943-4.4502342-1.1113943h-11.3943367l-2.6074253 2.9065342-2.4420705-2.9065342h-17.0207811v18.9905605h16.7004312l2.6867158-2.9525002 2.5309238 2.9525002 10.2942296.0094395v-4.4673291h1.0120508c1.3658701.0217518 2.9767839-.034885 4.3980379-.6677395v5.1252187h8.4908667v-4.9495626h.4096017c.52276 0 .5741595.0221623.5741595.5602117v4.3889405h25.793747c1.6376097 0 3.3493302-.4317529 4.2972313-1.2152284v1.2152284h8.1816737c1.702556 0 3.365268-.2458365 4.630331-.8754077zm-12.5952505-5.4371314c.6148005.6554272.9443155 1.4828167.9443155 2.8835511 0 2.9278756-1.7758706 4.2945459-4.9602445 4.2945459h-6.1500013v-2.9184361h6.1252977c.5988631 0 1.0236057-.0816719 1.2897671-.3369479.2171526-.2105411.3729446-.5162976.3729446-.88772 0-.3964575-.1685423-.7112431-.3852964-.9000324-.2414578-.2076682-.574558-.3020629-1.1244123-.3020629-2.9528773-.1038341-6.650847.0943947-6.650847-4.2124635 0-1.9740793 1.2041014-4.0519927 4.5143839-4.0519927h6.3300986v2.8966843h-5.7921976c-.5741595 0-.9475026.0221622-1.2650634.2458365-.3458505.220391-.4741498.5474889-.4741498.9792418 0 .5134248.2936541.862685.6909039 1.0137164.3331002.1194298.690904.1543147 1.228805.1543147l1.6997671.0471974c1.7141112.0430932 2.8907198.3484393 3.6059289 1.0945674zm-28.4920178-.8405227c-.4223519.2581488-.9447136.280311-1.559116.280311h-3.8358318v-3.0567448h3.8880281c.5622061 0 1.1248107.0123124 1.5069197.2458365.4092031.220391.6538485.6418836.6538485 1.2242575s-.2446454 1.0514742-.6538485 1.3063398zm1.9069586 1.6937682c.7028573.2671779 1.2774152.7461281 1.5467642 1.1425856.4458601.6644562.5104082 1.284588.5231585 2.4842207v2.6980452h-3.1700299v-1.7027973c0-.8187709.0765015-2.0311265-.5104082-2.663981-.4613996-.4875688-1.1646553-.6041257-2.3165603-.6041257h-3.3744322v4.970904h-3.172819v-13.6100659h7.289953c1.5985621 0 2.7628189.0726428 3.7991748.642294.9965114.6201318 1.6232656 1.4696835 1.6232656 3.0222702-.0003984 2.172308-1.4069099 3.2808295-2.2380665 3.6206502zm3.9888347-7.2852144h10.5384765v2.814602h-7.3939472v2.4743709h7.2134515v2.7768442h-7.2134515v2.707895l7.3939472.0123123v2.8240415h-10.5384765zm-21.3036684 6.2809375h-4.0804771v-3.4659251h4.1171341c1.1399516 0 1.9312637.4785398 1.9312637 1.6687332 0 1.1770601-.7546551 1.7971919-1.9679207 1.7971919zm-7.2254049 6.0913273-4.8478824-5.5438384 4.8478824-5.3677719zm-12.5195459-1.5985527h-7.7633059v-2.707895h6.9321492v-2.7768442h-6.9321492v-2.4743709h7.9163088l3.4537228 3.9662167zm25.1028431-6.2899665c0 3.7807106-2.7385137 4.5613133-5.4985434 4.5613133h-3.939826v4.565007h-6.1372511l-3.888028-4.5054974-4.0406326 4.5054974h-12.5071941v-13.6100659h12.6996432l3.8848405 4.4611729 4.0163274-4.4611729h10.0894288c2.5058217 0 5.3212353.7145264 5.3212353 4.4837456z"/></g></svg>