<?xml version="1.0" encoding="UTF-8"?>
<svg width="104px" height="41px" viewBox="0 0 104 41" version="1.1" xmlns="http://www.w3.org/2000/svg" xmlns:xlink="http://www.w3.org/1999/xlink">
    <!-- Generator: sketchtool 45.2 (43514) - http://www.bohemiancoding.com/sketch -->
    <title>4290E573-9243-414B-BB99-EF3B2846B390</title>
    <desc>Created with sketchtool.</desc>
    <defs>
        <polygon id="path-1" points="0.456911392 16.5454545 31.4363544 16.5454545 31.4363544 0.17766395 0.456911392 0.17766395 0.456911392 16.5454545"></polygon>
        <polygon id="path-3" points="0 42 104 42 104 0 0 0"></polygon>
    </defs>
    <g id="Page-1" stroke="none" stroke-width="1" fill="none" fill-rule="evenodd">
        <g id="PrimeReact-Showcase---Homepage" transform="translate(-687.000000, -1116.000000)">
            <g id="homepage" transform="translate(301.000000, 70.000000)">
                <g id="brands" transform="translate(0.000000, 1019.000000)">
                    <g transform="translate(109.000000, 27.000000)" id="bank-of-america">
                        <g transform="translate(277.000000, 0.000000)">
                            <path d="M44.4602074,22.9090909 C45.8895494,23.4256081 47.3194879,23.9787028 48.7088608,24.6060606 C44.2615551,26.2658987 39.9335602,28.2582586 35.8435901,30.5454545 C34.4536206,29.8809651 33.0242787,29.2170299 31.5949367,28.6268036 C35.7242794,26.4138709 40.0129018,24.49522 44.4602074,22.9090909 Z" id="Fill-1" fill="#FFFFFF"></path>
                            <path d="M39.7874082,21.6363636 C35.1268876,23.1804375 30.6275117,25.1834078 26.3291139,27.6032719 C27.6949205,28.146174 29.060727,28.6884492 30.3867,29.2727273 C34.5245567,26.7274817 38.903225,24.5991298 43.443038,22.9303013 C42.2377726,22.4707779 41.0325071,22.0118814 39.7874082,21.6363636" id="Fill-3" fill="#FFFFFF"></path>
                            <path d="M73.8912607,30.1515694 C73.9761316,30.3332574 74.1886278,30.3938201 74.4011241,30.3938201 C74.5281113,30.3938201 74.6557367,30.3938201 74.7406076,30.3332574 C74.7833621,30.3032038 74.8254784,30.2426411 74.8254784,30.181623 C74.8254784,30.0604976 74.6984912,29.9999349 74.5281113,29.9999349 L74.2313823,29.9393723 C74.1458733,29.9088632 74.0188861,29.9088632 73.9340152,29.8483005 C73.8485062,29.7877378 73.8063899,29.6966661 73.8063899,29.6060498 C73.8063899,29.3633436 74.103757,29.2727273 74.4011241,29.2727273 C74.6557367,29.2727273 74.9109874,29.3633436 74.9958583,29.5755407 L74.7833621,29.6060498 C74.7833621,29.484469 74.5708658,29.3938527 74.3583696,29.3938527 C74.2313823,29.3938527 74.0188861,29.4544154 74.0188861,29.5755407 C74.0188861,29.7271752 74.1458733,29.7572288 74.3162532,29.7877378 L74.5708658,29.8182469 C74.6984912,29.8483005 74.8254784,29.8788096 74.9109874,29.9088632 C74.9958583,29.9999349 75.0379747,30.0604976 75.0379747,30.181623 C75.0379747,30.2726947 74.9958583,30.3938201 74.8682329,30.4543828 C74.7406076,30.5154009 74.5708658,30.5454545 74.4011241,30.5454545 C74.0610025,30.5454545 73.8485062,30.4238738 73.721519,30.181623 L73.8912607,30.1515694 Z" id="Fill-5" fill="#FFFFFF"></path>
                            <polygon id="Fill-7" fill="#FFFFFF" points="75.1728658 30.5454545 75.0379747 30.5454545 75.0379747 29.2727273 75.2742876 29.2727273 75.7129371 30.2906222 76.0841411 29.2727273 76.3544304 29.2727273 76.3544304 30.5454545 76.185563 30.5454545 76.185563 29.4314596 75.7464064 30.5454545 75.6115153 30.5454545 75.1728658 29.4314596"></polygon>
                            <path d="M55.2911392,22.9882078 C51.5257675,21.4433184 47.6380396,20.1442188 43.6679212,19.0909091 C42.235924,19.4421881 40.8438924,19.8282786 39.4936709,20.2143691 C43.5861455,21.2676789 47.5968443,22.6021173 51.4439918,24.1818182 C52.7124376,23.7603888 53.9814982,23.3742983 55.2911392,22.9882078" id="Fill-9" fill="#FFFFFF"></path>
                            <path d="M61.8734177,21.8125512 C58.0369871,20.2071559 54.0363416,18.8758955 49.9526591,17.8181818 C48.6327436,18.0534908 47.3543465,18.3276257 46.0759494,18.6405866 C50.1181133,19.7759523 54.07786,21.1860411 57.8721525,22.9090909 C59.1920681,22.5173015 60.5535022,22.1255121 61.8734177,21.8125512" id="Fill-11" fill="#FFFFFF"></path>
                            <g id="Group-15" transform="translate(43.443038, 24.181818)">
                                <mask id="mask-2" fill="white">
                                    <use xlink:href="#path-1"></use>
                                </mask>
                                <g id="Clip-14"></g>
                                <path d="M26.9067342,0.17766395 C17.4027342,3.17809655 8.50511392,7.46907461 0.456911392,12.823526 C2.47898734,14.001106 4.42025316,15.2163411 6.32081013,16.5456828 C13.9242532,10.8871373 22.3771139,6.17795862 31.4363544,2.60813417 C29.9398481,1.73464828 28.4433418,0.93704326 26.9067342,0.17766395" id="Fill-13" fill="#FFFFFF" mask="url(#mask-2)"></path>
                            </g>
                            <path d="M63.5492619,21.6363636 C53.9728409,24.2154185 44.9848854,28.4060801 36.8607595,33.9673942 C38.6656622,34.8942799 40.4717442,35.8617282 42.2377303,36.9090909 C50.2050107,31.2672569 59.0361207,26.8344306 68.4556962,23.9332966 C66.8465556,23.1274933 65.2374149,22.32169 63.5492619,21.6363636" id="Fill-16" fill="#FFFFFF"></path>
                            <path d="M37.5189873,9.9791499 C38.1106591,9.9791499 38.3695502,9.46259518 38.3695502,7.61807361 C38.3695502,5.92098075 38.1845486,5.29357738 37.5189873,5.29357738 C36.8534261,5.29357738 36.6684245,5.92098075 36.6684245,7.61807361 C36.6684245,9.46259518 36.9273156,9.9791499 37.5189873,9.9791499 M37.5189873,3.81818182 C39.7006727,3.81818182 40.8101266,5.44156033 40.8101266,7.61807361 C40.8101266,9.86830124 39.7378952,11.4545455 37.5189873,11.4545455 C35.2634125,11.4545455 34.2278481,9.86830124 34.2278481,7.61807361 C34.2278481,5.44156033 35.337302,3.81818182 37.5189873,3.81818182" id="Fill-18" fill="#FFFFFF"></path>
                            <path d="M41.9144565,5.32684199 L40.8101266,5.32684199 L40.8101266,3.56446537 L41.9144565,3.56446537 L41.9144565,2.68357791 C41.9144565,0.720835502 42.9339361,0 44.7170685,0 C45.2268083,0 45.6516978,0.0800259781 46.0759494,0.120339817 L46.0759494,2.08308223 C45.9483549,2.04276839 45.7359102,2.00245455 45.5668475,2.00245455 C44.844663,2.00245455 44.590112,2.28284632 44.590112,2.76300219 L44.590112,3.56446537 L46.0759494,3.56446537 L46.0759494,5.32684199 L44.590112,5.32684199 L44.590112,11.4545455 L41.9144565,11.4545455 L41.9144565,5.32684199 Z" id="Fill-20" fill="#FFFFFF"></path>
                            <path d="M13.1036217,7.78450196 C12.2571328,7.85857113 11.6026073,8.19216081 11.6026073,9.11886072 C11.6026073,9.63790177 11.8720498,9.8974223 12.3340338,9.8974223 C12.6034763,9.8974223 12.9110801,9.71197093 13.1036217,9.45245041 L13.1036217,7.78450196 Z M13.1036217,6.04248435 C13.1036217,5.59751246 12.9110801,5.30123581 12.4878357,5.30123581 C11.8720498,5.30123581 11.6795082,5.81971995 11.6795082,6.26469184 L9.52454651,5.81971995 C9.7934108,4.41129203 11.1793628,3.81818182 12.5647367,3.81818182 C14.0270115,3.81818182 15.5667654,4.41129203 15.5667654,6.04248435 L15.5667654,10.1201867 C15.5667654,10.9355044 15.682406,11.1950249 15.7974684,11.3064071 L13.2574236,11.3064071 C13.2192622,11.0836427 13.1805226,10.750053 13.1805226,10.6392278 C12.7572782,11.0468866 12.0258517,11.4545455 11.3331648,11.4545455 C10.1015929,11.4545455 9.17762485,10.6392278 9.21636443,9.30431208 C9.25510402,7.41415615 11.4869667,6.82048902 13.1036217,6.63559457 L13.1036217,6.04248435 Z" id="Fill-22" fill="#FFFFFF"></path>
                            <path d="M19.6983025,6.12414213 L19.6983025,11.4545455 L17.1139241,11.4545455 L17.1139241,4.00674803 L19.6176165,4.00674803 L19.6582628,4.76328476 C20.2230648,4.23393624 20.9098058,3.81818182 21.9192907,3.81818182 C23.0501079,3.81818182 23.6962025,4.53609655 23.6962025,5.55730755 L23.6962025,11.4545455 L21.1118241,11.4545455 L21.1118241,6.31327631 C21.1118241,5.89752189 20.9498454,5.67033368 20.5057691,5.67033368 C20.2230648,5.67033368 19.9403605,5.82198181 19.6983025,6.12414213" id="Fill-24" fill="#FFFFFF"></path>
                            <polygon id="Fill-26" fill="#FFFFFF" points="25.0126582 0 27.4199819 0 27.4199819 5.80932358 27.4572785 5.80932358 29.2254747 3.39512309 31.5949367 3.39512309 29.6018309 5.84988805 31.5949367 11.4545455 29.1130199 11.4545455 27.9466546 7.93649973 27.9087929 7.93649973 27.4199819 8.55049828 27.4199819 11.4545455 25.0126582 11.4545455"></polygon>
                            <path d="M2.69890313,4.54076202 L3.65121164,4.54076202 C4.64347298,4.54076202 5.04061604,3.96794256 5.04061604,3.31337954 C5.04061604,2.2089197 4.32623558,2.04543259 3.69116447,2.04543259 L2.69890313,2.04543259 L2.69890313,4.54076202 Z M2.69890313,9.32736931 L3.7311173,9.32736931 C4.36618841,9.32736931 5.15987821,9.04095958 5.15987821,7.89532065 C5.15987821,7.03670606 4.64347298,6.4638866 3.7311173,6.4638866 L2.69890313,6.4638866 L2.69890313,9.32736931 Z M5.83490215,5.48173477 C7.02513871,5.89106713 7.89873418,6.91378343 7.89873418,8.38701118 C7.89873418,10.3500856 6.3900676,11.4545455 4.24692623,11.4545455 L0,11.4545455 L0,0 L4.36618841,0 C6.35071108,0 7.6208533,1.22738248 7.6208533,2.78173916 C7.6208533,4.29553137 6.62859196,5.07301702 5.83490215,5.39999122 L5.83490215,5.48173477 Z" id="Fill-28" fill="#FFFFFF"></path>
                            <path d="M97.3951497,7.78450196 C96.5487252,7.85857113 95.8942495,8.19216081 95.8942495,9.11886072 C95.8942495,9.63790177 96.1636715,9.8974223 96.5868837,9.8974223 C96.8950424,9.8974223 97.1644643,9.71197093 97.3951497,9.45245041 L97.3951497,7.78450196 Z M97.3951497,6.04248435 C97.3951497,5.59751246 97.1644643,5.30123581 96.740674,5.30123581 C96.1636715,5.30123581 95.9711446,5.81971995 95.9329862,6.26469184 L93.8163469,5.81971995 C94.0857689,4.41129203 95.4710373,3.81818182 96.8563057,3.81818182 C98.3190474,3.81818182 99.858106,4.41129203 99.858106,6.04248435 L99.858106,10.1201867 C99.858106,10.9355044 99.9737378,11.1950249 100.050633,11.3064071 L97.5489399,11.3064071 C97.5107814,11.0836427 97.4720448,10.750053 97.4720448,10.6392278 C97.0488326,11.0468866 96.3174617,11.4545455 95.5866691,11.4545455 C94.3933494,11.4545455 93.4312932,10.6392278 93.4694516,9.30431208 C93.5469249,7.41415615 95.7786178,6.82048902 97.3951497,6.63559457 L97.3951497,6.04248435 Z" id="Fill-30" fill="#FFFFFF"></path>
                            <path d="M74.0834229,6.76931299 C74.0834229,6.10537775 74.0065082,5.2934703 73.1592899,5.2934703 C72.4664794,5.2934703 72.1969888,6.10537775 72.2357353,6.76931299 L74.0834229,6.76931299 Z M72.2357353,8.17144667 C72.1969888,8.7982503 72.3895647,9.90499377 73.3906123,9.90499377 C73.9677617,9.90499377 74.4685746,9.46218554 74.5836575,8.90909091 L76.2393475,9.46218554 C76.1236863,9.79415316 75.3921293,11.4545455 73.1980364,11.4545455 C70.8495359,11.4545455 69.7721519,9.64673515 69.7721519,7.61779783 C69.7721519,5.55228312 70.9270289,3.81818182 73.1592899,3.81818182 C75.5077904,3.81818182 76.3544304,5.77341013 76.3544304,7.69150684 L76.3544304,8.17144667 L72.2357353,8.17144667 Z" id="Fill-32" fill="#FFFFFF"></path>
                            <mask id="mask-4" fill="white">
                                <use xlink:href="#path-3"></use>
                            </mask>
                            <g id="Clip-35"></g>
                            <polygon id="Fill-34" fill="#FFFFFF" mask="url(#mask-4)" points="82.9367089 11.4545455 85.5696203 11.4545455 85.5696203 3.81818182 82.9367089 3.81818182"></polygon>
                            <polygon id="Fill-36" fill="#FFFFFF" mask="url(#mask-4)" points="82.9367089 2.54545455 85.5696203 2.54545455 85.5696203 0 82.9367089 0"></polygon>
                            <path d="M91.3135014,6.73239288 C91.3135014,6.43753546 91.3135014,6.06840945 91.195782,5.81013209 C91.0786513,5.51472044 90.8826485,5.29357738 90.490643,5.29357738 C89.6677846,5.29357738 89.5506539,6.25297246 89.5506539,7.72836802 C89.5506539,9.35174653 89.82494,9.90543554 90.490643,9.90543554 C91.3529374,9.90543554 91.4312208,9.05688911 91.4312208,8.5032001 L93.3900711,8.76147745 C93.1940683,10.5322847 92.0969238,11.4545455 90.2946403,11.4545455 C88.0615038,11.4545455 86.8860759,9.61002389 86.8860759,7.80208237 C86.8860759,5.81013209 88.0615038,3.81818182 90.4123596,3.81818182 C93.0375015,3.81818182 93.4683544,5.9946951 93.4683544,6.73239288 L91.3135014,6.73239288 Z" id="Fill-37" fill="#FFFFFF" mask="url(#mask-4)"></path>
                            <path d="M52.2175041,7.11806768 L54.1620229,7.11806768 L53.3167732,2.45463325 L53.2316767,2.45463325 L52.2175041,7.11806768 Z M51.4986291,0 L55.4302149,0 L57.9240506,11.4545455 L55.0498208,11.4545455 L54.5849652,9.12282824 L51.83711,9.12282824 L51.287793,11.4545455 L48.7088608,11.4545455 L51.4986291,0 Z" id="Fill-38" fill="#FFFFFF" mask="url(#mask-4)"></path>
                            <path d="M77.6708861,4.00730194 L80.2825975,4.00730194 L80.2825975,4.99038579 L80.3249975,4.99038579 C80.8724,4.19642205 81.883038,3.81818182 82.9367089,3.81818182 L82.9367089,6.23755629 C82.5994076,6.12453856 82.3045064,6.0490041 81.8412709,6.0490041 C81.1249013,6.0490041 80.6616658,6.27560748 80.3667646,6.61579652 L80.3667646,11.4545455 L77.6708861,11.4545455 L77.6708861,4.00730194 Z" id="Fill-39" fill="#FFFFFF" mask="url(#mask-4)"></path>
                            <path d="M64.4607878,6.12414213 L64.4607878,11.4545455 L61.9183529,11.4545455 L61.9183529,6.35076237 C61.9183529,5.93500794 61.7977175,5.67033368 61.3133576,5.67033368 C61.0714808,5.67033368 60.6677465,5.85946787 60.4658793,6.12414213 L60.4658793,11.4545455 L57.9240506,11.4545455 L57.9240506,4.00674803 L60.4258696,4.00674803 L60.4658793,4.76328476 C61.0308649,4.27199026 61.8377272,3.81818182 62.7658312,3.81818182 C63.5732998,3.81818182 64.0976694,4.23393624 64.3395462,4.80077082 L64.3801621,4.80077082 C64.8239061,4.34753034 65.5907588,3.81818182 66.6394981,3.81818182 C67.7294594,3.81818182 68.4556962,4.46112445 68.4556962,5.51925352 L68.4556962,11.4545455 L65.9132613,11.4545455 L65.9132613,6.35076237 C65.9132613,5.93500794 65.7920198,5.67033368 65.3082661,5.67033368 C64.9851574,5.67033368 64.622039,5.93500794 64.4607878,6.12414213" id="Fill-40" fill="#FFFFFF" mask="url(#mask-4)"></path>
                            <path d="M101.606575,10.1818182 C101.606575,10.7477108 102.085548,11.171245 102.707637,11.171245 C103.28226,11.171245 103.760514,10.7477108 103.760514,10.1818182 C103.760514,9.61592553 103.28226,9.14423028 102.707637,9.14423028 C102.085548,9.14423028 101.606575,9.61592553 101.606575,10.1818182 M101.367089,10.1818182 C101.367089,9.47427531 101.941712,8.90909091 102.707637,8.90909091 C103.425377,8.90909091 104,9.47427531 104,10.1818182 C104,10.8886528 103.425377,11.4545455 102.707637,11.4545455 C101.941712,11.4545455 101.367089,10.8886528 101.367089,10.1818182" id="Fill-41" fill="#FFFFFF" mask="url(#mask-4)"></path>
                            <path d="M103.210127,10.6910366 C103.420443,10.6910366 103.736709,10.7330996 103.736709,10.5215095 C103.736709,10.3513452 103.578576,10.3092821 103.368259,10.3092821 L102.946835,10.3092821 L102.946835,10.6910366 L103.210127,10.6910366 Z M103.947026,11.4545455 L103.683734,11.4545455 L103.210127,10.8605636 L102.946835,10.8605636 L102.946835,11.4545455 L102.683544,11.4545455 L102.683544,10.1818182 L103.420443,10.1818182 C103.525602,10.1818182 103.683734,10.1818182 103.788893,10.2245186 C103.947026,10.3092821 104,10.3940456 104,10.5215095 C104,10.7758001 103.736709,10.8605636 103.473418,10.8605636 L103.947026,11.4545455 Z" id="Fill-42" fill="#FFFFFF" mask="url(#mask-4)"></path>
                        </g>
                    </g>
                </g>
            </g>
        </g>
    </g>
</svg>