<svg height="33" viewBox="0 0 84 33" width="84" xmlns="http://www.w3.org/2000/svg" xmlns:xlink="http://www.w3.org/1999/xlink"><mask id="a" fill="#fff"><path d="m0 .03100368v20.36352862h19.5370724v-20.36352862z" fill="none"/></mask><mask id="b" fill="#fff"><path d="m1.1341875.5644375v-.54329687h-1.13360625v.54329687z" fill="none"/></mask><g fill="#fff" fill-rule="evenodd" transform=""><path d="m4.06069602 8.38978427s.27651989-5.49024193 5.83227273-5.49190524c5.53546875-.0016633 5.53546875 5.49190524 5.53546875 5.49190524zm5.92772728-8.35878024c-9.65910512-.00199597-10.0343608 8.38339718-9.98514205 10.56033267 0 0-.47309659 9.8031956 9.74859375 9.8031956 8.7830114 0 9.2155398-6.15124 9.2155398-6.15124l-4.0410086.0093146s-.7869034 3.3884879-5.15782665 3.298004c-5.61928978-.1167641-5.83734375-6.1878327-5.83734375-6.1878327h15.5671449s1.18125-11.32944554-9.5099574-11.33177417z" mask="url(#a)" transform="translate(0 8.25)"/><path d="m30.1384411 24.6240313c-6.3765038.0843278-6.2729216-7.1279832-6.2729216-7.1279832s-.2322845-6.9420046 6.2626874-7.1204657c6.4946618-.1784611 6.2831558 7.2685295 6.2831558 7.2685295s.1035821 6.894938-6.2729216 6.9799194m.9272772-17.13226202c-5.0491639-.02974351-7.2212874 3.15150472-7.2212874 3.15150472v-10.643274h-4.0477665l.0685379 22.4939384s-.0245 2.6203706-.1777023 4.3520312h3.9317793l.1683985-2.5272178s1.8340861 3.1812482 7.193376 3.1812482c5.3596001 0 9.5915816-3.4786833 9.7044675-9.9297566.1122657-6.4514001-4.5700189-10.04873061-9.619803-10.07847412"/><path d="m49.4196803 26.0831549s-4.1681448.0053666-4.4128425-3.5006854c-.2603099-3.7411752 6.4124815-3.5161144 6.4124815-3.5161144l4.7145726-.0046957s.7634059 7.1248021-6.7142116 7.0214955m10.8680187-2.4364261c.0105144-2.9858294.0933547-5.6520121 0-7.532662-.1089669-2.1805074.087301-7.44310726-8.8683797-7.83218411 0 0-8.585448-.82376961-9.4769378 5.90323501h4.390858s.3412386-3.0820924 4.7967758-2.9932085c4.2165745.0838528 4.9847596 2.2610061 4.9627751 4.9382573 0 0-3.6137517.0107332-4.8200348.017106-2.1732851.011404-9.7796237.2649748-10.4895019 5.1421873-.8446532 5.7992575 4.0722411 7.6084649 7.9192202 7.5853215 3.8472978-.0228079 6.0422488-1.235319 7.6726109-3.4091182l.1742834 2.6997238 3.8256318-.022808s-.0987712-1.5096852-.087301-4.4958501"/><path d="m56.4375 8.25h4.6175779l6.7531773 13.8837553 6.767508-13.8837553h4.1742368l-12.217799 24.75h-4.4645124l3.5357524-6.877585z"/><path d="m81.6414116 9.31226568v-.56017245h-.2664116v-.20997876h.2664116v-.29211447h.4815495v.29211447h.5645389v.20997876h-.5645389v.52202574c0 .09485129.095147.132998.2579541.132998.1078333 0 .2040375-.01202824.2991845-.03642839v.19966883c-.1194624.03436641-.2505538.05464259-.4334475.05464259-.3552154 0-.6052406-.07869908-.6052406-.31273432"/><path d="m.00058125.03214063h.1708125v.08060937c.048-.04726562.1130625-.09160937.2274375-.09160937.106875 0 .183375.03729687.2225625.09367187.0594375-.056375.13875-.09367187.251625-.09367187.162 0 .2611875.0735625.2611875.20367187v.339625h-.1708125v-.30232813c0-.08473437-.055125-.13010937-.1509375-.13010937-.0935625 0-.1595625.04640625-.1595625.132v.3004375h-.171v-.30335937c0-.08267188-.0564375-.12907813-.15075-.12907813-.0945 0-.15975.05035938-.15975.132v.3004375h-.1708125z" mask="url(#b)" transform="translate(82.6875 8.25)"/></g></svg>