<svg height="32" viewBox="0 0 77 32" width="77" xmlns="http://www.w3.org/2000/svg" xmlns:xlink="http://www.w3.org/1999/xlink"><mask id="a" fill="#fff"><path d="m76.0791985 31.09632h-76.0791985v-31.095808h76.0791985z" fill="none"/></mask><path d="m35.7999062 10.698752c.1457076-.16.3921076-.63616.3435384-.9536-.0236923-.15872-.0971384-.3456-.2700923-.31872-.3696.07808-.5899385.26624-.6870769.66176-.1243846.42368-.0734462.7168 0 1.03424 0 0 .2440308.02688.6136308-.42368m19.3566153 10.2592c1.0554923-.05248 2.9923385-2.22592 3.4602616-2.75712.0971384-.13312.2700923-.36992.3648615-.36992.0995077 0 .2961539.10496.2961539.2624 0 .10752-.2203385.5056-.3909231.74368-.9832308 1.32608-2.6014154 3.3664-4.4423077 3.41888-.9062308 0-1.2497692-.39552-1.3741539-1.1648-.4158.3968-1.8397076 1.08672-3.2884923 1.08672-1.2023846-.02688-1.694-.79488-1.9368461-1.40416-.2227077-.50432-.3186616-1.24672-.1468923-1.98912-.6633846.3712-1.2770154.42368-2.1595539.39808-1.0294307-.02688-1.6679384-.5312-1.9854154-1.82784-1.1786923 2.3296-1.2284461 2.41152-2.4296461 4.84864h-2.0872923l2.6748615-4.90496c.3447231-.66048.5164923-1.1904.6373231-1.74848.0746308-.31744-.1457077-.60928-.4655538-.63488-.3411693 0-.9062308.36992-1.4476.928 0 0-1.3753385 1.59104-2.3798924 3.20512-.9559846 1.53856-2.6002307 3.29088-4.3901846 3.29088-1.3018923 0-2.4805846-.77056-2.7234307-2.25536 0 0-.1243847.3456-1.2770154 1.05984-.0983231.05248-.3435385.2112-.4169846.15872-.2215231-.2112-.3423539-.47744-.3672308-.66304.0734461.0256.2203385-.10496.6858923-.50304.9086-.74368 1.1052462-1.3248 1.1052462-1.3248.221523-.5056.6136307-1.2992.883723-1.856.7344616-1.59104 2.0091077-3.20768 4.0952154-3.28704.3447231 0 .4418616.15872.5153077.29184.1978308.16.1243846.47616.1243846.47616-1.4724769.23808-2.4794 1.16736-3.0918461 2.06848-.3684154.58368-.7593385 1.536-.8351539 2.2272-.1457077 1.19296.3707846 1.98912 1.1289385 2.17344 1.4227231.23808 2.6002308-.87424 3.5348923-2.59968.2428461-.44928.4169846-1.61536.4169846-2.2528 0-.63616-.3198461-1.29664-.5650615-1.56288 0-.45184.2689077-.7424.5875692-.7424.0983231 0 .1954615 0 .2949692.10624.4892462.52864.7605231 1.53728.7605231 2.30784 0 .2624 0 .52864-.0485692.7936 1.0306154-1.35168 2.3301384-3.10144 3.3358769-3.44832.1966462-.10496.3932923-.10496.5899385-.10496 1.8397077-.05248 1.5933077 1.74848 1.5933077 1.74848.9820461-1.21728 1.669123-1.66912 2.5741692-1.61664.9844154.05632 1.3279538.79616 1.3279538 1.38112-.0260615.68864-.4928 1.48224-1.3007077 1.50912-.7107692 0-1.1289384-.3712-1.3504615-1.05984-.4643692.1856-.6858923.5312-.7830308 1.21984-.1468923.87296.4655539 1.56416 1.2497693 1.56416 1.3492769 0 1.9380307-.63616 2.4284615-1.1136 1.6679385-1.69728 2.6026-3.4752 5.0073692-3.44448 1.4440462.02432 1.8148308 1.27232 2.0588616 1.80096l3.1664769-5.7792h1.9368461l-5.2502153 10.04672c-.0971385.21248-.3423539.61056-.3198462.928.0497539.50432.6385077.3712.4181692.3712m-33.6383384 1.40544c-2.1334923 0-4.0217693-1.5104-4.0703385-4.21504-.0248769-1.64352 1.2012-3.65824 3.4815846-4.2688.271277 0 .3707846.10624.3707846.26624 0 .10496-.0995076.2368-.3198461.34432-.6610154.26624-1.8160154 1.67168-1.8160154 2.96704 0 .98304.5662462 2.06976 1.5234154 2.30912.2665385.07808.5129385.05248.7581538.05248 2.381077 0 5.0547539-2.89024 7.9511385-7.2896-.4667385.0256-2.4568923.26368-2.9449538.87296-.2215231.18816-.3672308.07936-.4181693-.13056 0-.05376.0746308-.24064.1492616-.3456.7818461-.9536 3.1380461-1.16736 3.7031077-1.24544 2.1133538-3.50336 4.8083538-5.73696 5.5487384-5.89696-.0154-.00512-.0355384-.0128-.0544923-.01664-1.8882769-.47744-3.6059692-.87296-4.9540615-.87296-4.7360923 0-6.8447077 2.19904-6.7463846 4.21504.0497538.82176.6622 1.3504 1.5672461 1.16608.9832308-.18688 2.3562-1.19296 2.7021077-2.06848.0734462-.1856.2700923-.2112.3423538-.15872.1457077.13056.0971385.31872.0971385.31872-.1208308 1.03296-1.5944923 3.8976-4.1461538 3.8976-1.4227231 0-2.381077-1.43232-2.3526462-2.83776.0225077-2.624 2.5007231-5.27616 8.6097846-5.27616 1.1526308 0 2.4533385.10752 3.8760616.37248 1.6430615.31744 5.7418307 1.05984 9.076523 1.11232 1.226077 0 2.7992462.05376 4.0738923-.15744 1.3480924-.23936 1.0531231-.29184 1.5933077-.29184.4916154 0 .4916154.2112.4916154.42368 0 .84736-2.7483077 2.46528-5.0784461 2.46528-3.4330154 0-6.9975231-1.6832-8.8478923-2.22464.0722615.07296.1220153.18944.0651538.34176-.0236923.05376-.2689077.3456-.3696.42368-.4904308.47744-2.1583692 1.64608-3.9743846 4.96 1.4736615-.07936 3.1889846-.39808 3.1889846-.39808s-.0947692-.3456-.0947692-.63872c.0734461-1.1392.6858923-1.82912 1.4701077-1.696.4418615.07808.7380154.47744.7380154.9024 0 .448-.3210308 1.1136-.6373231 1.43232-.2215231.18432-.4679231.36992-.7628923.52864 0 .29312.3672307.52992.6870769.55808-.0734462.29056-.0497539.4224-.1717692.3968-.7368308 0-1.0318-.77056-1.0318-.77056-.9808616.18688-1.9356616.32-3.8736923.5312-4.8841693 8.53632-6.4052154 9.94176-9.3999231 9.94176m16.5324923-19.63264c-19.5769539 0-35.39986155 5.75232-35.39986155 12.83072 0 7.10528 15.82290765 12.85888 35.39986155 12.85888 19.5544461 0 35.4294769-5.7536 35.4294769-12.85888 0-7.0784-15.8750308-12.83072-35.4294769-12.83072m15.1938769 12.10368c-.8600308-.10752-1.9392154.68864-2.8241231 1.856-.4406769.5824-.9086 1.696-.9808615 2.35776-.0971385.66304.0722615 1.32864.2949692 1.51168.2203385.18688 1.2012.7424 2.7222462-.928.8600307-.92544 1.6928154-2.4384 1.6928154-2.4384l-.2689077-.07808c.5153077-1.03552.4181692-2.14784-.6361385-2.28096m-15.1938769 14.67008c-20.1657077 0-36.55367694-6.20288-36.55367694-13.94304 0-7.71584 16.38796924-13.9968 36.55367694-13.9968 20.2190154 0 36.5809231 6.28096 36.5809231 13.9968 0 7.74016-16.3619077 13.94304-36.5809231 13.94304m0-29.504c-21.0233692 0-38.05103078 6.97216-38.05103078 15.56096s17.02766158 15.53536 38.05103078 15.53536c21.0020461 0 38.0285231-6.94656 38.0285231-15.53536s-17.026477-15.56096-38.0285231-15.56096" fill="#fff" fill-rule="evenodd" mask="url(#a)" transform=""/></svg>