<?xml version="1.0" encoding="UTF-8"?>
<svg width="65px" height="65px" viewBox="0 0 65 65" version="1.1" xmlns="http://www.w3.org/2000/svg" xmlns:xlink="http://www.w3.org/1999/xlink">
    <!-- Generator: sketchtool 45.2 (43514) - http://www.bohemiancoding.com/sketch -->
    <title>EED710B1-35AE-45AC-805C-6DC0DA1AB1E7</title>
    <desc>Created with sketchtool.</desc>
    <defs></defs>
    <g id="Page-1" stroke="none" stroke-width="1" fill="none" fill-rule="evenodd">
        <g id="PrimeReact-Showcase---Homepage" transform="translate(-1080.000000, -845.000000)">
            <g id="homepage" transform="translate(301.000000, 70.000000)">
                <g id="features" transform="translate(20.000000, 350.000000)">
                    <g id="info-box" transform="translate(92.000000, 171.000000)">
                        <g id="Group" transform="translate(119.000000, 253.000000)">
                            <g id="templates" transform="translate(481.000000, 1.000000)">
                                <g id="icon-templates" transform="translate(67.000000, 0.000000)">
                                    <path d="M39.8478261,0 L25.1521739,0 C11.3043478,0 0,11.3043478 0,25.1521739 L0,39.8478261 C0,53.6956522 11.3043478,65 25.1521739,65 L39.8478261,65 C53.6956522,65 65,53.6956522 65,39.8478261 L65,25.1521739 C65,11.3043478 53.6956522,0 39.8478261,0 Z M63.5869565,39.8478261 C63.5869565,52.9184783 52.9184783,63.5869565 39.8478261,63.5869565 L25.1521739,63.5869565 C12.0815217,63.5869565 1.41304348,52.9184783 1.41304348,39.8478261 L1.41304348,25.1521739 C1.41304348,12.0815217 12.0815217,1.41304348 25.1521739,1.41304348 L39.8478261,1.41304348 C52.9184783,1.41304348 63.5869565,12.0815217 63.5869565,25.1521739 L63.5869565,39.8478261 Z M59.3478261,39.5652174 C59.3478261,50.4456522 50.4456522,59.3478261 39.5652174,59.3478261 L25.4347826,59.3478261 C14.5543478,59.3478261 5.65217391,50.4456522 5.65217391,39.5652174 L5.65217391,25.4347826 C5.65217391,14.5543478 14.5543478,5.65217391 25.4347826,5.65217391 L39.5652174,5.65217391 C50.4456522,5.65217391 59.3478261,14.5543478 59.3478261,25.4347826 L59.3478261,39.5652174 Z" id="Shape" fill="#222222" fill-rule="nonzero"></path>
                                    <g transform="translate(17.000000, 17.000000)" fill="#FFFFFF">
                                        <path d="M29.0483965,0 L1.21034985,0 C0.541472303,0 0,0.531065602 0,1.18708782 L0,23.7417563 C0,24.3977785 0.541472303,24.9288442 1.21034985,24.9288442 L29.0483965,24.9288442 C29.7172741,24.9288442 30.2587464,24.3977785 30.2587464,23.7417563 L30.2587464,1.18708782 C30.2587464,0.531065602 29.7172741,0 29.0483965,0 Z M15.416035,23.7417563 C14.7471574,23.7417563 14.2056851,23.2106907 14.2056851,22.5546685 C14.2056851,21.8986463 14.7471574,21.3675807 15.416035,21.3675807 C16.0849125,21.3675807 16.6263848,21.8986463 16.6263848,22.5546685 C16.6263848,23.2106907 16.0849125,23.7417563 15.416035,23.7417563 Z M29.0483965,20.1804929 L1.21034985,20.1804929 L1.21034985,1.78063173 C1.21034985,1.46824019 1.49701166,1.18708782 1.81552478,1.18708782 L28.4432216,1.18708782 C28.7617347,1.18708782 29.0483965,1.46824019 29.0483965,1.78063173 L29.0483965,20.1804929 Z" id="Shape"></path>
                                        <path d="M22.0975219,28.3741756 L20.887172,28.3741756 C19.8997813,28.3741756 19.0716472,27.5619577 19.0716472,26.5935439 L19.0716472,26 L11.2362245,26 L11.2362245,26.5935439 C11.2362245,27.5619577 10.4080904,28.3741756 9.42069971,28.3741756 L8.21034985,28.3741756 C7.5414723,28.3741756 7,28.6240889 7,29.2488719 L7,29.5300243 L23.339723,29.5300243 L23.339723,29.2488719 C23.3078717,28.5928497 22.7663994,28.3741756 22.0975219,28.3741756 Z" id="Shape"></path>
                                        <rect id="Rectangle-path" x="2" y="2" width="25.4173469" height="4.74835127"></rect>
                                        <rect id="Rectangle-path" x="16" y="8" width="12.1034985" height="5.93543908"></rect>
                                        <rect id="Rectangle-path" x="2" y="8" width="12.1034985" height="1.18708782"></rect>
                                        <rect id="Rectangle-path" x="2" y="13" width="12.1034985" height="1.18708782"></rect>
                                        <rect id="Rectangle-path" x="2" y="11" width="12.1034985" height="1.18708782"></rect>
                                        <rect id="Rectangle-path" x="12" y="16" width="6.6569242" height="3.56126345"></rect>
                                        <rect id="Rectangle-path" x="2" y="16" width="8.15393586" height="3.56126345"></rect>
                                        <rect id="Rectangle-path" x="19" y="16" width="8.15393586" height="1.18708782"></rect>
                                        <rect id="Rectangle-path" x="19" y="18" width="8.15393586" height="1.18708782"></rect>
                                    </g>
                                </g>
                            </g>
                        </g>
                    </g>
                </g>
            </g>
        </g>
    </g>
</svg>