<?xml version="1.0" encoding="UTF-8"?>
<svg width="65px" height="65px" viewBox="0 0 65 65" version="1.1" xmlns="http://www.w3.org/2000/svg" xmlns:xlink="http://www.w3.org/1999/xlink">
    <!-- Generator: sketchtool 45.2 (43514) - http://www.bohemiancoding.com/sketch -->
    <title>326BF021-FA5A-4605-9CA7-DB0CEB3A4448</title>
    <desc>Created with sketchtool.</desc>
    <defs></defs>
    <g id="Page-1" stroke="none" stroke-width="1" fill="none" fill-rule="evenodd">
        <g id="PrimeReact-Showcase---Homepage" transform="translate(-840.000000, -845.000000)">
            <g id="homepage" transform="translate(301.000000, 70.000000)">
                <g id="features" transform="translate(20.000000, 350.000000)">
                    <g id="info-box" transform="translate(92.000000, 171.000000)">
                        <g id="Group" transform="translate(119.000000, 253.000000)">
                            <g id="mobile" transform="translate(240.000000, 1.000000)">
                                <g id="icon-mobile" transform="translate(68.000000, 0.000000)">
                                    <g>
                                        <path d="M39.8478261,0 L25.1521739,0 C11.3043478,0 0,11.3043478 0,25.1521739 L0,39.8478261 C0,53.6956522 11.3043478,65 25.1521739,65 L39.8478261,65 C53.6956522,65 65,53.6956522 65,39.8478261 L65,25.1521739 C65,11.3043478 53.6956522,0 39.8478261,0 Z M63.5869565,39.8478261 C63.5869565,52.9184783 52.9184783,63.5869565 39.8478261,63.5869565 L25.1521739,63.5869565 C12.0815217,63.5869565 1.41304348,52.9184783 1.41304348,39.8478261 L1.41304348,25.1521739 C1.41304348,12.0815217 12.0815217,1.41304348 25.1521739,1.41304348 L39.8478261,1.41304348 C52.9184783,1.41304348 63.5869565,12.0815217 63.5869565,25.1521739 L63.5869565,39.8478261 Z M59.3478261,39.5652174 C59.3478261,50.4456522 50.4456522,59.3478261 39.5652174,59.3478261 L25.4347826,59.3478261 C14.5543478,59.3478261 5.65217391,50.4456522 5.65217391,39.5652174 L5.65217391,25.4347826 C5.65217391,14.5543478 14.5543478,5.65217391 25.4347826,5.65217391 L39.5652174,5.65217391 C50.4456522,5.65217391 59.3478261,14.5543478 59.3478261,25.4347826 L59.3478261,39.5652174 Z" id="Shape" fill="#222222" fill-rule="nonzero"></path>
                                        <path d="M24,45.8547032 C24,46.8896564 24.8556369,47.7290524 25.9106145,47.7290524 L37.6287318,47.7290524 C38.6837095,47.7290524 39.5393464,46.889344 39.5393464,45.8547032 L39.5393464,22.4003471 L24,22.4003471 L24,45.8547032 Z M31.769514,43.9169386 C32.5235698,43.9169386 33.1371955,44.518917 33.1371955,45.2583478 C33.1371955,45.9977785 32.5235698,46.599757 31.769514,46.599757 C31.0154581,46.599757 30.4018324,45.9977785 30.4018324,45.2583478 C30.4018324,44.518917 31.0154581,43.9169386 31.769514,43.9169386 Z M37.6284134,18 L25.9106145,18 C24.8556369,18 24,18.8390837 24,19.8743492 L24,21.7736897 L39.5393464,21.7736897 L39.5393464,19.8743492 C39.5390279,18.8390837 38.6837095,18 37.6284134,18 Z M28.4208436,20.3285665 C28.1816983,20.3285665 27.9871341,20.1376952 27.9871341,19.9027768 C27.9871341,19.6678584 28.1816983,19.4769872 28.4208436,19.4769872 C28.6599888,19.4769872 28.8545531,19.6678584 28.8545531,19.9027768 C28.8545531,20.1376952 28.6599888,20.3285665 28.4208436,20.3285665 Z M33.7001899,20.2151683 L29.8391564,20.2151683 C29.6630615,20.2151683 29.5207207,20.0752169 29.5207207,19.9027768 C29.5207207,19.7303367 29.6630615,19.5903853 29.8391564,19.5903853 L33.7001899,19.5903853 C33.8762849,19.5903853 34.0186257,19.7303367 34.0186257,19.9027768 C34.0186257,20.0752169 33.8759665,20.2151683 33.7001899,20.2151683 Z" id="Shape" fill="#FFFFFF"></path>
                                        <g id="mask" transform="translate(26.792402, 26.702967)" fill="#20272A">
                                            <polygon id="Shape" points="4.71009589 6.00416257 0.619293371 4.52798484 0 2 3.24539552 2.62850937"></polygon>
                                            <polygon id="Shape" points="6 6.00416257 10.0913063 4.52798484 10.7113051 2 7.46409578 2.62850937"></polygon>
                                            <polygon id="Shape" points="3.06897995 2.1923702 1 1.79764993 2.40414141 0 4.17083043 0"></polygon>
                                            <polygon id="Shape" points="8.10174971 2.1923702 10.1702258 1.79764993 8.76598367 0 7 0"></polygon>
                                            <polygon id="Shape" points="7.17292489 2.65770512 5.71034056 6.35005136 6.14795708 9.15249699 3.97418293 9.15249699 4.46701793 6.34605246 3 2.65770512 3.95141035 0 6.20045494 0"></polygon>
                                            <polygon id="Shape" points="0.921685074 6.55635071 2.35565253 7.30219353 2.35565253 10.2469413 0 8.29606543 0 5 0.921685074 5.36575266"></polygon>
                                            <polygon id="Shape" points="9.43447127 6.55635071 8 7.30219353 8 10.2469413 10.3562571 8.29606543 10.3562571 5 9.43447127 5.36575266"></polygon>
                                            <polygon id="Shape" points="6.83042925 6 6.29436666 6.27065697 6.29436666 6.77880933 6.6299096 9.47991709 5.91096098 10.187234 5.28572256 10.1928909 4.65998031 10.187234 3.94042711 9.47991709 4.27657464 6.77880933 4.27657464 6.27065697 3.7417212 6 3 7.20600843 3 11.5847017 3.76570295 10.9050845 5.28572256 10.8888939 6.80584293 10.9050845 7.56973213 11.5847017 7.56973213 7.20600843"></polygon>
                                            <polygon id="Shape" points="6.70227947 13.3951269 4.70091192 13.3951269 4 12.697661 4.70091192 12 6.70227947 12 7.42596398 12.697661"></polygon>
                                            <polygon id="Shape" points="2.30629991 11.3610066 1 9.95768676 1 9 2.30629991 9.82640594"></polygon>
                                            <polygon id="Shape" points="8 11.3610066 9.30519151 9.95768676 9.30519151 9 8 9.82640594"></polygon>
                                            <polygon id="Shape" points="6.6409936 11.3745307 3.92934311 11.3745307 3.39156753 12.087407 3 11.8899006 3.91654613 11 6.66376618 11 7.56973213 11.8899006 7.18521805 12.087407"></polygon>
                                        </g>
                                    </g>
                                </g>
                            </g>
                        </g>
                    </g>
                </g>
            </g>
        </g>
    </g>
</svg>