<?xml version="1.0" encoding="UTF-8"?>
<svg width="239px" height="227px" viewBox="0 0 239 227" version="1.1" xmlns="http://www.w3.org/2000/svg" xmlns:xlink="http://www.w3.org/1999/xlink">
    <!-- Generator: sketchtool 45.2 (43514) - http://www.bohemiancoding.com/sketch -->
    <title>27510908-4FAE-445E-A931-67480693D119</title>
    <desc>Created with sketchtool.</desc>
    <defs></defs>
    <g id="Page-1" stroke="none" stroke-width="1" fill="none" fill-rule="evenodd">
        <g id="PrimeReact-Showcase---Homepage" transform="translate(-1067.000000, -1313.000000)">
            <g id="homepage" transform="translate(301.000000, 70.000000)">
                <g id="pro" transform="translate(100.000000, 1243.000000)">
                    <g id="icon-pro" transform="translate(666.000000, 0.000000)">
                        <g id="prime-pro" fill-rule="nonzero">
                            <path d="M21.6783851,115.917877 C22.4259156,115.917877 23.1734461,115.354869 23.1734461,114.416524 L23.1734461,95.6496093 C23.1734461,94.8989327 22.6127982,94.1482561 21.6783851,94.1482561 C20.7439719,94.1482561 20.183324,94.7112636 20.183324,95.6496093 L20.183324,114.604193 C20.3702067,115.354869 20.9308545,115.917877 21.6783851,115.917877 Z" id="Shape" fill="#222222"></path>
                            <path d="M20.3702067,130.180732 C20.3702067,130.931408 20.9308545,131.682085 21.8652677,131.682085 C22.7996808,131.682085 23.3603287,131.119078 23.3603287,130.180732 L23.3603287,123.424643 C23.3603287,122.673966 22.7996808,121.923289 21.8652677,121.923289 C20.9308545,121.923289 20.3702067,122.486297 20.3702067,123.424643 L20.3702067,130.180732 Z" id="Shape" fill="#222222"></path>
                            <path d="M60.1762068,30.5284162 C60.1762068,34.4694683 63.3532115,37.6598437 67.2777467,37.6598437 C71.202282,37.6598437 74.3792867,34.4694683 74.3792867,30.5284162 C74.3792867,26.5873642 71.202282,23.3969888 67.2777467,23.3969888 C63.3532115,23.3969888 60.1762068,26.5873642 60.1762068,30.5284162 Z M71.5760472,30.5284162 C71.5760472,32.9681151 69.7072209,34.8448066 67.2777467,34.8448066 C64.8482726,34.8448066 62.9794463,32.9681151 62.9794463,30.5284162 C62.9794463,28.0887174 64.8482726,26.2120259 67.2777467,26.2120259 C69.7072209,26.2120259 71.5760472,28.2763865 71.5760472,30.5284162 Z" id="Shape" fill="#222222"></path>
                            <path d="M134.742376,210.878464 C131.191606,210.878464 128.201484,213.88117 128.201484,217.446884 C128.201484,221.012598 131.191606,224.015304 134.742376,224.015304 C138.293146,224.015304 141.283268,221.012598 141.283268,217.446884 C141.283268,213.88117 138.293146,210.878464 134.742376,210.878464 Z M134.742376,221.387936 C132.686667,221.387936 131.004724,219.698914 131.004724,217.634553 C131.004724,215.570192 132.686667,213.88117 134.742376,213.88117 C136.798085,213.88117 138.480029,215.570192 138.480029,217.634553 C138.480029,219.698914 136.798085,221.387936 134.742376,221.387936 Z" id="Shape" fill="#222222"></path>
                            <path d="M206.131541,214.444178 C206.131541,213.693501 205.570893,212.942824 204.63648,212.942824 L181.276151,212.942824 C180.52862,212.942824 179.78109,213.505832 179.78109,214.444178 C179.78109,215.194854 180.341738,215.945531 181.276151,215.945531 L204.63648,215.945531 C205.570893,215.757862 206.131541,215.194854 206.131541,214.444178 Z" id="Shape" fill="#03C4E8"></path>
                            <path d="M219.960855,212.942824 L212.298668,212.942824 C211.551137,212.942824 210.803606,213.505832 210.803606,214.444178 C210.803606,215.194854 211.364254,215.945531 212.298668,215.945531 L219.960855,215.945531 C220.708386,215.945531 221.455916,215.382523 221.455916,214.444178 C221.455916,213.505832 220.895268,212.942824 219.960855,212.942824 Z" id="Shape" fill="#03C4E8"></path>
                            <path d="M219.960855,221.012598 L203.702067,221.012598 C202.954536,221.012598 202.207006,221.575605 202.207006,222.513951 C202.207006,223.264627 202.767653,224.015304 203.702067,224.015304 L219.960855,224.015304 C220.708386,224.015304 221.455916,223.452297 221.455916,222.513951 C221.455916,221.575605 220.895268,221.012598 219.960855,221.012598 Z" id="Shape" fill="#03C4E8"></path>
                            <path d="M196.600527,221.012598 L191.367813,221.012598 C190.620282,221.012598 189.872752,221.575605 189.872752,222.513951 C189.872752,223.264627 190.4334,224.015304 191.367813,224.015304 L196.600527,224.015304 C197.348057,224.015304 198.095588,223.452297 198.095588,222.513951 C198.095588,221.575605 197.53494,221.012598 196.600527,221.012598 Z" id="Shape" fill="#03C4E8"></path>
                            <path d="M58,9.50135315 C58,10.2520297 58.5606479,11.0027063 59.495061,11.0027063 L82.8553898,11.0027063 C83.6029203,11.0027063 84.3504508,10.4396989 84.3504508,9.50135315 C84.3504508,8.75067658 83.7898029,8 82.8553898,8 L59.3081784,8 C58.5606479,8.18766914 58,8.75067658 58,9.50135315 Z" id="Shape" fill="#03C4E8"></path>
                            <path d="M44.495061,11.0027063 L52.1572489,11.0027063 C52.9047794,11.0027063 53.6523099,10.4396989 53.6523099,9.50135315 C53.6523099,8.75067658 53.091662,8 52.1572489,8 L44.495061,8 C43.7475305,8 43,8.56300743 43,9.50135315 C43,10.4396989 43.7475305,11.0027063 44.495061,11.0027063 Z" id="Shape" fill="#03C4E8"></path>
                            <path d="M44.495061,2.81503716 L60.7538498,2.81503716 C61.5013804,2.81503716 62.2489109,2.25202973 62.2489109,1.31368401 C62.2489109,0.375338289 61.5013804,0 60.7538498,0 L44.495061,0 C43.7475305,0 43,0.563007433 43,1.50135315 C43,2.43969888 43.7475305,2.81503716 44.495061,2.81503716 Z" id="Shape" fill="#03C4E8"></path>
                            <path d="M67.495061,2.81503716 L72.7277747,2.81503716 C73.4753052,2.81503716 74.2228357,2.25202973 74.2228357,1.31368401 C74.2228357,0.375338289 73.4753052,0 72.7277747,0 L67.495061,0 C66.7475305,0 66,0.563007433 66,1.50135315 C66,2.43969888 66.7475305,2.81503716 67.495061,2.81503716 Z" id="Shape" fill="#03C4E8"></path>
                            <path d="M41.1141786,161.146141 L17.5669672,161.146141 C16.8194367,161.146141 16.0719062,161.709148 16.0719062,162.647494 C16.0719062,163.39817 16.6325541,164.148847 17.5669672,164.148847 L41.1141786,164.148847 C41.8617091,164.148847 42.6092396,163.58584 42.6092396,162.647494 C42.422357,161.896817 41.8617091,161.146141 41.1141786,161.146141 Z" id="Shape" fill="#03C4E8"></path>
                            <path d="M9.90477938,161.146141 L2.42947419,161.146141 C1.68194367,161.146141 0.934413149,161.709148 0.934413149,162.647494 C0.934413149,163.39817 1.49506104,164.148847 2.42947419,164.148847 L10.091662,164.148847 C10.8391925,164.148847 11.5867231,163.58584 11.5867231,162.647494 C11.3998404,161.896817 10.6523099,161.146141 9.90477938,161.146141 Z" id="Shape" fill="#03C4E8"></path>
                            <path d="M2.42947419,155.891405 L18.688263,155.891405 C19.4357935,155.891405 20.183324,155.328397 20.183324,154.390051 C20.183324,153.639375 19.6226761,152.888698 18.688263,152.888698 L2.42947419,152.888698 C1.68194367,152.888698 0.934413149,153.451706 0.934413149,154.390051 C0.934413149,155.328397 1.49506104,155.891405 2.42947419,155.891405 Z" id="Shape" fill="#03C4E8"></path>
                            <path d="M31.0225166,155.891405 C31.7700471,155.891405 32.5175776,155.328397 32.5175776,154.390051 C32.5175776,153.639375 31.9569297,152.888698 31.0225166,152.888698 L25.7898029,152.888698 C25.0422724,152.888698 24.2947419,153.451706 24.2947419,154.390051 C24.2947419,155.140728 24.8553898,155.891405 25.7898029,155.891405 L31.0225166,155.891405 Z" id="Shape" fill="#03C4E8"></path>
                            <path d="M134.742376,13.6381933 C134.929259,13.8258624 135.303024,14.0135315 135.676789,14.0135315 C136.050555,14.0135315 136.42432,13.8258624 136.611202,13.6381933 C137.17185,13.0751858 137.17185,12.1368401 136.611202,11.5738327 L133.434198,8.38345721 C132.87355,7.82044978 131.939137,7.82044978 131.378489,8.38345721 C130.817841,8.94646465 130.817841,9.88481037 131.378489,10.4478178 L134.742376,13.6381933 Z" id="Shape" fill="#222222"></path>
                            <path d="M144.647156,23.772327 C144.834038,23.9599962 145.207803,24.1476653 145.581569,24.1476653 C145.955334,24.1476653 146.329099,23.9599962 146.515982,23.772327 C147.07663,23.2093196 147.07663,22.2709739 146.515982,21.7079665 L143.338977,18.517591 C142.778329,17.9545836 141.843916,17.9545836 141.283268,18.517591 C140.72262,19.0805984 140.72262,20.0189442 141.283268,20.5819516 L144.647156,23.772327 Z" id="Shape" fill="#222222"></path>
                            <path d="M132.686667,24.1476653 C133.060432,24.1476653 133.434198,23.9599962 133.62108,23.772327 L136.798085,20.5819516 C137.358733,20.0189442 137.358733,19.0805984 136.798085,18.517591 C136.237437,17.9545836 135.303024,17.9545836 134.742376,18.517591 L131.565371,21.7079665 C131.004724,22.2709739 131.004724,23.2093196 131.565371,23.772327 C131.939137,23.9599962 132.312902,24.1476653 132.686667,24.1476653 Z" id="Shape" fill="#222222"></path>
                            <path d="M142.591447,14.0135315 C142.965212,14.0135315 143.338977,13.8258624 143.52586,13.6381933 L146.702864,10.4478178 C147.263512,9.88481037 147.263512,8.94646465 146.702864,8.38345721 C146.142217,7.82044978 145.207803,7.82044978 144.647156,8.38345721 L141.470151,11.5738327 C140.909503,12.1368401 140.909503,13.0751858 141.470151,13.6381933 C141.843916,14.0135315 142.217681,14.0135315 142.591447,14.0135315 Z" id="Shape" fill="#222222"></path>
                            <path d="M199.216883,76.3196874 C199.403766,76.5073566 199.777531,76.6950257 200.151297,76.6950257 C200.525062,76.6950257 200.898827,76.5073566 201.08571,76.3196874 C201.646358,75.75668 201.646358,74.8183343 201.08571,74.2553269 L197.908705,71.0649514 C197.348057,70.501944 196.413644,70.501944 195.852996,71.0649514 C195.292348,71.6279588 195.292348,72.5663046 195.852996,73.129312 L199.216883,76.3196874 Z" id="Shape" fill="#222222"></path>
                            <path d="M206.131541,83.2634458 L209.308545,86.4538212 C209.495428,86.6414904 209.869193,86.8291595 210.242959,86.8291595 C210.616724,86.8291595 210.990489,86.6414904 211.177372,86.4538212 C211.73802,85.8908138 211.73802,84.9524681 211.177372,84.3894606 L208.000367,81.1990852 C207.439719,80.6360778 206.505306,80.6360778 205.944658,81.1990852 C205.570893,81.7620926 205.570893,82.7004383 206.131541,83.2634458 Z" id="Shape" fill="#222222"></path>
                            <path d="M196.226761,86.2661521 C196.413644,86.4538212 196.787409,86.6414904 197.161174,86.6414904 C197.53494,86.6414904 197.908705,86.4538212 198.095588,86.2661521 L201.272592,83.0757766 C201.83324,82.5127692 201.83324,81.5744235 201.272592,81.011416 C200.711944,80.4484086 199.777531,80.4484086 199.216883,81.011416 L196.039879,84.2017915 C195.666113,84.7647989 195.666113,85.7031447 196.226761,86.2661521 Z" id="Shape" fill="#222222"></path>
                            <path d="M207.252837,76.6950257 C207.626602,76.6950257 208.000367,76.5073566 208.18725,76.3196874 L211.364254,73.129312 C211.924902,72.5663046 211.924902,71.6279588 211.364254,71.0649514 C210.803606,70.501944 209.869193,70.501944 209.308545,71.0649514 L206.131541,74.2553269 C205.570893,74.8183343 205.570893,75.75668 206.131541,76.3196874 C206.505306,76.5073566 206.879071,76.6950257 207.252837,76.6950257 Z" id="Shape" fill="#222222"></path>
                            <path d="M49.1501317,211.253802 C48.5894838,210.690795 47.6550706,210.690795 47.0944227,211.253802 C46.5337748,211.81681 46.5337748,212.755155 47.0944227,213.318163 L50.2714274,216.508538 C50.4583101,216.696207 50.8320753,216.883877 51.2058406,216.883877 C51.5796058,216.883877 51.9533711,216.696207 52.1402537,216.508538 C52.7009016,215.945531 52.7009016,215.007185 52.1402537,214.444178 L49.1501317,211.253802 Z" id="Shape" fill="#222222"></path>
                            <path d="M59.2417937,221.387936 C58.6811458,220.824929 57.7467326,220.824929 57.1860847,221.387936 C56.6254368,221.950943 56.6254368,222.889289 57.1860847,223.452297 L60.3630894,226.642672 C60.5499721,226.830341 60.9237373,227.01801 61.2975026,227.01801 C61.6712679,227.01801 62.0450331,226.830341 62.2319157,226.642672 C62.7925636,226.079665 62.7925636,225.141319 62.2319157,224.578311 L59.2417937,221.387936 Z" id="Shape" fill="#222222"></path>
                            <path d="M50.2714274,221.387936 L47.0944227,224.578311 C46.5337748,225.141319 46.5337748,226.079665 47.0944227,226.642672 C47.2813054,226.830341 47.6550706,227.01801 48.0288359,227.01801 C48.4026011,227.01801 48.7763664,226.830341 48.963249,226.642672 L52.1402537,223.452297 C52.7009016,222.889289 52.7009016,221.950943 52.1402537,221.387936 C51.7664885,220.824929 50.8320753,220.824929 50.2714274,221.387936 Z" id="Shape" fill="#222222"></path>
                            <path d="M60.3630894,211.253802 L57.1860847,214.444178 C56.6254368,215.007185 56.6254368,215.945531 57.1860847,216.508538 C57.3729674,216.696207 57.7467326,216.883877 58.1204979,216.883877 C58.4942631,216.883877 58.8680284,216.696207 59.054911,216.508538 L62.2319157,213.318163 C62.7925636,212.755155 62.7925636,211.81681 62.2319157,211.253802 C61.6712679,210.690795 60.9237373,210.690795 60.3630894,211.253802 Z" id="Shape" fill="#222222"></path>
                            <path d="M42.6092396,69.18826 C52.514019,63.3705165 56.8123195,51.3596913 52.8877842,40.4748809 C48.4026011,28.0887174 34.7601692,21.5202973 22.4259156,26.0243568 C19.4357935,27.1503716 16.8194367,28.8393939 14.5768451,30.7160854 C11.0260752,33.9064608 8.59660097,38.035182 7.28842256,42.7269106 C6.16712679,47.4186392 6.35400942,52.298037 7.84907045,56.8020964 C11.7736057,67.8745759 23.3603287,74.442996 34.7601692,72.1909663 C35.320817,72.3786354 36.8158781,73.129312 37.7502912,73.6923194 C40.1797654,75.1936726 41.4879438,75.75668 42.422357,75.75668 C42.6092396,75.75668 42.7961222,75.75668 42.9830049,75.5690109 C43.3567701,75.3813417 43.7305354,75.1936726 43.7305354,74.8183343 C43.917418,74.442996 43.917418,74.0676577 43.7305354,73.6923194 C43.3567701,72.1909663 42.6092396,70.1266057 42.6092396,69.18826 Z M40.366648,71.815628 C39.9928828,71.6279588 39.6191175,71.4402897 39.4322349,71.2526205 C37.0027607,69.9389365 35.8814649,69.18826 35.1339344,69.18826 L34.7601692,69.18826 C24.6685071,71.2526205 14.2030799,65.4348771 10.8391925,55.6760816 C9.34413149,51.7350295 9.15724886,47.4186392 10.2785446,43.289918 C11.3998404,39.1611969 13.4555493,35.5954831 16.6325541,32.780446 C18.688263,30.9037545 20.9308545,29.5900705 23.5472114,28.6517248 C34.3864039,24.7106728 46.5337748,30.3407471 50.4583101,41.4132266 C54.00908,51.1720221 49.8976622,61.8691633 41.1141786,66.9362302 C40.1797654,67.3115685 39.0584696,68.0622451 40.366648,71.815628 Z" id="Shape" fill="#222222"></path>
                            <path d="M45.0881034,43.5013532 C45.0881034,42.7506766 44.5274555,42 43.5930424,42 L16.495061,42 C15.7475305,42 15,42.5630074 15,43.5013532 C15,44.2520297 15.5606479,45.0027063 16.495061,45.0027063 L43.5930424,45.0027063 C44.3405729,45.0027063 45.0881034,44.4396989 45.0881034,43.5013532 Z" id="Shape" fill="#03C4E8"></path>
                            <path d="M38.8751456,52 L21.495061,52 C20.7475305,52 20,52.5630074 20,53.5013532 C20,54.4396989 20.5606479,55.0027063 21.495061,55.0027063 L38.8751456,55.0027063 C39.6226761,55.0027063 40.3702067,54.4396989 40.3702067,53.5013532 C40.3702067,52.5630074 39.6226761,52 38.8751456,52 Z" id="Shape" fill="#03C4E8"></path>
                            <path d="M214.354376,106.346751 C213.980611,106.53442 213.606846,106.909758 213.419963,107.285096 C213.233081,107.848104 213.419963,108.223442 213.793729,108.59878 L218.278912,113.10284 L217.905146,118.357576 L212.672433,118.732914 L208.18725,114.228855 C207.813484,113.853516 207.439719,113.665847 206.879071,113.853516 C206.505306,114.041185 205.944658,114.228855 205.944658,114.791862 C203.888949,120.046598 205.197128,126.23968 209.121663,130.180732 C210.056076,131.119078 211.177372,131.869754 212.298668,132.620431 C213.606846,153.264037 213.980611,174.845988 213.233081,196.803278 C213.233081,200.556661 216.223203,203.747036 220.147738,203.747036 C223.885391,203.747036 227.062395,200.74433 227.062395,196.803278 C226.314865,174.845988 226.68863,153.264037 227.996808,132.432762 L227.996808,131.869754 C228.557456,131.494416 229.118104,130.931408 229.678752,130.368401 C235.285231,124.738327 235.285231,115.542539 229.678752,109.912464 C225.567334,105.783743 219.58709,104.470059 214.354376,106.346751 Z M224.072273,196.615609 C224.072273,198.867639 222.203447,200.74433 219.960855,200.74433 C217.718264,200.74433 215.849437,198.867639 215.849437,196.803278 C216.596968,175.408996 216.223203,154.202382 214.915024,133.934115 C216.223203,134.309453 217.718264,134.497122 219.026442,134.497122 C220.895268,134.497122 222.950977,134.121784 224.632921,133.371107 C223.698508,153.639375 223.324743,175.033657 224.072273,196.615609 Z M227.436161,128.116371 C222.950977,132.620431 215.662555,132.620431 211.177372,128.116371 C208.561015,125.489003 207.252837,121.547951 208.000367,117.982237 L211.364254,121.360282 C211.73802,121.73562 212.111785,121.73562 212.48555,121.73562 L219.400207,121.172613 C220.147738,121.172613 220.708386,120.609605 220.708386,119.858929 L221.269034,112.915171 C221.269034,112.539832 221.082151,112.164494 220.895268,111.789156 L217.718264,108.59878 C221.269034,108.035773 224.819804,109.349457 227.436161,111.789156 C231.921344,116.293215 231.921344,123.612312 227.436161,128.116371 Z" id="Shape" fill="#222222"></path>
                            <path d="M234.350818,16.6408996 L181.836799,16.6408996 C179.594207,16.6408996 177.912264,18.3299219 177.912264,20.5819516 L177.912264,49.2953307 C177.912264,51.5473604 179.594207,53.2363827 181.836799,53.2363827 L234.350818,53.2363827 C236.593409,53.2363827 238.275353,51.5473604 238.275353,49.2953307 L238.275353,20.5819516 C238.275353,18.517591 236.593409,16.6408996 234.350818,16.6408996 Z M235.472114,49.2953307 C235.472114,49.8583381 234.911466,50.4213455 234.350818,50.4213455 L181.836799,50.4213455 C181.276151,50.4213455 180.715503,49.8583381 180.715503,49.2953307 L180.715503,20.5819516 C180.715503,20.0189442 181.276151,19.4559367 181.836799,19.4559367 L234.350818,19.4559367 C234.911466,19.4559367 235.472114,20.0189442 235.472114,20.5819516 L235.472114,49.2953307 Z" id="Shape" fill="#222222"></path>
                            <path d="M219.400207,24.7106728 C213.793729,24.7106728 209.308545,29.2147322 209.308545,34.8448066 C209.308545,40.4748809 213.793729,44.9789403 219.400207,44.9789403 C225.006686,44.9789403 229.491869,40.4748809 229.491869,34.8448066 C229.491869,29.4024014 224.819804,24.7106728 219.400207,24.7106728 Z M219.400207,42.3515723 C215.28879,42.3515723 212.111785,38.9735277 212.111785,35.0324757 C212.111785,31.0914237 215.475672,27.7133791 219.400207,27.7133791 C223.511625,27.7133791 226.68863,31.0914237 226.68863,35.0324757 C226.68863,38.9735277 223.324743,42.3515723 219.400207,42.3515723 Z" id="Shape" fill="#222222"></path>
                            <path d="M200.711944,29.2147322 L186.88263,29.2147322 C186.135099,29.2147322 185.387569,29.7777397 185.387569,30.7160854 C185.387569,31.466762 185.948217,32.2174385 186.88263,32.2174385 L200.711944,32.2174385 C201.459475,32.2174385 202.207006,31.6544311 202.207006,30.7160854 C202.020123,29.7777397 201.459475,29.2147322 200.711944,29.2147322 Z" id="Shape" fill="#03C4E8"></path>
                            <path d="M200.711944,37.8475129 L186.88263,37.8475129 C186.135099,37.8475129 185.387569,38.4105203 185.387569,39.348866 C185.387569,40.0995426 185.948217,40.8502192 186.88263,40.8502192 L200.711944,40.8502192 C201.459475,40.8502192 202.207006,40.2872117 202.207006,39.348866 C202.020123,38.5981894 201.459475,37.8475129 200.711944,37.8475129 Z" id="Shape" fill="#03C4E8"></path>
                            <path d="M188.190808,14.3888698 L195.852996,14.3888698 C196.600527,14.3888698 197.348057,13.8258624 197.348057,12.8875167 C197.348057,11.949171 196.787409,11.3861635 195.852996,11.3861635 L188.190808,11.3861635 C187.443278,11.3861635 186.695747,11.949171 186.695747,12.8875167 C186.695747,13.8258624 187.443278,14.3888698 188.190808,14.3888698 Z" id="Shape" fill="#222222"></path>
                        </g>
                        <g id="prime-mask" transform="translate(77.000000, 62.000000)" fill="#222222">
                            <polygon id="Shape" points="35.4282337 45.2780855 5.09490532 33.8798648 0.50284078 14.3601766 24.5674706 19.2131752"></polygon>
                            <polygon id="Shape" points="50.2086145 45.2780855 80.5456787 33.8798648 85.1429734 14.3601766 61.0648947 19.2131752"></polygon>
                            <polygon id="Shape" points="25.4655606 17.4079862 10.1240603 14.3601766 20.5357784 0.479726897 33.6357894 0.479726897"></polygon>
                            <polygon id="Shape" points="59.9463915 17.4079862 75.284156 14.3601766 64.8716908 0.479726897 51.7769099 0.479726897"></polygon>
                            <polygon id="Shape" points="58.1972826 21.0010428 47.3522099 49.51128 50.5971394 71.1502014 34.4785894 71.1502014 38.1329642 49.4804028 27.2550163 21.0010428 34.3097305 0.479726897 50.9864113 0.479726897"></polygon>
                            <polygon id="Shape" points="12.5344085 48.1526814 23.1672869 53.9116634 23.1672869 76.6493628 5.70010745 61.5857876 5.70010745 36.1354097 12.5344085 38.9595476"></polygon>
                            <polygon id="Shape" points="72.764722 48.1526814 62.1281078 53.9116634 62.1281078 76.6493628 79.5997702 61.5857876 79.5997702 36.1354097 72.764722 38.9595476"></polygon>
                            <polygon id="Shape" points="54.1835223 45.6727117 50.2086145 47.7625738 50.2086145 51.6862428 52.6966677 72.5426897 47.3656589 78.0041959 42.7295117 78.0478759 38.0896287 78.0041959 32.7541369 72.5426897 35.246673 51.6862428 35.246673 47.7625738 31.2807312 45.6727117 25.7808635 54.9848359 25.7808635 88.7946621 31.458556 83.5470372 42.7295117 83.4220221 54.0012145 83.5470372 59.6654582 88.7946621 59.6654582 54.9848359"></polygon>
                            <polygon id="Shape" points="50.0957929 100.909084 35.255639 100.909084 30.0583723 95.5236414 35.255639 90.1366924 50.0957929 90.1366924 55.4619184 95.5236414"></polygon>
                            <polygon id="Shape" points="23.1672869 90.1366924 13.4810642 79.30104 13.4810642 71.9063172 23.1672869 78.2873628"></polygon>
                            <polygon id="Shape" points="61.8561404 90.1366924 71.5341443 79.30104 71.5341443 71.9063172 61.8561404 78.2873628"></polygon>
                            <polygon id="Shape" points="52.7788557 88.7946621 32.6719489 88.7946621 28.6843394 94.2990952 25.7808635 92.7740607 32.5770592 85.9027448 52.9477145 85.9027448 59.6654582 92.7740607 56.8142837 94.2990952"></polygon>
                        </g>
                    </g>
                </g>
            </g>
        </g>
    </g>
</svg>