<svg height="21" viewBox="0 0 115 21" width="115" xmlns="http://www.w3.org/2000/svg" xmlns:xlink="http://www.w3.org/1999/xlink"><mask id="a" fill="#fff"><path d="m10.2898864 10.6119774v-10.54403224h-9.65562219v10.54403224z" fill="none"/></mask><g fill="#fff" fill-rule="evenodd" transform=""><path d="m57.5465227 6.14968065h.5148864v-2.13522581h-1.6740341c-2.188267 0-3.3467614 1.20106451-3.3467614 3.60319355v.26690322h-1.2872159v2.13590319h1.2872159v7.6074194h3.0899716v-7.6074194h1.8021023v-2.13590319h-1.8021023v-.26690322c0-.93416129.5148864-1.46796774 1.4159375-1.46796774"/><path d="m59.7345938 7.88461935h-1.287216v2.13590325h1.287216v4.6708064c0 2.0024516.9017045 2.9366129 2.7038068 2.9366129h2.3169886v-2.2686774h-.643608l-1.0297727-.134129c-.1287216-.2662258-.2574432-.6672581-.2574432-1.3345161v-3.8700968h1.8027557v-2.13590325h-1.8027557v-3.06938709h-3.0899715z"/><path d="m68.4895568 4.01425161h-3.090625v13.61409679h3.090625v-5.6063226c0-1.3345161.5148864-2.0017742 1.5440057-2.0017742.9017045 0 1.2878693.6672581 1.2878693 2.0017742v5.6063226h3.0899716v-5.6063226c0-1.3345161-.1287216-2.26799999-.3861648-2.80248386-.6442613-1.06761291-1.5459659-1.60141936-2.96125-1.60141936-1.2872159 0-2.0595454.40035484-2.5744318 1.33451613z"/><path d="m79.6887926 13.4905355 1.9308239-.5338065v.8013871c0 1.3345162-.643608 2.0017742-2.1876137 2.0017742-.7716761 0-1.2872159-.2669032-1.2872159-.9348387 0-.6672581.5155398-1.0669355 1.5440057-1.3345161m.5155398-3.87009679c.9010511 0 1.2872159.26622581 1.2872159.93348389 0 .4010322-.2567898.667258-.9003977.8013871l-2.7044603.533129c-1.8014488.5344839-2.7038068 1.6020968-2.7038068 3.0707419 0 .9334839.25875 1.600742 1.0310796 2.2686775.6436079.5338064 1.5433522.8007096 2.5744318.8007096 1.0297727 0 2.058892-.4003548 3.090625-1.2010645l.1280682.8007097h2.8312216l-.2567898-1.3345161v-5.0725162c0-2.5355806-1.4152841-3.73664512-4.3771875-3.73664512-2.9605966 0-4.5059091 1.20106452-4.5059091 3.47041932h2.8325284c0-.8013871.514233-1.33451609 1.6733807-1.33451609"/><path d="m88.4440824 7.88461935h-2.8325284v9.74332255h3.0893182v-5.6056451c0-1.3345162.5148863-2.0017742 1.5459659-2.0017742.9003977 0 1.4159375.667258 1.4159375 2.0017742v5.6056451h3.0899716v-5.6056451c0-1.2010645-.25875-2.13522583-.5155398-2.80316132-.643608-1.06693548-1.5453125-1.60141935-2.9619034-1.60141935-1.0284659 0-2.0595455.40035484-2.7031534 1.33519355z"/><path d="m98.8711847 10.4209452c0-.53448391.3874716-.80070972 1.1591473-.80070972.899745 0 1.287216.40035482 1.415284 1.33451612h2.962557l-.516193-1.73554837c-.514886-1.20106452-1.802102-1.73487097-3.732926-1.73487097-3.090625 0-4.5065625 1.0676129-4.5065625 3.33696774 0 1.4679677 1.0310795 2.402129 3.2186932 2.9366129h.9017045c1.1571878.2662258 1.8014488.6672581 1.8014488 1.2010645 0 .5338065-.514233.8007097-1.544006.8007097-1.0310792 0-1.6746871-.4003548-1.6746871-1.2017419v-.1327742h-2.9592898c0 2.402129 1.5440057 3.6031935 4.8907669 3.6031935 2.833835 0 4.377188-1.0676129 4.377188-3.3369677 0-1.600742-1.159148-2.6690323-3.346762-3.0693871l-1.030426-.2669032c-.9003976-.1334517-1.4159373-.4003549-1.4159373-.9341613"/><path d="m5.1401733 6.07394516 1.93147727-.53380645v.8013871c0 1.33451613-.64360796 2.00177419-2.18957387 2.00177419-.77232954 0-1.2865625-.26690323-1.2865625-.93483871 0-.66725806.51423296-1.06693548 1.5446591-1.33451613m.51553977-3.87009677c.90039773 0 1.28786932.2662258 1.28786932.93348387 0 .40103226-.25940341.66725806-.90301137.80138709l-2.70315341.53312904c-1.80275568.53448387-2.7031534 1.60209677-2.7031534 3.07074193 0 .93348387.25678977 1.60074194 1.03042613 2.26867742.64295455.53380646 1.54465909.80070966 2.57443182.80070966 1.02911932 0 2.06019886-.4003548 3.08931818-1.2010645l.129375.8007097h2.83252836l-.2580965-1.33451615v-5.07251613c0-2.53558064-1.41724436-3.73664516-4.37653413-3.73664516-2.83383523 0-4.3771875 1.20106452-4.50525568 3.47041936h2.83122159c0-.8013871.51553977-1.33451613 1.67403409-1.33451613" mask="url(#a)" transform="translate(104.545455 7.41659)"/><path d="m9.65529545.96945484c2.57508525 0 4.63463065.93348387 6.43738635 2.66903226 1.6733807 1.869 2.5744318 4.00490322 2.5744318 6.5404839 0 2.5355806-.9010511 4.6714838-2.5744318 6.5398064-1.8027557 1.7355484-3.8623011 2.6690323-6.30866475 2.6690323-2.44571023 0-4.5059091-.9334839-6.30735796-2.6690323-1.67403409-1.8683226-2.57508523-4.0042258-2.57508523-6.5398064 0-2.53558068.90105114-4.6714839 2.57508523-6.5404839 1.80144886-1.73554839 3.86164773-2.66903226 6.17863636-2.66903226m7.08034095 2.00245161c-1.8014489-2.00245161-4.1197444-2.9366129-6.82224435-2.9366129-2.70380682 0-5.02144887.93416129-7.08099432 2.9366129-1.93082387 2.0017742-2.83252841 4.40390323-2.83252841 7.20706455 0 2.9366129.90170454 5.2046129 2.83252841 7.2070645 1.93147727 2.0017742 4.24846591 2.9366129 6.95161932 2.9366129 2.70380685 0 5.02079545-.9348387 6.95161935-2.9366129 1.9314772-2.0024516 2.8325284-4.2704516 2.8325284-7.2070645 0-2.80316132-.9010512-5.20529035-2.8325284-7.20706455" transform="translate(0 .642397)"/><path d="m3.21849716 8.55174194-.12872159.53448387-1.41659091-.40103226-.12806818.53380645c1.02977272.26758065 2.31698863.9348387 3.99036932 1.8696774 2.96125 1.8683226 6.0512216 3.3362903 9.2692614 4.137l.9017045-.8007097h-.6436079c-1.9314773 0-3.4761364-.667258-4.6346307-2.0017742 1.2872159-.6679354 2.7031534-1.0682903 4.3765341-1.0682903l1.0297727.1334516.3868182-.5338064h-1.1584943l-2.7038069.134129.1287216-.4010322h3.9910228l.3861647-.5338065h-4.1197443l.1287216-.26690322h4.2478125l.2580966-.40035483-4.2484659-.13345162.1287216-.40035484 4.3771875.13345162.3861647-.40103226-3.4761363-.26622581-3.475483.26622581c-.5148863 1.60209675-1.54531248 2.40348385-3.08931816 2.40348385-.64426136 0-1.41659091-.2675806-2.31829545-.8013871l-.38616478-.2669032.129375-.13345162 2.05889205.80070972.129375-.2669033z"/><path d="m35.9180284 4.01425161h-3.2186932v13.61409679h8.7550284v-2.6697097h-5.5363352z"/><path d="m51.1094631 7.88461935h-3.0899716v5.60564515c0 1.3351936-.5148864 2.0024516-1.5446591 2.0024516-.9017046 0-1.2872159-.667258-1.2872159-2.0024516v-5.60564515h-3.0893182v5.87322585c0 1.0676129.1280682 2.0024516.5142329 2.5355806.5148864 1.0676129 1.416591 1.6014194 2.9605966 1.6014194 1.0310796 0 1.9314773-.4003549 2.7038069-1.2010646v.9341613h2.8325284z"/></g></svg>