<svg height="38" viewBox="0 0 37 38" width="37" xmlns="http://www.w3.org/2000/svg" xmlns:xlink="http://www.w3.org/1999/xlink"><mask id="a" fill="#fff"><path d="m36.8206897 37.7183929v-37.7183929h-36.82003453v37.7183929z" fill="none"/></mask><path d="m36.0364483 15.66075c-.0406207-.0515714-.0668276-.1262143-.0995862-.2171429-1.3457242-4.2953571-2.4909655-5.98364281-4.7028276-8.4943571-2.9102759-3.31007143-7.6615862-5.86421429-12.7168966-5.871-9.66379307 0-17.50227583 8.12385714-17.50227583 18.1300714 0 2.9789286.62503448 5.5452857 1.12689655 6.8372857.59358621 1.4969286 1.61172414 3.5122858 1.66282759 3.6045715.04586207.1045.05241379.1479285.05503448.2388571-.07206897-.057-.1022069-.1031428-.16510345-.1995-.29351724-.4397143-1.4937931-2.6803571-1.86855172-3.6575-.81110345-2.1307143-1.41386207-4.4527857-1.41386207-6.8915714 0-10.31564287 8.06255172-18.68514287 18.02903445-18.68514287 8.8998621 0 16.0805518 6.40571428 17.5953104 14.98149997.0052414.0800715.0288276.1506429 0 .2239286zm-32.72717244 12.2427857c-.61062069-1.3082857-1.25268965-3.1499286-1.51868965-4.6075-.00393104-.0855-.01703449-.1533571.00786207-.2293571.04717241.0583571.06682758.1235.10351724.2239285.41931034 1.3381429.77965517 2.5378572 1.7335862 4.3455715zm.33413793-.1669286 12.89510341-9.6045-1.1033103-.6500714-11.48648276 9.8935714c-1.292-2.4238571-2.18827586-5.5317142-2.18827586-8.4889285 0-9.36835717 7.19772413-16.95071431 16.31772412-17.00907146l-2.352069 15.14842856 1.098069.6609286 1.478069-15.80935716c.0262069-.19814285.1546207-.19814285.1546207 0l.0891034 16.67114286 2.618069-1.5932857-2.5053793-15.08057144c8.9601379.24971428 16.3884827 7.73164285 16.3884827 16.98192854 0 2.9816429-.8753103 6.0949286-2.1948276 8.5350715l-11.476-9.9030715-1.105931.6541429 12.3382069 9.2665714c.2974483.2171429.2057241.3175714-.1126896.1357143l-13.8542759-8.2758571v3.1010714l13.8883448 5.4950714c-2.9089655 4.9155714-8.1634483 8.0614286-14.1726896 8.0614286-6.0210345 0-11.18903452-3.1417857-14.10193107-8.0668572l13.91455177-5.4991428v-3.1010714l-14.40593108 8.6192142c-.34724138.1940715-.43634483.0882143-.12055173-.1425zm14.76103451 9.2652143c-6.916 0-12.34213796-3.724-14.92613796-8.8431428l.3944138-.152c.67089655 1.1372857 1.55013793 2.1334285 2.72944827 3.4810714 1.45317242 1.6557143 6.04724139 4.8463571 11.79441379 4.8463571 6.1232414.0013572 11.5008966-3.287 14.5186207-8.3111428.231931-.0665.307931-.1723572.228-.3813572 1.3824138-2.5215714 2.3206207-5.6891428 2.3206207-8.7847857 0-1.9515714-.2751724-3.5353571-.7141379-4.9535714-.3262759-1.0680714-.7848966-2.1307143-.9866897-2.5500714-.0589655-.1004286-.0628966-.1533572-.0655172-.2442857.0720689.0624285.1087586.1045.1651034.2062857.2673104.5075714.8635172 1.7439285 1.143931 2.5487143.3786897 1.0789285 1.0587587 2.5663571 1.0587587 4.9929285 0 9.9247857-7.8450345 18.1504286-17.6608276 18.145zm0-37.00249997c-10.16041382-.00407143-18.40379313 8.44142857-18.40379313 18.85749997 0 10.4133572 8.23682759 18.8588572 18.40379313 18.8615715 10.1708965 0 18.4168965-8.4427858 18.4168965-18.8615715 0-10.40928569-8.2433793-18.85749997-18.4168965-18.85749997z" fill="#fff" fill-rule="evenodd" mask="url(#a)" transform=""/></svg>