<?xml version="1.0" encoding="UTF-8"?>
<svg width="116px" height="27px" viewBox="0 0 116 27" version="1.1" xmlns="http://www.w3.org/2000/svg" xmlns:xlink="http://www.w3.org/1999/xlink">
    <!-- Generator: sketchtool 45.2 (43514) - http://www.bohemiancoding.com/sketch -->
    <title>AC89E34A-129B-42B5-8874-DC4C0250B84E</title>
    <desc>Created with sketchtool.</desc>
    <defs>
        <polygon id="path-1" points="0.152942222 25.65 8.78484444 25.65 8.78484444 0.20631375 0.152942222 0.20631375"></polygon>
        <polygon id="path-3" points="0.073447572 20.25 8.99508872 20.25 8.99508872 0.354189006 0.073447572 0.354189006 0.073447572 20.25"></polygon>
        <polygon id="path-5" points="16.6252893 0.173571429 0.124352505 0.173571429 0.124352505 26.9999299 16.6252893 26.9999299"></polygon>
        <polygon id="path-7" points="0.000100533333 25.65 16.5090143 25.65 16.5090143 0.20631375 0.000100533333 0.20631375 0.000100533333 25.65"></polygon>
    </defs>
    <g id="Page-1" stroke="none" stroke-width="1" fill="none" fill-rule="evenodd">
        <g id="PrimeReact-Showcase---Homepage" transform="translate(-411.000000, -1200.000000)">
            <g id="homepage" transform="translate(301.000000, 70.000000)">
                <g id="brands" transform="translate(0.000000, 1019.000000)">
                    <g transform="translate(109.000000, 27.000000)" id="unicredit">
                        <g transform="translate(1.000000, 84.000000)">
                            <g id="Group-3" transform="translate(106.977778, 0.000000)">
                                <mask id="mask-2" fill="white">
                                    <use xlink:href="#path-1"></use>
                                </mask>
                                <g id="Clip-2"></g>
                                <path d="M5.87738667,0.20631375 C3.73072,0.20631375 1.98072,2.11521375 1.98072,4.46151375 L1.98072,6.74470125 L0.152942222,6.74470125 L0.152942222,10.3606763 L1.98072,10.3606763 L1.98072,21.1009388 C1.98072,24.0348263 3.65356444,25.6501013 6.69156444,25.6501013 C7.80067556,25.6501013 8.60272,25.2974138 8.78503111,25.2073013 L8.78503111,21.4819763 C8.49258667,21.5923388 8.01565333,21.7239638 7.69676444,21.7239638 C6.47720889,21.7239638 6.10512,21.3517013 6.10512,20.1306263 L6.10512,10.3606763 L8.78503111,10.3606763 L8.78503111,6.74470125 L6.10512,6.74470125 L6.10512,0.20631375 L5.87738667,0.20631375 Z" id="Fill-1" fill="#FFFFFF" mask="url(#mask-2)"></path>
                            </g>
                            <path d="M93.7414493,23.9531511 L91.9789538,23.9531511 C89.3166377,23.9531511 88.0226253,21.9241789 88.0226253,17.751567 C88.0226253,14.7406036 88.7578523,11.1505173 92.2604279,11.1505173 C92.8153706,11.1505173 93.2966625,11.2189096 93.7414493,11.341063 L93.7414493,23.9531511 Z M97.7442098,1.35 C95.5202761,1.35 93.7100676,3.27927587 93.7100676,5.65054986 L93.7100676,8.68703272 C93.0283175,8.50669477 92.2741974,8.40291538 91.3836632,8.40291538 C86.7628765,8.40291538 83.7777778,12.1641527 83.7777778,17.9839647 C83.7777778,23.7585222 86.6453554,26.9603716 91.8527867,26.9998418 C92.0564472,27.0005223 97.0570159,27.0018833 97.9555556,26.9355326 L97.9555556,1.35 L97.7442098,1.35 Z" id="Fill-4" fill="#FFFFFF"></path>
                            <path d="M71.1345641,16.1178955 C71.1471756,12.7650126 72.3147341,11.1005518 74.7892415,11.0232684 C75.9561363,10.9871578 78.4834128,11.1454369 78.6224711,15.0477403 L71.1345641,16.1178955 Z M82.4888889,16.9022035 C82.4888889,11.2217078 79.7853834,8.1 74.9498721,8.1 C70.0340455,8.1 67.0222222,11.6965448 67.0222222,17.4971841 C67.0222222,23.4480028 70.2534191,27 75.6650764,27 C78.6569868,27 80.7524857,26.2754263 81.8828735,25.6591843 L81.8828735,21.9192097 C80.7607827,22.7372659 79.1976215,23.7473492 76.1038235,23.7473492 C73.3097144,23.7473492 71.7757588,22.2425174 71.4020604,19.1731193 L82.4888889,17.6254272 L82.4888889,16.9022035 Z" id="Fill-6" fill="#FFFFFF"></path>
                            <g id="Group-10" transform="translate(58.000000, 6.750000)">
                                <mask id="mask-4" fill="white">
                                    <use xlink:href="#path-3"></use>
                                </mask>
                                <g id="Clip-9"></g>
                                <path d="M0.073447572,1.87120658 L0.073447572,20.2500355 L0.30434963,20.2500355 C2.62272658,20.2500355 4.50235621,18.2435092 4.50235621,15.7779829 L4.50235621,4.07916711 C5.42228872,3.57895658 7.44527144,3.20379868 8.99508872,4.36089079 L8.99508872,0.483548684 C4.56150189,0.046575 2.24680066,0.768469737 0.073447572,1.87120658" id="Fill-8" fill="#FFFFFF" mask="url(#mask-4)"></path>
                            </g>
                            <g id="Group-13" transform="translate(39.955556, 0.000000)">
                                <mask id="mask-6" fill="white">
                                    <use xlink:href="#path-5"></use>
                                </mask>
                                <g id="Clip-12"></g>
                                <path d="M0.124352505,13.5171117 C0.124352505,20.2169688 3.84802832,26.9999299 10.9655255,26.9999299 C13.3306871,26.9999299 15.3459534,26.4560727 16.6252893,25.4437481 L16.6252893,20.8551506 C15.5884161,22.3489169 13.8566802,22.9446701 11.9550889,22.9446701 C7.62361351,22.9446701 4.71307495,18.0503065 4.71307495,13.4795922 C4.71307495,8.92430649 7.48234118,4.00785195 11.9550889,4.00785195 C14.2210314,4.00785195 15.6409826,4.97844935 16.6252893,6.35194286 L16.6252893,1.72512468 C15.000329,0.660553247 13.0763969,0.173501299 11.0036362,0.173501299 C3.86116993,0.173501299 0.124352505,6.88633247 0.124352505,13.5171117" id="Fill-11" fill="#FFFFFF" mask="url(#mask-6)"></path>
                            </g>
                            <g id="Group-16" transform="translate(34.800000, 6.750000)" fill="#FFFFFF">
                                <path d="M0.0215796825,0.354232895 L0.0215796825,20.2500355 L0.278252698,20.2500355 C2.83062095,20.2500355 4.90610032,18.2470618 4.90610032,15.7847329 L4.90610032,0.354232895 L0.0215796825,0.354232895 Z" id="Fill-14"></path>
                            </g>
                            <path d="M34.8,3.39023019 C34.8,4.49849578 35.956196,5.4 37.378135,5.4 C38.8236479,5.4 39.9555556,4.5172643 39.9555556,3.39023019 C39.9555556,2.24627365 38.8236479,1.35 37.378135,1.35 C35.956196,1.35 34.8,2.26504216 34.8,3.39023019" id="Fill-17" fill="#FFFFFF"></path>
                            <g id="Group-21">
                                <mask id="mask-8" fill="white">
                                    <use xlink:href="#path-7"></use>
                                </mask>
                                <g id="Clip-20"></g>
                                <path d="M16.2844899,0.20631375 C14.0308676,0.20631375 12.1974748,2.05311375 12.1974748,4.32280125 L12.1974748,18.4255763 C12.1974748,20.7263138 10.2504792,21.9679763 8.41809164,21.9679763 C6.54482053,21.9679763 4.60687298,20.6429513 4.60687298,18.4255763 L4.60687298,0.20631375 L4.30795387,0.20631375 C1.9323512,0.20631375 0.000100533333,2.15301375 0.000100533333,4.54588875 L0.000100533333,18.4586513 C0.000100533333,22.5586013 3.5489272,25.6501013 8.25489253,25.6501013 C12.9605228,25.6501013 16.5090143,22.5586013 16.5090143,18.4586513 L16.5090143,0.20631375 L16.2844899,0.20631375 Z" id="Fill-19" fill="#FFFFFF" mask="url(#mask-8)"></path>
                            </g>
                            <path d="M18.0444444,9.46983912 L18.0444444,27 L22.4249604,27 L22.4249604,11.5193668 C23.1449683,11.2433066 23.7902989,11.0894149 24.9226839,11.0894149 C27.3341651,11.0894149 27.8403845,12.5847972 27.8403845,13.8388801 L27.8370802,22.7818135 C27.8367498,25.105714 29.7149162,27 32.0041381,27 L32.2222222,27 L32.2222222,13.773746 C32.2222222,11.6546971 31.2953649,8.1 25.0845948,8.1 C22.3030316,8.1 19.9272369,8.57179973 18.0444444,9.46983912" id="Fill-22" fill="#FFFFFF"></path>
                            <g id="Group-26" transform="translate(100.533333, 6.750000)" fill="#FFFFFF">
                                <path d="M0.299090963,0.354232895 L0.299090963,20.2500355 L0.538652444,20.2500355 C2.92051911,20.2500355 4.8586643,18.2470618 4.8586643,15.7847329 L4.8586643,0.354232895 L0.299090963,0.354232895 Z" id="Fill-24"></path>
                            </g>
                            <path d="M100.533333,3.39023019 C100.533333,4.49849578 101.689806,5.4 103.112361,5.4 C104.557774,5.4 105.688889,4.5172643 105.688889,3.39023019 C105.688889,2.24627365 104.557774,1.35 103.112361,1.35 C101.689806,1.35 100.533333,2.26504216 100.533333,3.39023019" id="Fill-27" fill="#FFFFFF"></path>
                        </g>
                    </g>
                </g>
            </g>
        </g>
    </g>
</svg>