<svg height="17" viewBox="0 0 102 17" width="102" xmlns="http://www.w3.org/2000/svg" xmlns:xlink="http://www.w3.org/1999/xlink"><mask id="a" fill="#fff"><path d="m5.89324615 7.51045255v-7.15185374h-5.53228309v7.15185374z" fill="none"/></mask><mask id="b" fill="#fff"><path d="m0 .55110357v9.28734864h9.80659385v-9.28734864z" fill="none"/></mask><g fill="#fff" fill-rule="evenodd" transform=""><path d="m64.7112323 8.07527466h.0572769l.4119231 5.27124324h1.1141539l2.9376-6.77791161h-1.0576616l-2.1726 5.33412581-.3522923-5.33412581h-1.2326308l-2.1137538 5.33412581-.3538615-5.33412581h-1.173l.7045846 6.77791161h1.115723z"/><path d="m71.2295031 5.37702194.2330307-1.31802041h-1.0568769l-.2338154 1.31802041z"/><path d="m71.0509246 6.56835476h-1.0560923l-1.1165077 6.77791154h1.0584462z"/><g transform="translate(71.4 3.50773)"><path d="m1.76648308 5.88497789c.17575384-1.00276871.93996923-1.8202432 1.938-1.8202432h.35307692l.23224615-1.19057823h-.29266153c-.82149231 0-1.46723077.50138436-1.99449231 1.31634354l.17496923-1.13021088h-.99881539l-1.17378461 6.77791156h1.11572308z"/><path d="m4.93640769 5.88497789c.17810769-.94156292.93996923-1.8202432 1.76224616-1.9460085v-1.00193027c-1.70104616.24985374-2.70143077 1.81940476-3.05215385 3.70169217-.29501538 1.9434932.52726154 3.38727891 2.28872308 3.38727891.29501538 0 .58767692 0 .76343077-.06120578v-1.00528401c-.11769231.06288265-.29344616.06288265-.46841539.06288265-1.17613846 0-1.70418461-.81579762-1.4688-2.19586224h1.93721539v-.94156293zm1.76224616 4.07982653v-1.00528401c.765-.18864796 1.29383077-.81663606 1.40995384-1.25513776h1.05609231c-.05806154.31441327-.52883077 1.31802041-1.40838462 1.88228742-.23616923.12660374-.52883076.31357483-1.05766153.37813435zm0-6.02583503c.11847692-.06204422.23616923-.06204422.35386153-.06204422 1.2899077 0 1.52529231 1.00528401 1.4076 2.00805272h-1.76146153v.94156293h2.70143077c.05884615-.37729592.1176923-.75291497.1176923-1.0664898v-.43934014c-.05884615-1.50582993-.76421538-2.44655442-2.1726-2.44655442-.23538461 0-.41035384 0-.64652307.06288266z"/><path d="m13.9211169 5.88497789c.1788923-.94156292.9391846-1.8202432 1.8218769-1.9460085v-1.00193027c-1.7622461.24985374-2.7618461 1.81940476-3.0552923 3.70169217-.350723 1.9434932.4715539 3.38727891 2.291077 3.38727891.2926615 0 .5280461 0 .7642153-.06120578v-1.00528401c-.177323.06288265-.2942307.06288265-.4715538.06288265-1.2326308 0-1.7010462-.81579762-1.4680154-2.19586224h1.9395692v-.94156293zm1.8218769 4.07982653v-1.00528401c.7618616-.18864796 1.2906924-.81663606 1.4083847-1.25513776h1.0576615c-.1184769.31441327-.5288308 1.31802041-1.4680154 1.88228742-.2361692.12660374-.5288308.31357483-.9980308.37813435zm0-6.02583503c.057277-.06204422.1757539-.06204422.2926616-.06204422 1.2906923 0 1.5268615 1.00528401 1.4083846 2.00805272h-1.7010462v.94156293h2.7006462c.0588462-.37729592.0588462-.75291497.1161231-1.0664898v-.43934014c-.0572769-1.50582993-.7618616-2.44655442-2.2306616-2.44655442-.1749692 0-.4103538 0-.5861077.06288266z"/><path d="m12.5703231.55143895h-1.0568769l-1.52686158 9.28734864h1.05844618z"/><path d="m24.3739985 5.00604609c.0596307-.37561905.1765384-2.13214116-2.0549077-2.13214116-1.2922616 0-2.525677.62631123-2.8199077 2.13214116-.1161231.94156292.3538615 1.44378571 1.2334154 1.69363945l1.1745692.31441327c.8811231.25069218 1.1761385.43934014 1.1157231.94156292-.1176923.75207654-.8795539 1.0664898-1.6429846 1.0664898-1.5268616 0-1.5268616-.81579762-1.4695847-1.37922619h-1.0560923c-.0588461.81495918-.1765384 2.38283336 2.3491385 2.38283336 1.4688 0 2.7014308-.81495921 2.9360308-2.25790649.1169077-.87951871-.2346-1.44378571-1.5276462-1.75652211l-.9972461-.31441326c-.8214924-.18864796-1.1141539-.31441327-.9988154-.87951871.1169077-.87868027 1.0568769-1.00276871 1.4107384-1.00276871 1.3503231 0 1.3503231.75291497 1.2899077 1.19141667z"/><path d="m5.86507846 2.49073997c.05727692-.37561905.23616923-2.13214116-2.05490769-2.13214116-1.23341539 0-2.52724615.62631122-2.76027692 2.13214116-.17732308.94156292.35150769 1.44378571 1.173 1.69363945l1.17613846.31441327c.87955384.25069217 1.23341538.43934013 1.11493846.94156292-.11847692.75207653-.88112308 1.0664898-1.64298462 1.0664898-1.46958461 0-1.46958461-.81579762-1.46958461-1.37922619h-.99724615c-.1169077.81495918-.17732308 2.38283333 2.34835384 2.38283333 1.4076 0 2.6418-.81495918 2.8764-2.25790646.11847692-.87951871-.2346-1.44378572-1.4688-1.75652211l-1.05373846-.31441327c-.76421539-.18864795-1.11807692-.31441326-1.00038462-.8795187.1169077-.87868028 1.1165077-1.00276871 1.41152308-1.00276871 1.35032308 0 1.4076.75291497 1.35032308 1.19141667z" mask="url(#a)" transform="translate(24.323077 2.515306)"/></g><path d="m31.7094462 4.05942075-.4111385 2.69808503h4.2855692l-5.5189846 7.78068032-.3530769 2.3845102h8.6339077 19.9645384l.4111385-1.8529422-24.6643846-.908864 5.5213384-7.77900337.4111385-2.32246598z"/><g transform="translate(0 .153989)"><path d="m29.3606215 13.1921937h-3.4656461l1.5260769-9.28734863h3.4656462z"/><path d="m27.5997877 2.7134284.4676308-2.63604082h3.4648615l-.4699846 2.63604082z"/><path d="m1.46613231 9.83845221-1.46644616-9.28734864h3.46329231l.52961539 5.83551021 2.52410769-5.83551021h3.28989231l-4.46367693 9.28734864z" mask="url(#b)" transform="translate(0 3.353741)"/><path d="m49.3843985 13.1921937 1.5260769-9.28734863h3.1714154l-.2338154 1.50499149c.9391846-1.12853401 1.9364308-1.7565221 3.2286923-1.7565221 2.2895077 0 3.1722 1.44378571 2.6998615 3.95322278l-.8795538 5.58565646h-3.4664308l.765-4.95599149c.1741846-.87868027.0596308-1.69531633-.8811231-1.69531633-1.0560923 0-1.4664461.69003232-1.7026153 1.88228742l-.7642154 4.7690204z"/><path d="m18.7905185 13.1921937 1.5260769-9.28734863h3.1698461l-.3499384 1.8202432h.0572769c.7038-1.38090307 1.7041846-2.07177381 2.9948769-2.07177381.1176923 0 .2926616.06288265.4103539.06288265l-.5853231 3.64132483c-.2369539-.06539796-.4707692-.12660374-.6473077-.12660374-1.4083846 0-2.2298769.75291496-2.5845231 2.76180612l-.5280461 3.19946938z"/><path d="m44.5686646 6.16459609c-.8811231.24985374-1.2914769 1.38006462-1.4664461 2.25790646-.2950154 1.75736055.2330307 2.57483505 1.1149384 2.57483505.1176923 0 .2353846-.0628827.3515077-.0628827v2.4448776c-.2942308.0628826-.5868923.0628826-.9391846.0628826-2.8183385 0-4.6982769-1.6307568-4.1686615-4.83022615.4676307-2.95045409 2.5241077-4.64409354 5.1078461-4.89562415zm.4707692-.06288265c-.1749692 0-.2934461 0-.4707692.06288265v-2.44823129c.2346-.06288266.4707692-.06288266.6449539-.06288266 3.1133538 0 4.6998461 1.94517007 4.2282923 4.76902041-.5272616 3.01333675-2.4660462 4.64409355-4.8732462 4.95682995v-2.4448776c.7634308-.1894864 1.2914769-1.00444555 1.5276462-2.51195235.2330307-1.38006462-.1781077-2.3845102-1.056877-2.32078911z"/><path d="m12.3292892 7.48119116h1.5864923v1.88396428h-1.8791538c-.1757539 1.12769556.4715538 1.81856636 1.4099538 1.81856636.1765385 0 .2942308 0 .4692-.0620442v2.2579064c-.3530769.0620442-.7038.0620442-1.0576615.0620442-2.8175538 0-4.69592308-1.692801-4.16866154-4.82938772.46998462-2.82468878 2.64336924-4.70697619 5.22632304-4.89646259v2.13465646c-.8803384.12408844-1.4076.75291497-1.5864923 1.63075681zm1.5864923 5.89839284v-2.2579064c.3522923-.1249269.7045847-.3764575.9399693-.7537535h3.3471692c-.8214923 1.9460086-2.5837385 2.7609677-4.2871385 3.0116599zm0-5.89839284h1.5864923c.1169077-.87784184-.4707692-1.63075681-1.2930461-1.63075681h-.2934462v-2.13465646c.1757539-.06204422.3522923-.06204422.5288308-.06204422 3.2310462 0 4.8144 2.32078912 4.1694462 5.71142177h-4.698277z"/></g></g></svg>