<svg height="16" viewBox="0 0 105 16" width="105" xmlns="http://www.w3.org/2000/svg" xmlns:xlink="http://www.w3.org/1999/xlink"><mask id="a" fill="#fff"><path d="m0 0h104.865837v15.8534059h-104.865837z" fill="none"/></mask><mask id="b" fill="#fff"><path d="m0 16.0443919v-16.03111138h105.039367v16.03111138" fill="none"/></mask><g fill="none" fill-rule="evenodd" mask="url(#a)" transform="matrix(1 0 0 -1 .01079 15.916793)"><g fill="#fff" fill-rule="nonzero" mask="url(#b)" transform="translate(0 -.190986)"><path d="m19.9536108 15.7221462v-13.68720416c0-1.0673431.6403521-1.84170652 2.0487854-1.84170652h2.2194701v15.52891068zm73.7551362-11.13389186s-2.6911288 7.55507116-3.2031829 8.97828826c-.3186115.9627563-.7879944 2.1556036-2.9869823 2.1556036h-5.0152856v-15.52891068h1.6869338c1.3000485 0 2.1108009.56507827 2.1108009 1.88356913v10.84102095h.0654291l4.887272-12.72459008h4.5658159l4.8872721 12.72459008h.065429v-10.8619662c0-1.08826046.597396-1.86262388 2.110801-1.86262388h2.113645v15.52891068h-4.716587c-1.6641758 0-2.688284-.4604608-3.2003381-1.9045953-.3413694-.9627563-3.2856805-9.22929656-3.2856805-9.22929656zm-84.59617515-.14642152s-3.67057455 9.41755288-3.8842149 9.96168308c-.27736265.7326653-.66140323 1.3186303-2.06983651 1.3186303h-3.15852044l6.50906117-15.52891068h4.73763843l6.7434682 15.52891068h-2.795531c-1.1950774 0-1.6644603-.5022955-1.9634431-1.2558782l-4.05461509-10.02443518zm46.69279195 8.01553198h2.17623c1.5589203 0 2.477773.5650476 2.477773 1.9461511v1.3186303h-6.1901653c-5.1632123 0-7.6409852-2.9928557-7.6409852-7.76452367 0-5.94362573 3.7778214-7.76438701 7.6409852-7.76438701h6.1901653v1.33941101c0 1.36046503-.9615239 1.92551262-2.3696727 1.92551262h-2.2843303c-2.4521702 0-4.7365005.85789062-4.7365005 4.49946338 0 3.16019457 1.729605 4.49974227 4.7365005 4.49974227zm-16.5820189-6.44617225c0-1.54844237-.72541-2.76248589-2.8589688-2.76248589h-2.2189011c-1.5589203 0-2.4749282.41862608-2.4749282 1.65330806 0 1.19312616.8534235 1.67450432 2.4749282 1.67450432h5.0778699zm-2.0681297 9.71095365h-8.7293847v-1.1928473c0-1.0464257.5535874-2.0719341 2.0698365-2.0719341h5.5700109c2.3469146 0 3.157667-.7535827 3.157667-2.57422965v-.27220457h-5.8886223c-4.3979759 0-5.9972915-1.9879858-5.9972915-4.6879985 0-3.28564298 2.242228-4.72969656 5.9972915-4.72969656h3.9257482c5.1432991 0 6.2527496 2.53234194 6.2527496 5.86007064v3.85074635c0 3.59973799-1.3654776 5.81809369-6.3580052 5.81809369zm33.2920515-12.43160482c2.7736264 0 4.3951311 1.88367791 4.3951311 4.66708115 0 2.95102097-1.729605 4.66708117-4.3951311 4.66708117-2.8390556 0-4.4406471-1.8627606-4.4406471-4.66708117 0-2.67881645 1.5589203-4.66708115 4.4406471-4.66708115zm0 12.59894372c5.1831255 0 8.8756046-2.7624859 8.8756046-7.93186257 0-4.93900682-3.4136941-7.9527403-8.8756046-7.9527403-5.3367418 0-8.9012073 2.88822933-8.9012073 7.9527403 0 5.00203777 3.5217944 7.93186257 8.9012073 7.93186257z" transform="translate(0 .175824)"/></g></g></svg>