<?xml version="1.0" encoding="UTF-8"?>
<svg width="39px" height="40px" viewBox="0 0 39 40" version="1.1" xmlns="http://www.w3.org/2000/svg" xmlns:xlink="http://www.w3.org/1999/xlink">
    <!-- Generator: sketchtool 45.2 (43514) - http://www.bohemiancoding.com/sketch -->
    <title>48D57637-4D8B-441E-9DBB-213F0FDAD276</title>
    <desc>Created with sketchtool.</desc>
    <defs></defs>
    <g id="Page-1" stroke="none" stroke-width="1" fill="none" fill-rule="evenodd">
        <g id="PrimeReact-Showcase---Homepage" transform="translate(-1260.000000, -1117.000000)" fill="#FFFFFF">
            <g id="homepage" transform="translate(301.000000, 70.000000)">
                <g id="brands" transform="translate(0.000000, 1019.000000)">
                    <g transform="translate(109.000000, 27.000000)" id="vw">
                        <g transform="translate(850.000000, 1.000000)">
                            <path d="M23.073375,5.82452069 C21.8852679,5.50641724 20.6303036,5.33817586 19.3641964,5.33817586 C18.1092321,5.33817586 16.8932679,5.50641724 15.7358036,5.80755517 L19.4129464,16.1070379 L23.073375,5.82452069 Z" id="Fill-1"></path>
                            <path d="M33.8571536,20.0694759 C33.8571536,18.2329586 33.5465464,16.4784414 32.9420464,14.8539931 L26.0446179,33.1216138 C30.6702964,30.6616138 33.8571536,25.7373724 33.8571536,20.0694759" id="Fill-3"></path>
                            <path d="M26.6595643,7.33784483 L22.4071714,19.2137069 L20.5296,19.2137069 L18.3024214,19.2137069 L16.4206714,19.2137069 L12.1529571,7.28694828 C10.57485,8.2045 9.19731429,9.4147069 8.05517143,10.8440517 L14.1168857,26.7972931 L16.3371,20.9696379 L18.0461357,20.9696379 L20.4488143,20.9696379 L22.1592429,20.9696379 L24.3780643,26.7972931 L30.4982786,10.6546034 C29.4188143,9.32987931 28.1151,8.2045 26.6595643,7.33784483" id="Fill-5"></path>
                            <g id="Group-9" transform="translate(0.000000, 0.121138)">
                                <path d="M19.3647536,37.073331 C10.0702179,37.073331 2.473575,29.379469 2.473575,19.9480552 C2.473575,10.4968483 10.0702179,2.79026207 19.3647536,2.79026207 C28.6592893,2.79026207 36.2559321,10.4968483 36.2559321,19.9480552 C36.2559321,29.379469 28.6592893,37.073331 19.3647536,37.073331 M19.3647536,0.292089655 C8.71078929,0.292089655 -0.000139285715,9.11415862 -0.000139285715,19.949469 C-0.000139285715,30.7508483 8.71078929,39.5856414 19.3647536,39.5856414 C30.0298607,39.5856414 38.7115393,30.7508483 38.7115393,19.949469 C38.7115393,9.11415862 30.0298607,0.292089655 19.3647536,0.292089655" id="Fill-7"></path>
                            </g>
                            <path d="M19.2381429,24.0941207 L15.4969286,33.945431 L15.4802143,34.2508103 C16.7184643,34.6042586 18.018,34.7809828 19.3648929,34.7809828 C20.6296071,34.7809828 21.8567143,34.6198103 23.0239286,34.314431 L22.9821429,33.945431 L19.2381429,24.0941207 Z" id="Fill-10"></path>
                            <path d="M4.85800714,20.0694759 C4.85800714,25.6073034 7.9014,30.4679241 12.4031143,32.9618552 L5.68118571,15.1777517 C5.14215,16.7074759 4.85800714,18.3460621 4.85800714,20.0694759" id="Fill-12"></path>
                        </g>
                    </g>
                </g>
            </g>
        </g>
    </g>
</svg>