<svg width="370" height="243" viewBox="0 0 370 243" fill="none" xmlns="http://www.w3.org/2000/svg">
<g clip-path="url(#clip0_804_280541)">
<rect y="0.25" width="370" height="242" rx="10.5" fill="#EFF3F8"/>
<rect x="12.7261" y="53.25" width="88.5811" height="6" rx="3" fill="#D1DCEB"/>
<rect x="110.307" y="53.25" width="42.0898" height="6" rx="3" fill="#D1DCEB"/>
<rect x="161.397" y="53.25" width="67.9287" height="6" rx="3" fill="#D1DCEB"/>
<rect x="238.326" y="53.25" width="19.46" height="6" rx="3" fill="#D1DCEB"/>
<rect x="266.786" y="53.25" width="54.8633" height="6" rx="3" fill="#D1DCEB"/>
<rect x="330.649" y="53.25" width="26.625" height="6" rx="3" fill="#D1DCEB"/>
<rect x="12.7261" y="68.75" width="42.0898" height="6" rx="3" fill="#D1DCEB"/>
<rect x="63.8159" y="68.75" width="88.5811" height="6" rx="3" fill="#D1DCEB"/>
<rect x="161.397" y="68.75" width="19.46" height="6" rx="3" fill="#D1DCEB"/>
<rect x="189.857" y="68.75" width="67.9287" height="6" rx="3" fill="#D1DCEB"/>
<rect x="266.786" y="68.75" width="54.8633" height="6" rx="3" fill="#BCBEFB"/>
<rect x="330.649" y="68.75" width="26.625" height="6" rx="3" fill="#D1DCEB"/>
<rect x="12.7261" y="84.25" width="88.5811" height="6" rx="3" fill="#D1DCEB"/>
<rect x="110.307" y="84.25" width="67.9287" height="6" rx="3" fill="#BCBEFB"/>
<rect x="187.236" y="84.25" width="42.0898" height="6" rx="3" fill="#D1DCEB"/>
<rect x="238.326" y="84.25" width="54.8633" height="6" rx="3" fill="#D1DCEB"/>
<rect x="302.189" y="84.25" width="19.46" height="6" rx="3" fill="#D1DCEB"/>
<rect x="330.649" y="84.25" width="26.625" height="6" rx="3" fill="#D1DCEB"/>
<rect x="12.7261" y="99.75" width="42.0898" height="6" rx="3" fill="#BCBEFB"/>
<rect x="63.8159" y="99.75" width="88.5811" height="6" rx="3" fill="#D1DCEB"/>
<rect x="161.397" y="99.75" width="19.46" height="6" rx="3" fill="#D1DCEB"/>
<rect x="189.857" y="99.75" width="67.9287" height="6" rx="3" fill="#D1DCEB"/>
<rect x="266.786" y="99.75" width="54.8633" height="6" rx="3" fill="#D1DCEB"/>
<rect x="330.649" y="99.75" width="26.625" height="6" rx="3" fill="#BCBEFB"/>
<rect x="12.7261" y="115.25" width="42.0898" height="6" rx="3" fill="#D1DCEB"/>
<rect x="63.8159" y="115.25" width="67.9287" height="6" rx="3" fill="#D1DCEB"/>
<rect x="140.745" y="115.25" width="19.46" height="6" rx="3" fill="#BCBEFB"/>
<rect x="169.205" y="115.25" width="54.8633" height="6" rx="3" fill="#D1DCEB"/>
<rect x="233.068" y="115.25" width="88.5811" height="6" rx="3" fill="#BCBEFB"/>
<rect x="330.649" y="115.25" width="26.625" height="6" rx="3" fill="#D1DCEB"/>
<rect x="12.7261" y="130.75" width="88.5811" height="6" rx="3" fill="#D1DCEB"/>
<rect x="110.307" y="130.75" width="26.625" height="6" rx="3" fill="#D1DCEB"/>
<rect x="145.932" y="130.75" width="67.9287" height="6" rx="3" fill="#D1DCEB"/>
<rect x="222.861" y="130.75" width="42.0898" height="6" rx="3" fill="#D1DCEB"/>
<rect x="273.951" y="130.75" width="19.46" height="6" rx="3" fill="#D1DCEB"/>
<rect x="302.411" y="130.75" width="54.8633" height="6" rx="3" fill="#D1DCEB"/>
<rect x="12.7261" y="146.25" width="88.5811" height="6" rx="3" fill="#D1DCEB"/>
<rect x="110.307" y="146.25" width="67.9287" height="6" rx="3" fill="#BCBEFB"/>
<rect x="187.236" y="146.25" width="42.0898" height="6" rx="3" fill="#D1DCEB"/>
<rect x="238.326" y="146.25" width="54.8633" height="6" rx="3" fill="#D1DCEB"/>
<rect x="302.189" y="146.25" width="19.46" height="6" rx="3" fill="#D1DCEB"/>
<rect x="330.649" y="146.25" width="26.625" height="6" rx="3" fill="#BCBEFB"/>
<rect x="12.7261" y="161.75" width="42.0898" height="6" rx="3" fill="#D1DCEB"/>
<rect x="63.8159" y="161.75" width="88.5811" height="6" rx="3" fill="#D1DCEB"/>
<rect x="161.397" y="161.75" width="19.46" height="6" rx="3" fill="#D1DCEB"/>
<rect x="189.857" y="161.75" width="67.9287" height="6" rx="3" fill="#D1DCEB"/>
<rect x="266.786" y="161.75" width="26.625" height="6" rx="3" fill="#D1DCEB"/>
<path d="M302.411 164.75C302.411 163.093 303.754 161.75 305.411 161.75H354.274C355.931 161.75 357.274 163.093 357.274 164.75C357.274 166.407 355.931 167.75 354.274 167.75H305.411C303.754 167.75 302.411 166.407 302.411 164.75Z" fill="#D1DCEB"/>
<rect x="12.7261" y="177.25" width="88.5811" height="6" rx="3" fill="#D1DCEB"/>
<rect x="110.307" y="177.25" width="42.0898" height="6" rx="3" fill="#D1DCEB"/>
<rect x="161.397" y="177.25" width="67.9287" height="6" rx="3" fill="#BCBEFB"/>
<rect x="238.326" y="177.25" width="26.625" height="6" rx="3" fill="#D1DCEB"/>
<rect x="273.951" y="177.25" width="54.8633" height="6" rx="3" fill="#D1DCEB"/>
<rect x="337.814" y="177.25" width="19.46" height="6" rx="3" fill="#D1DCEB"/>
<rect x="12.7261" y="192.75" width="88.5811" height="6" rx="3" fill="#D1DCEB"/>
<rect x="110.307" y="192.75" width="19.46" height="6" rx="3" fill="#D1DCEB"/>
<rect x="138.767" y="192.75" width="67.9287" height="6" rx="3" fill="#D1DCEB"/>
<rect x="215.696" y="192.75" width="26.625" height="6" rx="3" fill="#D1DCEB"/>
<rect x="251.321" y="192.75" width="54.8633" height="6" rx="3" fill="#D1DCEB"/>
<rect x="315.184" y="192.75" width="42.0898" height="6" rx="3" fill="#D1DCEB"/>
<rect x="12.7261" y="208.25" width="42.0898" height="6" rx="3" fill="#BCBEFB"/>
<rect x="63.8159" y="208.25" width="67.9287" height="6" rx="3" fill="#D1DCEB"/>
<rect x="140.745" y="208.25" width="19.46" height="6" rx="3" fill="#BCBEFB"/>
<rect x="169.205" y="208.25" width="54.8633" height="6" rx="3" fill="#D1DCEB"/>
<rect x="233.068" y="208.25" width="88.5811" height="6" rx="3" fill="#D1DCEB"/>
<rect x="330.649" y="208.25" width="26.625" height="6" rx="3" fill="#D1DCEB"/>
<rect x="12.7261" y="223.75" width="88.5811" height="6" rx="3" fill="#D1DCEB"/>
<rect x="110.307" y="223.75" width="26.625" height="6" rx="3" fill="#D1DCEB"/>
<rect x="145.932" y="223.75" width="67.9287" height="6" rx="3" fill="#D1DCEB"/>
<rect x="222.861" y="223.75" width="42.0898" height="6" rx="3" fill="#BCBEFB"/>
<rect x="273.951" y="223.75" width="19.46" height="6" rx="3" fill="#D1DCEB"/>
<rect x="302.411" y="223.75" width="54.8633" height="6" rx="3" fill="#D1DCEB"/>
<path d="M0 13.05C0 8.56958 0 6.32937 0.871948 4.61808C1.63893 3.11278 2.86278 1.88893 4.36808 1.12195C6.07937 0.25 8.31958 0.25 12.8 0.25H357.2C361.68 0.25 363.921 0.25 365.632 1.12195C367.137 1.88893 368.361 3.11278 369.128 4.61808C370 6.32937 370 8.56958 370 13.05V40.25H0V13.05Z" fill="white"/>
<circle cx="22" cy="20.25" r="6" fill="#ED6B5D"/>
<circle cx="42" cy="20.25" r="6" fill="#F4BE50"/>
<circle cx="62" cy="20.25" r="6" fill="#61C554"/>
<g filter="url(#filter0_d_804_280541)">
<rect x="66" y="112.581" width="239" height="56" rx="28" fill="white"/>
<rect x="66.7973" y="113.378" width="237.405" height="54.4054" rx="27.2027" stroke="#DFE7EF" stroke-width="1.59458"/>
<g clip-path="url(#clip1_804_280541)">
<path d="M90.8212 137.361L95.9376 134.407C96.0656 134.333 96.2234 134.333 96.3515 134.407L101.468 137.361C101.596 137.435 101.675 137.571 101.675 137.719V143.627C101.675 143.775 101.596 143.912 101.468 143.986L96.3515 146.94C96.2234 147.014 96.0656 147.014 95.9376 146.94L90.8212 143.986C90.6932 143.912 90.6143 143.775 90.6143 143.627V137.719C90.6144 137.571 90.6933 137.435 90.8212 137.361Z" fill="#8080F2"/>
<path d="M109.446 140.052L103.333 129.417C103.11 129.033 102.7 128.749 102.256 128.749H90.0299C89.5858 128.749 89.1755 129.033 88.9534 129.417L82.8404 140.029C82.6183 140.413 82.6183 140.899 82.8404 141.283L88.9534 151.831C89.1755 152.216 89.5858 152.412 90.0299 152.412H102.256C102.7 152.412 103.11 152.222 103.332 151.837L109.445 141.272C109.668 140.888 109.668 140.437 109.446 140.052ZM104.384 145.166C104.384 145.323 104.289 145.467 104.154 145.545L96.3672 150.038C96.2318 150.116 96.0622 150.116 95.9267 150.038L88.134 145.545C87.9986 145.467 87.9038 145.323 87.9038 145.166V136.181C87.9038 136.025 87.9972 135.88 88.1327 135.802L95.9191 131.309C96.0545 131.231 96.224 131.231 96.3594 131.309L104.153 135.802C104.288 135.88 104.384 136.025 104.384 136.181V145.166Z" fill="#4B32C3"/>
</g>
<path d="M121.529 147.081V133.165H130.254V134.972H123.629V139.212H129.799V141.013H123.629V145.274H130.335V147.081H121.529ZM140.716 139.192L138.875 139.518C138.798 139.283 138.676 139.058 138.508 138.845C138.345 138.633 138.123 138.458 137.842 138.322C137.561 138.186 137.21 138.118 136.789 138.118C136.214 138.118 135.733 138.247 135.348 138.506C134.963 138.759 134.771 139.088 134.771 139.491C134.771 139.84 134.9 140.121 135.158 140.334C135.416 140.546 135.833 140.721 136.408 140.857L138.066 141.237C139.027 141.459 139.743 141.801 140.214 142.263C140.685 142.725 140.92 143.326 140.92 144.064C140.92 144.689 140.739 145.246 140.377 145.736C140.019 146.22 139.518 146.601 138.875 146.877C138.236 147.154 137.496 147.292 136.653 147.292C135.484 147.292 134.531 147.043 133.792 146.544C133.054 146.041 132.601 145.328 132.433 144.404L134.397 144.105C134.519 144.617 134.771 145.004 135.151 145.267C135.532 145.525 136.028 145.654 136.639 145.654C137.305 145.654 137.838 145.516 138.236 145.24C138.635 144.959 138.834 144.617 138.834 144.214C138.834 143.887 138.712 143.613 138.467 143.391C138.227 143.169 137.858 143.002 137.36 142.888L135.593 142.501C134.619 142.279 133.899 141.926 133.432 141.441C132.97 140.956 132.739 140.343 132.739 139.6C132.739 138.984 132.911 138.445 133.255 137.982C133.6 137.52 134.075 137.16 134.682 136.902C135.289 136.639 135.985 136.508 136.769 136.508C137.897 136.508 138.784 136.753 139.432 137.242C140.08 137.726 140.508 138.377 140.716 139.192ZM145.186 133.165V147.081H143.154V133.165H145.186ZM147.919 147.081V136.644H149.951V147.081H147.919ZM148.945 135.033C148.592 135.033 148.288 134.916 148.035 134.68C147.786 134.44 147.661 134.155 147.661 133.824C147.661 133.489 147.786 133.203 148.035 132.968C148.288 132.728 148.592 132.608 148.945 132.608C149.299 132.608 149.6 132.728 149.849 132.968C150.103 133.203 150.23 133.489 150.23 133.824C150.23 134.155 150.103 134.44 149.849 134.68C149.6 134.916 149.299 135.033 148.945 135.033ZM154.716 140.884V147.081H152.684V136.644H154.635V138.343H154.764C155.004 137.79 155.38 137.346 155.892 137.011C156.408 136.676 157.058 136.508 157.842 136.508C158.553 136.508 159.176 136.657 159.71 136.956C160.245 137.251 160.659 137.69 160.954 138.275C161.248 138.859 161.396 139.582 161.396 140.442V147.081H159.364V140.687C159.364 139.93 159.167 139.339 158.773 138.913C158.379 138.483 157.837 138.268 157.149 138.268C156.678 138.268 156.259 138.37 155.892 138.574C155.529 138.777 155.242 139.076 155.029 139.471C154.82 139.86 154.716 140.331 154.716 140.884ZM168.993 136.644V138.275H163.291V136.644H168.993ZM164.82 134.143H166.852V144.016C166.852 144.411 166.911 144.707 167.029 144.907C167.147 145.101 167.298 145.235 167.484 145.308C167.674 145.375 167.88 145.409 168.102 145.409C168.265 145.409 168.408 145.398 168.53 145.375C168.653 145.353 168.748 145.335 168.816 145.321L169.183 147C169.065 147.045 168.897 147.09 168.68 147.135C168.462 147.185 168.191 147.212 167.865 147.217C167.33 147.226 166.832 147.131 166.37 146.932C165.908 146.732 165.534 146.424 165.248 146.007C164.963 145.591 164.82 145.067 164.82 144.438V134.143ZM188.026 137.69H185.905C185.824 137.237 185.672 136.839 185.45 136.494C185.228 136.15 184.956 135.858 184.635 135.618C184.313 135.378 183.953 135.196 183.554 135.074C183.16 134.952 182.741 134.891 182.297 134.891C181.495 134.891 180.777 135.092 180.143 135.495C179.514 135.899 179.015 136.49 178.648 137.269C178.286 138.048 178.105 138.999 178.105 140.123C178.105 141.255 178.286 142.211 178.648 142.99C179.015 143.77 179.516 144.358 180.15 144.757C180.784 145.156 181.498 145.355 182.29 145.355C182.73 145.355 183.147 145.296 183.541 145.178C183.939 145.056 184.3 144.877 184.621 144.642C184.943 144.406 185.215 144.118 185.437 143.779C185.663 143.434 185.819 143.04 185.905 142.596L188.026 142.603C187.912 143.287 187.693 143.917 187.366 144.492C187.045 145.063 186.63 145.557 186.123 145.973C185.62 146.386 185.045 146.705 184.397 146.932C183.749 147.158 183.042 147.271 182.277 147.271C181.072 147.271 179.998 146.986 179.056 146.415C178.114 145.84 177.371 145.018 176.827 143.949C176.288 142.879 176.019 141.604 176.019 140.123C176.019 138.637 176.29 137.362 176.834 136.297C177.378 135.228 178.121 134.408 179.063 133.837C180.005 133.262 181.076 132.974 182.277 132.974C183.015 132.974 183.704 133.081 184.343 133.294C184.986 133.502 185.563 133.81 186.075 134.218C186.587 134.621 187.011 135.115 187.346 135.699C187.681 136.279 187.908 136.943 188.026 137.69ZM194.771 147.292C193.793 147.292 192.939 147.067 192.21 146.619C191.48 146.171 190.914 145.543 190.511 144.737C190.108 143.93 189.906 142.988 189.906 141.91C189.906 140.827 190.108 139.881 190.511 139.07C190.914 138.259 191.48 137.629 192.21 137.181C192.939 136.732 193.793 136.508 194.771 136.508C195.75 136.508 196.604 136.732 197.333 137.181C198.062 137.629 198.629 138.259 199.032 139.07C199.435 139.881 199.637 140.827 199.637 141.91C199.637 142.988 199.435 143.93 199.032 144.737C198.629 145.543 198.062 146.171 197.333 146.619C196.604 147.067 195.75 147.292 194.771 147.292ZM194.778 145.586C195.412 145.586 195.938 145.419 196.355 145.083C196.771 144.748 197.079 144.302 197.279 143.745C197.483 143.187 197.584 142.574 197.584 141.903C197.584 141.237 197.483 140.626 197.279 140.069C197.079 139.507 196.771 139.056 196.355 138.716C195.938 138.377 195.412 138.207 194.778 138.207C194.139 138.207 193.609 138.377 193.188 138.716C192.771 139.056 192.461 139.507 192.257 140.069C192.058 140.626 191.958 141.237 191.958 141.903C191.958 142.574 192.058 143.187 192.257 143.745C192.461 144.302 192.771 144.748 193.188 145.083C193.609 145.419 194.139 145.586 194.778 145.586ZM201.904 147.081V136.644H203.855V138.343H203.984C204.201 137.767 204.557 137.319 205.051 136.997C205.544 136.671 206.136 136.508 206.824 136.508C207.522 136.508 208.106 136.671 208.577 136.997C209.053 137.323 209.404 137.772 209.63 138.343H209.739C209.988 137.785 210.385 137.341 210.928 137.011C211.472 136.676 212.12 136.508 212.872 136.508C213.818 136.508 214.591 136.805 215.189 137.398C215.791 137.992 216.093 138.886 216.093 140.082V147.081H214.061V140.272C214.061 139.566 213.868 139.054 213.483 138.737C213.098 138.42 212.638 138.261 212.104 138.261C211.442 138.261 210.928 138.465 210.561 138.873C210.194 139.276 210.011 139.794 210.011 140.429V147.081H207.986V140.143C207.986 139.577 207.809 139.122 207.456 138.777C207.103 138.433 206.643 138.261 206.077 138.261C205.692 138.261 205.336 138.363 205.01 138.567C204.688 138.766 204.428 139.045 204.228 139.403C204.034 139.76 203.936 140.175 203.936 140.646V147.081H201.904ZM218.816 150.995V136.644H220.8V138.336H220.97C221.088 138.118 221.257 137.867 221.479 137.582C221.701 137.296 222.009 137.047 222.404 136.834C222.798 136.617 223.319 136.508 223.966 136.508C224.809 136.508 225.561 136.721 226.222 137.147C226.884 137.572 227.402 138.186 227.778 138.988C228.159 139.79 228.349 140.755 228.349 141.883C228.349 143.011 228.161 143.978 227.785 144.784C227.409 145.586 226.893 146.204 226.236 146.639C225.579 147.07 224.829 147.285 223.987 147.285C223.353 147.285 222.834 147.178 222.431 146.966C222.032 146.753 221.719 146.503 221.493 146.218C221.266 145.933 221.092 145.679 220.97 145.457H220.847V150.995H218.816ZM220.807 141.862C220.807 142.596 220.913 143.24 221.126 143.792C221.339 144.345 221.647 144.778 222.05 145.09C222.453 145.398 222.947 145.552 223.531 145.552C224.139 145.552 224.646 145.391 225.054 145.07C225.461 144.744 225.769 144.302 225.978 143.745C226.191 143.187 226.297 142.56 226.297 141.862C226.297 141.174 226.193 140.556 225.985 140.007C225.781 139.459 225.473 139.027 225.06 138.71C224.653 138.392 224.143 138.234 223.531 138.234C222.943 138.234 222.444 138.386 222.037 138.689C221.633 138.993 221.328 139.416 221.119 139.96C220.911 140.503 220.807 141.138 220.807 141.862ZM233.663 147.312C233.002 147.312 232.404 147.19 231.869 146.945C231.335 146.696 230.911 146.336 230.598 145.865C230.29 145.394 230.136 144.816 230.136 144.132C230.136 143.543 230.25 143.058 230.476 142.678C230.703 142.297 231.008 141.996 231.393 141.774C231.778 141.552 232.209 141.385 232.684 141.271C233.16 141.158 233.645 141.072 234.139 141.013C234.764 140.941 235.271 140.882 235.661 140.836C236.05 140.787 236.333 140.707 236.51 140.599C236.687 140.49 236.775 140.313 236.775 140.069V140.021C236.775 139.428 236.607 138.968 236.272 138.642C235.942 138.315 235.448 138.152 234.791 138.152C234.107 138.152 233.568 138.304 233.174 138.608C232.784 138.907 232.515 139.24 232.365 139.606L230.456 139.172C230.682 138.537 231.013 138.025 231.448 137.636C231.887 137.242 232.392 136.956 232.963 136.78C233.534 136.599 234.134 136.508 234.764 136.508C235.181 136.508 235.622 136.558 236.089 136.657C236.56 136.753 236.999 136.929 237.407 137.187C237.819 137.446 238.157 137.815 238.42 138.295C238.682 138.771 238.814 139.389 238.814 140.15V147.081H236.829V145.654H236.748C236.617 145.917 236.419 146.175 236.157 146.429C235.894 146.682 235.557 146.893 235.144 147.061C234.732 147.228 234.238 147.312 233.663 147.312ZM234.105 145.681C234.666 145.681 235.147 145.57 235.545 145.348C235.948 145.126 236.254 144.836 236.463 144.479C236.675 144.116 236.782 143.729 236.782 143.317V141.971C236.709 142.044 236.569 142.112 236.361 142.175C236.157 142.234 235.923 142.286 235.661 142.331C235.398 142.372 235.142 142.411 234.893 142.447C234.644 142.479 234.435 142.506 234.268 142.528C233.874 142.578 233.513 142.662 233.187 142.78C232.866 142.898 232.607 143.067 232.413 143.289C232.222 143.507 232.127 143.797 232.127 144.159C232.127 144.662 232.313 145.043 232.684 145.301C233.056 145.554 233.529 145.681 234.105 145.681ZM241.683 147.081V133.165H243.715V138.336H243.837C243.955 138.118 244.125 137.867 244.347 137.582C244.568 137.296 244.877 137.047 245.271 136.834C245.665 136.617 246.186 136.508 246.834 136.508C247.676 136.508 248.428 136.721 249.089 137.147C249.751 137.572 250.27 138.186 250.646 138.988C251.026 139.79 251.216 140.755 251.216 141.883C251.216 143.011 251.028 143.978 250.652 144.784C250.276 145.586 249.76 146.204 249.103 146.639C248.446 147.07 247.696 147.285 246.854 147.285C246.22 147.285 245.701 147.178 245.298 146.966C244.899 146.753 244.587 146.503 244.36 146.218C244.134 145.933 243.959 145.679 243.837 145.457H243.667V147.081H241.683ZM243.674 141.862C243.674 142.596 243.78 143.24 243.993 143.792C244.206 144.345 244.514 144.778 244.917 145.09C245.32 145.398 245.814 145.552 246.399 145.552C247.006 145.552 247.513 145.391 247.921 145.07C248.328 144.744 248.636 144.302 248.845 143.745C249.058 143.187 249.164 142.56 249.164 141.862C249.164 141.174 249.06 140.556 248.852 140.007C248.648 139.459 248.34 139.027 247.928 138.71C247.52 138.392 247.01 138.234 246.399 138.234C245.81 138.234 245.311 138.386 244.904 138.689C244.501 138.993 244.195 139.416 243.986 139.96C243.778 140.503 243.674 141.138 243.674 141.862ZM253.498 147.081V136.644H255.53V147.081H253.498ZM254.524 135.033C254.17 135.033 253.867 134.916 253.613 134.68C253.364 134.44 253.24 134.155 253.24 133.824C253.24 133.489 253.364 133.203 253.613 132.968C253.867 132.728 254.17 132.608 254.524 132.608C254.877 132.608 255.178 132.728 255.428 132.968C255.681 133.203 255.808 133.489 255.808 133.824C255.808 134.155 255.681 134.44 255.428 134.68C255.178 134.916 254.877 135.033 254.524 135.033ZM260.295 133.165V147.081H258.263V133.165H260.295ZM263.028 147.081V136.644H265.06V147.081H263.028ZM264.054 135.033C263.701 135.033 263.397 134.916 263.143 134.68C262.894 134.44 262.77 134.155 262.77 133.824C262.77 133.489 262.894 133.203 263.143 132.968C263.397 132.728 263.701 132.608 264.054 132.608C264.407 132.608 264.709 132.728 264.958 132.968C265.211 133.203 265.338 133.489 265.338 133.824C265.338 134.155 265.211 134.44 264.958 134.68C264.709 134.916 264.407 135.033 264.054 135.033ZM272.665 136.644V138.275H266.964V136.644H272.665ZM268.493 134.143H270.525V144.016C270.525 144.411 270.583 144.707 270.701 144.907C270.819 145.101 270.971 145.235 271.156 145.308C271.347 145.375 271.553 145.409 271.775 145.409C271.938 145.409 272.081 145.398 272.203 145.375C272.325 145.353 272.42 145.335 272.488 145.321L272.855 147C272.737 147.045 272.57 147.09 272.352 147.135C272.135 147.185 271.863 147.212 271.537 147.217C271.002 147.226 270.504 147.131 270.042 146.932C269.58 146.732 269.206 146.424 268.921 146.007C268.636 145.591 268.493 145.067 268.493 144.438V134.143ZM276.197 150.995C275.893 150.995 275.617 150.97 275.368 150.92C275.119 150.875 274.933 150.825 274.811 150.771L275.3 149.106C275.671 149.206 276.002 149.249 276.292 149.235C276.582 149.222 276.838 149.113 277.06 148.909C277.286 148.705 277.486 148.372 277.658 147.91L277.909 147.217L274.09 136.644H276.265L278.908 144.744H279.017L281.66 136.644H283.841L279.54 148.474C279.341 149.018 279.087 149.477 278.779 149.853C278.471 150.234 278.104 150.519 277.678 150.71C277.252 150.9 276.758 150.995 276.197 150.995Z" fill="black"/>
</g>
</g>
<rect x="0.5" y="0.75" width="369" height="241" rx="10" stroke="#DFE7EF"/>
<defs>
<filter id="filter0_d_804_280541" x="58.1966" y="104.778" width="254.607" height="71.6068" filterUnits="userSpaceOnUse" color-interpolation-filters="sRGB">
<feFlood flood-opacity="0" result="BackgroundImageFix"/>
<feColorMatrix in="SourceAlpha" type="matrix" values="0 0 0 0 0 0 0 0 0 0 0 0 0 0 0 0 0 0 127 0" result="hardAlpha"/>
<feOffset/>
<feGaussianBlur stdDeviation="3.90171"/>
<feComposite in2="hardAlpha" operator="out"/>
<feColorMatrix type="matrix" values="0 0 0 0 0 0 0 0 0 0 0 0 0 0 0 0 0 0 0.08 0"/>
<feBlend mode="normal" in2="BackgroundImageFix" result="effect1_dropShadow_804_280541"/>
<feBlend mode="normal" in="SourceGraphic" in2="effect1_dropShadow_804_280541" result="shape"/>
</filter>
<clipPath id="clip0_804_280541">
<rect y="0.25" width="370" height="242" rx="10.5" fill="white"/>
</clipPath>
<clipPath id="clip1_804_280541">
<rect width="27.2751" height="24" fill="white" transform="translate(82.5049 128.581)"/>
</clipPath>
</defs>
</svg>
