<svg width="370" height="242" viewBox="0 0 370 242" fill="none" xmlns="http://www.w3.org/2000/svg">
<g clip-path="url(#clip0_2026_34146)">
<path opacity="0.34" d="M278.039 26.5781H334.513C337.546 26.5781 340.01 29.0425 340.01 32.0752V53.7364C340.01 56.7691 337.546 59.2335 334.513 59.2335H278.039C275.006 59.2335 272.542 56.7691 272.542 53.7364V32.0752C272.542 29.0425 275.006 26.5781 278.039 26.5781Z" fill="#ABC9FB"/>
<path opacity="0.34" d="M85.9743 148.323H37.5973C33.5254 148.323 30.2244 151.624 30.2244 155.696V204.073C30.2244 208.145 33.5254 211.446 37.5973 211.446H85.9743C90.0463 211.446 93.3473 208.145 93.3473 204.073V155.696C93.3473 151.624 90.0463 148.323 85.9743 148.323Z" fill="#ABC9FB"/>
<path d="M298.317 73.1798V42.1389C298.317 39.7298 296.361 37.7734 293.952 37.7734H197.65" stroke="#ABC9FB" stroke-width="4" stroke-miterlimit="10" stroke-linecap="round"/>
<path d="M54.1543 48.5869H286.086V189.191C286.086 190.454 285.06 191.48 283.798 191.48H56.4426C55.1803 191.48 54.1543 190.454 54.1543 189.191V48.5869Z" fill="url(#paint0_linear_2026_34146)"/>
<path d="M56.5281 44.5098H283.798C284.784 44.5098 285.586 45.3119 285.586 46.2981V48.0864H54.6543V46.3836C54.6543 45.3478 55.496 44.5098 56.5281 44.5098Z" fill="#3B82F6" stroke="#3B82F6"/>
<path d="M315.18 105.056H253.682C252.646 105.056 251.806 105.896 251.806 106.932V214.242C251.806 215.278 252.646 216.118 253.682 216.118H315.18C316.216 216.118 317.056 215.278 317.056 214.242V106.932C317.056 105.896 316.216 105.056 315.18 105.056Z" fill="white"/>
<g filter="url(#filter0_d_2026_34146)">
<path d="M315.18 137.721H253.682C252.646 137.721 251.806 138.561 251.806 139.597V173.389C251.806 174.425 252.646 175.265 253.682 175.265H315.18C316.216 175.265 317.056 174.425 317.056 173.389V139.597C317.056 138.561 316.216 137.721 315.18 137.721Z" fill="#D0E1FD"/>
</g>
<g filter="url(#filter1_d_2026_34146)">
<path d="M241.189 142.599H126.189C125.062 141.468 124.429 140.839 123.297 139.708V74.7239C123.297 73.1296 124.59 71.832 126.189 71.832H241.189C242.784 71.832 244.081 73.1246 244.081 74.7239V139.708C244.081 141.302 242.789 142.599 241.189 142.599Z" fill="white"/>
<path d="M241.189 142.599H126.189C125.062 141.468 124.429 140.839 123.297 139.708V74.7239C123.297 73.1296 124.59 71.832 126.189 71.832H241.189C242.784 71.832 244.081 73.1246 244.081 74.7239V139.708C244.081 141.302 242.789 142.599 241.189 142.599Z" stroke="#EFF3F8" stroke-width="0.5" stroke-miterlimit="10"/>
</g>
<g filter="url(#filter2_d_2026_34146)">
<path d="M69.7202 133.697H139.311C140.256 133.697 141.026 134.467 141.026 135.412V148.65C141.026 149.6 140.256 150.37 139.306 150.37H69.7151C68.7646 150.37 67.9951 149.6 67.9951 148.65V135.412C67.9951 134.462 68.7646 133.692 69.7151 133.692L69.7202 133.697Z" fill="#3B82F6"/>
<path d="M69.6034 134.197H69.7202H139.311C139.98 134.197 140.526 134.743 140.526 135.412V148.65C140.526 149.324 139.98 149.87 139.306 149.87H69.7151C69.0408 149.87 68.4951 149.324 68.4951 148.65V135.412C68.4951 134.776 68.9815 134.254 69.6034 134.197Z" stroke="#3B82F6"/>
</g>
<g filter="url(#filter3_d_2026_34146)">
<path d="M69.7202 157.345H139.311C140.256 157.345 141.026 158.115 141.026 159.06V172.298C141.026 173.248 140.256 174.018 139.306 174.018H69.7151C68.7646 174.018 67.9951 173.248 67.9951 172.298V159.06C67.9951 158.11 68.7646 157.34 69.7151 157.34L69.7202 157.345Z" fill="white"/>
<path d="M69.7202 157.345H139.311C140.256 157.345 141.026 158.115 141.026 159.06V172.298C141.026 173.248 140.256 174.018 139.306 174.018H69.7151C68.7646 174.018 67.9951 173.248 67.9951 172.298V159.06C67.9951 158.11 68.7646 157.34 69.7151 157.34L69.7202 157.345Z" stroke="#EFF3F8" stroke-width="0.5" stroke-miterlimit="10"/>
</g>
<g filter="url(#filter4_d_2026_34146)">
<path d="M164.678 117.217C164.678 118.771 163.416 120.033 161.862 120.033H135.77C133.919 120.033 132.415 118.534 132.415 116.678V111.161V84.521C132.415 82.9669 133.678 81.7046 135.232 81.7046H161.862C163.416 81.7046 164.678 82.9669 164.678 84.521V117.217Z" fill="#EAEAEA"/>
</g>
<g filter="url(#filter5_d_2026_34146)">
<path d="M164.678 117.217C164.678 118.771 163.416 120.033 161.862 120.033H135.312C133.713 120.033 132.415 118.735 132.415 117.136V113.409V84.521C132.415 82.9669 133.678 81.7046 135.232 81.7046H161.862C163.416 81.7046 164.678 82.9669 164.678 84.521V117.217Z" fill="#ABC9FB"/>
</g>
<path d="M148.544 102.622C144.214 102.622 140.704 105.916 140.704 109.984V110.025H156.39V109.984C156.39 105.921 152.88 102.622 148.549 102.622H148.544Z" fill="#F7FBFE"/>
<path d="M149.148 100.202C151.165 99.9308 152.608 98.2208 152.608 96.3097V95.2284C152.608 93.3173 151.165 91.6073 149.148 91.3357C146.634 90.9988 144.481 92.8194 144.481 95.1127V96.4304C144.481 98.7238 146.639 100.544 149.148 100.207V100.202Z" fill="#F7FBFE"/>
<g filter="url(#filter6_d_2026_34146)">
<path d="M315.18 105.056H253.682C252.646 105.056 251.806 105.896 251.806 106.932V140.724C251.806 141.76 252.646 142.599 253.682 142.599H315.18C316.216 142.599 317.056 141.76 317.056 140.724V106.932C317.056 105.896 316.216 105.056 315.18 105.056Z" fill="#3B82F6"/>
<path d="M253.682 105.556H315.18C315.94 105.556 316.556 106.172 316.556 106.932V140.724C316.556 141.483 315.94 142.099 315.18 142.099H253.682C252.922 142.099 252.306 141.483 252.306 140.724V106.932C252.306 106.172 252.922 105.556 253.682 105.556Z" stroke="#3B82F6"/>
</g>
<path d="M58.4137 46.2981C58.4137 46.8061 58.0013 47.2135 57.4983 47.2135C56.9954 47.2135 56.583 46.8011 56.583 46.2981C56.583 45.7952 56.9954 45.3828 57.4983 45.3828C58.0013 45.3828 58.4137 45.7952 58.4137 46.2981Z" fill="#D4E3F8"/>
<path d="M63.2721 46.2981C63.2721 46.8061 62.8597 47.2135 62.3567 47.2135C61.8538 47.2135 61.4414 46.8011 61.4414 46.2981C61.4414 45.7952 61.8538 45.3828 62.3567 45.3828C62.8597 45.3828 63.2721 45.7952 63.2721 46.2981Z" fill="#D4E3F8"/>
<path d="M68.1305 46.2981C68.1305 46.8061 67.7181 47.2135 67.2151 47.2135C66.7122 47.2135 66.2998 46.8011 66.2998 46.2981C66.2998 45.7952 66.7122 45.3828 67.2151 45.3828C67.7181 45.3828 68.1305 45.7952 68.1305 46.2981Z" fill="#D4E3F8"/>
<path d="M171.645 91.0034H197.168" stroke="#ABC9FB" stroke-width="4" stroke-miterlimit="10" stroke-linecap="round"/>
<path d="M171.645 96.8271H205.758" stroke="#ABC9FB" stroke-width="4" stroke-miterlimit="10" stroke-linecap="round"/>
<path d="M171.645 107.504H224.498" stroke="#ABC9FB" stroke-width="4" stroke-miterlimit="10" stroke-linecap="round"/>
<path d="M171.645 112.559H224.498" stroke="#ABC9FB" stroke-width="4" stroke-miterlimit="10" stroke-linecap="round"/>
<path d="M171.645 117.614H198.913" stroke="#ABC9FB" stroke-width="4" stroke-miterlimit="10" stroke-linecap="round"/>
<path d="M171.645 84.918H184.002" stroke="#ABC9FB" stroke-width="4" stroke-miterlimit="10" stroke-linecap="round"/>
<path d="M272.884 114.989H290.798" stroke="#D0E1FD" stroke-width="4" stroke-miterlimit="10" stroke-linecap="round"/>
<path d="M272.884 122.281H309.975" stroke="#D0E1FD" stroke-width="4" stroke-miterlimit="10" stroke-linecap="round"/>
<path d="M272.884 127.281H309.975" stroke="#D0E1FD" stroke-width="4" stroke-miterlimit="10" stroke-linecap="round"/>
<path d="M272.884 132.281H292.02" stroke="#D0E1FD" stroke-width="4" stroke-miterlimit="10" stroke-linecap="round"/>
<path d="M272.884 151.627H290.798" stroke="#85B2F9" stroke-width="4" stroke-miterlimit="10" stroke-linecap="round"/>
<path d="M272.884 158.919H309.975" stroke="#85B2F9" stroke-width="4" stroke-miterlimit="10" stroke-linecap="round"/>
<path d="M272.884 163.919H309.975" stroke="#85B2F9" stroke-width="4" stroke-miterlimit="10" stroke-linecap="round"/>
<path d="M272.884 168.919H292.02" stroke="#85B2F9" stroke-width="4" stroke-miterlimit="10" stroke-linecap="round"/>
<path d="M74.8796 142.036H111.82" stroke="#D0E1FD" stroke-width="4" stroke-miterlimit="10" stroke-linecap="round"/>
<path d="M74.8796 165.679H111.82" stroke="#ABC9FB" stroke-width="4" stroke-miterlimit="10" stroke-linecap="round"/>
<path d="M130.026 142.036H134.9" stroke="#D0E1FD" stroke-width="4" stroke-miterlimit="10" stroke-linecap="round"/>
<path d="M130.026 165.679H134.9" stroke="#ABC9FB" stroke-width="4" stroke-miterlimit="10" stroke-linecap="round"/>
<g filter="url(#filter7_d_2026_34146)">
<path d="M69.7192 72.3452H111.804C112.75 72.3452 113.519 73.1147 113.519 74.0602V119.882C113.519 120.833 112.75 121.602 111.799 121.602H69.7142C68.7636 121.602 67.9941 120.833 67.9941 119.882V74.0652C67.9941 73.1147 68.7636 72.3452 69.7142 72.3452H69.7192Z" fill="#3B82F6"/>
</g>
<path d="M90.1491 92.2727H91.9943V97.9403C91.9943 98.5767 91.8423 99.1335 91.5384 99.6108C91.2372 100.088 90.8153 100.46 90.2727 100.727C89.7301 100.991 89.098 101.124 88.3764 101.124C87.652 101.124 87.0185 100.991 86.4759 100.727C85.9332 100.46 85.5114 100.088 85.2102 99.6108C84.9091 99.1335 84.7585 98.5767 84.7585 97.9403V92.2727H86.6037V97.7827C86.6037 98.1151 86.6761 98.4105 86.821 98.669C86.9688 98.9276 87.1761 99.1307 87.4432 99.2784C87.7102 99.4261 88.0213 99.5 88.3764 99.5C88.7344 99.5 89.0455 99.4261 89.3097 99.2784C89.5767 99.1307 89.7827 98.9276 89.9276 98.669C90.0753 98.4105 90.1491 98.1151 90.1491 97.7827V92.2727ZM95.3576 92.2727V101H93.5124V92.2727H95.3576Z" fill="#F7FBFE"/>
<path d="M90.1491 92.2727V92.0227H89.8991V92.2727H90.1491ZM91.9943 92.2727H92.2443V92.0227H91.9943V92.2727ZM91.5384 99.6108L91.3275 99.4765L91.3269 99.4774L91.5384 99.6108ZM90.2727 100.727L90.3822 100.952L90.3831 100.952L90.2727 100.727ZM86.4759 100.727L86.3655 100.952L86.3664 100.952L86.4759 100.727ZM85.2102 99.6108L84.9988 99.7442L85.2102 99.6108ZM84.7585 92.2727V92.0227H84.5085V92.2727H84.7585ZM86.6037 92.2727H86.8537V92.0227H86.6037V92.2727ZM86.821 98.669L86.6029 98.7913L86.604 98.7931L86.821 98.669ZM87.4432 99.2784L87.3222 99.4972H87.3222L87.4432 99.2784ZM89.3097 99.2784L89.1886 99.0596L89.1877 99.0602L89.3097 99.2784ZM89.9276 98.669L89.7105 98.545L89.7095 98.5468L89.9276 98.669ZM90.1491 92.5227H91.9943V92.0227H90.1491V92.5227ZM91.7443 92.2727V97.9403H92.2443V92.2727H91.7443ZM91.7443 97.9403C91.7443 98.5352 91.6028 99.0442 91.3275 99.4765L91.7492 99.7451C92.0818 99.2228 92.2443 98.6182 92.2443 97.9403H91.7443ZM91.3269 99.4774C91.0522 99.9128 90.6666 100.255 90.1623 100.503L90.3831 100.952C90.9641 100.666 91.4222 100.263 91.7498 99.7442L91.3269 99.4774ZM90.1633 100.503C89.6608 100.747 89.0674 100.874 88.3764 100.874V101.374C89.1286 101.374 89.7994 101.236 90.3822 100.952L90.1633 100.503ZM88.3764 100.874C87.6824 100.874 87.0877 100.747 86.5853 100.503L86.3664 100.952C86.9493 101.236 87.6216 101.374 88.3764 101.374V100.874ZM86.5862 100.503C86.082 100.255 85.6964 99.9128 85.4217 99.4774L84.9988 99.7442C85.3263 100.263 85.7845 100.666 86.3655 100.952L86.5862 100.503ZM85.4217 99.4774C85.1488 99.045 85.0085 98.5357 85.0085 97.9403H84.5085C84.5085 98.6177 84.6693 99.2221 84.9988 99.7442L85.4217 99.4774ZM85.0085 97.9403V92.2727H84.5085V97.9403H85.0085ZM84.7585 92.5227H86.6037V92.0227H84.7585V92.5227ZM86.3537 92.2727V97.7827H86.8537V92.2727H86.3537ZM86.3537 97.7827C86.3537 98.1526 86.4347 98.491 86.6029 98.7913L87.0391 98.5468C86.9176 98.33 86.8537 98.0776 86.8537 97.7827H86.3537ZM86.604 98.7931C86.775 99.0924 87.0161 99.3278 87.3222 99.4972L87.5642 99.0597C87.3362 98.9335 87.1625 98.7627 87.0381 98.545L86.604 98.7931ZM87.3222 99.4972C87.6319 99.6685 87.9859 99.75 88.3764 99.75V99.25C88.0567 99.25 87.7885 99.1838 87.5642 99.0597L87.3222 99.4972ZM88.3764 99.75C88.7693 99.75 89.1239 99.6687 89.4317 99.4966L89.1877 99.0602C88.967 99.1836 88.6995 99.25 88.3764 99.25V99.75ZM89.4307 99.4972C89.7372 99.3276 89.9773 99.0916 90.1456 98.7913L89.7095 98.5468C89.588 98.7635 89.4163 98.9337 89.1886 99.0597L89.4307 99.4972ZM90.1446 98.7931C90.3164 98.4925 90.3991 98.1534 90.3991 97.7827H89.8991C89.8991 98.0767 89.8342 98.3285 89.7105 98.545L90.1446 98.7931ZM90.3991 97.7827V92.2727H89.8991V97.7827H90.3991ZM95.3576 92.2727H95.6076V92.0227H95.3576V92.2727ZM95.3576 101V101.25H95.6076V101H95.3576ZM93.5124 101H93.2624V101.25H93.5124V101ZM93.5124 92.2727V92.0227H93.2624V92.2727H93.5124ZM95.1076 92.2727V101H95.6076V92.2727H95.1076ZM95.3576 100.75H93.5124V101.25H95.3576V100.75ZM93.7624 101V92.2727H93.2624V101H93.7624ZM93.5124 92.5227H95.3576V92.0227H93.5124V92.5227Z" fill="#F4F4F4"/>
<g filter="url(#filter8_d_2026_34146)">
<path d="M200.245 152.472H242.33C243.275 152.472 244.045 153.241 244.045 154.187V200.009C244.045 200.959 243.275 201.729 242.325 201.729H200.24C199.289 201.729 198.52 200.959 198.52 200.009V154.192C198.52 153.241 199.289 152.472 200.24 152.472H200.245Z" fill="#3B82F6"/>
<path d="M200.245 152.972H242.33C242.999 152.972 243.545 153.517 243.545 154.187V200.009C243.545 200.683 242.999 201.229 242.325 201.229H200.24C199.565 201.229 199.02 200.683 199.02 200.009V154.192C199.02 153.517 199.565 152.972 200.24 152.972H200.245Z" stroke="#3B82F6"/>
</g>
<path d="M216.459 175.328H214.592C214.558 175.087 214.489 174.872 214.384 174.685C214.278 174.494 214.143 174.332 213.979 174.199C213.814 174.065 213.624 173.963 213.408 173.892C213.195 173.821 212.963 173.786 212.713 173.786C212.261 173.786 211.868 173.898 211.533 174.122C211.197 174.344 210.938 174.668 210.753 175.094C210.568 175.517 210.476 176.031 210.476 176.636C210.476 177.259 210.568 177.781 210.753 178.205C210.94 178.628 211.202 178.947 211.537 179.163C211.872 179.379 212.26 179.487 212.7 179.487C212.947 179.487 213.176 179.455 213.386 179.389C213.599 179.324 213.788 179.229 213.953 179.104C214.118 178.976 214.254 178.821 214.362 178.639C214.473 178.457 214.55 178.25 214.592 178.017L216.459 178.026C216.411 178.426 216.29 178.812 216.097 179.185C215.906 179.554 215.649 179.885 215.325 180.178C215.004 180.467 214.621 180.697 214.175 180.868C213.732 181.036 213.23 181.119 212.67 181.119C211.892 181.119 211.196 180.943 210.582 180.591C209.972 180.239 209.489 179.729 209.134 179.061C208.781 178.393 208.605 177.585 208.605 176.636C208.605 175.685 208.784 174.875 209.142 174.207C209.5 173.54 209.986 173.031 210.599 172.682C211.213 172.33 211.903 172.153 212.67 172.153C213.176 172.153 213.645 172.224 214.077 172.366C214.511 172.509 214.896 172.716 215.232 172.989C215.567 173.259 215.839 173.589 216.05 173.982C216.263 174.374 216.399 174.822 216.459 175.328ZM222.516 174.783C222.482 174.439 222.336 174.172 222.077 173.982C221.819 173.791 221.468 173.696 221.025 173.696C220.724 173.696 220.469 173.739 220.262 173.824C220.055 173.906 219.896 174.021 219.785 174.169C219.677 174.317 219.623 174.484 219.623 174.672C219.617 174.828 219.65 174.964 219.721 175.081C219.795 175.197 219.896 175.298 220.023 175.384C220.151 175.466 220.299 175.538 220.467 175.601C220.634 175.661 220.813 175.712 221.004 175.754L221.788 175.942C222.168 176.027 222.518 176.141 222.836 176.283C223.154 176.425 223.43 176.599 223.663 176.807C223.896 177.014 224.076 177.259 224.204 177.54C224.335 177.821 224.401 178.143 224.404 178.507C224.401 179.041 224.265 179.504 223.995 179.896C223.728 180.286 223.342 180.588 222.836 180.804C222.333 181.017 221.727 181.124 221.016 181.124C220.312 181.124 219.698 181.016 219.175 180.8C218.656 180.584 218.249 180.264 217.957 179.841C217.667 179.415 217.515 178.888 217.501 178.26H219.286C219.306 178.553 219.39 178.797 219.538 178.993C219.688 179.186 219.888 179.332 220.138 179.432C220.391 179.528 220.677 179.577 220.995 179.577C221.308 179.577 221.579 179.531 221.809 179.44C222.042 179.349 222.222 179.223 222.35 179.061C222.478 178.899 222.542 178.713 222.542 178.503C222.542 178.307 222.484 178.142 222.367 178.009C222.254 177.875 222.086 177.761 221.864 177.668C221.646 177.574 221.377 177.489 221.059 177.412L220.109 177.173C219.373 176.994 218.792 176.714 218.366 176.334C217.94 175.953 217.728 175.44 217.731 174.795C217.728 174.267 217.869 173.805 218.153 173.411C218.44 173.016 218.833 172.707 219.333 172.486C219.833 172.264 220.401 172.153 221.038 172.153C221.685 172.153 222.251 172.264 222.734 172.486C223.219 172.707 223.597 173.016 223.867 173.411C224.137 173.805 224.276 174.263 224.285 174.783H222.516ZM230.38 174.783C230.346 174.439 230.199 174.172 229.941 173.982C229.682 173.791 229.331 173.696 228.888 173.696C228.587 173.696 228.333 173.739 228.125 173.824C227.918 173.906 227.759 174.021 227.648 174.169C227.54 174.317 227.486 174.484 227.486 174.672C227.48 174.828 227.513 174.964 227.584 175.081C227.658 175.197 227.759 175.298 227.887 175.384C228.015 175.466 228.162 175.538 228.33 175.601C228.498 175.661 228.676 175.712 228.867 175.754L229.651 175.942C230.032 176.027 230.381 176.141 230.699 176.283C231.017 176.425 231.293 176.599 231.526 176.807C231.759 177.014 231.939 177.259 232.067 177.54C232.198 177.821 232.265 178.143 232.267 178.507C232.265 179.041 232.128 179.504 231.858 179.896C231.591 180.286 231.205 180.588 230.699 180.804C230.196 181.017 229.59 181.124 228.88 181.124C228.175 181.124 227.561 181.016 227.039 180.8C226.519 180.584 226.113 180.264 225.82 179.841C225.53 179.415 225.378 178.888 225.364 178.26H227.15C227.169 178.553 227.253 178.797 227.401 178.993C227.551 179.186 227.752 179.332 228.002 179.432C228.255 179.528 228.54 179.577 228.858 179.577C229.171 179.577 229.442 179.531 229.672 179.44C229.905 179.349 230.086 179.223 230.213 179.061C230.341 178.899 230.405 178.713 230.405 178.503C230.405 178.307 230.347 178.142 230.23 178.009C230.117 177.875 229.949 177.761 229.728 177.668C229.509 177.574 229.24 177.489 228.922 177.412L227.972 177.173C227.236 176.994 226.655 176.714 226.229 176.334C225.803 175.953 225.591 175.44 225.594 174.795C225.591 174.267 225.732 173.805 226.016 173.411C226.303 173.016 226.696 172.707 227.196 172.486C227.696 172.264 228.265 172.153 228.901 172.153C229.549 172.153 230.114 172.264 230.597 172.486C231.083 172.707 231.461 173.016 231.73 173.411C232 173.805 232.14 174.263 232.148 174.783H230.38Z" fill="#F7FBFE"/>
<path d="M216.459 175.328V175.578H216.74L216.707 175.299L216.459 175.328ZM214.592 175.328L214.345 175.363L214.375 175.578H214.592V175.328ZM214.384 174.685L214.165 174.806L214.165 174.807L214.384 174.685ZM213.979 174.199L213.821 174.393L213.821 174.393L213.979 174.199ZM213.408 173.892L213.329 174.129L213.33 174.13L213.408 173.892ZM211.533 174.122L211.671 174.331L211.672 174.33L211.533 174.122ZM210.753 175.094L210.982 175.194L210.982 175.193L210.753 175.094ZM210.753 178.205L210.524 178.305L210.524 178.306L210.753 178.205ZM211.537 179.163L211.402 179.374L211.537 179.163ZM213.386 179.389L213.313 179.15L213.312 179.15L213.386 179.389ZM213.953 179.104L214.104 179.303L214.106 179.301L213.953 179.104ZM214.362 178.639L214.149 178.509L214.147 178.512L214.362 178.639ZM214.592 178.017L214.593 177.767L214.384 177.766L214.346 177.972L214.592 178.017ZM216.459 178.026L216.707 178.055L216.741 177.777L216.46 177.776L216.459 178.026ZM216.097 179.185L215.875 179.069L215.874 179.07L216.097 179.185ZM215.325 180.178L215.493 180.363L215.493 180.363L215.325 180.178ZM214.175 180.868L214.263 181.102L214.264 181.101L214.175 180.868ZM210.582 180.591L210.457 180.807L210.458 180.808L210.582 180.591ZM209.134 179.061L208.912 179.178L208.913 179.178L209.134 179.061ZM209.142 174.207L209.362 174.326L209.142 174.207ZM210.599 172.682L210.723 172.899L210.724 172.899L210.599 172.682ZM214.077 172.366L213.999 172.604L213.999 172.604L214.077 172.366ZM215.232 172.989L215.074 173.183L215.075 173.183L215.232 172.989ZM216.05 173.982L215.829 174.1L215.83 174.101L216.05 173.982ZM216.459 175.078H214.592V175.578H216.459V175.078ZM214.84 175.293C214.802 175.025 214.724 174.78 214.602 174.562L214.165 174.807C214.254 174.964 214.314 175.148 214.345 175.363L214.84 175.293ZM214.602 174.564C214.482 174.346 214.327 174.159 214.136 174.005L213.821 174.393C213.96 174.506 214.075 174.643 214.165 174.806L214.602 174.564ZM214.136 174.005C213.946 173.851 213.728 173.734 213.486 173.655L213.33 174.13C213.519 174.192 213.682 174.28 213.821 174.393L214.136 174.005ZM213.487 173.655C213.245 173.574 212.987 173.536 212.713 173.536V174.036C212.939 174.036 213.144 174.068 213.329 174.129L213.487 173.655ZM212.713 173.536C212.218 173.536 211.775 173.659 211.394 173.914L211.672 174.33C211.961 174.136 212.305 174.036 212.713 174.036V173.536ZM211.395 173.914C211.013 174.166 210.724 174.531 210.523 174.994L210.982 175.193C211.151 174.804 211.382 174.522 211.671 174.331L211.395 173.914ZM210.524 174.994C210.322 175.457 210.226 176.007 210.226 176.636H210.726C210.726 176.055 210.815 175.577 210.982 175.194L210.524 174.994ZM210.226 176.636C210.226 177.282 210.321 177.841 210.524 178.305L210.982 178.105C210.815 177.722 210.726 177.235 210.726 176.636H210.226ZM210.524 178.306C210.728 178.766 211.019 179.127 211.402 179.374L211.672 178.953C211.384 178.768 211.152 178.489 210.981 178.103L210.524 178.306ZM211.402 179.374C211.781 179.618 212.217 179.737 212.7 179.737V179.237C212.303 179.237 211.963 179.14 211.672 178.953L211.402 179.374ZM212.7 179.737C212.97 179.737 213.224 179.702 213.461 179.628L213.312 179.15C213.129 179.207 212.925 179.237 212.7 179.237V179.737ZM213.46 179.628C213.699 179.555 213.914 179.447 214.104 179.303L213.802 178.905C213.662 179.01 213.5 179.093 213.313 179.15L213.46 179.628ZM214.106 179.301C214.296 179.154 214.453 178.975 214.577 178.767L214.147 178.512C214.055 178.667 213.94 178.798 213.8 178.906L214.106 179.301ZM214.576 178.769C214.704 178.559 214.791 178.322 214.838 178.062L214.346 177.972C214.309 178.178 214.242 178.356 214.149 178.509L214.576 178.769ZM214.591 178.267L216.458 178.276L216.46 177.776L214.593 177.767L214.591 178.267ZM216.211 177.996C216.166 178.365 216.055 178.723 215.875 179.069L216.318 179.3C216.525 178.902 216.655 178.487 216.707 178.055L216.211 177.996ZM215.874 179.07C215.699 179.411 215.46 179.719 215.158 179.992L215.493 180.363C215.838 180.051 216.114 179.697 216.319 179.299L215.874 179.07ZM215.158 179.992C214.862 180.259 214.506 180.474 214.085 180.634L214.264 181.101C214.736 180.921 215.147 180.676 215.493 180.363L215.158 179.992ZM214.086 180.634C213.676 180.789 213.205 180.869 212.67 180.869V181.369C213.255 181.369 213.787 181.282 214.263 181.102L214.086 180.634ZM212.67 180.869C211.931 180.869 211.279 180.702 210.707 180.374L210.458 180.808C211.113 181.184 211.853 181.369 212.67 181.369V180.869ZM210.707 180.374C210.14 180.047 209.689 179.573 209.354 178.944L208.913 179.178C209.288 179.884 209.803 180.43 210.457 180.807L210.707 180.374ZM209.355 178.944C209.026 178.321 208.855 177.555 208.855 176.636H208.355C208.355 177.616 208.537 178.466 208.912 179.178L209.355 178.944ZM208.855 176.636C208.855 175.716 209.028 174.949 209.362 174.326L208.922 174.089C208.54 174.801 208.355 175.654 208.355 176.636H208.855ZM209.362 174.326C209.7 173.696 210.153 173.224 210.723 172.899L210.476 172.465C209.818 172.839 209.3 173.383 208.922 174.089L209.362 174.326ZM210.724 172.899C211.297 172.57 211.943 172.403 212.67 172.403V171.903C211.864 171.903 211.13 172.089 210.475 172.465L210.724 172.899ZM212.67 172.403C213.153 172.403 213.595 172.471 213.999 172.604L214.155 172.129C213.695 171.978 213.2 171.903 212.67 171.903V172.403ZM213.999 172.604C214.406 172.737 214.764 172.93 215.074 173.183L215.389 172.795C215.029 172.502 214.616 172.28 214.154 172.129L213.999 172.604ZM215.075 173.183C215.383 173.432 215.634 173.736 215.829 174.1L216.27 173.863C216.045 173.443 215.751 173.086 215.388 172.794L215.075 173.183ZM215.83 174.101C216.026 174.461 216.154 174.879 216.211 175.357L216.707 175.299C216.644 174.766 216.5 174.286 216.269 173.862L215.83 174.101ZM222.516 174.783L222.268 174.807L222.29 175.033H222.516V174.783ZM220.262 173.824L220.354 174.056L220.357 174.055L220.262 173.824ZM219.785 174.169L219.585 174.019L219.583 174.022L219.785 174.169ZM219.623 174.672L219.873 174.681V174.672H219.623ZM219.721 175.081L219.507 175.211L219.51 175.215L219.721 175.081ZM220.023 175.384L219.885 175.592L219.888 175.594L220.023 175.384ZM220.467 175.601L220.379 175.835L220.383 175.836L220.467 175.601ZM221.004 175.754L221.062 175.511L221.058 175.51L221.004 175.754ZM221.788 175.942L221.729 176.185L221.733 176.186L221.788 175.942ZM222.836 176.283L222.734 176.511L222.836 176.283ZM223.663 176.807L223.829 176.62L223.663 176.807ZM224.204 177.54L223.976 177.643L223.977 177.645L224.204 177.54ZM224.404 178.507L224.654 178.508L224.654 178.505L224.404 178.507ZM223.995 179.896L223.789 179.755L223.789 179.755L223.995 179.896ZM222.836 180.804L222.933 181.034L222.934 181.034L222.836 180.804ZM219.175 180.8L219.08 181.031L219.08 181.031L219.175 180.8ZM217.957 179.841L217.75 179.981L217.751 179.983L217.957 179.841ZM217.501 178.26V178.01H217.245L217.251 178.266L217.501 178.26ZM219.286 178.26L219.536 178.243L219.52 178.01H219.286V178.26ZM219.538 178.993L219.338 179.143L219.34 179.147L219.538 178.993ZM220.138 179.432L220.046 179.664L220.049 179.665L220.138 179.432ZM221.809 179.44L221.718 179.207L221.717 179.208L221.809 179.44ZM222.35 179.061L222.546 179.216L222.35 179.061ZM222.367 178.009L222.177 178.171L222.179 178.173L222.367 178.009ZM221.864 177.668L221.766 177.897L221.767 177.898L221.864 177.668ZM221.059 177.412L220.998 177.654L221 177.655L221.059 177.412ZM220.109 177.173L220.17 176.931L220.168 176.93L220.109 177.173ZM218.366 176.334L218.199 176.52L218.366 176.334ZM217.731 174.795L217.981 174.797L217.981 174.794L217.731 174.795ZM218.153 173.411L217.95 173.264L217.95 173.265L218.153 173.411ZM222.734 172.486L222.629 172.713L222.63 172.713L222.734 172.486ZM223.867 173.411L223.661 173.552V173.552L223.867 173.411ZM224.285 174.783V175.033H224.539L224.535 174.779L224.285 174.783ZM222.765 174.758C222.725 174.35 222.546 174.016 222.226 173.78L221.929 174.183C222.126 174.328 222.24 174.528 222.268 174.807L222.765 174.758ZM222.226 173.78C221.911 173.548 221.502 173.446 221.025 173.446V173.946C221.435 173.946 221.727 174.034 221.929 174.183L222.226 173.78ZM221.025 173.446C220.702 173.446 220.413 173.492 220.167 173.593L220.357 174.055C220.526 173.986 220.746 173.946 221.025 173.946V173.446ZM220.17 173.592C219.929 173.687 219.728 173.827 219.585 174.019L219.985 174.319C220.063 174.215 220.181 174.125 220.354 174.056L220.17 173.592ZM219.583 174.022C219.443 174.213 219.373 174.433 219.373 174.672H219.873C219.873 174.536 219.911 174.42 219.987 174.317L219.583 174.022ZM219.373 174.663C219.366 174.861 219.407 175.047 219.507 175.211L219.934 174.951C219.892 174.882 219.869 174.796 219.873 174.681L219.373 174.663ZM219.51 175.215C219.604 175.364 219.731 175.489 219.885 175.592L220.162 175.176C220.06 175.107 219.985 175.031 219.932 174.947L219.51 175.215ZM219.888 175.594C220.033 175.687 220.198 175.767 220.379 175.835L220.554 175.367C220.4 175.309 220.269 175.244 220.159 175.173L219.888 175.594ZM220.383 175.836C220.561 175.9 220.75 175.954 220.949 175.998L221.058 175.51C220.877 175.47 220.708 175.421 220.55 175.365L220.383 175.836ZM220.945 175.997L221.729 176.185L221.846 175.699L221.062 175.511L220.945 175.997ZM221.733 176.186C222.099 176.268 222.433 176.376 222.734 176.511L222.938 176.054C222.603 175.905 222.237 175.786 221.842 175.698L221.733 176.186ZM222.734 176.511C223.031 176.644 223.285 176.805 223.496 176.994L223.829 176.62C223.575 176.394 223.277 176.206 222.938 176.054L222.734 176.511ZM223.496 176.994C223.704 177.178 223.863 177.394 223.976 177.643L224.431 177.436C224.289 177.123 224.088 176.85 223.829 176.62L223.496 176.994ZM223.977 177.645C224.09 177.889 224.152 178.175 224.154 178.509L224.654 178.505C224.651 178.112 224.579 177.753 224.431 177.434L223.977 177.645ZM224.154 178.506C224.152 178.996 224.027 179.409 223.789 179.755L224.201 180.038C224.503 179.6 224.651 179.086 224.654 178.508L224.154 178.506ZM223.789 179.755C223.553 180.099 223.207 180.374 222.738 180.574L222.934 181.034C223.476 180.802 223.903 180.472 224.201 180.038L223.789 179.755ZM222.738 180.574C222.274 180.77 221.703 180.874 221.016 180.874V181.374C221.75 181.374 222.392 181.264 222.933 181.034L222.738 180.574ZM221.016 180.874C220.337 180.874 219.757 180.769 219.271 180.569L219.08 181.031C219.639 181.262 220.287 181.374 221.016 181.374V180.874ZM219.271 180.569C218.791 180.37 218.425 180.079 218.162 179.699L217.751 179.983C218.073 180.45 218.52 180.798 219.08 181.031L219.271 180.569ZM218.163 179.7C217.906 179.322 217.764 178.845 217.751 178.254L217.251 178.266C217.266 178.931 217.428 179.508 217.75 179.981L218.163 179.7ZM217.501 178.51H219.286V178.01H217.501V178.51ZM219.037 178.277C219.059 178.608 219.156 178.902 219.338 179.143L219.737 178.842C219.624 178.692 219.553 178.497 219.536 178.243L219.037 178.277ZM219.34 179.147C219.521 179.378 219.759 179.55 220.046 179.664L220.231 179.2C220.018 179.115 219.855 178.994 219.735 178.839L219.34 179.147ZM220.049 179.665C220.335 179.775 220.652 179.827 220.995 179.827V179.327C220.702 179.327 220.448 179.282 220.228 179.198L220.049 179.665ZM220.995 179.827C221.331 179.827 221.635 179.778 221.901 179.673L221.717 179.208C221.523 179.285 221.284 179.327 220.995 179.327V179.827ZM221.9 179.673C222.165 179.57 222.386 179.42 222.546 179.216L222.154 178.906C222.059 179.026 221.918 179.129 221.718 179.207L221.9 179.673ZM222.546 179.216C222.71 179.009 222.792 178.768 222.792 178.503H222.292C222.292 178.658 222.246 178.789 222.154 178.906L222.546 179.216ZM222.792 178.503C222.792 178.253 222.716 178.028 222.556 177.844L222.179 178.173C222.251 178.256 222.292 178.36 222.292 178.503H222.792ZM222.558 177.846C222.411 177.674 222.207 177.541 221.962 177.437L221.767 177.898C221.965 177.982 222.096 178.076 222.177 178.171L222.558 177.846ZM221.963 177.438C221.727 177.337 221.445 177.248 221.118 177.169L221 177.655C221.31 177.73 221.564 177.811 221.766 177.897L221.963 177.438ZM221.12 177.169L220.17 176.931L220.048 177.416L220.998 177.654L221.12 177.169ZM220.168 176.93C219.459 176.758 218.919 176.493 218.532 176.147L218.199 176.52C218.664 176.936 219.286 177.231 220.05 177.416L220.168 176.93ZM218.532 176.147C218.167 175.821 217.978 175.38 217.981 174.797L217.481 174.794C217.478 175.501 217.713 176.085 218.199 176.52L218.532 176.147ZM217.981 174.794C217.978 174.314 218.105 173.905 218.356 173.557L217.95 173.265C217.632 173.706 217.478 174.22 217.481 174.797L217.981 174.794ZM218.355 173.557C218.613 173.202 218.97 172.92 219.434 172.714L219.232 172.257C218.697 172.494 218.266 172.829 217.95 173.264L218.355 173.557ZM219.434 172.714C219.898 172.509 220.431 172.403 221.038 172.403V171.903C220.372 171.903 219.768 172.019 219.232 172.257L219.434 172.714ZM221.038 172.403C221.657 172.403 222.186 172.509 222.629 172.713L222.838 172.259C222.316 172.019 221.714 171.903 221.038 171.903V172.403ZM222.63 172.713C223.079 172.918 223.42 173.199 223.661 173.552L224.074 173.269C223.775 172.833 223.36 172.497 222.837 172.258L222.63 172.713ZM223.661 173.552C223.901 173.903 224.027 174.311 224.035 174.787L224.535 174.779C224.526 174.214 224.373 173.708 224.074 173.269L223.661 173.552ZM224.285 174.533H222.516V175.033H224.285V174.533ZM230.38 174.783L230.131 174.807L230.153 175.033H230.38V174.783ZM228.125 173.824L228.218 174.056L228.22 174.055L228.125 173.824ZM227.648 174.169L227.448 174.019L227.446 174.022L227.648 174.169ZM227.486 174.672L227.736 174.681V174.672H227.486ZM227.584 175.081L227.371 175.211L227.373 175.215L227.584 175.081ZM227.887 175.384L227.748 175.592L227.751 175.594L227.887 175.384ZM228.33 175.601L228.243 175.835L228.246 175.836L228.33 175.601ZM228.867 175.754L228.925 175.511L228.921 175.51L228.867 175.754ZM229.651 175.942L229.593 176.185L229.596 176.186L229.651 175.942ZM230.699 176.283L230.597 176.511L230.699 176.283ZM231.526 176.807L231.692 176.62L231.526 176.807ZM232.067 177.54L231.84 177.643L231.84 177.645L232.067 177.54ZM232.267 178.507L232.517 178.508L232.517 178.505L232.267 178.507ZM231.858 179.896L231.652 179.755L231.652 179.755L231.858 179.896ZM230.699 180.804L230.797 181.034L230.797 181.034L230.699 180.804ZM227.039 180.8L226.943 181.031L226.943 181.031L227.039 180.8ZM225.82 179.841L225.613 179.981L225.614 179.983L225.82 179.841ZM225.364 178.26V178.01H225.108L225.114 178.266L225.364 178.26ZM227.15 178.26L227.399 178.243L227.383 178.01H227.15V178.26ZM227.401 178.993L227.201 179.143L227.204 179.147L227.401 178.993ZM228.002 179.432L227.909 179.664L227.913 179.665L228.002 179.432ZM229.672 179.44L229.581 179.207L229.58 179.208L229.672 179.44ZM230.213 179.061L230.41 179.216H230.41L230.213 179.061ZM230.23 178.009L230.04 178.171L230.042 178.173L230.23 178.009ZM229.728 177.668L229.629 177.897L229.63 177.898L229.728 177.668ZM228.922 177.412L228.861 177.654L228.864 177.655L228.922 177.412ZM227.972 177.173L228.033 176.931L228.031 176.93L227.972 177.173ZM226.229 176.334L226.062 176.52L226.229 176.334ZM225.594 174.795L225.844 174.797L225.844 174.794L225.594 174.795ZM226.016 173.411L225.814 173.264L225.813 173.265L226.016 173.411ZM230.597 172.486L230.493 172.713L230.493 172.713L230.597 172.486ZM231.73 173.411L231.524 173.552V173.552L231.73 173.411ZM232.148 174.783V175.033H232.402L232.398 174.779L232.148 174.783ZM230.628 174.758C230.588 174.35 230.409 174.016 230.089 173.78L229.792 174.183C229.989 174.328 230.103 174.528 230.131 174.807L230.628 174.758ZM230.089 173.78C229.774 173.548 229.365 173.446 228.888 173.446V173.946C229.298 173.946 229.591 174.034 229.792 174.183L230.089 173.78ZM228.888 173.446C228.565 173.446 228.276 173.492 228.03 173.593L228.22 174.055C228.389 173.986 228.609 173.946 228.888 173.946V173.446ZM228.033 173.592C227.792 173.687 227.592 173.827 227.448 174.019L227.848 174.319C227.926 174.215 228.044 174.125 228.218 174.056L228.033 173.592ZM227.446 174.022C227.306 174.213 227.236 174.433 227.236 174.672H227.736C227.736 174.536 227.774 174.42 227.85 174.317L227.446 174.022ZM227.236 174.663C227.229 174.861 227.271 175.047 227.371 175.211L227.798 174.951C227.756 174.882 227.732 174.796 227.736 174.681L227.236 174.663ZM227.373 175.215C227.468 175.364 227.594 175.489 227.748 175.592L228.025 175.176C227.923 175.107 227.848 175.031 227.795 174.947L227.373 175.215ZM227.751 175.594C227.897 175.687 228.061 175.767 228.243 175.835L228.417 175.367C228.264 175.309 228.133 175.244 228.022 175.173L227.751 175.594ZM228.246 175.836C228.424 175.9 228.613 175.954 228.812 175.998L228.921 175.51C228.74 175.47 228.571 175.421 228.414 175.365L228.246 175.836ZM228.809 175.997L229.593 176.185L229.709 175.699L228.925 175.511L228.809 175.997ZM229.596 176.186C229.963 176.268 230.296 176.376 230.597 176.511L230.801 176.054C230.466 175.905 230.101 175.786 229.706 175.698L229.596 176.186ZM230.597 176.511C230.895 176.644 231.148 176.805 231.36 176.994L231.692 176.62C231.438 176.394 231.14 176.206 230.801 176.054L230.597 176.511ZM231.36 176.994C231.567 177.178 231.726 177.394 231.84 177.643L232.295 177.436C232.152 177.123 231.951 176.85 231.692 176.62L231.36 176.994ZM231.84 177.645C231.954 177.889 232.015 178.175 232.017 178.509L232.517 178.505C232.514 178.112 232.442 177.753 232.294 177.434L231.84 177.645ZM232.017 178.506C232.015 178.996 231.89 179.409 231.652 179.755L232.064 180.038C232.366 179.6 232.514 179.086 232.517 178.508L232.017 178.506ZM231.652 179.755C231.416 180.099 231.07 180.374 230.601 180.574L230.797 181.034C231.339 180.802 231.766 180.472 232.064 180.038L231.652 179.755ZM230.602 180.574C230.137 180.77 229.566 180.874 228.88 180.874V181.374C229.614 181.374 230.255 181.264 230.797 181.034L230.602 180.574ZM228.88 180.874C228.2 180.874 227.62 180.769 227.134 180.569L226.943 181.031C227.503 181.262 228.15 181.374 228.88 181.374V180.874ZM227.135 180.569C226.655 180.37 226.288 180.079 226.026 179.699L225.614 179.983C225.937 180.45 226.383 180.798 226.943 181.031L227.135 180.569ZM226.027 179.7C225.769 179.322 225.627 178.845 225.614 178.254L225.114 178.266C225.129 178.931 225.291 179.508 225.613 179.981L226.027 179.7ZM225.364 178.51H227.15V178.01H225.364V178.51ZM226.9 178.277C226.923 178.608 227.019 178.902 227.201 179.143L227.601 178.842C227.487 178.692 227.416 178.497 227.399 178.243L226.9 178.277ZM227.204 179.147C227.384 179.378 227.622 179.55 227.909 179.664L228.094 179.2C227.881 179.115 227.719 178.994 227.598 178.839L227.204 179.147ZM227.913 179.665C228.198 179.775 228.515 179.827 228.858 179.827V179.327C228.565 179.327 228.311 179.282 228.091 179.198L227.913 179.665ZM228.858 179.827C229.194 179.827 229.498 179.778 229.764 179.673L229.58 179.208C229.386 179.285 229.147 179.327 228.858 179.327V179.827ZM229.763 179.673C230.029 179.57 230.249 179.42 230.41 179.216L230.017 178.906C229.922 179.026 229.782 179.129 229.581 179.207L229.763 179.673ZM230.41 179.216C230.573 179.009 230.655 178.768 230.655 178.503H230.155C230.155 178.658 230.11 178.789 230.017 178.906L230.41 179.216ZM230.655 178.503C230.655 178.253 230.579 178.028 230.419 177.844L230.042 178.173C230.115 178.256 230.155 178.36 230.155 178.503H230.655ZM230.421 177.846C230.274 177.674 230.07 177.541 229.825 177.437L229.63 177.898C229.829 177.982 229.959 178.076 230.04 178.171L230.421 177.846ZM229.826 177.438C229.591 177.337 229.308 177.248 228.981 177.169L228.864 177.655C229.173 177.73 229.427 177.811 229.629 177.897L229.826 177.438ZM228.983 177.169L228.033 176.931L227.911 177.416L228.861 177.654L228.983 177.169ZM228.031 176.93C227.323 176.758 226.783 176.493 226.396 176.147L226.062 176.52C226.528 176.936 227.15 177.231 227.913 177.416L228.031 176.93ZM226.396 176.147C226.03 175.821 225.842 175.38 225.844 174.797L225.344 174.794C225.341 175.501 225.576 176.085 226.062 176.52L226.396 176.147ZM225.844 174.794C225.842 174.314 225.968 173.905 226.219 173.557L225.813 173.265C225.495 173.706 225.341 174.22 225.344 174.797L225.844 174.794ZM226.218 173.557C226.476 173.202 226.833 172.92 227.298 172.714L227.095 172.257C226.56 172.494 226.13 172.829 225.814 173.264L226.218 173.557ZM227.298 172.714C227.761 172.509 228.294 172.403 228.901 172.403V171.903C228.235 171.903 227.632 172.019 227.095 172.257L227.298 172.714ZM228.901 172.403C229.52 172.403 230.049 172.509 230.493 172.713L230.701 172.259C230.179 172.019 229.577 171.903 228.901 171.903V172.403ZM230.493 172.713C230.942 172.918 231.283 173.199 231.524 173.552L231.937 173.269C231.638 172.833 231.223 172.497 230.701 172.258L230.493 172.713ZM231.524 173.552C231.764 173.903 231.89 174.311 231.898 174.787L232.398 174.779C232.389 174.214 232.237 173.708 231.937 173.269L231.524 173.552ZM232.148 174.533H230.38V175.033H232.148V174.533Z" fill="#F4F4F4"/>
<g filter="url(#filter9_d_2026_34146)">
<path d="M263.544 98.1151H253.652C252.631 98.1151 251.806 97.2903 251.806 96.2693V29.1934C251.806 28.1725 252.631 27.3477 253.652 27.3477H263.544C264.565 27.3477 265.39 28.1725 265.39 29.1934V96.2693C265.39 97.2903 264.565 98.1151 263.544 98.1151Z" fill="white"/>
<path d="M263.544 98.1151H253.652C252.631 98.1151 251.806 97.2903 251.806 96.2693V29.1934C251.806 28.1725 252.631 27.3477 253.652 27.3477H263.544C264.565 27.3477 265.39 28.1725 265.39 29.1934V96.2693C265.39 97.2903 264.565 98.1151 263.544 98.1151Z" stroke="#EFF3F8" stroke-width="0.5" stroke-miterlimit="10"/>
</g>
<path d="M258.596 32.166V92.6183" stroke="#3B82F6" stroke-width="2" stroke-miterlimit="10" stroke-linecap="round"/>
<g filter="url(#filter10_d_2026_34146)">
<path d="M258.681 48.6318H258.51C256.913 48.6318 255.618 49.9266 255.618 51.5237C255.618 53.1208 256.913 54.4155 258.51 54.4155H258.681C260.278 54.4155 261.573 53.1208 261.573 51.5237C261.573 49.9266 260.278 48.6318 258.681 48.6318Z" fill="#EAEAEA"/>
</g>
<g filter="url(#filter11_d_2026_34146)">
<path d="M258.681 48.6318H258.51C256.913 48.6318 255.618 49.9266 255.618 51.5237C255.618 53.1208 256.913 54.4155 258.51 54.4155H258.681C260.278 54.4155 261.573 53.1208 261.573 51.5237C261.573 49.9266 260.278 48.6318 258.681 48.6318Z" fill="#ABC9FB"/>
<path d="M258.681 48.6318H258.51C256.913 48.6318 255.618 49.9266 255.618 51.5237C255.618 53.1208 256.913 54.4155 258.51 54.4155H258.681C260.278 54.4155 261.573 53.1208 261.573 51.5237C261.573 49.9266 260.278 48.6318 258.681 48.6318Z" stroke="#EFF3F8" stroke-width="0.5" stroke-miterlimit="10"/>
</g>
<g filter="url(#filter12_d_2026_34146)">
<path d="M148.991 152.472H191.077C192.022 152.472 192.792 153.242 192.792 154.187V200.009C192.792 200.96 192.022 201.729 191.072 201.729H148.986C148.036 201.729 147.266 200.96 147.266 200.009V154.192C147.266 153.242 148.036 152.472 148.986 152.472H148.991Z" fill="#D0E1FD"/>
</g>
<path d="M155.64 166.841H169.787" stroke="#4088FF" stroke-width="4" stroke-miterlimit="10" stroke-linecap="round"/>
<path d="M155.64 172.665H174.55" stroke="#4088FF" stroke-width="4" stroke-miterlimit="10" stroke-linecap="round"/>
<path d="M155.64 183.342H184.941" stroke="#4088FF" stroke-width="4" stroke-miterlimit="10" stroke-linecap="round"/>
<path d="M155.64 188.396H184.941" stroke="#4088FF" stroke-width="4" stroke-miterlimit="10" stroke-linecap="round"/>
<path d="M155.64 193.446H170.758" stroke="#4088FF" stroke-width="4" stroke-miterlimit="10" stroke-linecap="round"/>
<path d="M155.64 160.75H162.49" stroke="#4088FF" stroke-width="4" stroke-miterlimit="10" stroke-linecap="round"/>
<path d="M267.5 117H258.5V125H267.5V117Z" fill="#F7FBFE"/>
<path d="M266 119H260V115.424C260 114.083 261.341 113 263 113C264.659 113 266 114.083 266 115.424V119Z" stroke="#F7FBFE" stroke-width="3" stroke-miterlimit="10"/>
<path d="M266.416 157.506V153.432C266.416 151.647 265.099 150.168 263.384 149.907V149.585C263.384 149.288 263.142 149.047 262.846 149.047C262.549 149.047 262.308 149.288 262.308 149.585V149.907C260.593 150.168 259.275 151.642 259.275 153.432V157.506C258.787 157.753 258.455 158.251 258.455 158.834H267.236C267.236 158.251 266.904 157.753 266.416 157.506Z" fill="white"/>
<path d="M262.845 161.072C263.801 161.072 264.57 160.297 264.57 159.347H261.115C261.115 160.302 261.89 161.072 262.84 161.072H262.845Z" fill="white"/>
<g filter="url(#filter13_d_2026_34146)">
<path d="M307.531 98.1152H281.494C276.761 98.1152 272.889 94.2427 272.889 89.5101C272.889 84.7574 276.741 80.8999 281.494 80.8999H307.531C312.283 80.8999 316.136 84.7524 316.136 89.5051C316.136 94.2578 312.283 98.1102 307.531 98.1102V98.1152Z" fill="white"/>
<path d="M307.531 98.1152H281.494C276.761 98.1152 272.889 94.2427 272.889 89.5101C272.889 84.7574 276.741 80.8999 281.494 80.8999H307.531C312.283 80.8999 316.136 84.7524 316.136 89.5051C316.136 94.2578 312.283 98.1102 307.531 98.1102V98.1152Z" stroke="#EFF3F8" stroke-width="0.5" stroke-miterlimit="10"/>
</g>
<g filter="url(#filter14_d_2026_34146)">
<path d="M281.747 83.2891H281.375C277.939 83.2891 275.153 86.0733 275.153 89.5078C275.153 92.9423 277.939 95.7266 281.375 95.7266H281.747C285.183 95.7266 287.968 92.9423 287.968 89.5078C287.968 86.0733 285.183 83.2891 281.747 83.2891Z" fill="#3B82F6"/>
<path d="M281.375 83.7891H281.747C284.907 83.7891 287.468 86.3496 287.468 89.5078C287.468 92.666 284.907 95.2266 281.747 95.2266H281.375C278.215 95.2266 275.653 92.666 275.653 89.5078C275.653 86.3496 278.215 83.7891 281.375 83.7891Z" stroke="#3B82F6"/>
</g>
<path d="M262.116 194.96H308.572" stroke="#3B82F6" stroke-miterlimit="10" stroke-linecap="round"/>
<path d="M261.115 186.31H286.076" stroke="#ABC9FB" stroke-width="4" stroke-miterlimit="10" stroke-linecap="round"/>
<path d="M261.115 204.933H286.076" stroke="#ABC9FB" stroke-width="4" stroke-miterlimit="10" stroke-linecap="round"/>
<path d="M302.501 186.31H310.05" stroke="#ABC9FB" stroke-width="4" stroke-miterlimit="10" stroke-linecap="round"/>
<path d="M302.501 204.933H310.05" stroke="#ABC9FB" stroke-width="4" stroke-miterlimit="10" stroke-linecap="round"/>
<path d="M216.073 63.7905V60.4359C216.073 58.389 214.413 56.7344 212.371 56.7344H92.9253C90.5816 56.7344 88.6855 58.6355 88.6855 60.9741V66.1191" stroke="#ABC9FB" stroke-width="4" stroke-miterlimit="10" stroke-linecap="round"/>
<g filter="url(#filter15_dd_2026_34146)">
<path d="M118.645 34.1826H103.431C100.218 34.1826 97.6123 36.7878 97.6123 40.0015V54.4306C97.6123 57.6443 100.218 60.2495 103.431 60.2495H118.645C121.859 60.2495 124.464 57.6443 124.464 54.4306V40.0015C124.464 36.7878 121.859 34.1826 118.645 34.1826Z" fill="white"/>
<path d="M118.645 34.1826H103.431C100.218 34.1826 97.6123 36.7878 97.6123 40.0015V54.4306C97.6123 57.6443 100.218 60.2495 103.431 60.2495H118.645C121.859 60.2495 124.464 57.6443 124.464 54.4306V40.0015C124.464 36.7878 121.859 34.1826 118.645 34.1826Z" stroke="#EFF3F8" stroke-width="0.5" stroke-miterlimit="10"/>
</g>
<path d="M115.346 47.2187C115.346 49.5975 113.419 51.5238 111.04 51.5238C108.662 51.5238 106.735 49.5975 106.735 47.2187C106.735 44.8398 108.662 42.9136 111.04 42.9136C113.419 42.9136 115.346 44.8398 115.346 47.2187Z" fill="#3B82F6"/>
<path d="M111.036 45.4634V48.9688" stroke="#F4F4F4" stroke-width="0.5" stroke-miterlimit="10"/>
<path d="M112.791 47.2188H109.285" stroke="#F4F4F4" stroke-width="0.5" stroke-miterlimit="10"/>
<g filter="url(#filter16_dd_2026_34146)">
<path d="M150.869 34.1826H135.655C132.441 34.1826 129.836 36.7878 129.836 40.0015V54.4306C129.836 57.6443 132.441 60.2495 135.655 60.2495H150.869C154.082 60.2495 156.687 57.6443 156.687 54.4306V40.0015C156.687 36.7878 154.082 34.1826 150.869 34.1826Z" fill="white"/>
<path d="M150.869 34.1826H135.655C132.441 34.1826 129.836 36.7878 129.836 40.0015V54.4306C129.836 57.6443 132.441 60.2495 135.655 60.2495H150.869C154.082 60.2495 156.687 57.6443 156.687 54.4306V40.0015C156.687 36.7878 154.082 34.1826 150.869 34.1826Z" stroke="#EFF3F8" stroke-width="0.5" stroke-miterlimit="10"/>
</g>
<path d="M147.564 47.2187C147.564 49.5975 145.638 51.5238 143.259 51.5238C140.88 51.5238 138.954 49.5975 138.954 47.2187C138.954 44.8398 140.88 42.9136 143.259 42.9136C145.638 42.9136 147.564 44.8398 147.564 47.2187Z" fill="#3B82F6"/>
<path d="M141.605 47.6262L142.53 48.5868L144.829 45.9766" stroke="#F4F4F4" stroke-width="0.5" stroke-miterlimit="10"/>
<g filter="url(#filter17_dd_2026_34146)">
<path d="M183.085 34.1826H167.872C164.658 34.1826 162.053 36.7878 162.053 40.0015V54.4306C162.053 57.6443 164.658 60.2495 167.872 60.2495H183.085C186.299 60.2495 188.904 57.6443 188.904 54.4306V40.0015C188.904 36.7878 186.299 34.1826 183.085 34.1826Z" fill="white"/>
<path d="M183.085 34.1826H167.872C164.658 34.1826 162.053 36.7878 162.053 40.0015V54.4306C162.053 57.6443 164.658 60.2495 167.872 60.2495H183.085C186.299 60.2495 188.904 57.6443 188.904 54.4306V40.0015C188.904 36.7878 186.299 34.1826 183.085 34.1826Z" stroke="#EFF3F8" stroke-width="0.5" stroke-miterlimit="10"/>
</g>
<path d="M179.786 47.2187C179.786 49.5975 177.86 51.5238 175.481 51.5238C173.102 51.5238 171.176 49.5975 171.176 47.2187C171.176 44.8398 173.102 42.9136 175.481 42.9136C177.86 42.9136 179.786 44.8398 179.786 47.2187Z" fill="#3B82F6"/>
<path d="M176.719 45.9766L174.244 48.456" stroke="#F4F4F4" stroke-width="0.5" stroke-miterlimit="10"/>
<path d="M176.719 48.456L174.244 45.9766" stroke="#F4F4F4" stroke-width="0.5" stroke-miterlimit="10"/>
<path d="M104.513 183.543V206.914C104.513 209.746 106.806 212.039 109.638 212.039H242.789" stroke="#ABC9FB" stroke-width="4" stroke-miterlimit="10" stroke-linecap="round"/>
</g>
<defs>
<filter id="filter0_d_2026_34146" x="209.806" y="137.721" width="149.25" height="131.544" filterUnits="userSpaceOnUse" color-interpolation-filters="sRGB">
<feFlood flood-opacity="0" result="BackgroundImageFix"/>
<feColorMatrix in="SourceAlpha" type="matrix" values="0 0 0 0 0 0 0 0 0 0 0 0 0 0 0 0 0 0 127 0" result="hardAlpha"/>
<feOffset dy="52"/>
<feGaussianBlur stdDeviation="21"/>
<feColorMatrix type="matrix" values="0 0 0 0 0 0 0 0 0 0 0 0 0 0 0 0 0 0 0.03 0"/>
<feBlend mode="normal" in2="BackgroundImageFix" result="effect1_dropShadow_2026_34146"/>
<feBlend mode="normal" in="SourceGraphic" in2="effect1_dropShadow_2026_34146" result="shape"/>
</filter>
<filter id="filter1_d_2026_34146" x="91.0471" y="47.582" width="185.284" height="135.268" filterUnits="userSpaceOnUse" color-interpolation-filters="sRGB">
<feFlood flood-opacity="0" result="BackgroundImageFix"/>
<feColorMatrix in="SourceAlpha" type="matrix" values="0 0 0 0 0 0 0 0 0 0 0 0 0 0 0 0 0 0 127 0" result="hardAlpha"/>
<feOffset dy="8"/>
<feGaussianBlur stdDeviation="16"/>
<feColorMatrix type="matrix" values="0 0 0 0 0 0 0 0 0 0 0 0 0 0 0 0 0 0 0.08 0"/>
<feBlend mode="normal" in2="BackgroundImageFix" result="effect1_dropShadow_2026_34146"/>
<feBlend mode="normal" in="SourceGraphic" in2="effect1_dropShadow_2026_34146" result="shape"/>
</filter>
<filter id="filter2_d_2026_34146" x="57.9951" y="133.692" width="93.0308" height="38.6772" filterUnits="userSpaceOnUse" color-interpolation-filters="sRGB">
<feFlood flood-opacity="0" result="BackgroundImageFix"/>
<feColorMatrix in="SourceAlpha" type="matrix" values="0 0 0 0 0 0 0 0 0 0 0 0 0 0 0 0 0 0 127 0" result="hardAlpha"/>
<feOffset dy="12"/>
<feGaussianBlur stdDeviation="5"/>
<feColorMatrix type="matrix" values="0 0 0 0 0 0 0 0 0 0 0 0 0 0 0 0 0 0 0.08 0"/>
<feBlend mode="normal" in2="BackgroundImageFix" result="effect1_dropShadow_2026_34146"/>
<feBlend mode="normal" in="SourceGraphic" in2="effect1_dropShadow_2026_34146" result="shape"/>
</filter>
<filter id="filter3_d_2026_34146" x="57.7451" y="157.09" width="93.5308" height="39.1772" filterUnits="userSpaceOnUse" color-interpolation-filters="sRGB">
<feFlood flood-opacity="0" result="BackgroundImageFix"/>
<feColorMatrix in="SourceAlpha" type="matrix" values="0 0 0 0 0 0 0 0 0 0 0 0 0 0 0 0 0 0 127 0" result="hardAlpha"/>
<feOffset dy="12"/>
<feGaussianBlur stdDeviation="5"/>
<feColorMatrix type="matrix" values="0 0 0 0 0 0 0 0 0 0 0 0 0 0 0 0 0 0 0.06 0"/>
<feBlend mode="normal" in2="BackgroundImageFix" result="effect1_dropShadow_2026_34146"/>
<feBlend mode="normal" in="SourceGraphic" in2="effect1_dropShadow_2026_34146" result="shape"/>
</filter>
<filter id="filter4_d_2026_34146" x="121.415" y="70.7046" width="60.2629" height="66.3286" filterUnits="userSpaceOnUse" color-interpolation-filters="sRGB">
<feFlood flood-opacity="0" result="BackgroundImageFix"/>
<feColorMatrix in="SourceAlpha" type="matrix" values="0 0 0 0 0 0 0 0 0 0 0 0 0 0 0 0 0 0 127 0" result="hardAlpha"/>
<feOffset dx="3" dy="3"/>
<feGaussianBlur stdDeviation="7"/>
<feColorMatrix type="matrix" values="0 0 0 0 0 0 0 0 0 0 0 0 0 0 0 0 0 0 0.11 0"/>
<feBlend mode="normal" in2="BackgroundImageFix" result="effect1_dropShadow_2026_34146"/>
<feBlend mode="normal" in="SourceGraphic" in2="effect1_dropShadow_2026_34146" result="shape"/>
</filter>
<filter id="filter5_d_2026_34146" x="117.415" y="66.7046" width="52.2629" height="58.3286" filterUnits="userSpaceOnUse" color-interpolation-filters="sRGB">
<feFlood flood-opacity="0" result="BackgroundImageFix"/>
<feColorMatrix in="SourceAlpha" type="matrix" values="0 0 0 0 0 0 0 0 0 0 0 0 0 0 0 0 0 0 127 0" result="hardAlpha"/>
<feOffset dx="-5" dy="-5"/>
<feGaussianBlur stdDeviation="5"/>
<feColorMatrix type="matrix" values="0 0 0 0 0.941176 0 0 0 0 0.941176 0 0 0 0 1 0 0 0 0.5 0"/>
<feBlend mode="normal" in2="BackgroundImageFix" result="effect1_dropShadow_2026_34146"/>
<feBlend mode="normal" in="SourceGraphic" in2="effect1_dropShadow_2026_34146" result="shape"/>
</filter>
<filter id="filter6_d_2026_34146" x="209.806" y="105.056" width="149.25" height="131.544" filterUnits="userSpaceOnUse" color-interpolation-filters="sRGB">
<feFlood flood-opacity="0" result="BackgroundImageFix"/>
<feColorMatrix in="SourceAlpha" type="matrix" values="0 0 0 0 0 0 0 0 0 0 0 0 0 0 0 0 0 0 127 0" result="hardAlpha"/>
<feOffset dy="52"/>
<feGaussianBlur stdDeviation="21"/>
<feColorMatrix type="matrix" values="0 0 0 0 0 0 0 0 0 0 0 0 0 0 0 0 0 0 0.03 0"/>
<feBlend mode="normal" in2="BackgroundImageFix" result="effect1_dropShadow_2026_34146"/>
<feBlend mode="normal" in="SourceGraphic" in2="effect1_dropShadow_2026_34146" result="shape"/>
</filter>
<filter id="filter7_d_2026_34146" x="57.9941" y="72.3452" width="65.5254" height="71.2573" filterUnits="userSpaceOnUse" color-interpolation-filters="sRGB">
<feFlood flood-opacity="0" result="BackgroundImageFix"/>
<feColorMatrix in="SourceAlpha" type="matrix" values="0 0 0 0 0 0 0 0 0 0 0 0 0 0 0 0 0 0 127 0" result="hardAlpha"/>
<feOffset dy="12"/>
<feGaussianBlur stdDeviation="5"/>
<feColorMatrix type="matrix" values="0 0 0 0 0 0 0 0 0 0 0 0 0 0 0 0 0 0 0.08 0"/>
<feBlend mode="normal" in2="BackgroundImageFix" result="effect1_dropShadow_2026_34146"/>
<feBlend mode="normal" in="SourceGraphic" in2="effect1_dropShadow_2026_34146" result="shape"/>
</filter>
<filter id="filter8_d_2026_34146" x="188.52" y="152.472" width="65.5254" height="71.2573" filterUnits="userSpaceOnUse" color-interpolation-filters="sRGB">
<feFlood flood-opacity="0" result="BackgroundImageFix"/>
<feColorMatrix in="SourceAlpha" type="matrix" values="0 0 0 0 0 0 0 0 0 0 0 0 0 0 0 0 0 0 127 0" result="hardAlpha"/>
<feOffset dy="12"/>
<feGaussianBlur stdDeviation="5"/>
<feColorMatrix type="matrix" values="0 0 0 0 0 0 0 0 0 0 0 0 0 0 0 0 0 0 0.06 0"/>
<feBlend mode="normal" in2="BackgroundImageFix" result="effect1_dropShadow_2026_34146"/>
<feBlend mode="normal" in="SourceGraphic" in2="effect1_dropShadow_2026_34146" result="shape"/>
</filter>
<filter id="filter9_d_2026_34146" x="241.556" y="17.0977" width="34.0842" height="91.2676" filterUnits="userSpaceOnUse" color-interpolation-filters="sRGB">
<feFlood flood-opacity="0" result="BackgroundImageFix"/>
<feColorMatrix in="SourceAlpha" type="matrix" values="0 0 0 0 0 0 0 0 0 0 0 0 0 0 0 0 0 0 127 0" result="hardAlpha"/>
<feOffset/>
<feGaussianBlur stdDeviation="5"/>
<feColorMatrix type="matrix" values="0 0 0 0 0 0 0 0 0 0 0 0 0 0 0 0 0 0 0.06 0"/>
<feBlend mode="normal" in2="BackgroundImageFix" result="effect1_dropShadow_2026_34146"/>
<feBlend mode="normal" in="SourceGraphic" in2="effect1_dropShadow_2026_34146" result="shape"/>
</filter>
<filter id="filter10_d_2026_34146" x="245.618" y="38.6318" width="33.9546" height="33.7837" filterUnits="userSpaceOnUse" color-interpolation-filters="sRGB">
<feFlood flood-opacity="0" result="BackgroundImageFix"/>
<feColorMatrix in="SourceAlpha" type="matrix" values="0 0 0 0 0 0 0 0 0 0 0 0 0 0 0 0 0 0 127 0" result="hardAlpha"/>
<feOffset dx="4" dy="4"/>
<feGaussianBlur stdDeviation="7"/>
<feColorMatrix type="matrix" values="0 0 0 0 0 0 0 0 0 0 0 0 0 0 0 0 0 0 0.25 0"/>
<feBlend mode="normal" in2="BackgroundImageFix" result="effect1_dropShadow_2026_34146"/>
<feBlend mode="normal" in="SourceGraphic" in2="effect1_dropShadow_2026_34146" result="shape"/>
</filter>
<filter id="filter11_d_2026_34146" x="240.368" y="33.3818" width="26.4546" height="26.2837" filterUnits="userSpaceOnUse" color-interpolation-filters="sRGB">
<feFlood flood-opacity="0" result="BackgroundImageFix"/>
<feColorMatrix in="SourceAlpha" type="matrix" values="0 0 0 0 0 0 0 0 0 0 0 0 0 0 0 0 0 0 127 0" result="hardAlpha"/>
<feOffset dx="-5" dy="-5"/>
<feGaussianBlur stdDeviation="5"/>
<feColorMatrix type="matrix" values="0 0 0 0 0.941176 0 0 0 0 0.941176 0 0 0 0 1 0 0 0 0.5 0"/>
<feBlend mode="normal" in2="BackgroundImageFix" result="effect1_dropShadow_2026_34146"/>
<feBlend mode="normal" in="SourceGraphic" in2="effect1_dropShadow_2026_34146" result="shape"/>
</filter>
<filter id="filter12_d_2026_34146" x="137.266" y="152.472" width="65.5254" height="71.2573" filterUnits="userSpaceOnUse" color-interpolation-filters="sRGB">
<feFlood flood-opacity="0" result="BackgroundImageFix"/>
<feColorMatrix in="SourceAlpha" type="matrix" values="0 0 0 0 0 0 0 0 0 0 0 0 0 0 0 0 0 0 127 0" result="hardAlpha"/>
<feOffset dy="12"/>
<feGaussianBlur stdDeviation="5"/>
<feColorMatrix type="matrix" values="0 0 0 0 0 0 0 0 0 0 0 0 0 0 0 0 0 0 0.06 0"/>
<feBlend mode="normal" in2="BackgroundImageFix" result="effect1_dropShadow_2026_34146"/>
<feBlend mode="normal" in="SourceGraphic" in2="effect1_dropShadow_2026_34146" result="shape"/>
</filter>
<filter id="filter13_d_2026_34146" x="262.639" y="80.6499" width="63.7471" height="39.7153" filterUnits="userSpaceOnUse" color-interpolation-filters="sRGB">
<feFlood flood-opacity="0" result="BackgroundImageFix"/>
<feColorMatrix in="SourceAlpha" type="matrix" values="0 0 0 0 0 0 0 0 0 0 0 0 0 0 0 0 0 0 127 0" result="hardAlpha"/>
<feOffset dy="12"/>
<feGaussianBlur stdDeviation="5"/>
<feColorMatrix type="matrix" values="0 0 0 0 0 0 0 0 0 0 0 0 0 0 0 0 0 0 0.06 0"/>
<feBlend mode="normal" in2="BackgroundImageFix" result="effect1_dropShadow_2026_34146"/>
<feBlend mode="normal" in="SourceGraphic" in2="effect1_dropShadow_2026_34146" result="shape"/>
</filter>
<filter id="filter14_d_2026_34146" x="260.153" y="68.2891" width="32.8147" height="32.4375" filterUnits="userSpaceOnUse" color-interpolation-filters="sRGB">
<feFlood flood-opacity="0" result="BackgroundImageFix"/>
<feColorMatrix in="SourceAlpha" type="matrix" values="0 0 0 0 0 0 0 0 0 0 0 0 0 0 0 0 0 0 127 0" result="hardAlpha"/>
<feOffset dx="-5" dy="-5"/>
<feGaussianBlur stdDeviation="5"/>
<feColorMatrix type="matrix" values="0 0 0 0 0.941176 0 0 0 0 0.941176 0 0 0 0 1 0 0 0 0.5 0"/>
<feBlend mode="normal" in2="BackgroundImageFix" result="effect1_dropShadow_2026_34146"/>
<feBlend mode="normal" in="SourceGraphic" in2="effect1_dropShadow_2026_34146" result="shape"/>
</filter>
<filter id="filter15_dd_2026_34146" x="82.3623" y="18.9326" width="52.3516" height="63.5669" filterUnits="userSpaceOnUse" color-interpolation-filters="sRGB">
<feFlood flood-opacity="0" result="BackgroundImageFix"/>
<feColorMatrix in="SourceAlpha" type="matrix" values="0 0 0 0 0 0 0 0 0 0 0 0 0 0 0 0 0 0 127 0" result="hardAlpha"/>
<feOffset dx="-5" dy="-5"/>
<feGaussianBlur stdDeviation="5"/>
<feColorMatrix type="matrix" values="0 0 0 0 0.941176 0 0 0 0 0.941176 0 0 0 0 1 0 0 0 0.5 0"/>
<feBlend mode="normal" in2="BackgroundImageFix" result="effect1_dropShadow_2026_34146"/>
<feColorMatrix in="SourceAlpha" type="matrix" values="0 0 0 0 0 0 0 0 0 0 0 0 0 0 0 0 0 0 127 0" result="hardAlpha"/>
<feOffset dy="12"/>
<feGaussianBlur stdDeviation="5"/>
<feColorMatrix type="matrix" values="0 0 0 0 0 0 0 0 0 0 0 0 0 0 0 0 0 0 0.06 0"/>
<feBlend mode="normal" in2="effect1_dropShadow_2026_34146" result="effect2_dropShadow_2026_34146"/>
<feBlend mode="normal" in="SourceGraphic" in2="effect2_dropShadow_2026_34146" result="shape"/>
</filter>
<filter id="filter16_dd_2026_34146" x="114.586" y="18.9326" width="52.3516" height="63.5669" filterUnits="userSpaceOnUse" color-interpolation-filters="sRGB">
<feFlood flood-opacity="0" result="BackgroundImageFix"/>
<feColorMatrix in="SourceAlpha" type="matrix" values="0 0 0 0 0 0 0 0 0 0 0 0 0 0 0 0 0 0 127 0" result="hardAlpha"/>
<feOffset dx="-5" dy="-5"/>
<feGaussianBlur stdDeviation="5"/>
<feColorMatrix type="matrix" values="0 0 0 0 0.941176 0 0 0 0 0.941176 0 0 0 0 1 0 0 0 0.5 0"/>
<feBlend mode="normal" in2="BackgroundImageFix" result="effect1_dropShadow_2026_34146"/>
<feColorMatrix in="SourceAlpha" type="matrix" values="0 0 0 0 0 0 0 0 0 0 0 0 0 0 0 0 0 0 127 0" result="hardAlpha"/>
<feOffset dy="12"/>
<feGaussianBlur stdDeviation="5"/>
<feColorMatrix type="matrix" values="0 0 0 0 0 0 0 0 0 0 0 0 0 0 0 0 0 0 0.06 0"/>
<feBlend mode="normal" in2="effect1_dropShadow_2026_34146" result="effect2_dropShadow_2026_34146"/>
<feBlend mode="normal" in="SourceGraphic" in2="effect2_dropShadow_2026_34146" result="shape"/>
</filter>
<filter id="filter17_dd_2026_34146" x="146.803" y="18.9326" width="52.3516" height="63.5669" filterUnits="userSpaceOnUse" color-interpolation-filters="sRGB">
<feFlood flood-opacity="0" result="BackgroundImageFix"/>
<feColorMatrix in="SourceAlpha" type="matrix" values="0 0 0 0 0 0 0 0 0 0 0 0 0 0 0 0 0 0 127 0" result="hardAlpha"/>
<feOffset dx="-5" dy="-5"/>
<feGaussianBlur stdDeviation="5"/>
<feColorMatrix type="matrix" values="0 0 0 0 0.941176 0 0 0 0 0.941176 0 0 0 0 1 0 0 0 0.5 0"/>
<feBlend mode="normal" in2="BackgroundImageFix" result="effect1_dropShadow_2026_34146"/>
<feColorMatrix in="SourceAlpha" type="matrix" values="0 0 0 0 0 0 0 0 0 0 0 0 0 0 0 0 0 0 127 0" result="hardAlpha"/>
<feOffset dy="12"/>
<feGaussianBlur stdDeviation="5"/>
<feColorMatrix type="matrix" values="0 0 0 0 0 0 0 0 0 0 0 0 0 0 0 0 0 0 0.06 0"/>
<feBlend mode="normal" in2="effect1_dropShadow_2026_34146" result="effect2_dropShadow_2026_34146"/>
<feBlend mode="normal" in="SourceGraphic" in2="effect2_dropShadow_2026_34146" result="shape"/>
</filter>
<linearGradient id="paint0_linear_2026_34146" x1="110.246" y1="222.898" x2="229.687" y2="16.0272" gradientUnits="userSpaceOnUse">
<stop stop-color="white"/>
<stop offset="0.18" stop-color="white" stop-opacity="0.96"/>
<stop offset="0.48" stop-color="white" stop-opacity="0.84"/>
<stop offset="0.89" stop-color="white" stop-opacity="0.66"/>
<stop offset="1" stop-color="white" stop-opacity="0.6"/>
</linearGradient>
<clipPath id="clip0_2026_34146">
<rect width="370" height="242" rx="10.5" fill="white"/>
</clipPath>
</defs>
</svg>
