<svg viewBox="0 0 370 242" fill="none" xmlns="http://www.w3.org/2000/svg">
<path d="M68 100V142" stroke="var(--surface-800)" stroke-linecap="round"/>
<path d="M302 100V142" stroke="var(--surface-800)" stroke-linecap="round"/>
<path d="M270 68L100 68" stroke="var(--surface-800)" stroke-linecap="round"/>
<path d="M270 174H100" stroke="var(--surface-800)" stroke-linecap="round"/>
<path d="M302 121H217" stroke="var(--surface-800)" stroke-linecap="round"/>
<path d="M153 121H68" stroke="var(--surface-800)" stroke-linecap="round"/>
<path d="M185 89L185 68" stroke="var(--surface-800)" stroke-linecap="round"/>
<path d="M185 174L185 153" stroke="var(--surface-800)" stroke-linecap="round"/>
<circle cx="302" cy="121" r="3.5" fill="var(--surface-800)" stroke="var(--surface-900)"/>
<circle cx="68" cy="121" r="3.5" fill="var(--surface-800)" stroke="var(--surface-900)"/>
<circle cx="185" cy="174" r="3.5" fill="var(--surface-800)" stroke="var(--surface-900)"/>
<circle cx="185" cy="68" r="3.5" fill="var(--surface-800)" stroke="var(--surface-900)"/>
<rect x="153.5" y="89.5" width="63" height="63" rx="31.5" stroke="var(--surface-800)"/>
<mask id="mask0_2026_33186" style="mask-type:luminance" maskUnits="userSpaceOnUse" x="168" y="103" width="34" height="36">
<path fill-rule="evenodd" clip-rule="evenodd" d="M168.37 103.048H201.241V138.844H168.37V103.048Z" fill="white"/>
</mask>
<g mask="url(#mask0_2026_33186)">
<path fill-rule="evenodd" clip-rule="evenodd" d="M200.576 116.71L198.12 120.924L200.571 125.129C201.465 126.663 201.465 128.495 200.571 130.029C199.677 131.563 198.076 132.479 196.288 132.479H191.387L189.121 136.368C188.217 137.918 186.599 138.844 184.793 138.844C182.986 138.844 181.368 137.918 180.465 136.368L178.198 132.479H173.288C171.513 132.479 169.923 131.57 169.036 130.047C168.148 128.524 168.148 126.705 169.036 125.182L171.491 120.968L169.041 116.763C168.147 115.229 168.147 113.397 169.041 111.863C169.935 110.329 171.536 109.413 173.324 109.413H178.224L180.491 105.524C181.394 103.974 183.012 103.048 184.819 103.048C186.626 103.048 188.243 103.973 189.147 105.524L191.413 109.413H196.324C198.099 109.413 199.688 110.322 200.576 111.845C201.463 113.368 201.463 115.187 200.576 116.71ZM184.819 104.12C183.403 104.12 182.135 104.845 181.428 106.06L179.474 109.413H190.164L188.21 106.06C187.502 104.845 186.234 104.12 184.819 104.12ZM191.284 130.511L191.232 130.601L191.224 130.615L191.098 130.831L190.428 131.98L190.313 132.178L188.921 134.567L188.502 135.287L188.206 135.794L188.195 135.796L188.188 135.808C187.481 137.022 186.189 137.372 184.774 137.372C183.36 137.372 182.118 137.024 181.409 135.813L181.387 135.807L180.669 134.574L180.489 134.266L172.74 120.968L174.146 118.557L174.146 118.557L176.625 114.305L176.623 114.305L176.905 113.822L176.906 113.822L178.852 110.485L190.789 110.481L196.871 120.924L191.284 130.511ZM199.634 129.493C198.935 130.691 197.685 131.407 196.288 131.407H192.012L197.496 121.996L199.634 125.665C200.332 126.863 200.332 128.294 199.634 129.493ZM169.973 129.511C170.665 130.698 171.904 131.407 173.288 131.407H177.574L172.116 122.04L169.973 125.718C169.281 126.905 169.281 128.323 169.973 129.511ZM169.978 116.227C169.279 115.029 169.279 113.598 169.978 112.399C170.676 111.201 171.927 110.485 173.324 110.485H177.6L172.116 119.896L169.978 116.227ZM196.324 110.485C197.708 110.485 198.947 111.194 199.639 112.381C200.331 113.569 200.331 114.987 199.639 116.174L197.496 119.852L192.038 110.485H196.324Z" fill="#03C4E8"/>
</g>
<path d="M190.638 122.634L188.795 122.229L190.229 124.255V130.536L194.77 126.484L195.144 119.595L192.891 120.405L190.638 122.634Z" fill="#03C4E8"/>
<path d="M179.169 122.634L181.013 122.229L179.579 124.255V130.536L175.038 126.484L174.664 119.595L176.917 120.405L179.169 122.634Z" fill="#03C4E8"/>
<path fill-rule="evenodd" clip-rule="evenodd" d="M180.194 124.66L181.832 122.229L182.856 122.837H186.952L187.976 122.229L189.615 124.66V133.778L187.7 137.394H181.734L180.194 133.778V124.66Z" fill="#03C4E8"/>
<path d="M190.229 134.386L192.891 131.752V129.118L190.229 131.347V134.386Z" fill="#03C4E8"/>
<path d="M179.579 134.386L176.917 131.752V129.118L179.579 131.347V134.386Z" fill="#03C4E8"/>
<path fill-rule="evenodd" clip-rule="evenodd" d="M182.241 110.477L180.603 114.327L183.265 122.026H184.494V110.477H182.241ZM185.313 110.477V122.026H186.747L189.205 114.327L187.566 110.477H185.313Z" fill="#03C4E8"/>
<path d="M183.266 122.026L174.459 118.784L173.23 113.719L180.808 114.327L183.47 122.026H183.266Z" fill="#03C4E8"/>
<path d="M186.747 122.026L195.554 118.784L196.782 113.719L189 114.327L186.542 122.026H186.747Z" fill="#03C4E8"/>
<path d="M189.615 113.719L193.542 113.314L191.048 110.477H188.181L189.615 113.719Z" fill="#03C4E8"/>
<path d="M180.194 113.719L176.267 113.314L178.76 110.477H181.627L180.194 113.719Z" fill="#03C4E8"/>
<rect x="36.5" y="36.5" width="63" height="63" rx="31.5" stroke="var(--surface-800)"/>
<path d="M68 85.1562C77.6305 85.1562 85.4375 77.3492 85.4375 67.7188C85.4375 58.0883 77.6305 50.2812 68 50.2812C58.3695 50.2812 50.5625 58.0883 50.5625 67.7188C50.5625 77.3492 58.3695 85.1562 68 85.1562Z" fill="url(#paint0_linear_2026_33186)"/>
<path d="M68 83.8482C76.9082 83.8482 84.1297 76.6267 84.1297 67.7186C84.1297 58.8104 76.9082 51.5889 68 51.5889C59.0919 51.5889 51.8704 58.8104 51.8704 67.7186C51.8704 76.6267 59.0919 83.8482 68 83.8482Z" fill="url(#paint1_radial_2026_33186)"/>
<path d="M68.0271 55.5124C67.9181 55.5124 67.8228 55.4306 67.8228 55.3216V52.4744C67.8228 52.3654 67.9181 52.2837 68.0271 52.2837C68.1361 52.2837 68.2314 52.3654 68.2314 52.4744V55.3216C68.2178 55.4306 68.1361 55.5124 68.0271 55.5124Z" fill="#F3F3F3"/>
<path d="M68.0271 55.5259C67.9044 55.5259 67.8091 55.4306 67.8091 55.3216V52.4744C67.8091 52.3654 67.9044 52.27 68.0271 52.27C68.1497 52.27 68.245 52.3654 68.245 52.4744V55.3216C68.245 55.4306 68.136 55.5259 68.0271 55.5259ZM68.0271 52.2973C67.9317 52.2973 67.8363 52.379 67.8363 52.4744V55.3216C67.8363 55.4169 67.9181 55.4987 68.0271 55.4987C68.1224 55.4987 68.2178 55.4169 68.2178 55.3216V52.4744C68.2042 52.379 68.1224 52.2973 68.0271 52.2973Z" fill="white"/>
<path d="M69.3897 53.9868C69.2807 53.9732 69.199 53.8914 69.199 53.7824L69.2943 52.5155C69.308 52.4065 69.4033 52.3248 69.5123 52.3384C69.6213 52.352 69.703 52.4338 69.703 52.5427L69.6077 53.8097C69.594 53.9187 69.4987 54.0004 69.3897 53.9868Z" fill="#F3F3F3"/>
<path d="M69.3894 54.0002C69.2668 53.9866 69.1851 53.8912 69.1851 53.7822L69.2804 52.5153C69.294 52.4063 69.3894 52.3109 69.512 52.3245C69.6346 52.3382 69.7164 52.4335 69.7164 52.5425L69.621 53.8095C69.6074 53.9321 69.512 54.0138 69.3894 54.0002ZM69.512 52.3518C69.4167 52.3518 69.3213 52.4199 69.3213 52.5153L69.2259 53.7822C69.2259 53.8776 69.294 53.9593 69.403 53.9729C69.4984 53.9729 69.5938 53.9048 69.5938 53.8095L69.6891 52.5425C69.6891 52.4472 69.6074 52.3654 69.512 52.3518Z" fill="white"/>
<path d="M70.4113 55.7573C70.3023 55.7301 70.2342 55.6347 70.2478 55.5257L70.8064 52.733C70.8336 52.624 70.929 52.5559 71.038 52.5832C71.1469 52.6104 71.2151 52.7058 71.2014 52.8147L70.6429 55.6075C70.6293 55.7028 70.5203 55.7709 70.4113 55.7573Z" fill="#F3F3F3"/>
<path d="M70.4112 55.7711C70.2886 55.7439 70.2205 55.6349 70.2341 55.5259L70.7927 52.7332C70.8199 52.6242 70.9289 52.5425 71.0515 52.5697C71.1741 52.597 71.2422 52.706 71.2286 52.8149L70.6701 55.6077C70.6428 55.7167 70.5338 55.7848 70.4112 55.7711ZM71.0515 52.597C70.9562 52.5834 70.8608 52.6378 70.8336 52.7332L70.275 55.5259C70.2614 55.6213 70.3159 55.7167 70.4249 55.7439C70.5202 55.7575 70.6156 55.703 70.6428 55.6077L71.2014 52.8149C71.215 52.706 71.1469 52.6242 71.0515 52.597Z" fill="white"/>
<path d="M72.0462 54.5315C71.9373 54.5042 71.8691 54.3952 71.8964 54.2862L72.237 53.0602C72.2642 52.9512 72.3732 52.8967 72.4822 52.9239C72.5912 52.9512 72.6593 53.0602 72.632 53.1692L72.2915 54.3952C72.2642 54.5042 72.1552 54.5587 72.0462 54.5315Z" fill="#F3F3F3"/>
<path d="M72.0461 54.5451C71.9371 54.5178 71.8553 54.3952 71.8962 54.2862L72.2368 53.0602C72.264 52.9512 72.3866 52.8831 72.4956 52.9103C72.6046 52.9376 72.6863 53.0602 72.6455 53.1691L72.3049 54.3952C72.2777 54.5042 72.1687 54.5723 72.0461 54.5451ZM72.4956 52.9512C72.4003 52.9239 72.2913 52.9784 72.264 53.0738L71.9235 54.2999C71.8962 54.3952 71.9507 54.4906 72.0597 54.5178C72.155 54.5451 72.264 54.4906 72.2913 54.3952L72.6319 53.1691C72.6455 53.0738 72.591 52.9784 72.4956 52.9512Z" fill="white"/>
<path d="M72.7132 56.4524C72.6042 56.4115 72.5633 56.2889 72.6042 56.1935L73.694 53.5643C73.7349 53.4689 73.8575 53.4144 73.9529 53.4689C74.0618 53.5098 74.1027 53.6324 74.0618 53.7278L72.972 56.357C72.9311 56.4524 72.8085 56.5069 72.7132 56.4524Z" fill="#F3F3F3"/>
<path d="M72.7131 56.4657C72.6041 56.4248 72.5496 56.3022 72.5905 56.1932L73.6803 53.564C73.7212 53.455 73.8438 53.4141 73.9664 53.455C74.0754 53.4959 74.1299 53.6185 74.089 53.7275L72.9992 56.3567C72.9447 56.4657 72.8221 56.5202 72.7131 56.4657ZM73.9528 53.4822C73.8574 53.4414 73.7484 53.4822 73.7076 53.5776L72.6177 56.2069C72.5768 56.3022 72.6313 56.3976 72.7267 56.4384C72.8221 56.4793 72.931 56.4384 72.9719 56.3431L74.0618 53.7138C74.089 53.6321 74.0481 53.5231 73.9528 53.4822Z" fill="white"/>
<path d="M74.5523 55.5807C74.4569 55.5262 74.4161 55.4172 74.4569 55.3218L75.0291 54.1911C75.0836 54.0957 75.1926 54.0549 75.3016 54.1094C75.3969 54.1639 75.4378 54.2728 75.3969 54.3682L74.8248 55.4989C74.7703 55.5943 74.6613 55.6351 74.5523 55.5807Z" fill="#F3F3F3"/>
<path d="M74.5525 55.5938C74.4435 55.5393 74.4026 55.4167 74.4571 55.3077L75.0293 54.177C75.0838 54.068 75.2064 54.0272 75.3154 54.0816C75.4244 54.1361 75.4652 54.2587 75.4108 54.3677L74.8386 55.4984C74.7841 55.6074 74.6615 55.6483 74.5525 55.5938ZM75.3018 54.1089C75.2064 54.068 75.0974 54.0953 75.0566 54.1906L74.4844 55.3213C74.4435 55.4031 74.4844 55.5121 74.5661 55.5666C74.6615 55.6074 74.7705 55.5802 74.8113 55.4848L75.3835 54.3541C75.4244 54.2724 75.3835 54.1634 75.3018 54.1089Z" fill="white"/>
<path d="M74.8255 57.5965C74.7301 57.5284 74.7029 57.4057 74.771 57.324L76.3513 54.9672C76.4058 54.8719 76.5284 54.8582 76.6237 54.9127C76.7191 54.9808 76.7463 55.1035 76.6782 55.1852L75.0979 57.542C75.0435 57.6373 74.9208 57.6646 74.8255 57.5965Z" fill="#F3F3F3"/>
<path d="M74.8251 57.6102C74.7298 57.542 74.7025 57.4058 74.757 57.3104L76.3373 54.9537C76.4054 54.8583 76.528 54.8311 76.637 54.8992C76.7324 54.9673 76.7596 55.1035 76.7051 55.1989L75.1248 57.5557C75.0567 57.651 74.9205 57.6783 74.8251 57.6102ZM76.6234 54.9264C76.5416 54.8719 76.419 54.8855 76.3645 54.9673L74.7843 57.3241C74.7298 57.4058 74.757 57.5148 74.8388 57.5693C74.9205 57.6238 75.0431 57.6102 75.0976 57.5284L76.6779 55.1852C76.7324 55.1035 76.7051 54.9809 76.6234 54.9264Z" fill="white"/>
<path d="M76.8136 57.0927C76.7319 57.0246 76.7046 56.902 76.7727 56.8202L77.5629 55.8257C77.631 55.744 77.7536 55.7304 77.8353 55.7985C77.9171 55.8666 77.9443 55.9892 77.8762 56.071L77.0861 57.0654C77.018 57.1472 76.8953 57.1608 76.8136 57.0927Z" fill="#F3F3F3"/>
<path d="M76.8 57.1061C76.7046 57.0379 76.691 56.9017 76.7591 56.8064L77.5493 55.8119C77.6174 55.7165 77.7536 55.7029 77.849 55.7846C77.9443 55.8527 77.958 55.989 77.8898 56.0843L77.0997 57.0788C77.0316 57.1742 76.8954 57.1878 76.8 57.1061ZM77.8217 55.8119C77.74 55.7438 77.631 55.7574 77.5629 55.8391L76.7727 56.8336C76.7183 56.9153 76.7319 57.0243 76.8136 57.0924C76.8954 57.1606 77.0043 57.1469 77.0725 57.0652L77.8626 56.0707C77.9171 55.989 77.9035 55.8664 77.8217 55.8119Z" fill="white"/>
<path d="M76.6782 59.136C76.5965 59.0543 76.5965 58.9317 76.6782 58.8636L78.6945 56.861C78.7762 56.7793 78.8988 56.7929 78.9669 56.861C79.035 56.9291 79.0487 57.0653 78.9669 57.1335L76.9643 59.136C76.8826 59.2178 76.76 59.2178 76.6782 59.136Z" fill="#F3F3F3"/>
<path d="M76.6646 59.1497C76.5828 59.068 76.5828 58.9318 76.6646 58.85L78.6808 56.8474C78.7625 56.7657 78.8988 56.7657 78.9805 56.8474C79.0622 56.9292 79.0622 57.0654 78.9805 57.1471L76.9643 59.1497C76.8825 59.2315 76.7463 59.2315 76.6646 59.1497ZM78.9669 56.8611C78.8988 56.7929 78.7761 56.7929 78.708 56.8611L76.6918 58.8636C76.6237 58.9318 76.6237 59.0544 76.6918 59.1225C76.7599 59.1906 76.8825 59.1906 76.9507 59.1225L78.9669 57.1199C79.035 57.0518 79.035 56.9428 78.9669 56.8611Z" fill="white"/>
<path d="M78.7211 59.027C78.653 58.9453 78.653 58.8227 78.7348 58.7546L79.702 57.9372C79.7837 57.8691 79.9063 57.8827 79.9745 57.9644C80.0426 58.0462 80.0426 58.1688 79.9608 58.2369L78.9936 59.0543C78.9119 59.1224 78.7892 59.1087 78.7211 59.027Z" fill="#F3F3F3"/>
<path d="M78.708 59.0409C78.6263 58.9455 78.6399 58.8093 78.7216 58.7412L79.6889 57.9238C79.7706 57.842 79.9068 57.8557 79.9886 57.951C80.0703 58.0464 80.0567 58.1826 79.9749 58.2507L79.0077 59.0681C78.926 59.1499 78.7897 59.1362 78.708 59.0409ZM79.9613 57.9647C79.8932 57.8829 79.7842 57.8829 79.7025 57.9374L78.7352 58.7548C78.6671 58.8229 78.6535 58.9319 78.7216 59.0136C78.7897 59.0954 78.8987 59.0954 78.9805 59.0409L79.9477 58.2235C80.0294 58.1554 80.0294 58.0464 79.9613 57.9647Z" fill="white"/>
<path d="M78.1763 60.9885C78.1082 60.8931 78.1354 60.7705 78.2308 60.716L80.6012 59.1358C80.6965 59.0813 80.8191 59.1085 80.8736 59.1903C80.9417 59.2856 80.9145 59.4082 80.8191 59.4627L78.4487 61.043C78.367 61.0975 78.2444 61.0702 78.1763 60.9885Z" fill="#F3F3F3"/>
<path d="M78.1626 60.9889C78.0945 60.8935 78.1217 60.7573 78.2171 60.6892L80.5875 59.1089C80.6829 59.0408 80.8191 59.068 80.8872 59.177C80.9553 59.2724 80.9281 59.4086 80.8327 59.4767L78.4623 61.057C78.3669 61.1251 78.2307 61.0979 78.1626 60.9889ZM80.86 59.2043C80.8055 59.1225 80.6965 59.0953 80.6147 59.1498L78.2443 60.7301C78.1626 60.7845 78.1353 60.8935 78.2035 60.9889C78.258 61.0706 78.3669 61.0979 78.4487 61.0434L80.8191 59.4631C80.9008 59.395 80.9144 59.286 80.86 59.2043Z" fill="white"/>
<path d="M80.2062 61.2746C80.1517 61.1792 80.179 61.0566 80.2744 61.0021L81.3778 60.3755C81.4732 60.321 81.5958 60.3619 81.6503 60.4572C81.7048 60.5526 81.6775 60.6752 81.5822 60.7297L80.4787 61.3563C80.3833 61.4108 80.2607 61.37 80.2062 61.2746Z" fill="#F3F3F3"/>
<path d="M80.1926 61.2882C80.1381 61.1792 80.1653 61.0566 80.2607 61.0021L81.3642 60.3755C81.4595 60.321 81.5957 60.3619 81.6502 60.4572C81.7047 60.5662 81.6775 60.6888 81.5821 60.7433L80.4787 61.37C80.3833 61.4245 80.2471 61.3836 80.1926 61.2882ZM81.6366 60.4708C81.5821 60.3755 81.4731 60.3482 81.3914 60.4027L80.2879 61.0294C80.2062 61.0839 80.1789 61.1929 80.2198 61.2746C80.2743 61.37 80.3833 61.3972 80.465 61.3427L81.5685 60.7161C81.6502 60.6752 81.6775 60.5662 81.6366 60.4708Z" fill="white"/>
<path d="M79.2934 63.0865C79.2525 62.9775 79.2934 62.8686 79.4024 62.8277L82.0316 61.7379C82.127 61.697 82.2496 61.7515 82.2904 61.8468C82.3313 61.9558 82.2904 62.0648 82.1815 62.1057L79.5522 63.1955C79.4569 63.2364 79.3342 63.1955 79.2934 63.0865Z" fill="#F3F3F3"/>
<path d="M79.2797 63.1004C79.2388 62.9915 79.2797 62.8688 79.3887 62.8144L82.0179 61.7245C82.1269 61.6836 82.2495 61.7381 82.2904 61.8471C82.3313 61.9561 82.2904 62.0787 82.1814 62.1332L79.5522 63.223C79.4432 63.2639 79.3206 63.2094 79.2797 63.1004ZM82.2632 61.8607C82.2223 61.7654 82.1133 61.7245 82.0316 61.7518L79.4023 62.8416C79.307 62.8825 79.2661 62.9915 79.307 63.0868C79.3478 63.1822 79.4568 63.223 79.5385 63.1958L82.1678 62.106C82.2632 62.0651 82.304 61.9561 82.2632 61.8607Z" fill="white"/>
<path d="M81.2143 63.7681C81.1734 63.6591 81.2279 63.5501 81.3369 63.5092L82.5357 63.1142C82.6311 63.0733 82.7537 63.1414 82.7809 63.2368C82.8218 63.3457 82.7673 63.4547 82.6583 63.4956L81.4595 63.8907C81.3641 63.9315 81.2551 63.877 81.2143 63.7681Z" fill="#F3F3F3"/>
<path d="M81.2007 63.7816C81.1598 63.6726 81.2143 63.55 81.3369 63.5091L82.5357 63.114C82.6447 63.0732 82.7673 63.1413 82.8082 63.2503C82.8491 63.3593 82.7946 63.4819 82.672 63.5227L81.4731 63.9178C81.3642 63.945 81.2415 63.8906 81.2007 63.7816ZM82.7809 63.2639C82.7537 63.1685 82.6447 63.114 82.5494 63.1413L81.3505 63.5364C81.2552 63.5636 81.2143 63.6726 81.2415 63.7679C81.2688 63.8633 81.3778 63.9178 81.4731 63.8906L82.672 63.4955C82.7673 63.4546 82.8082 63.3593 82.7809 63.2639Z" fill="white"/>
<path d="M79.9882 65.3887C79.9609 65.2797 80.0291 65.1708 80.138 65.1571L82.9308 64.6122C83.0397 64.585 83.1351 64.6667 83.1624 64.7757C83.1896 64.8847 83.1215 64.9937 83.0125 65.0073L80.2198 65.5522C80.1108 65.5658 80.0018 65.4977 79.9882 65.3887Z" fill="#F3F3F3"/>
<path d="M79.9608 65.3891C79.9336 65.2665 80.0153 65.1575 80.1243 65.1303L82.917 64.5853C83.026 64.5581 83.135 64.6398 83.1623 64.7624C83.1895 64.885 83.1078 64.994 82.9988 65.0213L80.2061 65.5662C80.0971 65.5934 79.9881 65.5117 79.9608 65.3891ZM83.135 64.7761C83.1214 64.6807 83.026 64.6126 82.9307 64.6262L80.1379 65.1711C80.0426 65.1847 79.9745 65.2937 80.0017 65.3891C80.0153 65.4844 80.1107 65.5526 80.2061 65.5389L82.9988 64.994C83.0941 64.9668 83.1623 64.8714 83.135 64.7761Z" fill="white"/>
<path d="M81.732 66.4382C81.7183 66.3292 81.7864 66.2338 81.8954 66.2202L83.1488 66.0703C83.2577 66.0567 83.3531 66.1384 83.3667 66.2474C83.3803 66.3564 83.3122 66.4518 83.2032 66.4654L81.9499 66.6153C81.8546 66.6289 81.7456 66.5471 81.732 66.4382Z" fill="#F3F3F3"/>
<path d="M81.718 66.4381C81.7044 66.3154 81.7862 66.2065 81.8951 66.1928L83.1485 66.043C83.2574 66.0294 83.3664 66.1111 83.38 66.2337C83.3937 66.3563 83.3119 66.4653 83.2029 66.4789L81.9496 66.6288C81.8406 66.6424 81.7317 66.5607 81.718 66.4381ZM83.3664 66.2473C83.3528 66.152 83.2574 66.0702 83.1621 66.0839L81.9088 66.2337C81.8134 66.2473 81.7453 66.3427 81.7589 66.4381C81.7725 66.5334 81.8679 66.6152 81.9633 66.6015L83.2166 66.4517C83.3119 66.4381 83.38 66.3427 83.3664 66.2473Z" fill="white"/>
<path d="M80.2058 67.759C80.2058 67.65 80.2875 67.5547 80.3965 67.5547H83.2437C83.3527 67.5547 83.4345 67.65 83.4345 67.759C83.4345 67.868 83.3527 67.9634 83.2437 67.9634H80.3965C80.2875 67.9634 80.2058 67.868 80.2058 67.759Z" fill="#F3F3F3"/>
<path d="M80.1921 67.7595C80.1921 67.6369 80.2875 67.5415 80.3965 67.5415H83.2437C83.3527 67.5415 83.448 67.6369 83.448 67.7595C83.448 67.8821 83.3527 67.9774 83.2437 67.9774H80.3965C80.2875 67.9774 80.1921 67.8821 80.1921 67.7595ZM83.4208 67.7731C83.4208 67.6777 83.3391 67.5824 83.2437 67.5824H80.3965C80.3011 67.5824 80.2194 67.6641 80.2194 67.7731C80.2194 67.8685 80.3011 67.9638 80.3965 67.9638H83.2437C83.3391 67.9502 83.4208 67.8685 83.4208 67.7731Z" fill="white"/>
<path d="M81.7183 69.1351C81.7319 69.0261 81.8136 68.9443 81.9226 68.9443L83.1895 69.0397C83.2985 69.0533 83.3803 69.1487 83.3666 69.2577C83.353 69.3667 83.2713 69.4484 83.1623 69.4484L81.8954 69.353C81.8 69.3394 81.7183 69.244 81.7183 69.1351Z" fill="#F3F3F3"/>
<path d="M81.7046 69.1355C81.7182 69.0129 81.8136 68.9312 81.9226 68.9312L83.1895 69.0265C83.2985 69.0401 83.3938 69.1355 83.3802 69.2581C83.3666 69.3807 83.2712 69.4625 83.1623 69.4625L81.8953 69.3671C81.7863 69.3535 81.7046 69.2445 81.7046 69.1355ZM83.3666 69.2581C83.3802 69.1627 83.2985 69.0674 83.2031 69.0674L81.9362 68.972C81.8408 68.972 81.7591 69.0401 81.7455 69.1491C81.7318 69.2445 81.8136 69.3398 81.9089 69.3398L83.1759 69.4352C83.2712 69.4352 83.353 69.3535 83.3666 69.2581Z" fill="white"/>
<path d="M79.9605 70.13C79.9877 70.0211 80.0831 69.9529 80.1921 69.9666L82.9848 70.5251C83.0938 70.5524 83.1619 70.6477 83.1346 70.7567C83.1074 70.8657 83.012 70.9338 82.9031 70.9202L80.1103 70.3616C80.015 70.348 79.9469 70.239 79.9605 70.13Z" fill="#F3F3F3"/>
<path d="M79.9478 70.13C79.975 70.0074 80.084 69.9393 80.193 69.9529L82.9857 70.5114C83.0947 70.5387 83.1764 70.6477 83.1492 70.7703C83.1219 70.8929 83.013 70.961 82.904 70.9474L80.1112 70.3888C80.0023 70.3616 79.9341 70.2526 79.9478 70.13ZM83.1219 70.7703C83.1356 70.6749 83.0811 70.5796 82.9857 70.5523L80.193 69.9938C80.0976 69.9801 80.0023 70.0346 79.975 70.1436C79.9614 70.239 80.0159 70.3343 80.1112 70.3616L82.904 70.9201C83.013 70.9338 83.0947 70.8656 83.1219 70.7703Z" fill="white"/>
<path d="M81.1874 71.7643C81.2146 71.6553 81.3236 71.5872 81.4326 71.6144L82.6587 71.955C82.7676 71.9822 82.8221 72.0912 82.7949 72.2002C82.7676 72.3092 82.6587 72.3773 82.5497 72.3501L81.3236 72.0095C81.2146 71.9822 81.1601 71.8732 81.1874 71.7643Z" fill="#F3F3F3"/>
<path d="M81.1737 71.7646C81.201 71.6556 81.3236 71.5738 81.4326 71.6147L82.6586 71.9553C82.7676 71.9825 82.8357 72.1051 82.8085 72.2141C82.7813 72.3231 82.6586 72.4048 82.5497 72.364L81.3236 72.0234C81.2146 71.9962 81.1465 71.8872 81.1737 71.7646ZM82.7676 72.2141C82.7949 72.1188 82.7404 72.0098 82.645 71.9825L81.4189 71.642C81.3236 71.6147 81.2282 71.6692 81.201 71.7782C81.1737 71.8735 81.2282 71.9825 81.3236 72.0098L82.5497 72.3504C82.645 72.364 82.7404 72.3095 82.7676 72.2141Z" fill="white"/>
<path d="M79.2663 72.4185C79.3071 72.3095 79.4298 72.2686 79.5251 72.3095L82.1544 73.3993C82.2497 73.4402 82.3042 73.5628 82.2633 73.6582C82.2225 73.7672 82.0999 73.808 82.0045 73.7672L79.3753 72.6773C79.2663 72.6364 79.2254 72.5138 79.2663 72.4185Z" fill="#F3F3F3"/>
<path d="M79.2526 72.4047C79.2935 72.2957 79.4161 72.2413 79.5251 72.2821L82.1543 73.372C82.2633 73.4128 82.3042 73.5354 82.2633 73.6581C82.2224 73.767 82.0998 73.8215 81.9908 73.7807L79.3616 72.6908C79.2526 72.6363 79.2117 72.5137 79.2526 72.4047ZM82.2361 73.6444C82.2769 73.5491 82.2361 73.4401 82.1407 73.3992L79.5114 72.3094C79.4161 72.2685 79.3207 72.323 79.2799 72.4184C79.239 72.5137 79.2799 72.6227 79.3752 72.6636L82.0045 73.7534C82.0998 73.7807 82.2088 73.7398 82.2361 73.6444Z" fill="white"/>
<path d="M80.1521 74.2576C80.2066 74.1623 80.3156 74.1214 80.4109 74.1623L81.5416 74.7344C81.637 74.7753 81.6779 74.8979 81.6234 75.0069C81.5689 75.1023 81.4599 75.1431 81.3645 75.1023L80.2338 74.5301C80.1385 74.4756 80.0976 74.353 80.1521 74.2576Z" fill="#F3F3F3"/>
<path d="M80.138 74.2439C80.1925 74.1349 80.3151 74.0941 80.4241 74.1485L81.5548 74.7207C81.6638 74.7752 81.7047 74.8978 81.6502 75.0068C81.5957 75.1158 81.4731 75.1566 81.3641 75.1022L80.2334 74.53C80.1244 74.4891 80.0836 74.3529 80.138 74.2439ZM81.6093 74.9932C81.6502 74.8978 81.623 74.7888 81.5276 74.748L80.3969 74.1758C80.3151 74.1349 80.2062 74.1758 80.1517 74.2575C80.1108 74.3529 80.138 74.4619 80.2334 74.5027L81.3641 75.0749C81.4595 75.1158 81.5685 75.0885 81.6093 74.9932Z" fill="white"/>
<path d="M78.1492 74.5166C78.2173 74.4213 78.3263 74.394 78.4216 74.4622L80.792 76.0424C80.8874 76.0969 80.901 76.2195 80.8465 76.3149C80.7784 76.4103 80.6694 76.4375 80.5741 76.3694L78.2037 74.7891C78.1083 74.721 78.0811 74.5984 78.1492 74.5166Z" fill="#F3F3F3"/>
<path d="M78.1351 74.5031C78.2033 74.4078 78.3395 74.3805 78.4348 74.435L80.8053 76.0153C80.9006 76.0834 80.9279 76.206 80.8598 76.315C80.7916 76.4103 80.6554 76.4376 80.56 76.3831L78.1896 74.8028C78.0806 74.7347 78.067 74.5985 78.1351 74.5031ZM80.8189 76.3014C80.8734 76.2196 80.8597 76.097 80.778 76.0425L78.4076 74.4622C78.3259 74.4078 78.2169 74.435 78.1624 74.5167C78.1079 74.5985 78.1215 74.7211 78.2033 74.7756L80.5737 76.3558C80.6554 76.4103 80.7644 76.3831 80.8189 76.3014Z" fill="white"/>
<path d="M78.6527 76.4916C78.7209 76.4098 78.8435 76.3826 78.9252 76.4507L79.9197 77.2272C80.0014 77.2953 80.015 77.418 79.9469 77.4997C79.8788 77.5814 79.7562 77.6087 79.6745 77.5406L78.68 76.764C78.5983 76.6959 78.5846 76.5733 78.6527 76.4916Z" fill="#F3F3F3"/>
<path d="M78.64 76.478C78.7081 76.3826 78.8443 76.369 78.9397 76.4371L79.9342 77.2136C80.0295 77.2817 80.0432 77.418 79.975 77.5133C79.9069 77.6087 79.7707 77.6223 79.6753 77.5542L78.6809 76.7777C78.5855 76.7096 78.5719 76.5733 78.64 76.478ZM79.9478 77.4997C80.0159 77.418 80.0023 77.309 79.9206 77.2409L78.9261 76.4644C78.8443 76.4099 78.7353 76.4235 78.6672 76.5052C78.5991 76.587 78.6127 76.6959 78.6945 76.7641L79.689 77.5406C79.7707 77.5951 79.8797 77.5814 79.9478 77.4997Z" fill="white"/>
<path d="M76.6234 76.3557C76.7051 76.274 76.8277 76.274 76.8958 76.3557L78.912 78.3583C78.9938 78.4401 78.9801 78.5627 78.912 78.6308C78.8303 78.7125 78.7077 78.7125 78.6396 78.6308L76.6234 76.6282C76.5552 76.5601 76.5552 76.4239 76.6234 76.3557Z" fill="#F3F3F3"/>
<path d="M76.623 76.3416C76.7048 76.2598 76.841 76.2598 76.9227 76.3416L78.939 78.3442C79.0207 78.4259 79.0207 78.5621 78.939 78.6439C78.8572 78.7256 78.721 78.7256 78.6392 78.6439L76.623 76.6413C76.5277 76.5595 76.5277 76.4233 76.623 76.3416ZM78.9117 78.6166C78.9798 78.5485 78.9798 78.4259 78.9117 78.3578L76.8955 76.3552C76.8274 76.2871 76.7048 76.2871 76.6367 76.3552C76.5685 76.4233 76.5685 76.5459 76.6367 76.614L78.6529 78.6166C78.721 78.6984 78.83 78.6984 78.9117 78.6166Z" fill="white"/>
<path d="M76.7454 78.3854C76.8272 78.3173 76.9498 78.3173 77.0179 78.3991L77.8489 79.3527C77.917 79.4344 77.9034 79.557 77.8216 79.6251C77.7399 79.6933 77.6173 79.6932 77.5492 79.6115L76.7182 78.6579C76.6501 78.5898 76.6637 78.4672 76.7454 78.3854Z" fill="#F3F3F3"/>
<path d="M76.7323 78.3855C76.8277 78.3037 76.9503 78.3174 77.032 78.3991L77.863 79.3527C77.9448 79.4345 77.9312 79.5707 77.8358 79.6524C77.7404 79.7342 77.6178 79.7205 77.5361 79.6388L76.7051 78.6852C76.637 78.5898 76.637 78.4536 76.7323 78.3855ZM77.8222 79.6252C77.9039 79.5571 77.9039 79.4481 77.8494 79.3663L77.0184 78.4127C76.9503 78.3446 76.8413 78.331 76.7596 78.3991C76.6778 78.4672 76.6778 78.5762 76.7323 78.6579L77.5633 79.6116C77.6315 79.6933 77.7404 79.6933 77.8222 79.6252Z" fill="white"/>
<path d="M74.7838 77.8679C74.8791 77.7998 75.0017 77.827 75.0562 77.9224L76.6365 80.2792C76.691 80.3746 76.6638 80.4972 76.582 80.5517C76.4867 80.6198 76.364 80.5925 76.3096 80.4972L74.7293 78.1404C74.6748 78.045 74.702 77.9224 74.7838 77.8679Z" fill="#F3F3F3"/>
<path d="M74.7837 77.8542C74.8791 77.7861 75.0153 77.8134 75.0834 77.9087L76.6637 80.2655C76.7318 80.3609 76.7046 80.4971 76.5956 80.5652C76.5002 80.6333 76.364 80.6061 76.2959 80.5107L74.7156 78.154C74.6475 78.045 74.6747 77.9224 74.7837 77.8542ZM76.582 80.538C76.6637 80.4835 76.6909 80.3745 76.6365 80.2928L75.0562 77.936C75.0017 77.8542 74.8927 77.8406 74.7973 77.8951C74.7156 77.9496 74.6884 78.0586 74.7428 78.1403L76.3231 80.4971C76.3776 80.5652 76.5002 80.5925 76.582 80.538Z" fill="white"/>
<path d="M74.4981 79.8837C74.5934 79.8292 74.716 79.8565 74.7705 79.9518L75.3972 81.0553C75.4517 81.1507 75.4108 81.2733 75.3155 81.3278C75.2201 81.3823 75.0975 81.355 75.043 81.2597L74.4163 80.1562C74.3755 80.0608 74.4027 79.9382 74.4981 79.8837Z" fill="#F3F3F3"/>
<path d="M74.4984 79.8705C74.6074 79.8161 74.73 79.8433 74.7845 79.9387L75.4111 81.0421C75.4656 81.1375 75.4384 81.2737 75.3294 81.3282C75.2204 81.3827 75.0978 81.3555 75.0433 81.2601L74.4167 80.1566C74.3622 80.0613 74.3894 79.9387 74.4984 79.8705ZM75.3158 81.3146C75.3975 81.2601 75.4384 81.1511 75.3839 81.0694L74.7572 79.9659C74.7027 79.8842 74.5937 79.8569 74.512 79.8978C74.4303 79.9523 74.3894 80.0613 74.4439 80.143L75.0706 81.2465C75.1114 81.3282 75.234 81.3691 75.3158 81.3146Z" fill="white"/>
<path d="M72.6859 78.9845C72.7949 78.9437 72.9039 78.9845 72.9448 79.0799L74.0482 81.7091C74.0891 81.8045 74.0346 81.9271 73.9393 81.968C73.8439 82.0088 73.7213 81.968 73.6804 81.8726L72.577 79.2434C72.5361 79.148 72.5906 79.0254 72.6859 78.9845Z" fill="#F3F3F3"/>
<path d="M72.6867 78.9711C72.7957 78.9302 72.9183 78.9711 72.9728 79.0801L74.0763 81.7093C74.1171 81.8183 74.0626 81.9409 73.9537 81.9818C73.8447 82.0227 73.7221 81.9818 73.6676 81.8728L72.5641 79.2436C72.5232 79.1482 72.5777 79.0256 72.6867 78.9711ZM73.9264 81.9546C74.0218 81.9137 74.0626 81.8047 74.0218 81.723L72.9183 79.0937C72.8774 78.9984 72.7685 78.9575 72.6731 78.9984C72.5777 79.0392 72.5369 79.1482 72.5777 79.2299L73.6812 81.8592C73.7357 81.9546 73.831 81.9954 73.9264 81.9546Z" fill="white"/>
<path d="M72.0187 80.9193C72.1277 80.8785 72.2367 80.933 72.2776 81.0419L72.6726 82.2408C72.7135 82.3361 72.6454 82.4587 72.55 82.486C72.4411 82.5269 72.3321 82.4724 72.2912 82.3634L71.8961 81.1645C71.8553 81.0692 71.9098 80.9602 72.0187 80.9193Z" fill="#F3F3F3"/>
<path d="M72.005 80.9057C72.114 80.8648 72.2366 80.9193 72.2775 81.0283L72.6725 82.2271C72.7134 82.3361 72.6453 82.4587 72.5363 82.4996C72.4273 82.5404 72.3047 82.4859 72.2638 82.3769L71.8688 81.1781C71.8415 81.0691 71.896 80.9465 72.005 80.9057ZM72.5363 82.4723C72.6316 82.4451 72.6861 82.3361 72.6589 82.2407L72.2638 81.0419C72.2366 80.9465 72.1276 80.9057 72.0322 80.9329C71.9369 80.9602 71.8824 81.0691 71.9096 81.1645L72.3047 82.3633C72.3319 82.4587 72.4409 82.5132 72.5363 82.4723Z" fill="white"/>
<path d="M70.4113 79.6793C70.5203 79.6521 70.6293 79.7202 70.6429 79.8292L71.2151 82.6219C71.2423 82.7309 71.1606 82.8263 71.0516 82.8535C70.9426 82.8808 70.8336 82.8126 70.82 82.7037L70.2478 79.9109C70.2342 79.8156 70.3023 79.7066 70.4113 79.6793Z" fill="#F3F3F3"/>
<path d="M70.4111 79.6659C70.5337 79.6387 70.6427 79.7204 70.67 79.8294L71.2421 82.6221C71.2694 82.7311 71.1877 82.8537 71.0787 82.8673C70.9561 82.8946 70.8471 82.8128 70.8198 82.7039L70.2477 79.9111C70.2204 79.8022 70.2885 79.6932 70.4111 79.6659ZM71.0514 82.8401C71.1468 82.8265 71.2149 82.7311 71.2013 82.6221L70.6291 79.8294C70.6155 79.734 70.5065 79.6659 70.4111 79.6932C70.3158 79.7068 70.2477 79.8022 70.2613 79.9111L70.8335 82.7039C70.8607 82.7992 70.9561 82.8537 71.0514 82.8401Z" fill="white"/>
<path d="M69.3759 81.4505C69.4848 81.4368 69.5802 81.505 69.6074 81.6139L69.7709 82.8673C69.7845 82.9762 69.7028 83.0716 69.5938 83.0852C69.4848 83.0988 69.3895 83.0307 69.3622 82.9217L69.1988 81.6684C69.1851 81.5594 69.2669 81.4641 69.3759 81.4505Z" fill="#F3F3F3"/>
<path d="M69.3756 81.437C69.4982 81.4234 69.6071 81.5051 69.6208 81.6141L69.7842 82.8675C69.7979 82.9764 69.7161 83.0854 69.5935 83.099C69.4709 83.1127 69.3619 83.0309 69.3483 82.9219L69.1848 81.6686C69.1712 81.5596 69.2529 81.4507 69.3756 81.437ZM69.5799 83.0718C69.6753 83.0582 69.757 82.9628 69.7434 82.8675L69.5799 81.6141C69.5663 81.5188 69.4709 81.4507 69.3756 81.4643C69.2802 81.4779 69.1985 81.5733 69.2121 81.6686L69.3756 82.9219C69.3892 83.0173 69.4845 83.0854 69.5799 83.0718Z" fill="white"/>
<path d="M67.9727 79.9248C68.0816 79.9248 68.177 80.0065 68.177 80.1155V82.9627C68.177 83.0717 68.0816 83.1535 67.9727 83.1535C67.8637 83.1535 67.7683 83.0717 67.7683 82.9627V80.1155C67.7819 80.0065 67.8637 79.9248 67.9727 79.9248Z" fill="#F3F3F3"/>
<path d="M67.9726 79.9111C68.0952 79.9111 68.1906 80.0065 68.1906 80.1155V82.9627C68.1906 83.0717 68.0952 83.167 67.9726 83.167C67.85 83.167 67.7546 83.0717 67.7546 82.9627V80.1155C67.7546 80.0065 67.8636 79.9111 67.9726 79.9111ZM67.9726 83.1398C68.068 83.1398 68.1633 83.0581 68.1633 82.9627V80.1155C68.1633 80.0201 68.0816 79.9384 67.9726 79.9384C67.8772 79.9384 67.7819 80.0201 67.7819 80.1155V82.9627C67.7955 83.0581 67.8772 83.1398 67.9726 83.1398Z" fill="white"/>
<path d="M66.61 81.4507C66.7189 81.4643 66.8007 81.5461 66.8007 81.655L66.7053 82.922C66.6917 83.031 66.5963 83.1127 66.4874 83.0991C66.3784 83.0855 66.2966 83.0037 66.2966 82.8947L66.392 81.6278C66.4056 81.5188 66.501 81.4371 66.61 81.4507Z" fill="#F3F3F3"/>
<path d="M66.6099 81.437C66.7325 81.4507 66.8143 81.546 66.8143 81.655L66.7189 82.9219C66.7053 83.0309 66.6099 83.1263 66.4873 83.1127C66.3647 83.099 66.283 83.0037 66.283 82.8947L66.3783 81.6277C66.3919 81.5051 66.4873 81.4234 66.6099 81.437ZM66.4873 83.0854C66.5827 83.0854 66.678 83.0173 66.678 82.9219L66.7734 81.655C66.7734 81.5596 66.7053 81.4779 66.5963 81.4643C66.5009 81.4643 66.4056 81.5324 66.4056 81.6277L66.3102 82.8947C66.3102 82.9901 66.3919 83.0718 66.4873 83.0854Z" fill="white"/>
<path d="M65.5887 79.6795C65.6977 79.7067 65.7658 79.8021 65.7522 79.9111L65.1937 82.7038C65.1664 82.8128 65.0711 82.8809 64.9621 82.8536C64.8531 82.8264 64.785 82.731 64.7986 82.622L65.3571 79.8293C65.3708 79.734 65.4798 79.6658 65.5887 79.6795Z" fill="#F3F3F3"/>
<path d="M65.5886 79.6658C65.7112 79.693 65.7794 79.802 65.7657 79.911L65.2072 82.7037C65.1799 82.8127 65.071 82.8945 64.9484 82.8672C64.8257 82.84 64.7576 82.731 64.7713 82.622L65.3298 79.8293C65.357 79.7203 65.466 79.6522 65.5886 79.6658ZM64.9484 82.84C65.0437 82.8536 65.1391 82.7991 65.1663 82.7037L65.7249 79.911C65.7385 79.8156 65.684 79.7203 65.575 79.693C65.4796 79.6794 65.3843 79.7339 65.357 79.8293L64.7985 82.622C64.7849 82.731 64.853 82.8127 64.9484 82.84Z" fill="white"/>
<path d="M63.9539 80.9054C64.0628 80.9326 64.131 81.0416 64.1037 81.1506L63.7631 82.3767C63.7359 82.4857 63.6269 82.5401 63.5179 82.5129C63.4089 82.4857 63.3408 82.3767 63.3681 82.2677L63.7086 81.0416C63.7359 80.9326 63.8449 80.8781 63.9539 80.9054Z" fill="#F3F3F3"/>
<path d="M63.9539 80.8918C64.0629 80.919 64.1446 81.0416 64.1037 81.1506L63.7631 82.3767C63.7359 82.4856 63.6133 82.5538 63.5043 82.5265C63.3953 82.4993 63.3136 82.3767 63.3545 82.2677L63.695 81.0416C63.7223 80.9326 63.8313 80.8645 63.9539 80.8918ZM63.5043 82.4856C63.5997 82.5129 63.7087 82.4584 63.7359 82.363L64.0765 81.137C64.1037 81.0416 64.0492 80.9462 63.9402 80.919C63.8449 80.8917 63.7359 80.9462 63.7087 81.0416L63.3681 82.2677C63.3545 82.363 63.409 82.4584 63.5043 82.4856Z" fill="white"/>
<path d="M63.286 78.9845C63.395 79.0254 63.4358 79.148 63.395 79.2434L62.3051 81.8726C62.2643 81.968 62.1417 82.0225 62.0463 81.968C61.9509 81.9135 61.8964 81.8045 61.9373 81.7091L63.0272 79.0799C63.068 78.9845 63.1906 78.93 63.286 78.9845Z" fill="#F3F3F3"/>
<path d="M63.2867 78.9711C63.3957 79.012 63.4502 79.1346 63.4093 79.2435L62.3195 81.8728C62.2786 81.9818 62.156 82.0226 62.0334 81.9818C61.9244 81.9409 61.8699 81.8183 61.9108 81.7093L63.0006 79.0801C63.0551 78.9711 63.1777 78.9166 63.2867 78.9711ZM62.047 81.9545C62.1424 81.9954 62.2514 81.9545 62.2922 81.8592L63.3821 79.2299C63.4229 79.1346 63.3685 79.0392 63.2731 78.9983C63.1777 78.9575 63.0687 78.9983 63.0279 79.0937L61.938 81.7229C61.9108 81.8047 61.9517 81.9137 62.047 81.9545Z" fill="white"/>
<path d="M61.4473 79.8564C61.5427 79.9109 61.5836 80.0199 61.5427 80.1153L60.9705 81.246C60.916 81.3413 60.807 81.3822 60.6981 81.3277C60.6027 81.2732 60.5618 81.1643 60.6027 81.0689L61.1749 79.9382C61.2294 79.8428 61.3383 79.8019 61.4473 79.8564Z" fill="#F3F3F3"/>
<path d="M61.4475 79.8434C61.5565 79.8979 61.5973 80.0205 61.5428 80.1295L60.9707 81.2602C60.9162 81.3691 60.7936 81.41 60.6846 81.3555C60.5756 81.301 60.5347 81.1784 60.5892 81.0694L61.1614 79.9387C61.2159 79.8297 61.3385 79.7889 61.4475 79.8434ZM60.6982 81.3283C60.7936 81.3691 60.9025 81.3419 60.9434 81.2465L61.5156 80.1158C61.5565 80.0341 61.5156 79.9251 61.4338 79.8706C61.3385 79.8297 61.2295 79.857 61.1886 79.9524L60.6165 81.0831C60.5756 81.1648 60.6165 81.2738 60.6982 81.3283Z" fill="white"/>
<path d="M61.1745 77.8406C61.2699 77.9087 61.2971 78.0313 61.229 78.113L59.6487 80.4698C59.5942 80.5652 59.4716 80.5788 59.3763 80.5243C59.2809 80.4562 59.2537 80.3336 59.3218 80.2519L60.902 77.8951C60.9565 77.7997 61.0791 77.7725 61.1745 77.8406Z" fill="#F3F3F3"/>
<path d="M61.1751 77.8269C61.2704 77.895 61.2977 78.0312 61.2432 78.1266L59.6629 80.4834C59.5948 80.5788 59.4722 80.606 59.3632 80.5379C59.2679 80.4698 59.2406 80.3335 59.2951 80.2382L60.8754 77.8814C60.9435 77.786 61.0797 77.7588 61.1751 77.8269ZM59.3768 80.5106C59.4586 80.5651 59.5812 80.5515 59.6357 80.4698L61.216 78.113C61.2704 78.0312 61.2432 77.9223 61.1615 77.8678C61.0797 77.8133 60.9571 77.8269 60.9026 77.9086L59.3224 80.2518C59.2679 80.3335 59.2951 80.4561 59.3768 80.5106Z" fill="white"/>
<path d="M59.1857 78.3444C59.2674 78.4125 59.2947 78.5351 59.2265 78.6169L58.4364 79.6113C58.3683 79.6931 58.2457 79.7067 58.1639 79.6386C58.0822 79.5705 58.055 79.4479 58.1231 79.3661L58.9132 78.3716C58.9813 78.2899 59.1039 78.2763 59.1857 78.3444Z" fill="#F3F3F3"/>
<path d="M59.1993 78.331C59.2947 78.3991 59.3083 78.5354 59.2402 78.6307L58.45 79.6252C58.3819 79.7206 58.2457 79.7342 58.1503 79.6525C58.055 79.5843 58.0414 79.4481 58.1095 79.3527L58.8996 78.3583C58.9677 78.2629 59.1039 78.2493 59.1993 78.331ZM58.1776 79.6252C58.2593 79.6933 58.3683 79.6797 58.4364 79.598L59.2266 78.6035C59.281 78.5217 59.2674 78.4128 59.1857 78.3446C59.1039 78.2765 58.995 78.2901 58.9268 78.3719L58.1367 79.3664C58.0822 79.4481 58.0958 79.5707 58.1776 79.6252Z" fill="white"/>
<path d="M59.3223 76.301C59.404 76.3828 59.404 76.5054 59.3223 76.5735L57.3061 78.5761C57.2243 78.6578 57.1017 78.6442 57.0336 78.5761C56.9655 78.508 56.9519 78.3718 57.0336 78.3036L59.0362 76.301C59.1179 76.2193 59.2405 76.2193 59.3223 76.301Z" fill="#F3F3F3"/>
<path d="M59.336 76.2874C59.4177 76.3691 59.4177 76.5053 59.336 76.5871L57.3198 78.5897C57.238 78.6714 57.1018 78.6714 57.02 78.5897C56.9383 78.5079 56.9383 78.3717 57.02 78.29L59.0363 76.2874C59.118 76.2056 59.2542 76.2056 59.336 76.2874ZM57.0337 78.5761C57.1018 78.6442 57.2244 78.6442 57.2925 78.5761L59.3087 76.5735C59.3768 76.5053 59.3768 76.3827 59.3087 76.3146C59.2406 76.2465 59.118 76.2465 59.0499 76.3146L57.0337 78.3172C56.9656 78.3853 56.9656 78.4943 57.0337 78.5761Z" fill="white"/>
<path d="M57.2782 76.4097C57.3463 76.4915 57.3463 76.6141 57.2645 76.6822L56.2973 77.4996C56.2156 77.5677 56.093 77.5541 56.0248 77.4723C55.9567 77.3906 55.9567 77.268 56.0385 77.1999L57.0057 76.3825C57.0874 76.3144 57.21 76.328 57.2782 76.4097Z" fill="#F3F3F3"/>
<path d="M57.2923 76.3963C57.374 76.4917 57.3604 76.6279 57.2786 76.6961L56.3114 77.5134C56.2297 77.5952 56.0934 77.5816 56.0117 77.4862C55.93 77.3908 55.9436 77.2546 56.0253 77.1865L56.9926 76.3691C57.0743 76.2874 57.2105 76.301 57.2923 76.3963ZM56.0389 77.4726C56.1071 77.5543 56.216 77.5543 56.2978 77.4998L57.265 76.6824C57.3331 76.6143 57.3468 76.5053 57.2786 76.4236C57.2105 76.3419 57.1015 76.3419 57.0198 76.3963L56.0526 77.2137C55.9708 77.2818 55.9708 77.3908 56.0389 77.4726Z" fill="white"/>
<path d="M57.8238 74.4481C57.8919 74.5434 57.8647 74.666 57.7693 74.7205L55.3989 76.3008C55.3036 76.3553 55.181 76.3281 55.1265 76.2463C55.0583 76.151 55.0856 76.0284 55.181 75.9739L57.5514 74.3936C57.6331 74.3391 57.7557 74.3663 57.8238 74.4481Z" fill="#F3F3F3"/>
<path d="M57.8374 74.448C57.9055 74.5434 57.8783 74.6796 57.7829 74.7477L55.4125 76.328C55.3171 76.3961 55.1809 76.3689 55.1128 76.2599C55.0447 76.1645 55.0719 76.0283 55.1673 75.9602L57.5377 74.3799C57.6331 74.3118 57.7693 74.339 57.8374 74.448ZM55.14 76.2326C55.1945 76.3144 55.3035 76.3416 55.3852 76.2871L57.7557 74.7069C57.8374 74.6524 57.8646 74.5434 57.7965 74.448C57.742 74.3663 57.6331 74.339 57.5513 74.3935L55.1809 75.9738C55.0992 76.0419 55.0855 76.1509 55.14 76.2326Z" fill="white"/>
<path d="M55.7936 74.1623C55.8481 74.2577 55.8208 74.3803 55.7255 74.4348L54.622 75.0614C54.5266 75.1159 54.404 75.075 54.3496 74.9797C54.2951 74.8843 54.3223 74.7617 54.4177 74.7072L55.5211 74.0806C55.6165 74.0261 55.7391 74.0669 55.7936 74.1623Z" fill="#F3F3F3"/>
<path d="M55.8072 74.1486C55.8617 74.2576 55.8345 74.3802 55.7391 74.4347L54.6356 75.0614C54.5403 75.1159 54.404 75.075 54.3496 74.9796C54.2951 74.8706 54.3223 74.748 54.4177 74.6935L55.5211 74.0669C55.6165 74.0124 55.7527 74.0533 55.8072 74.1486ZM54.3632 74.966C54.4177 75.0614 54.5266 75.0886 54.6084 75.0341L55.7119 74.4075C55.7936 74.353 55.8208 74.244 55.78 74.1622C55.7255 74.0669 55.6165 74.0396 55.5348 74.0941L54.4313 74.7208C54.3496 74.7617 54.3223 74.8706 54.3632 74.966Z" fill="white"/>
<path d="M56.7067 72.3501C56.7476 72.4591 56.7067 72.5681 56.5977 72.609L53.9685 73.6988C53.8731 73.7397 53.7505 73.6852 53.7096 73.5898C53.6688 73.4808 53.7096 73.3718 53.8186 73.331L56.4479 72.2411C56.5432 72.2003 56.6658 72.2411 56.7067 72.3501Z" fill="#F3F3F3"/>
<path d="M56.7203 72.3364C56.7612 72.4454 56.7203 72.568 56.6113 72.6225L53.9821 73.7123C53.8731 73.7532 53.7505 73.6987 53.7096 73.5897C53.6688 73.4807 53.7096 73.3581 53.8186 73.3036L56.4479 72.2138C56.5569 72.1729 56.6795 72.2274 56.7203 72.3364ZM53.7369 73.5761C53.7778 73.6714 53.8867 73.7123 53.9685 73.6851L56.5977 72.5952C56.6931 72.5543 56.734 72.4454 56.6931 72.35C56.6522 72.2546 56.5432 72.2138 56.4615 72.241L53.8322 73.3309C53.7369 73.3717 53.696 73.4807 53.7369 73.5761Z" fill="white"/>
<path d="M54.786 71.6694C54.8269 71.7784 54.7724 71.8873 54.6634 71.9282L53.4646 72.3233C53.3692 72.3642 53.2466 72.296 53.2194 72.2007C53.1785 72.0917 53.233 71.9827 53.342 71.9418L54.5408 71.5468C54.6362 71.5059 54.7452 71.5604 54.786 71.6694Z" fill="#F3F3F3"/>
<path d="M54.7992 71.6554C54.84 71.7644 54.7855 71.887 54.6629 71.9278L53.4641 72.3229C53.3551 72.3638 53.2325 72.2957 53.1916 72.1867C53.1508 72.0777 53.2053 71.9551 53.3279 71.9142L54.5267 71.5192C54.6357 71.4919 54.7583 71.5464 54.7992 71.6554ZM53.2189 72.1731C53.2461 72.2684 53.3551 72.3229 53.4505 72.2957L54.6493 71.9006C54.7447 71.8734 54.7855 71.7644 54.7583 71.669C54.731 71.5736 54.6221 71.5192 54.5267 71.5464L53.3279 71.9415C53.2325 71.9823 53.1916 72.0777 53.2189 72.1731Z" fill="white"/>
<path d="M56.012 70.048C56.0392 70.157 55.9711 70.266 55.8621 70.2796L53.0694 70.8245C52.9604 70.8518 52.865 70.77 52.8378 70.6611C52.8105 70.5521 52.8787 70.4431 52.9876 70.4295L55.7804 69.8845C55.8894 69.8709 55.9983 69.939 56.012 70.048Z" fill="#F3F3F3"/>
<path d="M56.0385 70.0481C56.0657 70.1707 55.984 70.2797 55.875 70.3069L53.0823 70.8518C52.9733 70.8791 52.8643 70.7973 52.8371 70.6747C52.8098 70.5521 52.8916 70.4431 53.0005 70.4159L55.7933 69.871C55.9023 69.8437 56.0112 69.9255 56.0385 70.0481ZM52.8643 70.6611C52.8779 70.7565 52.9733 70.8246 53.0687 70.811L55.8614 70.266C55.9567 70.2524 56.0249 70.1434 55.9976 70.0481C55.984 69.9527 55.8886 69.8846 55.7933 69.8982L53.0005 70.4431C52.9052 70.4704 52.8371 70.5657 52.8643 70.6611Z" fill="white"/>
<path d="M54.2678 68.9989C54.2815 69.1079 54.2133 69.2032 54.1044 69.2169L52.851 69.3667C52.7421 69.3803 52.6467 69.2986 52.6331 69.1896C52.6195 69.0806 52.6876 68.9853 52.7966 68.9717L54.0499 68.8218C54.1452 68.8082 54.2542 68.8899 54.2678 68.9989Z" fill="#F3F3F3"/>
<path d="M54.2814 68.9988C54.295 69.1215 54.2133 69.2304 54.1043 69.2441L52.851 69.3939C52.742 69.4075 52.633 69.3258 52.6194 69.2032C52.6058 69.0806 52.6875 68.9716 52.7965 68.958L54.0498 68.8081C54.1588 68.7945 54.2678 68.8762 54.2814 68.9988ZM52.633 69.1896C52.6467 69.2849 52.742 69.3667 52.8374 69.353L54.0907 69.2032C54.1861 69.1896 54.2542 69.0942 54.2405 68.9988C54.2269 68.9035 54.1316 68.8217 54.0362 68.8354L52.7829 68.9852C52.6875 68.9988 52.6194 69.0942 52.633 69.1896Z" fill="white"/>
<path d="M55.7936 67.6775C55.7936 67.7865 55.7119 67.8818 55.6029 67.8818H52.7557C52.6467 67.8818 52.5649 67.7865 52.5649 67.6775C52.5649 67.5685 52.6467 67.4731 52.7557 67.4731H55.6029C55.7119 67.4731 55.7936 67.5685 55.7936 67.6775Z" fill="#F3F3F3"/>
<path d="M55.8072 67.6774C55.8072 67.8 55.7118 67.8954 55.6028 67.8954H52.7556C52.6466 67.8954 52.5513 67.8 52.5513 67.6774C52.5513 67.5548 52.6466 67.4595 52.7556 67.4595H55.6028C55.7118 67.4595 55.8072 67.5548 55.8072 67.6774ZM52.5785 67.6638C52.5785 67.7592 52.6603 67.8545 52.7556 67.8545H55.6028C55.6982 67.8545 55.7799 67.7728 55.7799 67.6638C55.7799 67.5685 55.6982 67.4731 55.6028 67.4731H52.7556C52.6603 67.4867 52.5785 67.5685 52.5785 67.6638Z" fill="white"/>
<path d="M54.2815 66.3016C54.2678 66.4106 54.1861 66.4923 54.0771 66.4923L52.8102 66.397C52.7012 66.3833 52.6195 66.288 52.6331 66.179C52.6467 66.07 52.7284 65.9883 52.8374 65.9883L54.1044 66.0836C54.1997 66.0973 54.2815 66.1926 54.2815 66.3016Z" fill="#E2E2E2"/>
<path d="M54.2949 66.3016C54.2812 66.4242 54.1859 66.5059 54.0769 66.5059L52.8099 66.4105C52.701 66.3969 52.6056 66.3016 52.6192 66.179C52.6328 66.0563 52.7282 65.9746 52.8372 65.9746L54.1041 66.07C54.2131 66.0836 54.2949 66.1926 54.2949 66.3016ZM52.6328 66.179C52.6192 66.2743 52.701 66.3697 52.7963 66.3697L54.0633 66.465C54.1586 66.465 54.2404 66.3969 54.254 66.2879C54.2676 66.1926 54.1859 66.0972 54.0905 66.0972L52.8236 66.0019C52.7282 66.0019 52.6465 66.0836 52.6328 66.179Z" fill="white"/>
<path d="M56.0393 65.3074C56.0121 65.4164 55.9167 65.4845 55.8077 65.4709L53.015 64.8987C52.906 64.8715 52.8379 64.7761 52.8651 64.6672C52.8924 64.5582 52.9877 64.4901 53.0967 64.5037L55.8895 65.0622C55.9848 65.0895 56.0529 65.1985 56.0393 65.3074Z" fill="#F3F3F3"/>
<path d="M56.0522 65.3074C56.0249 65.43 55.9159 65.4981 55.8069 65.4845L53.0142 64.9259C52.9052 64.8987 52.8235 64.7897 52.8507 64.6671C52.878 64.5445 52.987 64.4764 53.096 64.49L55.8887 65.0485C55.9977 65.0758 56.0658 65.1848 56.0522 65.3074ZM52.878 64.6671C52.8644 64.7625 52.9189 64.8578 53.0142 64.8851L55.8069 65.4436C55.9023 65.4572 55.9977 65.4027 56.0249 65.2938C56.0385 65.1984 55.984 65.103 55.8887 65.0758L53.096 64.5172C52.987 64.5036 52.9052 64.5717 52.878 64.6671Z" fill="white"/>
<path d="M54.8125 63.6724C54.7852 63.7813 54.6762 63.8495 54.5672 63.8222L53.3412 63.4816C53.2322 63.4544 53.1777 63.3454 53.2049 63.2364C53.2322 63.1274 53.3412 63.0593 53.4502 63.0866L54.6762 63.4272C54.7852 63.4544 54.8397 63.5634 54.8125 63.6724Z" fill="#F3F3F3"/>
<path d="M54.8261 63.6726C54.7988 63.7816 54.6762 63.8633 54.5672 63.8225L53.3412 63.4819C53.2322 63.4547 53.1641 63.332 53.1913 63.2231C53.2186 63.1141 53.3412 63.0323 53.4501 63.0732L54.6762 63.4138C54.7852 63.441 54.8533 63.55 54.8261 63.6726ZM53.2322 63.2231C53.2049 63.3184 53.2594 63.4274 53.3548 63.4547L54.5809 63.7952C54.6762 63.8225 54.7716 63.768 54.7988 63.659C54.8261 63.5636 54.7716 63.4547 54.6762 63.4274L53.4501 63.0868C53.3548 63.0732 53.2594 63.1277 53.2322 63.2231Z" fill="white"/>
<path d="M56.7332 63.0185C56.6923 63.1275 56.5697 63.1684 56.4744 63.1275L53.8451 62.0377C53.7498 61.9968 53.6953 61.8742 53.7361 61.7788C53.777 61.6698 53.8996 61.629 53.995 61.6698L56.6242 62.7597C56.7332 62.8006 56.7741 62.9232 56.7332 63.0185Z" fill="#F3F3F3"/>
<path d="M56.7477 63.0321C56.7068 63.1411 56.5842 63.1956 56.4752 63.1547L53.846 62.0648C53.737 62.024 53.6961 61.9014 53.737 61.7788C53.7779 61.6698 53.9005 61.6153 54.0094 61.6561L56.6387 62.746C56.7477 62.8005 56.7885 62.9231 56.7477 63.0321ZM53.7642 61.7924C53.7234 61.8877 53.7642 61.9967 53.8596 62.0376L56.4888 63.1274C56.5842 63.1683 56.6796 63.1138 56.7204 63.0185C56.7613 62.9231 56.7204 62.8141 56.6251 62.7732L53.9958 61.6834C53.9005 61.6561 53.7915 61.697 53.7642 61.7924Z" fill="white"/>
<path d="M55.8482 61.1793C55.7937 61.2746 55.6848 61.3155 55.5894 61.2746L54.4587 60.7025C54.3633 60.6616 54.3225 60.539 54.3769 60.43C54.4314 60.3346 54.5404 60.2938 54.6358 60.3346L55.7665 60.9068C55.8619 60.9613 55.9027 61.0839 55.8482 61.1793Z" fill="#F3F3F3"/>
<path d="M55.8621 61.1928C55.8076 61.3018 55.685 61.3427 55.576 61.2882L54.4453 60.716C54.3363 60.6615 54.2955 60.5389 54.35 60.4299C54.4045 60.321 54.5271 60.2801 54.636 60.3346L55.7668 60.9067C55.8757 60.9476 55.9166 61.0838 55.8621 61.1928ZM54.3908 60.4436C54.35 60.5389 54.3772 60.6479 54.4726 60.6888L55.6033 61.2609C55.685 61.3018 55.794 61.2609 55.8485 61.1792C55.8894 61.0838 55.8621 60.9749 55.7668 60.934L54.6224 60.3618C54.5407 60.321 54.4317 60.3482 54.3908 60.4436Z" fill="white"/>
<path d="M57.8511 60.9209C57.783 61.0163 57.674 61.0435 57.5786 60.9754L55.2219 59.4087C55.1265 59.3542 55.1129 59.2316 55.1674 59.1363C55.2219 59.0409 55.3445 59.0137 55.4398 59.0818L57.8102 60.6621C57.892 60.7165 57.9192 60.8392 57.8511 60.9209Z" fill="#F3F3F3"/>
<path d="M57.8648 60.9341C57.7967 61.0295 57.6604 61.0567 57.5651 61.0022L55.2083 59.422C55.1129 59.3538 55.0857 59.2312 55.1538 59.1223C55.2219 59.0269 55.3582 58.9996 55.4535 59.0541L57.8103 60.6344C57.9193 60.7025 57.9329 60.8388 57.8648 60.9341ZM55.1811 59.1359C55.1266 59.2176 55.1402 59.3402 55.2219 59.3947L57.5923 60.975C57.6741 61.0295 57.7831 61.0022 57.8375 60.9205C57.892 60.8388 57.8784 60.7162 57.7967 60.6617L55.4263 59.0814C55.3445 59.0269 55.2355 59.0541 55.1811 59.1359Z" fill="white"/>
<path d="M57.3463 58.945C57.2782 59.0267 57.1556 59.054 57.0739 58.9859L56.0794 58.2094C55.9977 58.1412 55.984 58.0186 56.0522 57.9369C56.1203 57.8552 56.2429 57.8279 56.3246 57.896L57.3191 58.6725C57.4008 58.7407 57.4145 58.8633 57.3463 58.945Z" fill="#F3F3F3"/>
<path d="M57.3608 58.9586C57.2927 59.054 57.1564 59.0676 57.0611 58.9995L56.0666 58.223C55.9712 58.1549 55.9576 58.0186 56.0257 57.9233C56.0938 57.8279 56.2301 57.8143 56.3254 57.8824L57.3199 58.6589C57.4153 58.727 57.4289 58.8633 57.3608 58.9586ZM56.053 57.9369C55.9849 58.0186 55.9985 58.1276 56.0802 58.1957L57.0747 58.9723C57.1564 59.0268 57.2654 59.0131 57.3335 58.9314C57.4017 58.8497 57.388 58.7407 57.3063 58.6726L56.3118 57.896C56.2301 57.8415 56.1211 57.8552 56.053 57.9369Z" fill="white"/>
<path d="M59.3769 59.0815C59.2952 59.1632 59.1726 59.1632 59.1045 59.0815L57.0746 57.0789C56.9929 56.9971 57.0065 56.8745 57.0746 56.8064C57.1564 56.7247 57.279 56.7247 57.3471 56.8064L59.3633 58.809C59.445 58.8771 59.445 59.0134 59.3769 59.0815Z" fill="#F3F3F3"/>
<path d="M59.377 59.095C59.2952 59.1768 59.159 59.1768 59.0773 59.095L57.0611 57.0925C56.9793 57.0107 56.9793 56.8745 57.0611 56.7927C57.1428 56.711 57.279 56.711 57.3608 56.7927L59.377 58.7953C59.4723 58.8771 59.4723 59.0133 59.377 59.095ZM57.0883 56.82C57.0202 56.8881 57.0202 57.0107 57.0883 57.0788L59.1045 59.0814C59.1726 59.1495 59.2952 59.1495 59.3634 59.0814C59.4315 59.0133 59.4315 58.8907 59.3634 58.8226L57.3471 56.8064C57.279 56.7383 57.17 56.7383 57.0883 56.82Z" fill="white"/>
<path d="M59.2543 57.0519C59.1725 57.12 59.0499 57.12 58.9818 57.0383L58.1508 56.0847C58.0827 56.0029 58.0963 55.8803 58.178 55.8122C58.2598 55.7441 58.3824 55.7441 58.4505 55.8258L59.2815 56.7794C59.3496 56.8475 59.336 56.9702 59.2543 57.0519Z" fill="#F3F3F3"/>
<path d="M59.2671 57.0514C59.1718 57.1331 59.0492 57.1195 58.9674 57.0377L58.1364 56.0841C58.0547 56.0024 58.0683 55.8661 58.1637 55.7844C58.259 55.7027 58.3816 55.7163 58.4634 55.798L59.2944 56.7516C59.3625 56.847 59.3625 56.9832 59.2671 57.0514ZM58.1773 55.8117C58.0956 55.8798 58.0956 55.9888 58.1501 56.0705L58.9811 57.0241C59.0492 57.0922 59.1582 57.1058 59.2399 57.0377C59.3216 56.9696 59.3216 56.8606 59.2671 56.7789L58.4361 55.8253C58.368 55.7435 58.259 55.7435 58.1773 55.8117Z" fill="white"/>
<path d="M61.2155 57.5692C61.1201 57.6373 60.9975 57.6101 60.943 57.5147L59.3492 55.158C59.2947 55.0626 59.3219 54.94 59.4036 54.8855C59.499 54.8174 59.6216 54.8446 59.6761 54.94L61.2564 57.2968C61.3245 57.3921 61.2972 57.5147 61.2155 57.5692Z" fill="#F3F3F3"/>
<path d="M61.2157 57.5828C61.1203 57.6509 60.9841 57.6237 60.916 57.5283L59.3357 55.1715C59.2676 55.0762 59.2949 54.9399 59.4038 54.8718C59.4992 54.8037 59.6354 54.831 59.7035 54.9263L61.2838 57.2831C61.3519 57.3921 61.3247 57.5147 61.2157 57.5828ZM59.4175 54.8991C59.3357 54.9536 59.3085 55.0625 59.363 55.1443L60.9432 57.5011C60.9977 57.5828 61.1067 57.5964 61.2021 57.5419C61.2838 57.4874 61.3111 57.3785 61.2566 57.2967L59.6763 54.9536C59.6218 54.8718 59.4992 54.8446 59.4175 54.8991Z" fill="white"/>
<path d="M61.5014 55.5529C61.406 55.6074 61.2834 55.5801 61.2289 55.4848L60.6023 54.3813C60.5478 54.2859 60.5887 54.1633 60.684 54.1088C60.7794 54.0543 60.902 54.0816 60.9565 54.1769L61.5831 55.2804C61.624 55.3758 61.5968 55.4984 61.5014 55.5529Z" fill="#F3F3F3"/>
<path d="M61.5013 55.5665C61.3923 55.621 61.2697 55.5937 61.2152 55.4984L60.5885 54.3949C60.534 54.2996 60.5613 54.1633 60.6703 54.1088C60.7792 54.0543 60.9019 54.0816 60.9563 54.1769L61.583 55.2804C61.6375 55.3758 61.6103 55.4984 61.5013 55.5665ZM60.6839 54.1225C60.6021 54.1769 60.5613 54.2859 60.6158 54.3677L61.2424 55.4711C61.2969 55.5529 61.4059 55.5801 61.4876 55.5392C61.5694 55.4848 61.6103 55.3758 61.5558 55.294L60.9291 54.1906C60.8882 54.1088 60.7656 54.068 60.6839 54.1225Z" fill="white"/>
<path d="M63.3133 56.4524C63.2043 56.4932 63.0953 56.4524 63.0545 56.357L61.951 53.7277C61.9101 53.6324 61.9646 53.5098 62.06 53.4689C62.169 53.428 62.2779 53.4689 62.3188 53.5643L63.4223 56.1935C63.4631 56.2889 63.4087 56.4115 63.3133 56.4524Z" fill="#F3F3F3"/>
<path d="M63.314 56.4657C63.205 56.5066 63.0824 56.4657 63.0279 56.3567L61.9245 53.7275C61.8836 53.6185 61.9381 53.4959 62.0471 53.455C62.1561 53.4141 62.2787 53.455 62.3331 53.564L63.4366 56.1932C63.4775 56.2886 63.423 56.4112 63.314 56.4657ZM62.0743 53.4822C61.979 53.5231 61.9381 53.6321 61.979 53.7138L63.0824 56.3431C63.1233 56.4384 63.2323 56.4793 63.3276 56.4384C63.423 56.3976 63.4639 56.2886 63.423 56.2069L62.3195 53.5776C62.265 53.4822 62.1697 53.4414 62.0743 53.4822Z" fill="white"/>
<path d="M63.9812 54.5177C63.8722 54.5586 63.7632 54.5041 63.7224 54.3951L63.3273 53.1963C63.2864 53.1009 63.3545 52.9783 63.4499 52.951C63.5453 52.9238 63.6679 52.9647 63.7087 53.0737L64.1038 54.2725C64.1447 54.3678 64.0902 54.4768 63.9812 54.5177Z" fill="#F3F3F3"/>
<path d="M63.9947 54.5313C63.8857 54.5722 63.7631 54.5177 63.7222 54.4087L63.3272 53.2099C63.2863 53.1009 63.3544 52.9783 63.4634 52.9374C63.5724 52.8965 63.695 52.951 63.7359 53.06L64.1309 54.2588C64.1582 54.3678 64.1037 54.4904 63.9947 54.5313ZM63.4634 52.9646C63.368 52.9919 63.3136 53.1009 63.3408 53.1962L63.7359 54.3951C63.7631 54.4904 63.8721 54.5313 63.9675 54.504C64.0628 54.4768 64.1173 54.3678 64.0901 54.2725L63.695 53.0736C63.6677 52.9783 63.5588 52.9238 63.4634 52.9646Z" fill="white"/>
<path d="M65.5891 55.7573C65.4801 55.7846 65.3711 55.7165 65.3575 55.6075L64.7853 52.8147C64.7581 52.7058 64.8398 52.6104 64.9488 52.5832C65.0578 52.5559 65.1668 52.624 65.1804 52.733L65.7525 55.5257C65.7662 55.6211 65.6981 55.7301 65.5891 55.7573Z" fill="#F3F3F3"/>
<path d="M65.589 55.7711C65.4664 55.7984 65.3574 55.7167 65.3301 55.6077L64.758 52.8149C64.7307 52.706 64.8125 52.5834 64.9214 52.5697C65.0441 52.5425 65.153 52.6242 65.1803 52.7332L65.7524 55.5259C65.7797 55.6349 65.7116 55.7439 65.589 55.7711ZM64.9487 52.597C64.8533 52.6106 64.7852 52.706 64.7988 52.8149L65.371 55.6077C65.3846 55.703 65.4936 55.7711 65.589 55.7439C65.6843 55.7303 65.7524 55.6349 65.7388 55.5259L65.1667 52.7332C65.1394 52.6378 65.0441 52.5834 64.9487 52.597Z" fill="white"/>
<path d="M66.6241 53.9866C66.5151 54.0002 66.4197 53.9321 66.3925 53.8231L66.229 52.5698C66.2154 52.4608 66.2971 52.3654 66.4061 52.3518C66.5151 52.3382 66.6105 52.4063 66.6377 52.5153L66.8012 53.7686C66.8148 53.8776 66.7331 53.973 66.6241 53.9866Z" fill="#F3F3F3"/>
<path d="M66.624 53.9999C66.5014 54.0135 66.3924 53.9318 66.3788 53.8228L66.2153 52.5695C66.2017 52.4605 66.2835 52.3515 66.4061 52.3379C66.5287 52.3243 66.6377 52.406 66.6513 52.515L66.8148 53.7683C66.8284 53.8773 66.7466 53.9863 66.624 53.9999ZM66.4197 52.3652C66.3243 52.3788 66.2426 52.4741 66.2562 52.5695L66.4197 53.8228C66.4333 53.9182 66.5287 53.9863 66.624 53.9727C66.7194 53.9591 66.8011 53.8637 66.7875 53.7683L66.624 52.515C66.6104 52.4196 66.5151 52.3515 66.4197 52.3652Z" fill="white"/>
<path d="M68.0953 83.8346C77.0034 83.8346 84.225 76.6131 84.225 67.7049C84.225 58.7967 77.0034 51.5752 68.0953 51.5752C59.1871 51.5752 51.9656 58.7967 51.9656 67.7049C51.9656 76.6131 59.1871 83.8346 68.0953 83.8346Z" fill="url(#paint2_linear_2026_33186)" fill-opacity="0.2"/>
<g filter="url(#filter0_d_2026_33186)">
<path d="M79.266 57.4741L66.256 65.8114H66.2423V65.825L66.2287 65.8387L58.1094 79.2301L70.0432 69.6259L70.0568 69.6123V69.5986L79.266 57.4741Z" fill="black" fill-opacity="0.05"/>
</g>
<path d="M79.0213 56.6978L66.1611 65.8388L69.9756 69.626L79.0213 56.6978Z" fill="#CD151E"/>
<path d="M66.1748 65.8116L68.0957 67.7052L79.0213 56.6978L66.1748 65.8116Z" fill="#FA5153"/>
<path d="M66.1746 65.8115L69.9891 69.5987L57.1289 78.7398L66.1746 65.8115Z" fill="#ACACAC"/>
<path d="M57.1289 78.7398L68.0955 67.7051L66.1746 65.8115L57.1289 78.7398Z" fill="#EEEEEE"/>
<rect x="270.5" y="36.5" width="63" height="63" rx="31.5" stroke="var(--surface-800)"/>
<path d="M318.592 62.0795C317.834 60.2557 316.297 58.2852 315.091 57.6634C315.951 59.3269 316.547 61.1132 316.858 62.9588L316.861 62.9885C314.889 58.0693 311.544 56.087 308.811 51.7679C308.673 51.5501 308.534 51.3303 308.4 51.1006C308.322 50.9679 308.261 50.8491 308.207 50.7402C308.095 50.5203 308.007 50.2886 307.948 50.049C307.948 50.0252 307.93 50.0074 307.908 50.0034C307.898 50.0015 307.887 50.0015 307.875 50.0034C307.873 50.0034 307.869 50.0074 307.867 50.0094C307.865 50.0094 307.859 50.0154 307.855 50.0154L307.861 50.0035C303.478 52.5699 301.991 57.3208 301.855 59.6972C300.104 59.818 298.431 60.4616 297.052 61.5488C296.908 61.4261 296.759 61.3132 296.603 61.2082C296.205 59.8161 296.189 58.3446 296.553 56.9426C294.943 57.7228 293.513 58.8279 292.353 60.1883H292.345C291.654 59.311 291.701 56.4218 291.741 55.8177C291.537 55.9009 291.341 56.0039 291.159 56.1266C290.549 56.5623 289.979 57.0514 289.454 57.5881C288.856 58.1941 288.311 58.8476 287.822 59.5447V59.5467V59.5427C286.701 61.1329 285.905 62.9291 285.481 64.8302L285.458 64.9451C285.424 65.0995 285.307 65.8679 285.285 66.0342C285.285 66.0482 285.283 66.06 285.281 66.0719C285.131 66.866 285.036 67.67 285 68.478V68.5671C285.008 78.2034 292.828 86.0099 302.465 86C310.952 85.9921 318.202 79.8807 319.644 71.5158C319.674 71.2901 319.697 71.0683 319.723 70.8405C320.084 67.8739 319.693 64.8598 318.592 62.0795ZM298.482 75.7359C298.563 75.7754 298.641 75.8171 298.724 75.8547L298.736 75.8626C298.65 75.823 298.565 75.7814 298.482 75.7359ZM316.864 62.9924V62.9766L316.867 62.9944L316.864 62.9924Z" fill="url(#paint3_linear_2026_33186)"/>
<path d="M318.592 62.0797C317.834 60.2558 316.297 58.2854 315.091 57.6636C315.951 59.3271 316.547 61.1133 316.858 62.959V62.9748L316.862 62.9926C318.206 66.8405 318.012 71.0605 316.319 74.7697C314.319 79.061 309.479 83.4594 301.902 83.2455C293.716 83.0138 286.505 76.9381 285.156 68.9811C284.911 67.7256 285.156 67.0899 285.279 66.07C285.113 66.8622 285.018 67.6682 285 68.4781V68.5672C285.008 78.2036 292.828 86.01 302.465 86.0001C310.952 85.9922 318.202 79.8809 319.644 71.5159C319.674 71.2902 319.697 71.0684 319.723 70.8407C320.084 67.8741 319.694 64.86 318.592 62.0797Z" fill="url(#paint4_radial_2026_33186)"/>
<path d="M318.592 62.0797C317.834 60.2558 316.297 58.2854 315.091 57.6636C315.951 59.3271 316.547 61.1133 316.858 62.959V62.9748L316.862 62.9926C318.206 66.8405 318.012 71.0605 316.319 74.7697C314.319 79.061 309.479 83.4594 301.902 83.2455C293.716 83.0138 286.505 76.9381 285.156 68.9811C284.911 67.7256 285.156 67.0899 285.279 66.07C285.113 66.8622 285.018 67.6682 285 68.4781V68.5672C285.008 78.2036 292.828 86.01 302.465 86.0001C310.952 85.9922 318.202 79.8809 319.644 71.5159C319.674 71.2902 319.697 71.0684 319.723 70.8407C320.084 67.8741 319.694 64.86 318.592 62.0797Z" fill="url(#paint5_radial_2026_33186)"/>
<path d="M310.112 64.129C310.15 64.1548 310.186 64.1825 310.221 64.2082C309.784 63.432 309.237 62.7191 308.601 62.0953C303.177 56.6712 307.18 50.3361 307.855 50.0133L307.861 50.0034C303.478 52.5699 301.991 57.3207 301.854 59.6971C302.058 59.6833 302.26 59.6654 302.468 59.6654C305.633 59.6713 308.552 61.3764 310.112 64.129Z" fill="url(#paint6_radial_2026_33186)"/>
<path d="M302.478 65.2125C302.448 65.6462 300.916 67.1433 300.379 67.1433C295.418 67.1433 294.612 70.1456 294.612 70.1456C294.832 72.6724 296.593 74.7537 298.721 75.8548C298.819 75.9043 298.918 75.9498 299.017 75.9954C299.187 76.0707 299.357 76.142 299.53 76.2054C300.26 76.4647 301.025 76.6113 301.799 76.643C310.495 77.0509 312.18 66.2443 305.904 63.1074C307.385 62.9153 308.885 63.2797 310.11 64.1292C308.552 61.3766 305.633 59.6715 302.466 59.6655C302.258 59.6655 302.056 59.6834 301.852 59.6972C300.102 59.818 298.428 60.4616 297.05 61.5488C297.316 61.7745 297.617 62.0756 298.248 62.6974C299.434 63.8639 302.472 65.0719 302.478 65.2125Z" fill="url(#paint7_radial_2026_33186)"/>
<path d="M302.478 65.2125C302.448 65.6462 300.916 67.1433 300.379 67.1433C295.418 67.1433 294.612 70.1456 294.612 70.1456C294.832 72.6724 296.593 74.7537 298.721 75.8548C298.819 75.9043 298.918 75.9498 299.017 75.9954C299.187 76.0707 299.357 76.142 299.53 76.2054C300.26 76.4647 301.025 76.6113 301.799 76.643C310.495 77.0509 312.18 66.2443 305.904 63.1074C307.385 62.9153 308.885 63.2797 310.11 64.1292C308.552 61.3766 305.633 59.6715 302.466 59.6655C302.258 59.6655 302.056 59.6834 301.852 59.6972C300.102 59.818 298.428 60.4616 297.05 61.5488C297.316 61.7745 297.617 62.0756 298.248 62.6974C299.434 63.8639 302.472 65.0719 302.478 65.2125Z" fill="url(#paint8_radial_2026_33186)"/>
<path d="M296.239 60.9665C296.38 61.0555 296.496 61.1348 296.599 61.2061C296.201 59.8138 296.185 58.3425 296.55 56.9404C294.94 57.7207 293.51 58.8257 292.35 60.1862C292.437 60.1843 294.968 60.1387 296.239 60.9665Z" fill="url(#paint9_radial_2026_33186)"/>
<path d="M285.159 68.9811C286.505 76.938 293.716 83.0117 301.902 83.2454C309.479 83.4593 314.319 79.061 316.319 74.7696C318.012 71.0605 318.206 66.8423 316.862 62.9926V62.9767C316.862 62.9628 316.86 62.957 316.862 62.9609L316.866 62.9906C317.485 67.0324 315.43 70.9475 312.216 73.5953L312.206 73.617C305.944 78.7164 299.952 76.6945 298.74 75.8687C298.654 75.8291 298.571 75.7855 298.486 75.7419C294.836 73.9972 293.327 70.6703 293.65 67.8186C291.88 67.8444 290.26 66.8265 289.517 65.2184C291.466 64.0243 293.894 63.9273 295.932 64.961C297.997 65.8996 300.35 65.9908 302.482 65.2184C302.476 65.0759 299.439 63.8679 298.254 62.7015C297.623 62.0777 297.322 61.7786 297.056 61.5529C296.912 61.4301 296.763 61.3173 296.607 61.2122C296.504 61.1409 296.387 61.0657 296.246 60.9726C294.973 60.1448 292.442 60.1904 292.359 60.1924H292.351C291.66 59.3151 291.707 56.4258 291.747 55.8218C291.543 55.9049 291.347 56.0079 291.165 56.1307C290.555 56.5664 289.985 57.0555 289.46 57.5922C288.86 58.1961 288.313 58.8497 287.822 59.5448V59.5467V59.5428C286.701 61.133 285.905 62.9292 285.481 64.8303C285.473 64.866 284.854 67.5751 285.159 68.9811Z" fill="url(#paint10_radial_2026_33186)"/>
<path d="M308.602 62.0953C309.239 62.7211 309.784 63.4341 310.222 64.2103C310.317 64.2836 310.408 64.3549 310.483 64.4242C314.44 68.07 312.366 73.2248 312.212 73.5931C315.426 70.9454 317.479 67.0303 316.862 62.9885C314.887 58.0674 311.542 56.0851 308.81 51.766C308.671 51.5481 308.532 51.3283 308.398 51.0986C308.32 50.9659 308.259 50.8471 308.206 50.7382C308.093 50.5183 308.006 50.2867 307.946 50.0471C307.946 50.0232 307.928 50.0054 307.907 50.0015C307.897 49.9995 307.885 49.9995 307.873 50.0015C307.871 50.0015 307.867 50.0054 307.865 50.0074C307.863 50.0074 307.857 50.0134 307.853 50.0134C307.18 50.3361 303.178 56.6712 308.602 62.0953Z" fill="url(#paint11_radial_2026_33186)"/>
<path d="M310.481 64.4241C310.406 64.3549 310.315 64.2816 310.22 64.2103C310.184 64.1845 310.148 64.1568 310.111 64.131C308.883 63.2815 307.384 62.9171 305.904 63.1092C312.18 66.248 310.497 77.0527 301.799 76.6448C301.025 76.6131 300.26 76.4646 299.53 76.2071C299.359 76.1437 299.189 76.0724 299.017 75.9972C298.918 75.9517 298.819 75.9081 298.722 75.8566L298.734 75.8645C299.945 76.6923 305.936 78.7142 312.2 73.6129L312.21 73.5911C312.366 73.2248 314.438 68.0679 310.481 64.4241Z" fill="url(#paint12_radial_2026_33186)"/>
<path d="M294.613 70.1457C294.613 70.1457 295.419 67.1435 300.38 67.1435C300.916 67.1435 302.451 65.6463 302.479 65.2127C300.346 65.9849 297.993 65.8939 295.928 64.9552C293.89 63.9214 291.462 64.0185 289.514 65.2127C290.256 66.8207 291.876 67.8385 293.647 67.8128C293.324 70.6665 294.831 73.9915 298.483 75.7362C298.564 75.7757 298.641 75.8174 298.724 75.855C296.593 74.7539 294.833 72.6726 294.613 70.1457Z" fill="url(#paint13_radial_2026_33186)"/>
<path d="M318.592 62.0795C317.834 60.2557 316.297 58.2852 315.091 57.6634C315.951 59.3269 316.547 61.1132 316.858 62.9588L316.862 62.9885C314.889 58.0693 311.544 56.087 308.812 51.7679C308.673 51.5501 308.534 51.3303 308.4 51.1006C308.322 50.9679 308.261 50.8491 308.207 50.7402C308.095 50.5203 308.007 50.2886 307.948 50.049C307.948 50.0252 307.93 50.0074 307.908 50.0034C307.899 50.0015 307.887 50.0015 307.875 50.0034C307.873 50.0034 307.869 50.0074 307.867 50.0094C307.865 50.0094 307.859 50.0154 307.855 50.0154L307.861 50.0035C303.478 52.5699 301.991 57.3208 301.855 59.6972C302.059 59.6834 302.261 59.6655 302.468 59.6655C305.635 59.6715 308.552 61.3766 310.115 64.1292C308.887 63.2797 307.388 62.9153 305.908 63.1074C312.184 66.2462 310.501 77.051 301.803 76.643C301.029 76.6113 300.264 76.4628 299.534 76.2054C299.363 76.142 299.193 76.0707 299.021 75.9954C298.922 75.9498 298.823 75.9063 298.726 75.8548L298.738 75.8628C298.652 75.8231 298.569 75.7796 298.484 75.736C298.565 75.7755 298.643 75.8172 298.726 75.8548C296.595 74.7537 294.836 72.6724 294.616 70.1456C294.616 70.1456 295.423 67.1433 300.383 67.1433C300.92 67.1433 302.455 65.6462 302.482 65.2125C302.476 65.0699 299.439 63.8619 298.254 62.6955C297.623 62.0717 297.322 61.7726 297.056 61.5469C296.912 61.4241 296.763 61.3113 296.607 61.2063C296.209 59.8141 296.193 58.3427 296.557 56.9406C294.947 57.7209 293.517 58.8259 292.357 60.1864H292.349C291.658 59.3091 291.705 56.4199 291.745 55.8158C291.541 55.899 291.345 56.0019 291.163 56.1247C290.553 56.5604 289.982 57.0495 289.458 57.5862C288.86 58.1922 288.315 58.8456 287.826 59.5428V59.5448V59.5408C286.705 61.131 285.909 62.9271 285.485 64.8283L285.461 64.9431C285.428 65.0976 285.281 65.8759 285.259 66.0442C285.259 66.0303 285.259 66.056 285.259 66.0442C285.123 66.8501 285.038 67.6621 285 68.478V68.5671C285.008 78.2034 292.828 86.0099 302.465 86C310.952 85.9921 318.202 79.8807 319.644 71.5158C319.674 71.2901 319.697 71.0683 319.723 70.8405C320.084 67.8739 319.693 64.8598 318.592 62.0795Z" fill="url(#paint14_linear_2026_33186)"/>
<rect x="36.5" y="142.5" width="63" height="63" rx="31.5" stroke="var(--surface-800)"/>
<g clip-path="url(#clip0_2026_33186)">
<path d="M67.8856 156.003C67.8856 156.003 78.4586 155.528 84.062 166.153H66.9861C66.9861 166.153 63.7611 166.047 61.0125 169.96C60.22 171.599 59.374 173.291 60.3253 176.621C58.951 174.295 53.03 163.986 53.03 163.986C53.03 163.986 57.2072 156.426 67.8856 156.003Z" fill="#E6322A"/>
<path d="M83.5118 182.982C83.5118 182.982 78.636 192.375 66.6318 191.913C68.1131 189.35 75.1714 177.127 75.1714 177.127C75.1714 177.127 76.8757 174.387 74.8636 170.05C73.8407 168.544 72.7989 166.965 69.4389 166.124C72.1414 166.097 84.0286 166.126 84.0286 166.126C84.0286 166.126 88.4865 173.523 83.5118 182.982Z" fill="#FEDA00"/>
<path d="M52.3345 183.053C52.3345 183.053 46.6382 174.133 53.0406 163.968C54.5202 166.533 61.5752 178.758 61.5752 178.758C61.5752 178.758 63.0952 181.604 67.8575 182.03C69.6729 181.897 71.5615 181.785 73.9703 179.296C72.642 181.649 66.6733 191.93 66.6733 191.93C66.6733 191.93 58.0383 192.091 52.3345 183.053Z" fill="#65B54C"/>
<path d="M66.6318 192L69.034 181.978C69.034 181.978 71.6748 181.772 73.8876 179.343C72.5142 181.759 66.6318 192 66.6318 192Z" fill="#60AC48"/>
<path d="M59.8418 174.112C59.8418 169.694 63.4232 166.112 67.8415 166.112C72.2598 166.112 75.8413 169.694 75.8413 174.112C75.8413 178.53 72.2598 182.113 67.8415 182.113C63.4232 182.113 59.8418 178.531 59.8418 174.112Z" fill="white"/>
<path d="M61.1807 174.112C61.1807 170.433 64.163 167.451 67.8423 167.451C71.5216 167.451 74.5031 170.433 74.5031 174.112C74.5031 177.79 71.5208 180.773 67.8423 180.773C64.1638 180.773 61.1807 177.79 61.1807 174.112Z" fill="url(#paint15_linear_2026_33186)"/>
<path d="M84.0282 166.125L74.1382 169.025C74.1382 169.025 72.647 166.836 69.4392 166.124C72.2183 166.114 84.029 166.125 84.029 166.125H84.0282Z" fill="#F1CF00"/>
<path d="M60.134 176.261C58.744 173.854 53.0312 163.986 53.0312 163.986L60.3578 171.233C60.3578 171.233 59.6048 172.782 59.8904 174.994L60.134 176.261Z" fill="#DA3027"/>
</g>
<rect x="270.5" y="142.5" width="63" height="63" rx="31.5" stroke="var(--surface-800)"/>
<g clip-path="url(#clip1_2026_33186)">
<path d="M316.491 182.795C316.011 183.046 315.516 183.267 315.009 183.457C313.395 184.061 311.684 184.369 309.961 184.365C303.306 184.365 297.51 179.788 297.51 173.914C297.518 173.126 297.737 172.355 298.143 171.68C298.549 171.005 299.128 170.45 299.82 170.074C293.802 170.327 292.255 176.599 292.255 180.273C292.255 190.663 301.83 191.716 303.893 191.716C305.005 191.716 306.683 191.392 307.69 191.075L307.874 191.013C311.748 189.673 315.052 187.055 317.239 183.588C317.306 183.482 317.336 183.357 317.325 183.233C317.313 183.108 317.26 182.991 317.174 182.9C317.088 182.809 316.974 182.75 316.851 182.73C316.727 182.711 316.601 182.734 316.491 182.795Z" fill="url(#paint16_linear_2026_33186)"/>
<path opacity="0.35" d="M316.491 182.795C316.011 183.046 315.516 183.267 315.009 183.457C313.395 184.061 311.684 184.369 309.961 184.365C303.306 184.365 297.51 179.788 297.51 173.914C297.518 173.126 297.737 172.355 298.143 171.68C298.549 171.005 299.128 170.45 299.82 170.074C293.802 170.327 292.255 176.599 292.255 180.273C292.255 190.663 301.83 191.716 303.893 191.716C305.005 191.716 306.683 191.392 307.69 191.075L307.874 191.013C311.748 189.673 315.052 187.055 317.239 183.588C317.306 183.482 317.336 183.357 317.325 183.233C317.313 183.108 317.26 182.991 317.174 182.9C317.088 182.809 316.974 182.75 316.851 182.73C316.727 182.711 316.601 182.734 316.491 182.795Z" fill="url(#paint17_radial_2026_33186)"/>
<path d="M298.866 189.95C297.611 189.171 296.524 188.151 295.668 186.949C294.691 185.611 294.02 184.076 293.699 182.452C293.379 180.827 293.418 179.152 293.814 177.544C294.21 175.936 294.952 174.434 295.99 173.144C297.028 171.853 298.335 170.805 299.82 170.074C300.259 169.867 301.009 169.493 302.006 169.511C302.708 169.516 303.4 169.684 304.027 170.001C304.653 170.318 305.198 170.776 305.618 171.339C306.186 172.097 306.499 173.016 306.513 173.963C306.513 173.934 309.952 162.77 295.263 162.77C289.089 162.77 284.013 168.628 284.013 173.768C283.988 176.487 284.57 179.177 285.716 181.643C287.588 185.637 290.862 188.805 294.916 190.545C298.97 192.285 303.521 192.475 307.707 191.08C306.241 191.542 304.693 191.681 303.169 191.487C301.645 191.292 300.181 190.77 298.878 189.955L298.866 189.95Z" fill="url(#paint18_linear_2026_33186)"/>
<path opacity="0.41" d="M298.866 189.95C297.611 189.171 296.524 188.151 295.668 186.949C294.691 185.611 294.02 184.076 293.699 182.452C293.379 180.827 293.418 179.152 293.814 177.544C294.21 175.936 294.952 174.434 295.99 173.144C297.028 171.853 298.335 170.805 299.82 170.074C300.259 169.867 301.009 169.493 302.006 169.511C302.708 169.516 303.4 169.684 304.027 170.001C304.653 170.318 305.198 170.776 305.618 171.339C306.186 172.097 306.499 173.016 306.513 173.963C306.513 173.934 309.952 162.77 295.263 162.77C289.089 162.77 284.013 168.628 284.013 173.768C283.988 176.487 284.57 179.177 285.716 181.643C287.588 185.637 290.862 188.805 294.916 190.545C298.97 192.285 303.521 192.475 307.707 191.08C306.241 191.542 304.693 191.681 303.169 191.487C301.645 191.292 300.181 190.77 298.878 189.955L298.866 189.95Z" fill="url(#paint19_radial_2026_33186)"/>
<path d="M305.418 176.933C305.305 177.081 304.954 177.285 304.954 177.729C304.954 178.096 305.193 178.449 305.618 178.746C307.64 180.152 311.453 179.967 311.463 179.967C312.961 179.963 314.431 179.558 315.719 178.792C317.019 178.034 318.098 176.948 318.848 175.644C319.599 174.339 319.995 172.861 319.998 171.356C320.035 168.205 318.873 166.11 318.404 165.181C315.424 159.352 308.992 156 301.997 156C297.267 156 292.726 157.861 289.358 161.182C285.989 164.503 284.064 169.017 283.997 173.747C284.065 168.608 289.172 164.459 295.247 164.459C295.739 164.459 298.546 164.506 301.153 165.875C303.451 167.081 304.655 168.538 305.492 169.982C306.361 171.483 306.515 173.378 306.515 174.134C306.515 174.889 306.13 176.008 305.418 176.933Z" fill="url(#paint20_radial_2026_33186)"/>
<path d="M305.418 176.933C305.305 177.081 304.954 177.285 304.954 177.729C304.954 178.096 305.193 178.449 305.618 178.746C307.64 180.152 311.453 179.967 311.463 179.967C312.961 179.963 314.431 179.558 315.719 178.792C317.019 178.034 318.098 176.948 318.848 175.644C319.599 174.339 319.995 172.861 319.998 171.356C320.035 168.205 318.873 166.11 318.404 165.181C315.424 159.352 308.992 156 301.997 156C297.267 156 292.726 157.861 289.358 161.182C285.989 164.503 284.064 169.017 283.997 173.747C284.065 168.608 289.172 164.459 295.247 164.459C295.739 164.459 298.546 164.506 301.153 165.875C303.451 167.081 304.655 168.538 305.492 169.982C306.361 171.483 306.515 173.378 306.515 174.134C306.515 174.889 306.13 176.008 305.418 176.933Z" fill="url(#paint21_radial_2026_33186)"/>
</g>
<defs>
<filter id="filter0_d_2026_33186" x="54.1094" y="54.4741" width="29.1565" height="29.7559" filterUnits="userSpaceOnUse" color-interpolation-filters="sRGB">
<feFlood flood-opacity="0" result="BackgroundImageFix"/>
<feColorMatrix in="SourceAlpha" type="matrix" values="0 0 0 0 0 0 0 0 0 0 0 0 0 0 0 0 0 0 127 0" result="hardAlpha"/>
<feOffset dy="1"/>
<feGaussianBlur stdDeviation="2"/>
<feColorMatrix type="matrix" values="0 0 0 0 0 0 0 0 0 0 0 0 0 0 0 0 0 0 0.0509804 0"/>
<feBlend mode="normal" in2="BackgroundImageFix" result="effect1_dropShadow_2026_33186"/>
<feBlend mode="normal" in="SourceGraphic" in2="effect1_dropShadow_2026_33186" result="shape"/>
</filter>
<linearGradient id="paint0_linear_2026_33186" x1="1794.31" y1="3537.78" x2="1794.31" y2="50.2812" gradientUnits="userSpaceOnUse">
<stop offset="0.25" stop-color="#DBDBDA"/>
<stop offset="1" stop-color="white"/>
</linearGradient>
<radialGradient id="paint1_radial_2026_33186" cx="0" cy="0" r="1" gradientUnits="userSpaceOnUse" gradientTransform="translate(1891.47 1310.24) scale(1968.84)">
<stop stop-color="#2ABCE1"/>
<stop offset="0.113629" stop-color="#2ABBE1"/>
<stop offset="1" stop-color="#3375F8"/>
</radialGradient>
<linearGradient id="paint2_linear_2026_33186" x1="1634.3" y1="1203.35" x2="881.448" y2="2554" gradientUnits="userSpaceOnUse">
<stop stop-opacity="0"/>
<stop offset="1"/>
</linearGradient>
<linearGradient id="paint3_linear_2026_33186" x1="316.28" y1="55.5764" x2="287.315" y2="83.522" gradientUnits="userSpaceOnUse">
<stop offset="0.048" stop-color="#FFF44F"/>
<stop offset="0.111" stop-color="#FFE847"/>
<stop offset="0.225" stop-color="#FFC830"/>
<stop offset="0.368" stop-color="#FF980E"/>
<stop offset="0.401" stop-color="#FF8B16"/>
<stop offset="0.462" stop-color="#FF672A"/>
<stop offset="0.534" stop-color="#FF3647"/>
<stop offset="0.705" stop-color="#E31587"/>
</linearGradient>
<radialGradient id="paint4_radial_2026_33186" cx="0" cy="0" r="1" gradientUnits="userSpaceOnUse" gradientTransform="translate(314.944 53.9971) scale(36.3742 36.3742)">
<stop offset="0.129" stop-color="#FFBD4F"/>
<stop offset="0.186" stop-color="#FFAC31"/>
<stop offset="0.247" stop-color="#FF9D17"/>
<stop offset="0.283" stop-color="#FF980E"/>
<stop offset="0.403" stop-color="#FF563B"/>
<stop offset="0.467" stop-color="#FF3750"/>
<stop offset="0.71" stop-color="#F5156C"/>
<stop offset="0.782" stop-color="#EB0878"/>
<stop offset="0.86" stop-color="#E50080"/>
</radialGradient>
<radialGradient id="paint5_radial_2026_33186" cx="0" cy="0" r="1" gradientUnits="userSpaceOnUse" gradientTransform="translate(301.652 68.868) scale(36.3743)">
<stop offset="0.3" stop-color="#960E18"/>
<stop offset="0.351" stop-color="#B11927" stop-opacity="0.74"/>
<stop offset="0.435" stop-color="#DB293D" stop-opacity="0.343"/>
<stop offset="0.497" stop-color="#F5334B" stop-opacity="0.094"/>
<stop offset="0.53" stop-color="#FF3750" stop-opacity="0"/>
</radialGradient>
<radialGradient id="paint6_radial_2026_33186" cx="0" cy="0" r="1" gradientUnits="userSpaceOnUse" gradientTransform="translate(306.038 45.7422) scale(26.3507 26.3507)">
<stop offset="0.132" stop-color="#FFF44F"/>
<stop offset="0.252" stop-color="#FFDC3E"/>
<stop offset="0.506" stop-color="#FF9D12"/>
<stop offset="0.526" stop-color="#FF980E"/>
</radialGradient>
<radialGradient id="paint7_radial_2026_33186" cx="0" cy="0" r="1" gradientUnits="userSpaceOnUse" gradientTransform="translate(297.629 78.369) scale(17.3194)">
<stop offset="0.353" stop-color="#3A8EE6"/>
<stop offset="0.472" stop-color="#5C79F0"/>
<stop offset="0.669" stop-color="#9059FF"/>
<stop offset="1" stop-color="#C139E6"/>
</radialGradient>
<radialGradient id="paint8_radial_2026_33186" cx="0" cy="0" r="1" gradientUnits="userSpaceOnUse" gradientTransform="translate(303.639 65.8866) rotate(-13.5992) scale(9.18361 10.75)">
<stop offset="0.206" stop-color="#9059FF" stop-opacity="0"/>
<stop offset="0.278" stop-color="#8C4FF3" stop-opacity="0.064"/>
<stop offset="0.747" stop-color="#7716A8" stop-opacity="0.45"/>
<stop offset="0.975" stop-color="#6E008B" stop-opacity="0.6"/>
</radialGradient>
<radialGradient id="paint9_radial_2026_33186" cx="0" cy="0" r="1" gradientUnits="userSpaceOnUse" gradientTransform="translate(301.194 52.5086) scale(12.4597 12.4596)">
<stop stop-color="#FFE226"/>
<stop offset="0.121" stop-color="#FFDB27"/>
<stop offset="0.295" stop-color="#FFC82A"/>
<stop offset="0.502" stop-color="#FFA930"/>
<stop offset="0.732" stop-color="#FF7E37"/>
<stop offset="0.792" stop-color="#FF7139"/>
</radialGradient>
<radialGradient id="paint10_radial_2026_33186" cx="0" cy="0" r="1" gradientUnits="userSpaceOnUse" gradientTransform="translate(310.987 44.606) scale(53.1591 53.1591)">
<stop offset="0.113" stop-color="#FFF44F"/>
<stop offset="0.456" stop-color="#FF980E"/>
<stop offset="0.622" stop-color="#FF5634"/>
<stop offset="0.716" stop-color="#FF3647"/>
<stop offset="0.904" stop-color="#E31587"/>
</radialGradient>
<radialGradient id="paint11_radial_2026_33186" cx="0" cy="0" r="1" gradientUnits="userSpaceOnUse" gradientTransform="translate(306.506 47.5615) rotate(83.9727) scale(38.9617 25.5682)">
<stop stop-color="#FFF44F"/>
<stop offset="0.06" stop-color="#FFE847"/>
<stop offset="0.168" stop-color="#FFC830"/>
<stop offset="0.304" stop-color="#FF980E"/>
<stop offset="0.356" stop-color="#FF8B16"/>
<stop offset="0.455" stop-color="#FF672A"/>
<stop offset="0.57" stop-color="#FF3647"/>
<stop offset="0.737" stop-color="#E31587"/>
</radialGradient>
<radialGradient id="paint12_radial_2026_33186" cx="0" cy="0" r="1" gradientUnits="userSpaceOnUse" gradientTransform="translate(300.9 57.1236) scale(33.1882 33.1882)">
<stop offset="0.137" stop-color="#FFF44F"/>
<stop offset="0.48" stop-color="#FF980E"/>
<stop offset="0.592" stop-color="#FF5634"/>
<stop offset="0.655" stop-color="#FF3647"/>
<stop offset="0.904" stop-color="#E31587"/>
</radialGradient>
<radialGradient id="paint13_radial_2026_33186" cx="0" cy="0" r="1" gradientUnits="userSpaceOnUse" gradientTransform="translate(309.661 59.0663) scale(36.3244 36.3244)">
<stop offset="0.094" stop-color="#FFF44F"/>
<stop offset="0.231" stop-color="#FFE141"/>
<stop offset="0.509" stop-color="#FFAF1E"/>
<stop offset="0.626" stop-color="#FF980E"/>
</radialGradient>
<linearGradient id="paint14_linear_2026_33186" x1="315.933" y1="55.4278" x2="291.286" y2="80.0736" gradientUnits="userSpaceOnUse">
<stop offset="0.167" stop-color="#FFF44F" stop-opacity="0.8"/>
<stop offset="0.266" stop-color="#FFF44F" stop-opacity="0.634"/>
<stop offset="0.489" stop-color="#FFF44F" stop-opacity="0.217"/>
<stop offset="0.6" stop-color="#FFF44F" stop-opacity="0"/>
</linearGradient>
<linearGradient id="paint15_linear_2026_33186" x1="67.8415" y1="167.546" x2="67.8415" y2="180.375" gradientUnits="userSpaceOnUse">
<stop stop-color="#96C1E9"/>
<stop offset="1" stop-color="#146CB5"/>
</linearGradient>
<linearGradient id="paint16_linear_2026_33186" x1="292.255" y1="180.898" x2="317.334" y2="180.898" gradientUnits="userSpaceOnUse">
<stop stop-color="#0C59A4"/>
<stop offset="1" stop-color="#114A8B"/>
</linearGradient>
<radialGradient id="paint17_radial_2026_33186" cx="0" cy="0" r="1" gradientUnits="userSpaceOnUse" gradientTransform="translate(306.106 181.095) scale(13.4128 12.7422)">
<stop offset="0.72" stop-opacity="0"/>
<stop offset="0.95" stop-opacity="0.53"/>
<stop offset="1"/>
</radialGradient>
<linearGradient id="paint18_linear_2026_33186" x1="305.476" y1="170.019" x2="289.812" y2="187.081" gradientUnits="userSpaceOnUse">
<stop stop-color="#1B9DE2"/>
<stop offset="0.16" stop-color="#1595DF"/>
<stop offset="0.67" stop-color="#0680D7"/>
<stop offset="1" stop-color="#0078D4"/>
</linearGradient>
<radialGradient id="paint19_radial_2026_33186" cx="0" cy="0" r="1" gradientUnits="userSpaceOnUse" gradientTransform="translate(293.925 183.985) rotate(-81.3844) scale(20.1693 16.2948)">
<stop offset="0.76" stop-opacity="0"/>
<stop offset="0.95" stop-opacity="0.5"/>
<stop offset="1"/>
</radialGradient>
<radialGradient id="paint20_radial_2026_33186" cx="0" cy="0" r="1" gradientUnits="userSpaceOnUse" gradientTransform="translate(287.634 162.662) rotate(92.2906) scale(28.4895 60.6767)">
<stop stop-color="#35C1F1"/>
<stop offset="0.11" stop-color="#34C1ED"/>
<stop offset="0.23" stop-color="#2FC2DF"/>
<stop offset="0.31" stop-color="#2BC3D2"/>
<stop offset="0.67" stop-color="#36C752"/>
</radialGradient>
<radialGradient id="paint21_radial_2026_33186" cx="0" cy="0" r="1" gradientUnits="userSpaceOnUse" gradientTransform="translate(317.757 166.885) rotate(73.7398) scale(13.6884 11.1314)">
<stop stop-color="#66EB6E"/>
<stop offset="1" stop-color="#66EB6E" stop-opacity="0"/>
</radialGradient>
<clipPath id="clip0_2026_33186">
<rect width="35.865" height="36" fill="white" transform="translate(50 156)"/>
</clipPath>
<clipPath id="clip1_2026_33186">
<rect width="36" height="36" fill="white" transform="translate(284 156)"/>
</clipPath>
</defs>
</svg>
