<svg width="372" height="244" viewBox="0 0 372 244" fill="none" xmlns="http://www.w3.org/2000/svg">
<rect x="0.5" y="0.5" width="371" height="243" rx="11" fill="white" fill-opacity="0.02"/>
<rect x="0.5" y="0.5" width="371" height="243" rx="11" stroke="#616161"/>
<rect x="13.7261" y="54" width="88.5811" height="6" rx="3" fill="#424242"/>
<rect x="111.307" y="54" width="42.0898" height="6" rx="3" fill="#424242"/>
<rect x="162.397" y="54" width="67.9287" height="6" rx="3" fill="#424242"/>
<rect x="239.326" y="54" width="19.46" height="6" rx="3" fill="#424242"/>
<rect x="267.786" y="54" width="54.8633" height="6" rx="3" fill="#424242"/>
<rect x="331.649" y="54" width="26.625" height="6" rx="3" fill="#424242"/>
<rect x="13.7261" y="69.5" width="42.0898" height="6" rx="3" fill="#424242"/>
<rect x="64.8159" y="69.5" width="88.5811" height="6" rx="3" fill="#424242"/>
<rect x="162.397" y="69.5" width="19.46" height="6" rx="3" fill="#424242"/>
<rect x="190.857" y="69.5" width="67.9287" height="6" rx="3" fill="#424242"/>
<rect x="267.786" y="69.5" width="54.8633" height="6" rx="3" fill="#BCBEFB" fill-opacity="0.9"/>
<rect x="331.649" y="69.5" width="26.625" height="6" rx="3" fill="#424242"/>
<rect x="13.7261" y="85" width="88.5811" height="6" rx="3" fill="#424242"/>
<rect x="111.307" y="85" width="67.9287" height="6" rx="3" fill="#BCBEFB" fill-opacity="0.9"/>
<rect x="188.236" y="85" width="42.0898" height="6" rx="3" fill="#424242"/>
<rect x="239.326" y="85" width="54.8633" height="6" rx="3" fill="#424242"/>
<rect x="303.189" y="85" width="19.46" height="6" rx="3" fill="#424242"/>
<rect x="331.649" y="85" width="26.625" height="6" rx="3" fill="#424242"/>
<rect x="13.7261" y="100.5" width="42.0898" height="6" rx="3" fill="#BCBEFB" fill-opacity="0.9"/>
<rect x="64.8159" y="100.5" width="88.5811" height="6" rx="3" fill="#424242"/>
<rect x="162.397" y="100.5" width="19.46" height="6" rx="3" fill="#424242"/>
<rect x="190.857" y="100.5" width="67.9287" height="6" rx="3" fill="#424242"/>
<rect x="267.786" y="100.5" width="54.8633" height="6" rx="3" fill="#424242"/>
<rect x="331.649" y="100.5" width="26.625" height="6" rx="3" fill="#BCBEFB" fill-opacity="0.9"/>
<rect x="13.7261" y="116" width="42.0898" height="6" rx="3" fill="#424242"/>
<rect x="64.8159" y="116" width="67.9287" height="6" rx="3" fill="#424242"/>
<rect x="141.745" y="116" width="19.46" height="6" rx="3" fill="#BCBEFB" fill-opacity="0.9"/>
<rect x="170.205" y="116" width="54.8633" height="6" rx="3" fill="#424242"/>
<rect x="234.068" y="116" width="88.5811" height="6" rx="3" fill="#BCBEFB" fill-opacity="0.9"/>
<rect x="331.649" y="116" width="26.625" height="6" rx="3" fill="#424242"/>
<rect x="13.7261" y="131.5" width="88.5811" height="6" rx="3" fill="#424242"/>
<rect x="111.307" y="131.5" width="26.625" height="6" rx="3" fill="#424242"/>
<rect x="146.932" y="131.5" width="67.9287" height="6" rx="3" fill="#424242"/>
<rect x="223.861" y="131.5" width="42.0898" height="6" rx="3" fill="#424242"/>
<rect x="274.951" y="131.5" width="19.46" height="6" rx="3" fill="#424242"/>
<rect x="303.411" y="131.5" width="54.8633" height="6" rx="3" fill="#424242"/>
<rect x="13.7261" y="147" width="88.5811" height="6" rx="3" fill="#424242"/>
<rect x="111.307" y="147" width="67.9287" height="6" rx="3" fill="#BCBEFB" fill-opacity="0.9"/>
<rect x="188.236" y="147" width="42.0898" height="6" rx="3" fill="#424242"/>
<rect x="239.326" y="147" width="54.8633" height="6" rx="3" fill="#424242"/>
<rect x="303.189" y="147" width="19.46" height="6" rx="3" fill="#424242"/>
<rect x="331.649" y="147" width="26.625" height="6" rx="3" fill="#BCBEFB" fill-opacity="0.9"/>
<rect x="13.7261" y="162.5" width="42.0898" height="6" rx="3" fill="#424242"/>
<rect x="64.8159" y="162.5" width="88.5811" height="6" rx="3" fill="#424242"/>
<rect x="162.397" y="162.5" width="19.46" height="6" rx="3" fill="#424242"/>
<rect x="190.857" y="162.5" width="67.9287" height="6" rx="3" fill="#424242"/>
<rect x="267.786" y="162.5" width="26.625" height="6" rx="3" fill="#424242"/>
<path d="M303.411 165.5C303.411 163.843 304.754 162.5 306.411 162.5H355.274C356.931 162.5 358.274 163.843 358.274 165.5C358.274 167.157 356.931 168.5 355.274 168.5H306.411C304.754 168.5 303.411 167.157 303.411 165.5Z" fill="#424242"/>
<rect x="13.7261" y="178" width="88.5811" height="6" rx="3" fill="#424242"/>
<rect x="111.307" y="178" width="42.0898" height="6" rx="3" fill="#424242"/>
<rect x="162.397" y="178" width="67.9287" height="6" rx="3" fill="#BCBEFB" fill-opacity="0.9"/>
<rect x="239.326" y="178" width="26.625" height="6" rx="3" fill="#424242"/>
<rect x="274.951" y="178" width="54.8633" height="6" rx="3" fill="#424242"/>
<rect x="338.814" y="178" width="19.46" height="6" rx="3" fill="#424242"/>
<rect x="13.7261" y="193.5" width="88.5811" height="6" rx="3" fill="#424242"/>
<rect x="111.307" y="193.5" width="19.46" height="6" rx="3" fill="#424242"/>
<rect x="139.767" y="193.5" width="67.9287" height="6" rx="3" fill="#424242"/>
<rect x="216.696" y="193.5" width="26.625" height="6" rx="3" fill="#424242"/>
<rect x="252.321" y="193.5" width="54.8633" height="6" rx="3" fill="#424242"/>
<rect x="316.184" y="193.5" width="42.0898" height="6" rx="3" fill="#424242"/>
<rect x="13.7261" y="209" width="42.0898" height="6" rx="3" fill="#BCBEFB" fill-opacity="0.9"/>
<rect x="64.8159" y="209" width="67.9287" height="6" rx="3" fill="#424242"/>
<rect x="141.745" y="209" width="19.46" height="6" rx="3" fill="#BCBEFB" fill-opacity="0.9"/>
<rect x="170.205" y="209" width="54.8633" height="6" rx="3" fill="#424242"/>
<rect x="234.068" y="209" width="88.5811" height="6" rx="3" fill="#424242"/>
<rect x="331.649" y="209" width="26.625" height="6" rx="3" fill="#424242"/>
<rect x="13.7261" y="224.5" width="88.5811" height="6" rx="3" fill="#424242"/>
<rect x="111.307" y="224.5" width="26.625" height="6" rx="3" fill="#424242"/>
<rect x="146.932" y="224.5" width="67.9287" height="6" rx="3" fill="#424242"/>
<rect x="223.861" y="224.5" width="42.0898" height="6" rx="3" fill="#BCBEFB" fill-opacity="0.9"/>
<rect x="274.951" y="224.5" width="19.46" height="6" rx="3" fill="#424242"/>
<rect x="303.411" y="224.5" width="54.8633" height="6" rx="3" fill="#424242"/>
<path d="M1 13.8C1 9.31958 1 7.07937 1.87195 5.36808C2.63893 3.86278 3.86278 2.63893 5.36808 1.87195C7.07937 1 9.31958 1 13.8 1H358.2C362.68 1 364.921 1 366.632 1.87195C368.137 2.63893 369.361 3.86278 370.128 5.36808C371 7.07937 371 9.31958 371 13.8V41H1V13.8Z" fill="#424242"/>
<circle cx="23" cy="21" r="6" fill="#ED6B5D"/>
<circle cx="43" cy="21" r="6" fill="#F4BE50"/>
<circle cx="63" cy="21" r="6" fill="#61C554"/>
<g filter="url(#filter0_d_1988_86181)">
<rect x="67" y="113.331" width="239" height="56" rx="28" fill="#212121"/>
<rect x="67.7973" y="114.128" width="237.405" height="54.4054" rx="27.2027" stroke="#424242" stroke-width="1.59458"/>
<g clip-path="url(#clip0_1988_86181)">
<path d="M91.821 138.111L96.9373 135.157C97.0653 135.083 97.2232 135.083 97.3512 135.157L102.468 138.111C102.596 138.185 102.675 138.321 102.675 138.469V144.377C102.675 144.525 102.596 144.662 102.468 144.736L97.3512 147.69C97.2232 147.764 97.0653 147.764 96.9373 147.69L91.821 144.736C91.6929 144.662 91.614 144.525 91.614 144.377V138.469C91.6141 138.321 91.693 138.185 91.821 138.111Z" fill="#8080F2"/>
<path d="M110.445 140.802L104.332 130.167C104.11 129.783 103.7 129.499 103.256 129.499H91.0297C90.5855 129.499 90.1752 129.783 89.9532 130.167L83.8401 140.779C83.6181 141.163 83.6181 141.649 83.8401 142.033L89.9532 152.581C90.1752 152.966 90.5855 153.162 91.0297 153.162H103.256C103.7 153.162 104.11 152.972 104.332 152.587L110.445 142.022C110.667 141.638 110.667 141.187 110.445 140.802ZM105.383 145.916C105.383 146.073 105.289 146.217 105.154 146.295L97.367 150.788C97.2316 150.866 97.0619 150.866 96.9265 150.788L89.1337 146.295C88.9983 146.217 88.9036 146.073 88.9036 145.916V136.931C88.9036 136.775 88.9969 136.63 89.1325 136.552L96.9189 132.059C97.0543 131.981 97.2237 131.981 97.3592 132.059L105.152 136.552C105.288 136.63 105.383 136.775 105.383 136.931V145.916Z" fill="#4B32C3"/>
</g>
<path d="M122.529 147.831V133.915H131.254V135.722H124.629V139.962H130.799V141.763H124.629V146.024H131.335V147.831H122.529ZM141.716 139.942L139.875 140.268C139.798 140.033 139.676 139.808 139.508 139.595C139.345 139.383 139.123 139.208 138.842 139.072C138.561 138.936 138.21 138.868 137.789 138.868C137.214 138.868 136.733 138.997 136.348 139.256C135.963 139.509 135.771 139.838 135.771 140.241C135.771 140.59 135.9 140.871 136.158 141.084C136.416 141.296 136.833 141.471 137.408 141.607L139.066 141.987C140.027 142.209 140.743 142.551 141.214 143.013C141.685 143.475 141.92 144.076 141.92 144.814C141.92 145.439 141.739 145.996 141.377 146.486C141.019 146.97 140.518 147.351 139.875 147.627C139.236 147.904 138.496 148.042 137.653 148.042C136.484 148.042 135.531 147.793 134.792 147.294C134.054 146.791 133.601 146.078 133.433 145.154L135.397 144.855C135.519 145.367 135.771 145.754 136.151 146.017C136.532 146.275 137.028 146.404 137.639 146.404C138.305 146.404 138.838 146.266 139.236 145.99C139.635 145.709 139.834 145.367 139.834 144.964C139.834 144.637 139.712 144.363 139.467 144.141C139.227 143.919 138.858 143.752 138.36 143.638L136.593 143.251C135.619 143.029 134.899 142.676 134.432 142.191C133.97 141.706 133.739 141.093 133.739 140.35C133.739 139.734 133.911 139.195 134.255 138.732C134.6 138.27 135.075 137.91 135.682 137.652C136.289 137.389 136.985 137.258 137.769 137.258C138.897 137.258 139.784 137.503 140.432 137.992C141.08 138.476 141.508 139.127 141.716 139.942ZM146.186 133.915V147.831H144.154V133.915H146.186ZM148.919 147.831V137.394H150.951V147.831H148.919ZM149.945 135.783C149.592 135.783 149.288 135.666 149.035 135.43C148.786 135.19 148.661 134.905 148.661 134.574C148.661 134.239 148.786 133.953 149.035 133.718C149.288 133.478 149.592 133.358 149.945 133.358C150.299 133.358 150.6 133.478 150.849 133.718C151.103 133.953 151.23 134.239 151.23 134.574C151.23 134.905 151.103 135.19 150.849 135.43C150.6 135.666 150.299 135.783 149.945 135.783ZM155.716 141.634V147.831H153.684V137.394H155.635V139.093H155.764C156.004 138.54 156.38 138.096 156.892 137.761C157.408 137.426 158.058 137.258 158.842 137.258C159.553 137.258 160.176 137.407 160.71 137.706C161.245 138.001 161.659 138.44 161.954 139.025C162.248 139.609 162.396 140.332 162.396 141.192V147.831H160.364V141.437C160.364 140.68 160.167 140.089 159.773 139.663C159.379 139.233 158.837 139.018 158.149 139.018C157.678 139.018 157.259 139.12 156.892 139.324C156.529 139.527 156.242 139.826 156.029 140.221C155.82 140.61 155.716 141.081 155.716 141.634ZM169.993 137.394V139.025H164.291V137.394H169.993ZM165.82 134.893H167.852V144.766C167.852 145.161 167.911 145.457 168.029 145.657C168.147 145.851 168.298 145.985 168.484 146.058C168.674 146.125 168.88 146.159 169.102 146.159C169.265 146.159 169.408 146.148 169.53 146.125C169.653 146.103 169.748 146.085 169.816 146.071L170.183 147.75C170.065 147.795 169.897 147.84 169.68 147.885C169.462 147.935 169.191 147.962 168.865 147.967C168.33 147.976 167.832 147.881 167.37 147.682C166.908 147.482 166.534 147.174 166.248 146.757C165.963 146.341 165.82 145.817 165.82 145.188V134.893ZM189.026 138.44H186.905C186.824 137.987 186.672 137.589 186.45 137.244C186.228 136.9 185.956 136.608 185.635 136.368C185.313 136.128 184.953 135.946 184.554 135.824C184.16 135.702 183.741 135.641 183.297 135.641C182.495 135.641 181.777 135.842 181.143 136.245C180.514 136.649 180.015 137.24 179.648 138.019C179.286 138.798 179.105 139.749 179.105 140.873C179.105 142.005 179.286 142.961 179.648 143.74C180.015 144.52 180.516 145.108 181.15 145.507C181.784 145.906 182.498 146.105 183.29 146.105C183.73 146.105 184.147 146.046 184.541 145.928C184.939 145.806 185.3 145.627 185.621 145.392C185.943 145.156 186.215 144.868 186.437 144.529C186.663 144.184 186.819 143.79 186.905 143.346L189.026 143.353C188.912 144.037 188.693 144.667 188.366 145.242C188.045 145.813 187.63 146.307 187.123 146.723C186.62 147.136 186.045 147.455 185.397 147.682C184.749 147.908 184.042 148.021 183.277 148.021C182.072 148.021 180.998 147.736 180.056 147.165C179.114 146.59 178.371 145.768 177.827 144.699C177.288 143.629 177.019 142.354 177.019 140.873C177.019 139.387 177.29 138.112 177.834 137.047C178.378 135.978 179.121 135.158 180.063 134.587C181.005 134.012 182.076 133.724 183.277 133.724C184.015 133.724 184.704 133.831 185.343 134.044C185.986 134.252 186.563 134.56 187.075 134.968C187.587 135.371 188.011 135.865 188.346 136.449C188.681 137.029 188.908 137.693 189.026 138.44ZM195.771 148.042C194.793 148.042 193.939 147.817 193.21 147.369C192.48 146.921 191.914 146.293 191.511 145.487C191.108 144.68 190.906 143.738 190.906 142.66C190.906 141.577 191.108 140.631 191.511 139.82C191.914 139.009 192.48 138.379 193.21 137.931C193.939 137.482 194.793 137.258 195.771 137.258C196.75 137.258 197.604 137.482 198.333 137.931C199.062 138.379 199.629 139.009 200.032 139.82C200.435 140.631 200.637 141.577 200.637 142.66C200.637 143.738 200.435 144.68 200.032 145.487C199.629 146.293 199.062 146.921 198.333 147.369C197.604 147.817 196.75 148.042 195.771 148.042ZM195.778 146.336C196.412 146.336 196.938 146.169 197.355 145.833C197.771 145.498 198.079 145.052 198.279 144.495C198.483 143.937 198.584 143.324 198.584 142.653C198.584 141.987 198.483 141.376 198.279 140.819C198.079 140.257 197.771 139.806 197.355 139.466C196.938 139.127 196.412 138.957 195.778 138.957C195.139 138.957 194.609 139.127 194.188 139.466C193.771 139.806 193.461 140.257 193.257 140.819C193.058 141.376 192.958 141.987 192.958 142.653C192.958 143.324 193.058 143.937 193.257 144.495C193.461 145.052 193.771 145.498 194.188 145.833C194.609 146.169 195.139 146.336 195.778 146.336ZM202.904 147.831V137.394H204.855V139.093H204.984C205.201 138.517 205.557 138.069 206.051 137.747C206.544 137.421 207.136 137.258 207.824 137.258C208.522 137.258 209.106 137.421 209.577 137.747C210.053 138.073 210.404 138.522 210.63 139.093H210.739C210.988 138.535 211.385 138.091 211.928 137.761C212.472 137.426 213.12 137.258 213.872 137.258C214.818 137.258 215.591 137.555 216.189 138.148C216.791 138.742 217.093 139.636 217.093 140.832V147.831H215.061V141.022C215.061 140.316 214.868 139.804 214.483 139.487C214.098 139.17 213.638 139.011 213.104 139.011C212.442 139.011 211.928 139.215 211.561 139.623C211.194 140.026 211.011 140.544 211.011 141.179V147.831H208.986V140.893C208.986 140.327 208.809 139.872 208.456 139.527C208.103 139.183 207.643 139.011 207.077 139.011C206.692 139.011 206.336 139.113 206.01 139.317C205.688 139.516 205.428 139.795 205.228 140.153C205.034 140.51 204.936 140.925 204.936 141.396V147.831H202.904ZM219.816 151.745V137.394H221.8V139.086H221.97C222.088 138.868 222.257 138.617 222.479 138.332C222.701 138.046 223.009 137.797 223.404 137.584C223.798 137.367 224.319 137.258 224.966 137.258C225.809 137.258 226.561 137.471 227.222 137.897C227.884 138.322 228.402 138.936 228.778 139.738C229.159 140.54 229.349 141.505 229.349 142.633C229.349 143.761 229.161 144.728 228.785 145.534C228.409 146.336 227.893 146.954 227.236 147.389C226.579 147.82 225.829 148.035 224.987 148.035C224.353 148.035 223.834 147.928 223.431 147.716C223.032 147.503 222.719 147.253 222.493 146.968C222.266 146.683 222.092 146.429 221.97 146.207H221.847V151.745H219.816ZM221.807 142.612C221.807 143.346 221.913 143.99 222.126 144.542C222.339 145.095 222.647 145.528 223.05 145.84C223.453 146.148 223.947 146.302 224.531 146.302C225.139 146.302 225.646 146.141 226.054 145.82C226.461 145.494 226.769 145.052 226.978 144.495C227.191 143.937 227.297 143.31 227.297 142.612C227.297 141.924 227.193 141.306 226.985 140.757C226.781 140.209 226.473 139.777 226.06 139.46C225.653 139.142 225.143 138.984 224.531 138.984C223.943 138.984 223.444 139.136 223.037 139.439C222.633 139.743 222.328 140.166 222.119 140.71C221.911 141.253 221.807 141.888 221.807 142.612ZM234.663 148.062C234.002 148.062 233.404 147.94 232.869 147.695C232.335 147.446 231.911 147.086 231.598 146.615C231.29 146.144 231.136 145.566 231.136 144.882C231.136 144.293 231.25 143.808 231.476 143.428C231.703 143.047 232.008 142.746 232.393 142.524C232.778 142.302 233.209 142.135 233.684 142.021C234.16 141.908 234.645 141.822 235.139 141.763C235.764 141.691 236.271 141.632 236.661 141.586C237.05 141.537 237.333 141.457 237.51 141.349C237.687 141.24 237.775 141.063 237.775 140.819V140.771C237.775 140.178 237.607 139.718 237.272 139.392C236.942 139.065 236.448 138.902 235.791 138.902C235.107 138.902 234.568 139.054 234.174 139.358C233.784 139.657 233.515 139.99 233.365 140.356L231.456 139.922C231.682 139.287 232.013 138.775 232.448 138.386C232.887 137.992 233.392 137.706 233.963 137.53C234.534 137.349 235.134 137.258 235.764 137.258C236.181 137.258 236.622 137.308 237.089 137.407C237.56 137.503 237.999 137.679 238.407 137.937C238.819 138.196 239.157 138.565 239.42 139.045C239.682 139.521 239.814 140.139 239.814 140.9V147.831H237.829V146.404H237.748C237.617 146.667 237.419 146.925 237.157 147.179C236.894 147.432 236.557 147.643 236.144 147.811C235.732 147.978 235.238 148.062 234.663 148.062ZM235.105 146.431C235.666 146.431 236.147 146.32 236.545 146.098C236.948 145.876 237.254 145.586 237.463 145.229C237.675 144.866 237.782 144.479 237.782 144.067V142.721C237.709 142.794 237.569 142.862 237.361 142.925C237.157 142.984 236.923 143.036 236.661 143.081C236.398 143.122 236.142 143.161 235.893 143.197C235.644 143.229 235.435 143.256 235.268 143.278C234.874 143.328 234.513 143.412 234.187 143.53C233.866 143.648 233.607 143.817 233.413 144.039C233.222 144.257 233.127 144.547 233.127 144.909C233.127 145.412 233.313 145.793 233.684 146.051C234.056 146.304 234.529 146.431 235.105 146.431ZM242.683 147.831V133.915H244.715V139.086H244.837C244.955 138.868 245.125 138.617 245.347 138.332C245.568 138.046 245.877 137.797 246.271 137.584C246.665 137.367 247.186 137.258 247.834 137.258C248.676 137.258 249.428 137.471 250.089 137.897C250.751 138.322 251.27 138.936 251.646 139.738C252.026 140.54 252.216 141.505 252.216 142.633C252.216 143.761 252.028 144.728 251.652 145.534C251.276 146.336 250.76 146.954 250.103 147.389C249.446 147.82 248.696 148.035 247.854 148.035C247.22 148.035 246.701 147.928 246.298 147.716C245.899 147.503 245.587 147.253 245.36 146.968C245.134 146.683 244.959 146.429 244.837 146.207H244.667V147.831H242.683ZM244.674 142.612C244.674 143.346 244.78 143.99 244.993 144.542C245.206 145.095 245.514 145.528 245.917 145.84C246.32 146.148 246.814 146.302 247.399 146.302C248.006 146.302 248.513 146.141 248.921 145.82C249.328 145.494 249.636 145.052 249.845 144.495C250.058 143.937 250.164 143.31 250.164 142.612C250.164 141.924 250.06 141.306 249.852 140.757C249.648 140.209 249.34 139.777 248.928 139.46C248.52 139.142 248.01 138.984 247.399 138.984C246.81 138.984 246.311 139.136 245.904 139.439C245.501 139.743 245.195 140.166 244.986 140.71C244.778 141.253 244.674 141.888 244.674 142.612ZM254.498 147.831V137.394H256.53V147.831H254.498ZM255.524 135.783C255.17 135.783 254.867 135.666 254.613 135.43C254.364 135.19 254.24 134.905 254.24 134.574C254.24 134.239 254.364 133.953 254.613 133.718C254.867 133.478 255.17 133.358 255.524 133.358C255.877 133.358 256.178 133.478 256.428 133.718C256.681 133.953 256.808 134.239 256.808 134.574C256.808 134.905 256.681 135.19 256.428 135.43C256.178 135.666 255.877 135.783 255.524 135.783ZM261.295 133.915V147.831H259.263V133.915H261.295ZM264.028 147.831V137.394H266.06V147.831H264.028ZM265.054 135.783C264.701 135.783 264.397 135.666 264.143 135.43C263.894 135.19 263.77 134.905 263.77 134.574C263.77 134.239 263.894 133.953 264.143 133.718C264.397 133.478 264.701 133.358 265.054 133.358C265.407 133.358 265.709 133.478 265.958 133.718C266.211 133.953 266.338 134.239 266.338 134.574C266.338 134.905 266.211 135.19 265.958 135.43C265.709 135.666 265.407 135.783 265.054 135.783ZM273.665 137.394V139.025H267.964V137.394H273.665ZM269.493 134.893H271.525V144.766C271.525 145.161 271.583 145.457 271.701 145.657C271.819 145.851 271.971 145.985 272.156 146.058C272.347 146.125 272.553 146.159 272.775 146.159C272.938 146.159 273.081 146.148 273.203 146.125C273.325 146.103 273.42 146.085 273.488 146.071L273.855 147.75C273.737 147.795 273.57 147.84 273.352 147.885C273.135 147.935 272.863 147.962 272.537 147.967C272.002 147.976 271.504 147.881 271.042 147.682C270.58 147.482 270.206 147.174 269.921 146.757C269.636 146.341 269.493 145.817 269.493 145.188V134.893ZM277.197 151.745C276.893 151.745 276.617 151.72 276.368 151.67C276.119 151.625 275.933 151.575 275.811 151.521L276.3 149.856C276.671 149.956 277.002 149.999 277.292 149.985C277.582 149.972 277.838 149.863 278.06 149.659C278.286 149.455 278.486 149.122 278.658 148.66L278.909 147.967L275.09 137.394H277.265L279.908 145.494H280.017L282.66 137.394H284.841L280.54 149.224C280.341 149.768 280.087 150.227 279.779 150.603C279.471 150.984 279.104 151.269 278.678 151.46C278.252 151.65 277.758 151.745 277.197 151.745Z" fill="white"/>
</g>
<defs>
<filter id="filter0_d_1988_86181" x="59.1966" y="105.528" width="254.607" height="71.6068" filterUnits="userSpaceOnUse" color-interpolation-filters="sRGB">
<feFlood flood-opacity="0" result="BackgroundImageFix"/>
<feColorMatrix in="SourceAlpha" type="matrix" values="0 0 0 0 0 0 0 0 0 0 0 0 0 0 0 0 0 0 127 0" result="hardAlpha"/>
<feOffset/>
<feGaussianBlur stdDeviation="3.90171"/>
<feComposite in2="hardAlpha" operator="out"/>
<feColorMatrix type="matrix" values="0 0 0 0 0 0 0 0 0 0 0 0 0 0 0 0 0 0 0.08 0"/>
<feBlend mode="normal" in2="BackgroundImageFix" result="effect1_dropShadow_1988_86181"/>
<feBlend mode="normal" in="SourceGraphic" in2="effect1_dropShadow_1988_86181" result="shape"/>
</filter>
<clipPath id="clip0_1988_86181">
<rect width="27.2751" height="24" fill="white" transform="translate(83.5049 129.331)"/>
</clipPath>
</defs>
</svg>
