<svg xmlns="http://www.w3.org/2000/svg" width="92" height="40" viewBox="0 0 92 40">
    <g fill="#ffffff">
        <path d="M91.955 39.894H79.38c-.115 0-.326-.512-.387-.618-1.73-3.144-3.458-6.304-5.178-9.443-1.84 3.342-3.63 6.74-5.465 10.086-4.117.01-8.2-.02-12.281-.01.462-.871.955-1.722 1.448-2.577 3.433-5.975 6.817-12.03 10.255-18.01-3.655-6.43-7.365-12.81-11.04-19.226-.01 0-.035-.04-.01-.035h12.634c1.553 2.845 3.067 5.726 4.595 8.592 1.589-2.84 3.122-5.737 4.695-8.592H90.86c.01.05-.025.106-.05.147-3.565 6.308-7.215 12.638-10.774 18.957 3.956 6.916 7.988 13.827 11.92 20.729z"/>
        <path d="M61.429 15.519c.322 1.316.508 2.765.508 4.289 0 4.754-1.368 8.278-3.268 11.144-.322.486-.649.952-1 1.397a17.99 17.99 0 01-3.67 3.514c-.936.669-1.91 1.276-2.992 1.788-2.151 1.017-4.75 1.812-7.747 1.812-4.685 0-8.144-1.438-10.944-3.412-2.8-1.98-4.982-4.598-6.466-7.9-.995-2.212-1.648-4.764-1.724-7.873-.035-1.539.156-3.058.432-4.374.704-3.322 2.087-5.924 3.836-8.167 1.75-2.238 3.967-3.99 6.646-5.312a17.596 17.596 0 013.51-1.276C39.83.83 41.25.613 42.783.613h.025c1.498-.071 3.086.172 4.333.45a18.27 18.27 0 013.57 1.215c3.318 1.51 5.791 3.768 7.782 6.588 1.312 1.848 2.297 4.066 2.936 6.653zM46.347 28.714c.12-.486.085-1.109.085-1.752V12.329c0-.628-.07-1.114-.251-1.57a3.412 3.412 0 00-.724-1.103c-.588-.603-1.473-1.145-2.584-1.059-.538.041-.985.213-1.377.461a3.418 3.418 0 00-1.509 2.127c-.115.48-.11 1.093-.11 1.726v14.633c0 .314-.015.618.025.886.105.77.447 1.388.895 1.848.578.593 1.473 1.09 2.629.963 1.493-.163 2.59-1.16 2.92-2.527zM24.639 10.927H11.28c-.055 1.67-.01 3.519-.025 5.2 3.61.03 7.275.005 10.91.01v10.901c-3.66.01-7.35-.015-10.99.01.005 4.324.025 8.567.025 12.891 0 .015-.005.02-.01.026H.055c-.02.005-.02-.01-.035-.01C-.005 26.677-.005 13.315.015.034.015.02.015 0 .025 0H23.88c.015 0 .02 0 .025.01.251 3.636.493 7.276.734 10.917z"/>
    </g>
</svg>
