<?xml version="1.0" encoding="UTF-8"?>
<svg width="48px" height="48px" viewBox="0 0 48 48" version="1.1" xmlns="http://www.w3.org/2000/svg" xmlns:xlink="http://www.w3.org/1999/xlink">
    <title>icon-faces</title>
    <g id="Page-1" stroke="none" stroke-width="1" fill="none" fill-rule="evenodd">
        <g id="icon-faces" transform="translate(1.000000, 1.000000)">
            <circle id="Oval" stroke="#263238" stroke-width="2" fill="#FFFFFF" fill-rule="nonzero" cx="23" cy="23" r="23"></circle>
            <g id="primefaces-icon" transform="translate(7.000000, 7.000000)">
                <polygon id="bg" fill="#263238" points="8.83669321 0 5.23049982 3.92377699 0 2.94365637 2.91059727 12.9441812 4.84586139 25.1277393 12.4761886 34.1790297 19.1940403 34.1790297 26.7282079 25.1524483 28.7592154 12.85317 31.8621319 2.94365637 26.6795037 3.92377699 22.936772 0"></polygon>
                <g id="primefaces" transform="translate(3.267911, 2.412637)">
                    <polygon id="chick-right" fill="#D0D8DC" fill-rule="nonzero" points="19.021373 13.2602971 17.0073453 12.8182872 18.5738113 15.0283367 18.5738113 21.8794902 23.9445519 17.4593912 23.9445519 9.94522282 21.4829625 10.8292426"></polygon>
                    <polygon id="chick-left" fill="#D0D8DC" fill-rule="nonzero" transform="translate(5.035069, 15.912357) scale(-1, 1) translate(-5.035069, -15.912357) " points="3.58049375 13.2602971 1.56646601 12.8182872 3.13293203 15.0283367 3.13293203 21.8794902 8.50367265 17.4593912 8.50367265 9.94522282 6.0420832 10.8292426"></polygon>
                    <polygon id="mask" fill="#D0D8DC" points="7.60854921 15.4703466 9.39879609 12.8182872 10.5177004 13.481302 14.9933176 13.481302 16.1122219 12.8182872 17.9024687 15.4703466 17.9024687 25.4155694 16.5597836 27.404614 14.9933176 28.9516487 10.5177004 28.9516487 8.95123437 27.404614 7.60854921 25.4155694"></polygon>
                    <polygon id="bottom-chick-right" fill="#7A858A" fill-rule="nonzero" points="18.5738113 26.0785843 21.4829625 23.2055199 21.4829625 20.3324556 18.5738113 22.76351"></polygon>
                    <polygon id="bottom-chick-left" fill="#7A858A" fill-rule="nonzero" transform="translate(5.482631, 23.205520) scale(-1, 1) translate(-5.482631, -23.205520) " points="4.02805547 26.0785843 6.93720664 23.2055199 6.93720664 20.3324556 4.02805547 22.76351"></polygon>
                    <path d="M15.6646601,0 L17.454907,4.19909408 L14.7695367,12.5972822 L13.2030707,12.5972822 L13.2030707,0 L15.6646601,0 Z M12.3079473,12.5972822 L10.9652621,12.5972822 L8.05611093,4.19909408 L9.84635781,0 L12.3079473,0 L12.3079473,12.5972822 Z" id="head" fill="#D0D8DC"></path>
                    <polygon id="head-left" fill="#D0D8DC" fill-rule="nonzero" points="10.9652621 12.5972822 1.34268516 9.06120302 0 3.53607923 8.57826627 4.22211543 11.4376884 12.5972822"></polygon>
                    <polygon id="head-right" fill="#D0D8DC" fill-rule="nonzero" transform="translate(20.015955, 8.066681) scale(-1, 1) translate(-20.015955, -8.066681) " points="25.2623726 12.5972822 15.6397956 9.06120302 14.2971105 3.53607923 22.8753767 4.22211543 25.7347988 12.5972822"></polygon>
                    <polygon id="ear-right" fill="#D0D8DC" fill-rule="nonzero" points="17.9024687 3.53607923 22.6018668 3.09406932 19.4689348 0 16.3360027 0"></polygon>
                    <polygon id="ear-left" fill="#D0D8DC" fill-rule="nonzero" transform="translate(6.042083, 1.768040) scale(-1, 1) translate(-6.042083, -1.768040) " points="4.47561718 3.53607923 9.17501523 3.09406932 6.0420832 0 2.90915117 0"></polygon>
                </g>
            </g>
        </g>
    </g>
</svg>