<?xml version="1.0" encoding="UTF-8"?>
<svg width="48px" height="48px" viewBox="0 0 48 48" version="1.1" xmlns="http://www.w3.org/2000/svg" xmlns:xlink="http://www.w3.org/1999/xlink">
    <!-- Generator: sketchtool 63.1 (101010) - https://sketch.com -->
    <title>442656EB-5D13-4E00-B92C-AE67949B19E9</title>
    <desc>Created with sketchtool.</desc>
    <defs>
        <polygon id="path-1" points="2.15330465e-06 0.040425532 29.3897197 0.040425532 29.3897197 31.9574426 2.15330465e-06 31.9574426"></polygon>
    </defs>
    <g id="Page-1" stroke="none" stroke-width="1" fill="none" fill-rule="evenodd">
        <g id="PrimeNG---Landing" transform="translate(-135.000000, -488.000000)">
            <g id="topbar" transform="translate(0.000000, 42.000000)">
                <g id="icon-react" transform="translate(135.000000, 446.000000)">
                    <circle id="Oval" stroke="#03C4E8" stroke-width="2" fill="#FFFFFF" cx="24" cy="24" r="23"></circle>
                    <g id="primereact-logo" transform="translate(9.000000, 7.000000)">
                        <g id="base">
                            <mask id="mask-2" fill="white">
                                <use xlink:href="#path-1"></use>
                            </mask>
                            <g id="path-1"></g>
                            <path d="M27.9525342,23.6196553 C27.3280759,24.6882511 26.2097356,25.3262511 24.960905,25.3262511 L21.1376696,25.3262511 L26.0407873,16.9348043 L27.9524481,20.2064213 C28.5769064,21.2750596 28.5769064,22.551017 27.9525342,23.6196553 Z M20.4871993,24.527783 L20.4334528,24.619783 L20.3207919,24.8125915 L19.722001,25.8374426 L19.6189007,26.0138681 L18.3745921,28.1434851 L17.9994003,28.7855702 L17.7351467,29.237783 L17.7251985,29.2400809 L17.7192554,29.2502085 C17.0864422,30.3333149 15.9320556,30.6452298 14.6664292,30.6452298 C13.4025686,30.6452298 12.2915496,30.3350596 11.6582627,29.2548043 L11.63828,29.249783 L10.9959923,28.1505915 L10.8350974,27.8752723 L3.90735646,16.0189319 L5.16393891,13.8684638 L5.16411119,13.8691872 L7.3805507,10.0778255 L7.37900035,10.0775277 L7.63059243,9.64701703 L7.63222896,9.6473149 L9.37179766,6.67161277 L20.0443506,6.66791063 L25.4823493,15.979017 L20.4403003,24.6080809 L20.4871993,24.527783 Z M17.6472489,29.3831447 C17.6704615,29.3465915 17.6931573,29.3096128 17.7151641,29.2719957 C17.6931573,29.3096128 17.6704615,29.3465915 17.6472489,29.3831447 Z M17.5752854,29.4919532 C17.5921242,29.4674426 17.6086186,29.4425489 17.6248545,29.4174851 C17.6086186,29.4425489 17.5921242,29.4674426 17.5752854,29.4919532 Z M17.4986278,29.5991447 C17.5155528,29.5763362 17.5322193,29.5532723 17.5486706,29.5300383 C17.5322193,29.5532723 17.5155528,29.5763362 17.4986278,29.5991447 Z M17.4145197,29.7078681 C17.4338133,29.6839106 17.4528916,29.6597404 17.4716253,29.6351872 C17.4528916,29.6597404 17.4338133,29.6839106 17.4145197,29.7078681 Z M17.2211099,29.9288468 C17.2802827,29.8668894 17.3373452,29.8024638 17.3921684,29.735783 C17.3373452,29.8024638 17.2802827,29.8668894 17.2211099,29.9288468 Z M17.1304557,30.020166 C17.1544436,29.9968468 17.1780438,29.9731021 17.2013856,29.9489745 C17.1780438,29.9731021 17.1544436,29.9968468 17.1304557,30.020166 Z M17.0345045,30.1099106 C17.0584062,30.0884213 17.0819633,30.0665064 17.1052621,30.0442936 C17.0819633,30.0665064 17.0584062,30.0884213 17.0345045,30.1099106 Z M16.9283035,30.2018681 C16.955995,30.1788894 16.983342,30.1554851 17.0103875,30.1315702 C16.983342,30.1554851 16.955995,30.1788894 16.9283035,30.2018681 Z M16.7046613,30.3727191 C16.7764094,30.3225489 16.8462626,30.2694851 16.9141778,30.2137404 C16.8462626,30.2694851 16.7763663,30.3225064 16.7046613,30.3727191 Z M16.5979435,30.4443787 C16.6311044,30.4229319 16.6640069,30.4009319 16.6964787,30.3783362 C16.6640069,30.4009319 16.6311044,30.4229319 16.5979435,30.4443787 Z M16.4854118,30.5139532 C16.5173668,30.495017 16.5488912,30.4756128 16.5802003,30.4556979 C16.5488912,30.4756128 16.5173668,30.495017 16.4854118,30.5139532 Z M16.3606924,30.5845489 C16.3970832,30.5649745 16.4330865,30.5446766 16.4687022,30.5238255 C16.4330865,30.5446766 16.3970832,30.5649745 16.3606924,30.5845489 Z M16.1155602,30.7040809 C16.1978164,30.6679957 16.2784792,30.6286766 16.3574194,30.5863362 C16.2784792,30.6286766 16.1978164,30.6679532 16.1155602,30.7040809 Z M13.0089014,30.5863362 C13.0879277,30.6286766 13.1685905,30.6679957 13.2508468,30.7041234 C13.1685905,30.6679532 13.0879277,30.6286766 13.0089014,30.5863362 Z M12.8976617,30.5238255 C12.9333635,30.5446766 12.9693668,30.565017 13.0058007,30.5845915 C12.9693668,30.565017 12.9333635,30.5446766 12.8976617,30.5238255 Z M12.7862928,30.4557404 C12.8175157,30.4756128 12.8490401,30.495017 12.880909,30.5139532 C12.8490401,30.495017 12.8175157,30.4756128 12.7862928,30.4557404 Z M12.6699282,30.3783362 C12.7024001,30.4009319 12.7352164,30.4229319 12.7684204,30.4443787 C12.7352164,30.4229319 12.7024001,30.4009319 12.6699282,30.3783362 Z M12.4522722,30.213783 C12.5201444,30.2694851 12.5899976,30.3225489 12.6617026,30.3727191 C12.5899976,30.3225064 12.5201444,30.2694851 12.4522722,30.213783 Z M12.3560195,30.1315702 C12.3829789,30.1554426 12.4103258,30.1788468 12.4379743,30.2018255 C12.4103258,30.1788468 12.3829789,30.1554426 12.3560195,30.1315702 Z M12.2611449,30.0442936 C12.2844436,30.0665489 12.3080008,30.0884213 12.3318594,30.1099106 C12.3080008,30.0884213 12.2844436,30.0665489 12.2611449,30.0442936 Z M12.1651936,29.9491872 C12.1884493,29.9732298 12.2119634,29.9968894 12.2358651,30.0201234 C12.2119634,29.9968894 12.1884493,29.9732298 12.1651936,29.9491872 Z M11.9741955,29.735783 C12.0290187,29.8024638 12.0860381,29.8668043 12.1451679,29.9287617 C12.0860381,29.8668043 12.0290187,29.8024638 11.9741955,29.735783 Z M11.8948247,29.6352298 C11.9135154,29.6597404 11.9325506,29.6839106 11.9518012,29.707783 C11.9325506,29.6839106 11.9135154,29.6597404 11.8948247,29.6352298 Z M11.8177795,29.5301234 C11.8341876,29.5533574 11.8508542,29.5763362 11.8677361,29.5991021 C11.8508542,29.5763362 11.8341876,29.5533574 11.8177795,29.5301234 Z M11.7415525,29.4175277 C11.7577884,29.4425489 11.7742396,29.4674 11.7910785,29.4918681 C11.7742396,29.4674 11.7577884,29.4425489 11.7415525,29.4175277 Z M11.6512429,29.2719957 C11.6732496,29.3096128 11.6959885,29.3465915 11.7191581,29.3831447 C11.6959885,29.3465915 11.6732496,29.3096128 11.6512429,29.2719957 Z M4.39675954,25.3262511 C3.15951376,25.3262511 2.05155239,24.6942085 1.43290796,23.6354426 C0.814306603,22.5767191 0.814306603,21.3125489 1.43290796,20.253783 L3.34887537,16.9748043 L8.22869434,25.3262511 L4.39675954,25.3262511 Z M1.43725764,11.7914851 C0.812842357,10.7228468 0.812842357,9.4468468 1.43725764,8.37825107 C2.06162985,7.30961277 3.17997015,6.67161277 4.4288007,6.67161277 L8.25207925,6.67161277 L3.34887537,15.0631021 L1.43725764,11.7914851 Z M11.6746278,2.72591064 C12.3074409,1.64284681 13.4408974,0.996293617 14.7065668,0.996293617 C15.9721932,0.996293617 17.1056497,1.64284681 17.7384198,2.72591064 L19.4854389,5.71578297 L9.92760865,5.71578297 L11.6746278,2.72591064 Z M24.9929462,6.67161277 C26.230235,6.67161277 27.3382395,7.30369787 27.9568408,8.36246383 C28.5754852,9.42114467 28.5754422,10.6853149 27.9568408,11.7440809 L26.0408303,15.0231447 L21.1610114,6.67161277 L24.9929462,6.67161277 Z M26.5993545,15.9789319 L28.7945624,12.2219957 C29.5880983,10.8639957 29.5880983,9.24250637 28.7946055,7.88450637 C28.0011128,6.52654893 26.5799317,5.71578297 24.9929462,5.71578297 L20.6024872,5.71578297 L18.5762275,2.24799574 C17.768523,0.865697873 16.322019,0.0404212767 14.7065668,0.0404212767 C13.0912869,0.0404212767 11.6444815,0.86578298 10.8368631,2.24799574 L8.81060339,5.71578297 L4.4288007,5.71578297 C2.83027348,5.71578297 1.39871348,6.53242127 0.599449867,7.90033617 C-0.199813751,9.2682085 -0.199813751,10.9015277 0.599449867,12.2694 L2.79035121,16.0189319 L0.595143256,19.7759106 C-0.198349504,21.1338681 -0.198349504,22.7553574 0.595143256,24.1134 C1.38863602,25.4713574 2.80981708,26.2820809 4.39675954,26.2820809 L8.78721851,26.2820809 L10.8134782,29.7499106 C11.6211828,31.1322085 13.0678159,31.9574426 14.683225,31.9574426 C16.2986342,31.9574426 17.7452242,31.1322085 18.5528426,29.7499106 L20.5791454,26.2820809 L24.960905,26.2820809 C26.5594322,26.2820809 27.9910353,25.4654426 28.7902989,24.0975277 C29.5895195,22.7296979 29.5895195,21.0964213 28.7902128,19.7285489 L26.5993545,15.9789319 Z" id="bg-base" fill="#03C4E8" fill-rule="nonzero" mask="url(#mask-2)"></path>
                        </g>
                        <g id="prime-logo-2018" transform="translate(4.363636, 6.626263)">
                            <polygon id="chick-right" fill="#03C4E8" fill-rule="nonzero" points="15.5292051 10.8761919 13.8849363 10.5136522 15.163812 12.3263509 15.163812 17.9457167 19.2150351 14.3203194 19.5485288 8.15714396 17.5388669 8.88222342"></polygon>
                            <polygon id="chick-left" fill="#03C4E8" fill-rule="nonzero" transform="translate(4.110672, 13.051430) scale(-1, 1) translate(-4.110672, -13.051430) " points="2.92314449 10.8761919 1.27887571 10.5136522 2.55775143 12.3263509 2.55775143 17.9457167 6.60897449 14.3203194 6.94246816 8.15714396 4.93280632 8.88222342"></polygon>
                            <path d="M13.1541502,10.5136522 L14.6157224,12.6888906 L14.615682,15.9176522 L12.0707645,17.7372241 L12.0679959,18.4644666 L14.615682,16.6426522 L14.615682,17.3676522 L12.0707645,19.187383 L12.0679959,19.9146255 L14.615682,18.0926522 L14.615682,18.8186522 L12.0707645,20.6375419 L12.0679959,21.3647844 L14.615682,19.5426522 L14.6157224,20.8460346 L12.9076549,24.0808081 L7.58625593,24.0808081 L6.21168204,20.8460346 L6.21168204,19.5806522 L8.70628312,21.3647844 L8.70351455,20.6375419 L6.21168204,18.8556522 L6.21168204,18.1306522 L8.70628312,19.9146255 L8.70351455,19.187383 L6.21168204,17.4046522 L6.21168204,16.6806522 L8.70628312,18.4644666 L8.70351455,17.7372241 L6.21168204,15.9546522 L6.21168204,12.6888906 L7.67325428,10.5136522 L8.58673693,11.0574618 L12.2406675,11.0574618 L13.1541502,10.5136522 Z" id="mask" fill="#03C4E8"></path>
                            <g id="mask-effect-right" transform="translate(11.692578, 15.770478)"></g>
                            <g id="mask-effect-left" transform="translate(5.846289, 15.770478)"></g>
                            <polygon id="bottom-chick-right" fill="#03C4E8" fill-rule="nonzero" points="15.163812 21.3898442 17.5388669 19.0333359 17.5388669 16.6768276 15.163812 18.6707962"></polygon>
                            <polygon id="bottom-chick-left" fill="#03C4E8" fill-rule="nonzero" transform="translate(4.476065, 19.033336) scale(-1, 1) translate(-4.476065, -19.033336) " points="3.28853755 21.3898442 5.66359245 19.0333359 5.66359245 16.6768276 3.28853755 18.6707962"></polygon>
                            <path d="M11.5098814,3.10862447e-14 L11.5098814,4.53174664 L12.2406675,4.16920691 L12.2406675,3.10862447e-14 L12.7887571,0 L14.2503294,3.44412745 L12.057971,10.3323823 L10.7790953,10.3323823 L10.7790953,0 L11.5098814,3.10862447e-14 Z M8.58673693,4.16920691 L9.31752306,4.53174664 L9.31752306,0 L10.0483092,0 L10.0483092,10.3323823 L8.95213,10.3323823 L6.5770751,3.44412745 L8.03864734,0 L8.58673693,0 L8.58673693,4.16920691 Z" id="head" fill="#03C4E8"></path>
                            <polygon id="head-left" fill="#03C4E8" fill-rule="nonzero" points="8.95213 10.3323823 1.09617918 7.4320645 0 2.90031785 6.75977163 3.44412745 9.13482653 10.3323823"></polygon>
                            <polygon id="head-right" fill="#03C4E8" fill-rule="nonzero" transform="translate(16.442688, 6.616350) scale(-1, 1) translate(-16.442688, -6.616350) " points="20.8274045 10.3323823 12.9714537 7.4320645 11.8752745 2.90031785 18.8177426 3.44412745 21.010101 10.3323823"></polygon>
                            <polygon id="ear-right" fill="#03C4E8" fill-rule="nonzero" points="14.6157224 2.90031785 18.1188559 2.53777812 15.8945982 0 13.3368467 0"></polygon>
                            <polygon id="ear-left" fill="#03C4E8" fill-rule="nonzero" transform="translate(5.099553, 1.450159) scale(-1, 1) translate(-5.099553, -1.450159) " points="3.98742428 2.90031785 7.49055775 2.53777812 5.26629999 0 2.70854856 0"></polygon>
                        </g>
                    </g>
                </g>
            </g>
        </g>
    </g>
</svg>