<?xml version="1.0" encoding="UTF-8"?>
<svg width="14px" height="14px" viewBox="0 0 14 14" version="1.1" xmlns="http://www.w3.org/2000/svg" xmlns:xlink="http://www.w3.org/1999/xlink">
    <!-- Generator: Sketch 63.1 (92452) - https://sketch.com -->
    <title>icon-github-b</title>
    <desc>Created with Sketch.</desc>
    <g id="PrimeNG" stroke="none" stroke-width="1" fill="none" fill-rule="evenodd">
        <g id="PrimeNG---Landing" transform="translate(-1291.000000, -65.000000)" fill="#ffffff" fill-rule="nonzero">
            <g id="topbar" transform="translate(0.000000, 42.000000)">
                <g id="menuitem-github" transform="translate(1232.000000, 20.000000)">
                    <path d="M67.9289303,16.8054027 L68.0267965,16.7946438 C70.750014,15.8839284 72.7143021,13.3124968 72.7143021,10.2857075 C72.7143021,6.49998868 69.6428698,3.42855644 65.857151,3.42855644 C62.0714322,3.42855644 59,6.49998868 59,10.2857075 C59,13.3124968 60.9642881,15.8839284 63.6875056,16.7946438 C64.0357203,16.8571439 64.1607204,16.6428579 64.1607204,16.4642863 C64.1607204,16.2946432 64.1517919,15.7589283 64.1517919,15.187499 C64.1517919,15.187499 62.2410753,15.5982138 61.8392891,14.3749981 C61.8392891,14.3749981 61.5267887,13.5803543 61.0803596,13.3749969 C61.0803596,13.3749969 60.4553589,12.9464249 61.1250025,12.9553535 C61.1250025,12.9553535 61.8035748,13.008925 62.1785752,13.6607115 C62.7767902,14.7142842 63.7767914,14.4107124 64.169649,14.2321407 C64.2321491,13.7946402 64.4107207,13.4910684 64.6071495,13.3124968 C63.080362,13.1428537 61.4821458,12.5535673 61.4821458,9.92855644 C61.4821458,9.1785633 61.7500033,8.57141972 62.1875038,8.08927628 C62.1160751,7.91070464 61.883932,7.21427524 62.2589325,6.26784554 C62.8303617,6.0892739 64.1428633,6.97320352 64.1428633,6.97320352 C64.6875068,6.82141763 65.2767932,6.74106039 65.857151,6.74106039 C66.4375089,6.74106039 67.0267953,6.82141763 67.5714388,6.97320352 C67.5714388,6.97320352 68.8839404,6.0892739 69.4553696,6.26784554 C69.8303701,7.21427524 69.5982269,7.91070464 69.5267983,8.08927628 C69.9642988,8.57141972 70.2321562,9.1785633 70.2321562,9.92855644 C70.2321562,12.5624959 68.6250115,13.1428537 67.0982239,13.3124968 C67.3482242,13.5267828 67.5625102,13.9374975 67.5625102,14.5803555 C67.5625102,15.4999994 67.5535816,16.2410717 67.5535816,16.4642863 C67.5535816,16.6428579 67.6785818,16.8571439 68.0267965,16.7946438 L67.9289303,16.8054027 Z" id="icon-github-b"></path>
                </g>
            </g>
        </g>
    </g>
</svg>