<?xml version="1.0" encoding="UTF-8"?>
<svg width="48px" height="48px" viewBox="0 0 48 48" version="1.1" xmlns="http://www.w3.org/2000/svg" xmlns:xlink="http://www.w3.org/1999/xlink">
    <!-- Generator: sketchtool 63.1 (101010) - https://sketch.com -->
    <title>D68BBE86-8ECE-444A-B427-BA6B56F736D1</title>
    <desc>Created with sketchtool.</desc>
    <g id="Page-1" stroke="none" stroke-width="1" fill="none" fill-rule="evenodd">
        <g id="PrimeNG---Landing" transform="translate(-199.000000, -488.000000)">
            <g id="topbar" transform="translate(0.000000, 42.000000)">
                <g id="icon-vue" transform="translate(199.000000, 446.000000)">
                    <circle id="Oval" stroke="#41B883" stroke-width="2" fill="#FFFFFF" cx="24" cy="24" r="23"></circle>
                    <g id="head" transform="translate(10.000000, 8.000000)">
                        <polygon id="chick-right" fill="#41B883" fill-rule="nonzero" points="20.4591292 14.4366404 18.2928685 13.955419 19.9777379 16.3615257 19.9777379 23.8204566 25.7544332 19.0082431 25.7544332 10.8274803 23.1067812 11.789923"></polygon>
                        <polygon id="chick-left" fill="#41B883" fill-rule="nonzero" transform="translate(5.415652, 17.323968) scale(-1, 1) translate(-5.415652, -17.323968) " points="3.85113021 14.4366404 1.68486946 13.955419 3.36973893 16.3615257 3.36973893 23.8204566 9.14643424 19.0082431 9.14643424 10.8274803 6.49878222 11.789923"></polygon>
                        <polygon id="mask" fill="#41B883" points="8.18365169 16.8427471 10.1092168 13.955419 11.312695 14.677251 16.1266077 14.677251 17.3300859 13.955419 19.255651 16.8427471 19.255651 27.6702274 17.8114772 29.8357234 16.1266077 31.5199981 11.312695 31.5199981 9.62782551 29.8357234 8.18365169 27.6702274"></polygon>
                        <polygon id="bottom-chick-right" fill="#41B883" fill-rule="nonzero" points="19.9777379 28.3920594 23.1067812 25.2641206 23.1067812 22.1361819 19.9777379 24.7828993"></polygon>
                        <polygon id="bottom-chick-left" fill="#41B883" fill-rule="nonzero" transform="translate(5.897043, 25.264121) scale(-1, 1) translate(-5.897043, -25.264121) " points="4.33252148 28.3920594 7.46156477 25.2641206 7.46156477 22.1361819 4.33252148 24.7828993"></polygon>
                        <path d="M17.888043,2.468 L18.7742598,4.57160278 L15.8859121,13.7148083 L14.2010426,13.7148083 L14.200043,11.401 L17.888043,2.468 Z M9.64004296,2.257 L13.238043,11.553 L13.2382601,13.7148083 L11.7940863,13.7148083 L8.66504296,4.57160278 L9.64004296,2.257 Z M13.2382601,0 L13.238043,9.337 L11.874043,5.815 L12.2754775,6.01526682 L12.2754775,0 L13.2382601,0 Z M15.1638252,3.8191672e-14 L15.1638252,6.01526682 L15.661043,5.766 L14.200043,9.304 L14.2010426,0 L15.1638252,3.8191672e-14 Z M16.8486946,0 L17.451043,1.431 L16.126043,4.64 L16.1266077,3.8191672e-14 L16.8486946,0 Z M11.312695,0 L11.312043,4.362 L10.086043,1.196 L10.5906081,0 L11.312695,0 Z" fill="#455C71"></path>
                        <path d="M27.6799984,3.84977076 L26.2358245,9.86503758 L15.8859121,13.7148083 L15.6452165,13.7148083 L18.5335641,4.57160278 L27.6799984,3.84977076 Z M0,3.84977076 L8.9057386,4.57160278 L12.0347819,13.7148083 L11.7940863,13.7148083 L1.44417383,9.86503758 L0,3.84977076 Z" id="head-right-2" fill="#41B883" fill-rule="nonzero"></path>
                        <polygon id="ear-right" fill="#455C71" fill-rule="nonzero" points="19.255651 3.84977076 24.3102594 3.36854942 20.9405205 0 17.5707816 0"></polygon>
                        <polygon id="ear-left" fill="#455C71" fill-rule="nonzero" transform="translate(6.498782, 1.924885) scale(-1, 1) translate(-6.498782, -1.924885) " points="4.81391276 3.84977076 9.86852115 3.36854942 6.49878222 0 3.12904329 0"></polygon>
                        <polygon id="Path-2" fill="#455C71" fill-rule="nonzero" points="3.75999978 4.15999975 8.95999947 4.55999973 12.0799993 13.7199992 11.7599993 13.7199992 8.3999995 12.4799993"></polygon>
                        <polygon id="Path-3" fill="#455C71" fill-rule="nonzero" points="23.8399986 4.15999975 18.4799989 4.55999973 15.5199991 13.7199992 15.9199991 13.7119992 19.0399989 12.5599993"></polygon>
                        <polygon id="Path-4" fill="#455C71" fill-rule="nonzero" points="9.67999942 14.5599991 10.0799994 13.9199992 11.4399993 14.5599991 16.239999 14.5599991 17.279999 13.9199992 17.7599989 14.5599991 13.7199992 21.4399987"></polygon>
                        <path d="M18.0420811,-5.32907052e-15 L13.6971418,10.5228998 L9.62376124,-5.32907052e-15 L18.0420811,-5.32907052e-15 Z" id="Path-6" fill="#41B883" fill-rule="nonzero"></path>
                    </g>
                </g>
            </g>
        </g>
    </g>
</svg>