<svg xmlns="http://www.w3.org/2000/svg" width="63" height="42" viewBox="0 0 63 42">
    <g fill="#ffffff">
        <path d="M18.438 17.504V27.61H15.22V14.908l6.641.006c2.821 0 3.782 1.99 3.782 3.796v8.9h-3.211v-8.883c0-.757-.392-1.223-1.337-1.223h-2.658zm21.874-.151c-1.1 0-1.95.565-2.306 1.332-.21.46-.283.814-.307 1.378h4.949c-.064-1.378-.689-2.71-2.336-2.71m-2.613 4.9c0 1.645 1.022 2.856 2.849 2.856 1.42 0 2.127-.394 2.948-1.211l1.987 1.897c-1.272 1.256-2.607 2.019-4.959 2.019-3.08 0-6.027-1.68-6.027-6.573 0-4.182 2.574-6.549 5.955-6.549 3.427 0 5.407 2.772 5.407 6.402v1.158h-8.16m-5.917 5.342c-2.62 0-3.733-1.824-3.733-3.626V11.447h3.212v3.46h2.422v2.597H31.26v6.263c0 .738.349 1.147 1.115 1.147h1.307v2.68h-1.901M12.359 13.152h-3.24v-3.077h3.24v3.077zm.008 14.591c-2.426-.233-3.25-1.704-3.25-3.401l.003-9.434h3.247v12.835zm38.604-.27c-2.42-.234-3.242-1.703-3.242-3.399V9.638h3.242v17.834zm11.332-15.749c-2.937-14.323-30.74-15.23-48.661-4.32v1.204c17.902-9.2 43.293-9.146 45.606 4.046.774 4.362-1.684 8.91-6.074 11.525v3.42c5.284-1.933 10.703-8.202 9.13-15.875m-32.577 25.06c-12.368 1.143-25.256-.652-27.06-10.317-.883-4.764 1.288-9.815 4.167-12.952v-1.678c-5.183 4.546-7.996 10.3-6.377 17.1 2.067 8.718 13.129 13.66 30.012 12.018 6.68-.652 15.424-2.8 21.502-6.136v-4.74c-5.515 3.285-14.642 6-22.244 6.705"/>
        <path d="M54.718 10.596c0-.157-.092-.207-.302-.207h-.202v.445l.202.005c.21 0 .302-.07.302-.217v-.026zm.316 1.103h-.24c-.022 0-.04-.013-.05-.032l-.328-.555c-.005-.01-.034-.024-.045-.024h-.147v.55c0 .03-.02.061-.059.061h-.217c-.027 0-.054-.032-.054-.06v-1.394c0-.08.031-.114.1-.124.076-.01.284-.017.396-.017.4 0 .64.117.64.492v.026c0 .232-.115.354-.294.414l.34.575c.002.011.01.027.01.04 0 .023-.014.048-.052.048m-.57-1.847c-.59 0-1.069.488-1.069 1.076 0 .588.478 1.068 1.069 1.068.588 0 1.07-.48 1.07-1.068 0-.588-.482-1.076-1.07-1.076m0 2.365c-.718 0-1.29-.579-1.29-1.29 0-.709.572-1.29 1.29-1.29.71 0 1.293.581 1.293 1.29 0 .711-.583 1.29-1.293 1.29"/>
    </g>
</svg>
