<?xml version="1.0" encoding="UTF-8"?>
<svg width="175px" height="42px" viewBox="0 0 175 42" version="1.1" xmlns="http://www.w3.org/2000/svg" xmlns:xlink="http://www.w3.org/1999/xlink">
    <title>primereact-logo</title>
    <defs>
        <polygon id="path-1" points="2.82650061e-06 0.0528952515 38.5779416 0.0528952515 38.5779416 41.8150827 2.82650061e-06 41.8150827"></polygon>
    </defs>
    <g id="Page-1" stroke="none" stroke-width="1" fill="none" fill-rule="evenodd">
        <g id="primereact-logo">
            <g id="text-primereact" transform="translate(49.068002, 10.575000)" fill-rule="nonzero">
                <path d="M0.0253800009,20.3127992 L0.0253800009,0.431121616 C0.0253800009,0.172245606 0.180705607,0.0169200006 0.439581616,0.0169200006 L6.65260585,0.0169200006 C9.08604034,0.0169200006 10.3804204,1.31130005 10.3804204,3.74473454 L10.3804204,10.0613092 C10.3804204,12.4688561 9.08604034,13.7891237 6.65260585,13.7891237 L3.54609373,13.7891237 L3.54609373,20.3127992 C3.54609373,20.5716752 3.41665573,20.7270008 3.13189212,20.7270008 L0.439581616,20.7270008 C0.180705607,20.7270008 0.0253800009,20.5716752 0.0253800009,20.3127992 Z M3.54609373,10.3719604 L5.82420262,10.3719604 C6.52316784,10.3719604 6.85970666,9.98364637 6.85970666,9.33645635 L6.85970666,4.46958737 C6.85970666,3.79650974 6.52316784,3.43408333 5.82420262,3.43408333 L3.54609373,3.43408333 L3.54609373,10.3719604 Z M23.3501085,3.74473454 L23.3501085,10.0613092 C23.3501085,11.7957784 22.7029184,12.9348329 21.4603136,13.4784725 L23.2465581,20.261024 C23.3242209,20.5716752 23.1688953,20.7270008 22.8841317,20.7270008 L20.1918212,20.7270008 C19.9329451,20.7270008 19.8035071,20.5975628 19.7517319,20.3645744 L18.0172627,13.7891237 L16.2310182,13.7891237 L16.2310182,20.3127992 C16.2310182,20.5716752 16.0756926,20.7270008 15.8168166,20.7270008 L13.1245061,20.7270008 C12.8656301,20.7270008 12.7103045,20.5716752 12.7103045,20.3127992 L12.7103045,0.431121616 C12.7103045,0.172245606 12.8656301,0.0169200006 13.1245061,0.0169200006 L19.6222939,0.0169200006 C22.0557284,0.0169200006 23.3501085,1.31130005 23.3501085,3.74473454 Z M16.2310182,10.3719604 L18.7938907,10.3719604 C19.4669683,10.3719604 19.8293947,10.009534 19.8293947,9.33645635 L19.8293947,4.46958737 C19.8293947,3.79650974 19.4669683,3.43408333 18.7938907,3.43408333 L16.2310182,3.43408333 L16.2310182,10.3719604 Z M26.3530702,0.0169200006 L29.0453807,0.0169200006 C29.3042567,0.0169200006 29.4595823,0.172245606 29.4595823,0.431121616 L29.4595823,20.3127992 C29.4595823,20.5716752 29.3042567,20.7270008 29.0453807,20.7270008 L26.3530702,20.7270008 C26.0683066,20.7270008 25.9388686,20.5716752 25.9388686,20.3127992 L25.9388686,0.431121616 C25.9388686,0.172245606 26.0683066,0.0169200006 26.3530702,0.0169200006 Z M42.8693596,0.0169200006 L46.2865229,0.0169200006 C46.6230617,0.0169200006 46.8042749,0.198133207 46.8042749,0.53467202 L46.8042749,20.2092488 C46.8042749,20.5457876 46.6230617,20.7270008 46.2865229,20.7270008 L43.878976,20.7270008 C43.5424372,20.7270008 43.361224,20.5457876 43.361224,20.2092488 L43.361224,8.55982832 L43.1800108,8.55982832 L40.6171383,20.261024 C40.5394755,20.5716752 40.3582623,20.7270008 40.0476111,20.7270008 L38.7791186,20.7270008 C38.4684674,20.7270008 38.2872542,20.5716752 38.2095914,20.261024 L35.6467189,8.55982832 L35.4655057,8.55982832 L35.4655057,20.2092488 C35.4655057,20.5457876 35.2842925,20.7270008 34.9477537,20.7270008 L32.5660944,20.7270008 C32.2295556,20.7270008 32.0483424,20.5457876 32.0483424,20.2092488 L32.0483424,0.53467202 C32.0483424,0.198133207 32.2295556,0.0169200006 32.5660944,0.0169200006 L35.9832577,0.0169200006 C36.293909,0.0169200006 36.4751222,0.172245606 36.552785,0.482896818 L39.4263087,13.3749221 L42.2998324,0.482896818 C42.3774952,0.172245606 42.5587084,0.0169200006 42.8693596,0.0169200006 Z M59.7221878,0.431121616 L59.7221878,3.01988171 C59.7221878,3.27875772 59.6186374,3.45997093 59.3079862,3.45997093 L52.836086,3.45997093 L52.836086,8.63749112 L57.7806177,8.63749112 C58.0394938,8.63749112 58.1948194,8.79281673 58.1948194,9.07758034 L58.1948194,11.6404528 C58.1948194,11.9252164 58.0394938,12.080542 57.7806177,12.080542 L52.836086,12.080542 L52.836086,17.3098374 L59.3079862,17.3098374 C59.6186374,17.3098374 59.7221878,17.4392754 59.7221878,17.7240391 L59.7221878,20.3127992 C59.7221878,20.5716752 59.6186374,20.7270008 59.3079862,20.7270008 L49.7813491,20.7270008 C49.5483606,20.7270008 49.393035,20.5716752 49.393035,20.3127992 L49.393035,0.431121616 C49.393035,0.172245606 49.5483606,0.0169200006 49.7813491,0.0169200006 L59.3079862,0.0169200006 C59.6186374,0.0169200006 59.7221878,0.172245606 59.7221878,0.431121616 Z" id="PRIME" fill="#FFFFFF"></path>
                <path d="M72.8461863,3.74473454 L72.8461863,10.0613092 C72.8461863,11.7957784 72.1989963,12.9348329 70.9563914,13.4784725 L72.7426359,20.261024 C72.8202987,20.5716752 72.6649731,20.7270008 72.3802095,20.7270008 L69.687899,20.7270008 C69.429023,20.7270008 69.299585,20.5975628 69.2478098,20.3645744 L67.5133405,13.7891237 L65.727096,13.7891237 L65.727096,20.3127992 C65.727096,20.5716752 65.5717704,20.7270008 65.3128944,20.7270008 L62.6205839,20.7270008 C62.3617079,20.7270008 62.2063823,20.5716752 62.2063823,20.3127992 L62.2063823,0.431121616 C62.2063823,0.172245606 62.3617079,0.0169200006 62.6205839,0.0169200006 L69.1183718,0.0169200006 C71.5518063,0.0169200006 72.8461863,1.31130005 72.8461863,3.74473454 Z M65.727096,10.3719604 L68.2899685,10.3719604 C68.9630462,10.3719604 69.3254726,10.009534 69.3254726,9.33645635 L69.3254726,4.46958737 C69.3254726,3.79650974 68.9630462,3.43408333 68.2899685,3.43408333 L65.727096,3.43408333 L65.727096,10.3719604 Z M85.7640992,0.431121616 L85.7640992,3.01988171 C85.7640992,3.27875772 85.6605488,3.45997093 85.3498976,3.45997093 L78.8779973,3.45997093 L78.8779973,8.63749112 L83.8225291,8.63749112 C84.0814051,8.63749112 84.2367307,8.79281673 84.2367307,9.07758034 L84.2367307,11.6404528 C84.2367307,11.9252164 84.0814051,12.080542 83.8225291,12.080542 L78.8779973,12.080542 L78.8779973,17.3098374 L85.3498976,17.3098374 C85.6605488,17.3098374 85.7640992,17.4392754 85.7640992,17.7240391 L85.7640992,20.3127992 C85.7640992,20.5716752 85.6605488,20.7270008 85.3498976,20.7270008 L75.8232604,20.7270008 C75.590272,20.7270008 75.4349464,20.5716752 75.4349464,20.3127992 L75.4349464,0.431121616 C75.4349464,0.172245606 75.590272,0.0169200006 75.8232604,0.0169200006 L85.3498976,0.0169200006 C85.6605488,0.0169200006 85.7640992,0.172245606 85.7640992,0.431121616 Z M100.054055,20.7270008 L97.3099692,20.7270008 C97.0769808,20.7270008 96.9475428,20.5975628 96.8957676,20.3645744 L96.1709148,16.5849846 L91.5629218,16.5849846 L90.8639566,20.3645744 C90.8121814,20.5975628 90.6827434,20.7270008 90.449755,20.7270008 L87.6797817,20.7270008 C87.3950181,20.7270008 87.26558,20.5716752 87.3432428,20.2869116 L91.6405846,0.379346414 C91.6923598,0.120470404 91.8476854,0.0169200006 92.0806738,0.0169200006 L95.6790504,0.0169200006 C95.9120388,0.0169200006 96.0673644,0.120470404 96.1191396,0.379346414 L100.416481,20.2869116 C100.468257,20.5716752 100.364706,20.7270008 100.054055,20.7270008 Z M95.5237248,13.5820229 L93.8669183,4.54725017 L92.2101118,13.5820229 L95.5237248,13.5820229 Z M112.609541,3.74473454 L112.609541,6.54059544 C112.609541,6.79947145 112.454216,6.95479706 112.19534,6.95479706 L109.60658,6.95479706 C109.321816,6.95479706 109.192378,6.79947145 109.192378,6.54059544 L109.192378,4.46958737 C109.192378,3.79650974 108.829952,3.43408333 108.156874,3.43408333 L106.810719,3.43408333 C106.111754,3.43408333 105.775215,3.79650974 105.775215,4.46958737 L105.775215,16.2743334 C105.775215,16.9732986 106.137641,17.3098374 106.810719,17.3098374 L108.156874,17.3098374 C108.829952,17.3098374 109.192378,16.9732986 109.192378,16.2743334 L109.192378,14.2033253 C109.192378,13.9444493 109.321816,13.7891237 109.60658,13.7891237 L112.19534,13.7891237 C112.454216,13.7891237 112.609541,13.9444493 112.609541,14.2033253 L112.609541,16.9991862 C112.609541,19.4326207 111.289274,20.7270008 108.881727,20.7270008 L105.982316,20.7270008 C103.548881,20.7270008 102.228613,19.4326207 102.228613,16.9991862 L102.228613,3.74473454 C102.228613,1.31130005 103.548881,0.0169200006 105.982316,0.0169200006 L108.881727,0.0169200006 C111.289274,0.0169200006 112.609541,1.31130005 112.609541,3.74473454 Z M114.318123,0.0169200006 L123.84476,0.0169200006 C124.129524,0.0169200006 124.258962,0.172245606 124.258962,0.431121616 L124.258962,3.01988171 C124.258962,3.27875772 124.129524,3.43408333 123.84476,3.43408333 L120.841798,3.43408333 L120.841798,20.3127992 C120.841798,20.5975628 120.71236,20.7270008 120.427597,20.7270008 L117.735286,20.7270008 C117.47641,20.7270008 117.321085,20.5975628 117.321085,20.3127992 L117.321085,3.43408333 L114.318123,3.43408333 C114.059247,3.43408333 113.903921,3.27875772 113.903921,3.01988171 L113.903921,0.431121616 C113.903921,0.172245606 114.059247,0.0169200006 114.318123,0.0169200006 Z" id="REACT" fill="#03C4E8"></path>
            </g>
            <g id="primereact-icon">
                <g id="base" transform="translate(0.000000, 0.002784)">
                    <mask id="mask-2" fill="white">
                        <use xlink:href="#path-1"></use>
                    </mask>
                    <g id="path-1"></g>
                    <path d="M36.6914432,30.9054092 C35.871758,32.3036256 34.4037867,33.138424 32.7645294,33.138424 L27.746021,33.138424 L34.1820195,22.1585391 L36.6913301,26.4393239 C37.5110153,27.837596 37.5110153,29.5071372 36.6914432,30.9054092 Z M26.8921917,32.0936593 L26.8216423,32.2140377 L26.6737597,32.4663202 L25.8877665,33.8072984 L25.7524336,34.0381444 L24.119112,36.8246662 L23.6266225,37.6648098 L23.2797543,38.2565128 L23.2666959,38.2595195 L23.2588948,38.2727712 C22.4282428,39.6899742 20.9129558,40.0981028 19.2516518,40.0981028 C17.5926655,40.0981028 16.1343043,39.692257 15.3030305,38.2787846 L15.2768005,38.2722144 L14.4337119,36.8339647 L14.2225158,36.4737202 L5.12892844,20.9601554 L6.77836113,18.1463507 L6.77858726,18.1472973 L9.68796085,13.1864465 L9.6859258,13.1860568 L10.0161741,12.6227502 L10.0183223,12.62314 L12.3017391,8.72954833 L26.3108936,8.72470423 L33.4489948,20.9079283 L26.8306305,32.198726 L26.8921917,32.0936593 Z M23.1643766,38.446713 C23.1948463,38.3988846 23.2246376,38.3504994 23.2535244,38.3012789 C23.2246376,38.3504994 23.1948463,38.3988846 23.1643766,38.446713 Z M23.069915,38.5890848 C23.0920182,38.5570136 23.1136692,38.5244412 23.134981,38.4916462 C23.1136692,38.5244412 23.0920182,38.5570136 23.069915,38.5890848 Z M22.9692915,38.7293407 C22.9915078,38.6994967 23.0133849,38.6693185 23.0349794,38.6389177 C23.0133849,38.6693185 22.9915078,38.6994967 22.9692915,38.7293407 Z M22.8588884,38.8716011 C22.8842138,38.8402537 22.9092566,38.8086279 22.9338472,38.776501 C22.9092566,38.8086279 22.8842138,38.8402537 22.8588884,38.8716011 Z M22.6050121,39.1607432 C22.6826844,39.0796743 22.7575866,38.995376 22.8295493,38.9081267 C22.7575866,38.995376 22.6826844,39.0796743 22.6050121,39.1607432 Z M22.4860164,39.2802309 C22.5175037,39.2497186 22.5484821,39.2186496 22.5791214,39.1870795 C22.5484821,39.2186496 22.5175037,39.2497186 22.4860164,39.2802309 Z M22.3600676,39.3976583 C22.3914417,39.3695403 22.4223636,39.3408655 22.4529464,39.311801 C22.4223636,39.3408655 22.3914417,39.3695403 22.3600676,39.3976583 Z M22.2206646,39.5179811 C22.2570134,39.4879143 22.2929099,39.4572907 22.3284108,39.425999 C22.2929099,39.4572907 22.2570134,39.4879143 22.2206646,39.5179811 Z M21.9271042,39.7415331 C22.0212832,39.6758873 22.1129749,39.6064553 22.2021227,39.5335156 C22.1129749,39.6064553 22.0212267,39.6758316 21.9271042,39.7415331 Z M21.7870229,39.8352969 C21.8305509,39.8072346 21.8737399,39.7784484 21.9163635,39.7488828 C21.8737399,39.7784484 21.8305509,39.8072346 21.7870229,39.8352969 Z M21.6393099,39.9263324 C21.6812552,39.9015552 21.7226352,39.8761654 21.7637325,39.8501076 C21.7226352,39.8761654 21.6812552,39.9015552 21.6393099,39.9263324 Z M21.475599,40.0187042 C21.5233669,39.9930918 21.570626,39.9665328 21.6173763,39.93925 C21.570626,39.9665328 21.5233669,39.9930918 21.475599,40.0187042 Z M21.1538302,40.1751072 C21.2618025,40.1278912 21.3676832,40.0764436 21.4713027,40.0210428 C21.3676832,40.0764436 21.2618025,40.1278355 21.1538302,40.1751072 Z M17.0759247,40.0210428 C17.1796573,40.0764436 17.285538,40.1278912 17.3935103,40.1751628 C17.285538,40.1278355 17.1796573,40.0764436 17.0759247,40.0210428 Z M16.9299077,39.93925 C16.976771,39.9665328 17.0240302,39.9931475 17.0718545,40.0187599 C17.0240302,39.9931475 16.976771,39.9665328 16.9299077,39.93925 Z M16.783721,39.8501633 C16.8247053,39.8761654 16.8660853,39.9015552 16.9079175,39.9263324 C16.8660853,39.9015552 16.8247053,39.8761654 16.783721,39.8501633 Z M16.6309769,39.7488828 C16.6736006,39.7784484 16.7166764,39.8072346 16.7602611,39.8352969 C16.7166764,39.8072346 16.6736006,39.7784484 16.6309769,39.7488828 Z M16.3452743,39.5335712 C16.4343656,39.6064553 16.5260573,39.6758873 16.6201797,39.7415331 C16.5260573,39.6758316 16.4343656,39.6064553 16.3452743,39.5335712 Z M16.2189297,39.425999 C16.2543175,39.4572351 16.2902141,39.4878586 16.3265063,39.5179254 C16.2902141,39.4878586 16.2543175,39.4572351 16.2189297,39.425999 Z M16.0943941,39.311801 C16.1249768,39.3409212 16.1558987,39.3695403 16.1872164,39.3976583 C16.1558987,39.3695403 16.1249768,39.3409212 16.0943941,39.311801 Z M15.9684452,39.1873579 C15.9989714,39.2188167 16.0298368,39.2497743 16.061211,39.2801752 C16.0298368,39.2497743 15.9989714,39.2188167 15.9684452,39.1873579 Z M15.7177346,38.9081267 C15.7896973,38.995376 15.864543,39.079563 15.9421587,39.1606319 C15.864543,39.079563 15.7896973,38.995376 15.7177346,38.9081267 Z M15.6135498,38.7765567 C15.6380838,38.8086279 15.6630701,38.8402537 15.688339,38.8714897 C15.6630701,38.8402537 15.6380838,38.8086279 15.6135498,38.7765567 Z M15.5124176,38.639029 C15.5339555,38.6694299 15.5558327,38.6994967 15.5779924,38.729285 C15.5558327,38.6994967 15.5339555,38.6694299 15.5124176,38.639029 Z M15.4123595,38.4917019 C15.4336713,38.5244412 15.4552658,38.5569579 15.477369,38.5889734 C15.4552658,38.5569579 15.4336713,38.5244412 15.4123595,38.4917019 Z M15.2938161,38.3012789 C15.3227029,38.3504994 15.3525507,38.3988846 15.3829639,38.446713 C15.3525507,38.3988846 15.3227029,38.3504994 15.2938161,38.3012789 Z M5.7713355,33.138424 C4.14728478,33.138424 2.69293715,32.3114207 1.88088352,30.9260662 C1.06888643,29.5407674 1.06888643,27.8866494 1.88088352,26.5012949 L4.39584725,22.2108775 L10.8012629,33.138424 L5.7713355,33.138424 Z M1.88659306,15.4287041 C1.06696441,14.030432 1.06696441,12.3608352 1.88659306,10.9626188 C2.70616517,9.56434675 4.17413653,8.72954833 5.81339381,8.72954833 L10.8319587,8.72954833 L4.39584725,19.7094889 L1.88659306,15.4287041 Z M15.3245118,3.56674907 C16.1551638,2.14960177 17.6429773,1.30361182 19.3043378,1.30361182 C20.9656418,1.30361182 22.4534552,2.14960177 23.2840506,3.56674907 L25.5772471,7.47888185 L13.0313154,7.47888185 L15.3245118,3.56674907 Z M32.8065877,8.72954833 C34.430695,8.72954833 35.8850991,9.55660734 36.6970962,10.9419618 C37.5091498,12.3272049 37.5090933,13.981323 36.6970962,15.3666775 L34.182076,19.6572061 L27.7766603,8.72954833 L32.8065877,8.72954833 Z M34.9152137,20.9078169 L37.796718,15.9920107 C38.83834,14.21512 38.83834,12.0934636 37.7967745,10.3165729 C36.7552091,8.53973789 34.8897187,7.47888185 32.8065877,7.47888185 L27.0435226,7.47888185 L24.3837855,2.94141584 C23.3235651,1.13273232 21.4248351,0.0528896836 19.3043378,0.0528896836 C17.1840666,0.0528896836 15.2849408,1.13284368 14.2248335,2.94141584 L11.5650964,7.47888185 L5.81339381,7.47888185 C3.71511283,7.47888185 1.83599869,8.54742161 0.7868582,10.3372856 C-0.262282298,12.1270938 -0.262282298,14.264229 0.7868582,16.0540373 L3.66270951,20.9601554 L0.781205196,25.8760173 C-0.260360277,27.6528524 -0.260360277,29.7745087 0.781205196,31.5514551 C1.82277067,33.3282901 3.68826107,34.3890905 5.7713355,34.3890905 L11.5344007,34.3890905 L14.1941377,38.9266122 C15.2543581,40.7352957 17.1532577,41.8150827 19.2736985,41.8150827 C21.3941393,41.8150827 23.2929824,40.7352957 24.3530897,38.9266122 L27.0128833,34.3890905 L32.7645294,34.3890905 C34.8628104,34.3890905 36.741981,33.3205507 37.7911216,31.5306868 C38.8402055,29.7409342 38.8402055,27.6038546 37.7910085,25.8140464 L34.9152137,20.9078169 Z" id="bg-base" fill="#03C4E8" fill-rule="nonzero" mask="url(#mask-2)"></path>
                </g>
                <g id="head" transform="translate(5.703750, 8.723077)" fill="#03C4E8">
                    <polygon id="chick-right" fill-rule="nonzero" points="20.4304883 14.1833229 18.2672601 13.7105455 19.9497709 16.0744327 19.9497709 23.4024828 25.2796293 18.6747085 25.7183793 10.6374922 23.0744338 11.5830471"></polygon>
                    <polygon id="chick-left" fill-rule="nonzero" transform="translate(5.408070, 17.019988) scale(-1, 1) translate(-5.408070, -17.019988) " points="3.84573896 14.1833229 1.6825108 13.7105455 3.36502159 16.0744327 3.36502159 23.4024828 8.69488006 18.6747085 9.13363004 10.6374922 6.4896845 11.5830471"></polygon>
                    <polygon id="mask" points="8.1721953 16.5472101 10.0950648 13.7105455 11.2968582 14.4197117 16.1040319 14.4197117 17.3058253 13.7105455 19.2286948 16.5472101 19.2286948 27.1847023 16.9815319 31.4030756 9.98060827 31.4030756 8.1721953 27.1847023"></polygon>
                    <polygon id="bottom-chick-right" fill-rule="nonzero" points="19.9497709 27.8938684 23.0744338 24.8208151 23.0744338 21.7477618 19.9497709 24.3480377"></polygon>
                    <polygon id="bottom-chick-left" fill-rule="nonzero" transform="translate(5.888788, 24.820815) scale(-1, 1) translate(-5.888788, -24.820815) " points="4.32645634 27.8938684 7.45111924 24.8208151 7.45111924 21.7477618 4.32645634 24.3480377"></polygon>
                    <path d="M16.825108,0 L18.7479775,4.4913856 L15.8636732,13.4741568 L14.1811624,13.4741568 L14.1811624,0 L16.825108,0 Z M13.2197277,13.4741568 L11.7775756,13.4741568 L8.65291267,4.4913856 L10.5757822,0 L13.2197277,0 L13.2197277,13.4741568 Z"></path>
                    <polygon id="head-left" fill-rule="nonzero" points="11.7775756 13.4741568 1.44215211 9.69193734 0 3.78221945 8.89327136 4.4913856 12.0179343 13.4741568"></polygon>
                    <polygon id="head-right" fill-rule="nonzero" transform="translate(21.632282, 8.628188) scale(-1, 1) translate(-21.632282, -8.628188) " points="27.4008901 13.4741568 17.0654667 9.69193734 15.6233145 3.78221945 24.7569446 4.4913856 27.6412488 13.4741568"></polygon>
                    <polygon id="ear-right" fill-rule="nonzero" points="19.2286948 3.78221945 23.8374772 3.30944202 20.9112056 0 17.546184 0"></polygon>
                    <polygon id="ear-left" fill-rule="nonzero" transform="translate(6.709059, 1.891110) scale(-1, 1) translate(-6.709059, -1.891110) " points="5.24592369 3.78221945 9.8547061 3.30944202 6.92843448 0 3.56341289 0"></polygon>
                </g>
            </g>
        </g>
    </g>
</svg>