<svg xmlns="http://www.w3.org/2000/svg" xmlns:xlink="http://www.w3.org/1999/xlink" width="102" height="17" viewBox="0 0 102 17">
    <defs>
        <path id="prefix__a" d="M5.893 7.51L5.893 0.359 0.361 0.359 0.361 7.51 5.893 7.51z"/>
        <path id="prefix__c" d="M0 0.551L0 9.838 9.807 9.838 9.807 0.551 0 0.551z"/>
    </defs>
    <g fill="none" fill-rule="evenodd">
        <path fill="#ffffff" d="M64.711 8.075L64.769 8.075 65.18 13.347 66.295 13.347 69.232 6.569 68.175 6.569 66.002 11.903 65.65 6.569 64.417 6.569 62.303 11.903 61.949 6.569 60.776 6.569 61.481 13.347 62.597 13.347zM71.23 5.377L71.23 5.377 71.463 4.059 70.406 4.059 70.172 5.377zM71.051 6.568L71.051 6.568 69.995 6.568 68.878 13.346 69.937 13.346z"/>
        <g>
            <path fill="#ffffff" d="M1.766 5.885c.176-1.003.94-1.82 1.938-1.82h.354l.232-1.19h-.293c-.821 0-1.467.5-1.994 1.316l.175-1.13h-1L.006 9.837h1.116l.645-3.953zM4.936 5.885c.179-.942.94-1.82 1.763-1.946V2.937c-1.701.25-2.702 1.82-3.052 3.702-.296 1.943.527 3.387 2.288 3.387.295 0 .588 0 .764-.061V8.96c-.118.062-.294.062-.469.062-1.176 0-1.704-.815-1.469-2.195H6.7v-.942H4.936zM6.7 9.965V8.96c.765-.19 1.293-.817 1.41-1.256h1.056c-.058.315-.53 1.318-1.409 1.883-.236.126-.529.313-1.057.378zm0-6.026c.118-.062.236-.062.354-.062 1.29 0 1.525 1.005 1.407 2.008H6.7v.942H9.4c.059-.378.118-.753.118-1.067v-.44c-.06-1.505-.764-2.446-2.173-2.446-.235 0-.41 0-.646.063v1.002zM13.921 5.885c.179-.942.94-1.82 1.822-1.946V2.937c-1.762.25-2.762 1.82-3.055 3.702-.351 1.943.471 3.387 2.29 3.387.293 0 .529 0 .765-.061V8.96c-.177.062-.294.062-.472.062-1.232 0-1.7-.815-1.468-2.195h1.94v-.942h-1.822zm1.822 4.08V8.96c.762-.19 1.29-.817 1.408-1.256h1.058c-.118.315-.529 1.318-1.468 1.883-.236.126-.529.313-.998.378zm0-6.026c.057-.062.176-.062.293-.062 1.29 0 1.527 1.005 1.408 2.008h-1.701v.942h2.7c.06-.378.06-.753.117-1.067v-.44c-.058-1.505-.762-2.446-2.23-2.446-.176 0-.411 0-.587.063v1.002zM12.57.551L11.513.551 9.987 9.839 11.045 9.839zM24.374 5.006c.06-.376.177-2.132-2.055-2.132-1.292 0-2.526.626-2.82 2.132-.116.942.354 1.444 1.234 1.694l1.174.314c.881.25 1.176.44 1.116.942-.118.752-.88 1.066-1.643 1.066-1.527 0-1.527-.816-1.47-1.38h-1.056c-.059.816-.176 2.384 2.35 2.384 1.468 0 2.7-.815 2.935-2.258.117-.88-.234-1.444-1.527-1.757l-.997-.314c-.822-.189-1.115-.314-1-.88.118-.878 1.058-1.002 1.411-1.002 1.35 0 1.35.753 1.29 1.191h1.058z" transform="translate(71.4 3.508)"/>
            <g transform="translate(71.4 3.508) translate(24.323 2.515)">
                <mask id="prefix__b" fill="#fff">
                    <use xlink:href="#prefix__a"/>
                </mask>
                <path fill="#ffffff" d="M5.865 2.49C5.922 2.116 6.101.36 3.81.36c-1.233 0-2.527.626-2.76 2.132-.177.941.351 1.444 1.173 1.693l1.176.315c.88.25 1.233.44 1.115.941-.119.752-.881 1.067-1.643 1.067-1.47 0-1.47-.816-1.47-1.38H.404C.287 5.944.227 7.51 2.753 7.51c1.407 0 2.641-.815 2.876-2.257.118-.88-.235-1.444-1.469-1.757l-1.054-.314c-.764-.189-1.118-.315-1-.88C2.223 1.423 3.222 1.3 3.518 1.3c1.35 0 1.407.753 1.35 1.192h.997z" mask="url(#prefix__b)"/>
            </g>
        </g>
        <path fill="#ffffff" d="M31.709 4.059L31.298 6.758 35.584 6.758 30.065 14.538 29.712 16.923 38.346 16.923 58.31 16.923 58.721 15.07 34.057 14.161 39.578 6.382 39.989 4.059z"/>
        <g>
            <path fill="#ffffff" d="M29.361 13.192L29.361 13.192 25.895 13.192 27.421 3.905 30.887 3.905zM27.6 2.713L27.6 2.713 28.067.077 31.532.077 31.062 2.713z" transform="translate(0 .154)"/>
            <g transform="translate(0 .154) translate(0 3.354)">
                <mask id="prefix__d" fill="#fff">
                    <use xlink:href="#prefix__c"/>
                </mask>
                <path fill="#ffffff" d="M1.466 9.838L0 0.551 3.463 0.551 3.993 6.387 6.517 0.551 9.807 0.551 5.343 9.838z" mask="url(#prefix__d)"/>
            </g>
            <path fill="#ffffff" d="M49.384 13.192l1.526-9.287h3.172l-.234 1.505c.94-1.129 1.937-1.757 3.229-1.757 2.29 0 3.172 1.444 2.7 3.954l-.88 5.585h-3.466l.765-4.956c.174-.878.06-1.695-.881-1.695-1.057 0-1.467.69-1.703 1.882l-.764 4.77h-3.464zM18.79 13.192l1.527-9.287h3.17l-.35 1.82h.057c.704-1.38 1.704-2.072 2.995-2.072.117 0 .292.063.41.063l-.585 3.642c-.237-.066-.471-.127-.648-.127-1.408 0-2.23.753-2.584 2.762l-.528 3.2H18.79zM44.569 6.165c-.881.25-1.292 1.38-1.467 2.258-.295 1.757.233 2.574 1.115 2.574.118 0 .236-.063.352-.063v2.445c-.295.063-.587.063-.94.063-2.818 0-4.698-1.63-4.168-4.83.467-2.95 2.524-4.644 5.108-4.896v2.449zm.47-.063c-.175 0-.293 0-.47.063V3.716c.234-.063.47-.063.645-.063 3.113 0 4.7 1.946 4.228 4.77-.527 3.013-2.466 4.644-4.873 4.956v-2.445c.763-.189 1.291-1.004 1.527-2.511.233-1.38-.178-2.385-1.057-2.321zM12.33 7.481h1.586v1.884h-1.88c-.175 1.128.472 1.819 1.41 1.819.177 0 .295 0 .47-.062v2.258c-.353.062-.704.062-1.058.062-2.817 0-4.696-1.693-4.169-4.83.47-2.824 2.644-4.707 5.227-4.896V5.85c-.88.125-1.408.753-1.587 1.631zm1.586 5.899v-2.258a1.84 1.84 0 00.94-.754h3.347c-.822 1.946-2.584 2.76-4.287 3.012zm0-5.899h1.586c.117-.878-.47-1.63-1.293-1.63h-.293V3.715c.176-.062.352-.062.529-.062 3.23 0 4.814 2.32 4.17 5.711h-4.7V7.481z" transform="translate(0 .154)"/>
        </g>
    </g>
</svg>
