<svg xmlns="http://www.w3.org/2000/svg" width="39" height="40" viewBox="0 0 39 40">
    <g fill="#ffffff" fill-rule="evenodd">
        <path d="M23.073 5.825a14.39 14.39 0 00-3.709-.487c-1.255 0-2.47.168-3.628.47l3.677 10.299 3.66-10.282zM33.857 20.07c0-1.837-.31-3.592-.915-5.216l-6.897 18.268a14.782 14.782 0 007.812-13.053"/>
        <path d="M26.66 7.338l-4.253 11.876H16.421L12.153 7.287a14.726 14.726 0 00-4.098 3.557l6.062 15.953 2.22-5.827h5.822l2.22 5.827 6.12-16.142a14.59 14.59 0 00-3.84-3.317"/>
        <path d="M19.365 37.194c-9.295 0-16.891-7.693-16.891-17.125 0-9.451 7.596-17.158 16.89-17.158 9.295 0 16.892 7.707 16.892 17.158 0 9.432-7.597 17.125-16.891 17.125m0-36.78C8.71.413 0 9.234 0 20.07c0 10.801 8.71 19.636 19.365 19.636 10.665 0 19.347-8.835 19.347-19.636C38.712 9.235 30.03.413 19.365.413"/>
        <path d="M19.238 24.094l-3.741 9.851-.017.306c1.238.353 2.538.53 3.885.53 1.265 0 2.492-.161 3.659-.467l-.042-.369-3.744-9.85zM4.858 20.07c0 5.537 3.043 10.398 7.545 12.892L5.681 15.178a14.653 14.653 0 00-.823 4.891"/>
    </g>
</svg>
