<svg width="140" height="40" viewBox="0 0 140 40" fill="none" xmlns="http://www.w3.org/2000/svg">
<g filter="url(#filter0_dd_1046_105539)">
<circle cx="20" cy="20" r="19" stroke="white" stroke-opacity="0.87" stroke-width="2"/>
</g>
<path d="M35.8259 10.0575H3.62061V10.3007H35.8259V10.0575Z" fill="#495057" fill-opacity="0.5"/>
<path d="M38.196 16.2153H1.51099V16.4585H38.196V16.2153Z" fill="#495057" fill-opacity="0.5"/>
<path d="M38.2203 22.5198H1.46021V22.7647H38.2203V22.5198Z" fill="#495057" fill-opacity="0.5"/>
<path d="M36.4897 28.7495H3.15845V28.9948H36.4897V28.7495Z" fill="#495057" fill-opacity="0.5"/>
<path d="M18.258 0.745136L18.0569 0.625L2.89163 28.5555L3.09275 28.6757L18.258 0.745136Z" fill="#495057" fill-opacity="0.5"/>
<path d="M24.7927 1.33747L24.5918 1.21704L6.70444 34.051L6.90537 34.1715L24.7927 1.33747Z" fill="#495057" fill-opacity="0.5"/>
<path d="M30.2568 3.89703L30.0564 3.77563L11.481 37.5142L11.6814 37.6356L30.2568 3.89703Z" fill="#495057" fill-opacity="0.5"/>
<path d="M34.8568 8.36101L34.6572 8.23804L17.2043 39.3938L17.4039 39.5168L34.8568 8.36101Z" fill="#495057" fill-opacity="0.5"/>
<path d="M37.8638 15.1027L37.6636 14.981L24.3961 38.994L24.5964 39.1157L37.8638 15.1027Z" fill="#495057" fill-opacity="0.5"/>
<path fill-rule="evenodd" clip-rule="evenodd" d="M34.9999 7.8125L38.1249 14.375L26.6701 35.1446L9.72192 3.87728L15.3124 0.9375L26.7489 22.6438L34.9999 7.8125Z" fill="white" fill-opacity="0.87"/>
<path d="M26.6697 35.2349L26.6328 35.1669L9.64893 3.83334L16.5629 3.71368L16.5752 3.73693L26.7493 22.5538L33.6907 10.1564L37.0868 16.3689L37.0745 16.3913L26.6697 35.2349ZM9.79501 3.92071L26.6705 35.0541L36.9879 16.3685L33.6903 10.3359L26.7481 22.7338L26.7116 22.6657L16.5132 3.8045L9.79501 3.92071Z" fill="white" fill-opacity="0.87"/>
<path d="M66.7 13.317L60.568 28.5H58.0165L51.8845 13.317H54.1525C54.3975 13.317 54.597 13.3765 54.751 13.4955C54.905 13.6145 55.0205 13.7685 55.0975 13.9575L58.678 23.2185C58.797 23.5195 58.909 23.852 59.014 24.216C59.126 24.573 59.231 24.9475 59.329 25.3395C59.413 24.9475 59.504 24.573 59.602 24.216C59.7 23.852 59.8085 23.5195 59.9275 23.2185L63.487 13.9575C63.543 13.7965 63.6515 13.6495 63.8125 13.5165C63.9805 13.3835 64.1835 13.317 64.4215 13.317H66.7ZM71.1066 15.564V19.7745H76.4196V21.948H71.1066V26.2425H77.8476V28.5H68.2716V13.317H77.8476V15.564H71.1066ZM84.9392 20.541C85.4712 20.541 85.9332 20.4745 86.3252 20.3415C86.7242 20.2085 87.0497 20.0265 87.3017 19.7955C87.5607 19.5575 87.7532 19.2775 87.8792 18.9555C88.0052 18.6335 88.0682 18.28 88.0682 17.895C88.0682 17.125 87.8127 16.5335 87.3017 16.1205C86.7977 15.7075 86.0242 15.501 84.9812 15.501H83.1752V20.541H84.9392ZM92.2052 28.5H89.6537C89.1707 28.5 88.8207 28.311 88.6037 27.933L85.4117 23.0715C85.2927 22.8895 85.1597 22.76 85.0127 22.683C84.8727 22.606 84.6627 22.5675 84.3827 22.5675H83.1752V28.5H80.3507V13.317H84.9812C86.0102 13.317 86.8922 13.4255 87.6272 13.6425C88.3692 13.8525 88.9747 14.15 89.4437 14.535C89.9197 14.92 90.2697 15.382 90.4937 15.921C90.7177 16.453 90.8297 17.041 90.8297 17.685C90.8297 18.196 90.7527 18.679 90.5987 19.134C90.4517 19.589 90.2347 20.002 89.9477 20.373C89.6677 20.744 89.3177 21.0695 88.8977 21.3495C88.4847 21.6295 88.0122 21.85 87.4802 22.011C87.6622 22.116 87.8302 22.242 87.9842 22.389C88.1382 22.529 88.2782 22.697 88.4042 22.893L92.2052 28.5ZM108.119 20.9085C108.119 22.0215 107.934 23.054 107.563 24.006C107.199 24.951 106.681 25.77 106.009 26.463C105.337 27.156 104.528 27.6985 103.583 28.0905C102.638 28.4755 101.588 28.668 100.433 28.668C99.2852 28.668 98.2387 28.4755 97.2937 28.0905C96.3487 27.6985 95.5367 27.156 94.8577 26.463C94.1857 25.77 93.6642 24.951 93.2932 24.006C92.9222 23.054 92.7367 22.0215 92.7367 20.9085C92.7367 19.7955 92.9222 18.7665 93.2932 17.8215C93.6642 16.8695 94.1857 16.047 94.8577 15.354C95.5367 14.661 96.3487 14.122 97.2937 13.737C98.2387 13.345 99.2852 13.149 100.433 13.149C101.203 13.149 101.928 13.24 102.607 13.422C103.286 13.597 103.909 13.849 104.476 14.178C105.043 14.5 105.55 14.8955 105.998 15.3645C106.453 15.8265 106.838 16.3445 107.153 16.9185C107.468 17.4925 107.706 18.1155 107.867 18.7875C108.035 19.4595 108.119 20.1665 108.119 20.9085ZM105.232 20.9085C105.232 20.0755 105.12 19.33 104.896 18.672C104.672 18.007 104.353 17.4435 103.94 16.9815C103.527 16.5195 103.023 16.166 102.428 15.921C101.84 15.676 101.175 15.5535 100.433 15.5535C99.6912 15.5535 99.0227 15.676 98.4277 15.921C97.8397 16.166 97.3357 16.5195 96.9157 16.9815C96.5027 17.4435 96.1842 18.007 95.9602 18.672C95.7362 19.33 95.6242 20.0755 95.6242 20.9085C95.6242 21.7415 95.7362 22.4905 95.9602 23.1555C96.1842 23.8135 96.5027 24.3735 96.9157 24.8355C97.3357 25.2905 97.8397 25.6405 98.4277 25.8855C99.0227 26.1305 99.6912 26.253 100.433 26.253C101.175 26.253 101.84 26.1305 102.428 25.8855C103.023 25.6405 103.527 25.2905 103.94 24.8355C104.353 24.3735 104.672 23.8135 104.896 23.1555C105.12 22.4905 105.232 21.7415 105.232 20.9085ZM123.399 13.317V28.5H121.95C121.726 28.5 121.537 28.465 121.383 28.395C121.236 28.318 121.093 28.192 120.953 28.017L113.025 17.895C113.067 18.357 113.088 18.784 113.088 19.176V28.5H110.6V13.317H112.08C112.199 13.317 112.301 13.324 112.385 13.338C112.476 13.345 112.553 13.366 112.616 13.401C112.686 13.429 112.752 13.4745 112.815 13.5375C112.878 13.5935 112.948 13.6705 113.025 13.7685L120.984 23.9325C120.963 23.6875 120.946 23.446 120.932 23.208C120.918 22.97 120.911 22.7495 120.911 22.5465V13.317H123.399ZM134.802 22.767L132.954 17.7165C132.863 17.4925 132.769 17.2265 132.671 16.9185C132.573 16.6105 132.475 16.278 132.377 15.921C132.286 16.278 132.191 16.614 132.093 16.929C131.995 17.237 131.901 17.5065 131.81 17.7375L129.972 22.767H134.802ZM139.79 28.5H137.606C137.361 28.5 137.161 28.4405 137.007 28.3215C136.853 28.1955 136.738 28.0415 136.661 27.8595L135.527 24.762H129.237L128.103 27.8595C128.047 28.0205 127.939 28.1675 127.778 28.3005C127.617 28.4335 127.417 28.5 127.179 28.5H124.974L130.949 13.317H133.826L139.79 28.5Z" fill="white" fill-opacity="0.87"/>
<defs>
<filter id="filter0_dd_1046_105539" x="-36" y="-12" width="112" height="112" filterUnits="userSpaceOnUse" color-interpolation-filters="sRGB">
<feFlood flood-opacity="0" result="BackgroundImageFix"/>
<feColorMatrix in="SourceAlpha" type="matrix" values="0 0 0 0 0 0 0 0 0 0 0 0 0 0 0 0 0 0 127 0" result="hardAlpha"/>
<feOffset dy="24"/>
<feGaussianBlur stdDeviation="18"/>
<feColorMatrix type="matrix" values="0 0 0 0 0 0 0 0 0 0 0 0 0 0 0 0 0 0 0.04 0"/>
<feBlend mode="normal" in2="BackgroundImageFix" result="effect1_dropShadow_1046_105539"/>
<feColorMatrix in="SourceAlpha" type="matrix" values="0 0 0 0 0 0 0 0 0 0 0 0 0 0 0 0 0 0 127 0" result="hardAlpha"/>
<feOffset dy="3"/>
<feGaussianBlur stdDeviation="2"/>
<feColorMatrix type="matrix" values="0 0 0 0 0 0 0 0 0 0 0 0 0 0 0 0 0 0 0.1 0"/>
<feBlend mode="normal" in2="effect1_dropShadow_1046_105539" result="effect2_dropShadow_1046_105539"/>
<feBlend mode="normal" in="SourceGraphic" in2="effect2_dropShadow_1046_105539" result="shape"/>
</filter>
</defs>
</svg>
